<?xml version="1.0" encoding="UTF-8" standalone="no"?>
<!DOCTYPE svg PUBLIC "-//W3C//DTD SVG 1.1//EN" "http://www.w3.org/Graphics/SVG/1.1/DTD/svg11.dtd">
<svg xmlns="http://www.w3.org/2000/svg" xmlns:xlink="http://www.w3.org/1999/xlink" version="1.1" width="960pt" height="960pt" viewBox="0 0 960 960">
<g enable-background="new">
<g id="Layer-1" data-name="Layer 1">
<clipPath id="cp0">
<path transform="matrix(1,0,0,-1,0,960)" d="M 0 960 L 960 960 L 960 0 L 0 0 Z "/>
</clipPath>
<g clip-path="url(#cp0)">
<path transform="matrix(1,0,0,-1,759.4785,674.58108)" d="M 0 0 L 0 -84.897 L -558.957 -84.897 L -558.957 -4.162 C -561.552 -4.224 -564.147 -4.272 -566.743 -4.296 L -566.743 -92.684 L 7.786 -92.684 L 7.786 0 Z " fill="#3d7eb8"/>
<path transform="matrix(1,0,0,-1,200.522,200.52198)" d="M 0 0 L 558.957 0 L 558.957 -73.051 L 566.743 -73.051 L 566.743 7.787 L -7.787 7.787 L -7.787 -67.211 L 0 -67.211 Z " fill="#3d7eb8"/>
<path transform="matrix(1,0,0,-1,297.208,489.7607)" d="M 0 0 C -.029 -.656 -.076 -1.24 -.076 -1.823 C -.081 -19.627 -.087 -37.426 -.061 -55.231 C -.06 -56.545 .093 -57.879 .344 -59.169 C 1.146 -63.286 3.614 -65.591 7.791 -66.155 C 14.051 -67.004 20.283 -66.762 26.402 -65.189 C 37.697 -62.287 45.114 -55.372 47.862 -43.861 C 48.998 -39.098 49.123 -34.242 48.486 -29.389 C 46.903 -17.361 41.173 -8.097 30.207 -2.467 C 23.223 1.118 15.705 2.24 7.936 1.709 C 5.246 1.522 2.54 1.169 0 0 M -16.329 -68.609 C -15.674 -68.368 -15.024 -68.112 -14.362 -67.89 C -11.494 -66.935 -9.807 -65.021 -9.56 -61.952 C -9.477 -60.927 -9.397 -59.896 -9.397 -58.867 C -9.387 -39.964 -9.391 -21.056 -9.391 -2.148 C -9.391 -1.708 -9.375 -1.267 -9.405 -.828 C -9.586 1.672 -10.612 2.919 -13.024 3.526 C -13.951 3.759 -14.902 3.901 -15.827 4.137 C -16.512 4.312 -17.278 4.465 -17.343 5.759 C -16.384 5.759 -15.462 5.831 -14.551 5.749 C -4.851 4.859 4.838 5.284 14.541 5.766 C 18.559 5.965 22.696 6.044 26.625 5.33 C 38.245 3.231 47.484 -2.746 53.876 -12.82 C 56.495 -16.953 57.723 -21.48 57.818 -26.406 C 57.901 -30.672 58.067 -34.915 57.434 -39.164 C 55.123 -54.646 45.874 -64.897 30.743 -68.815 C 24.409 -70.457 17.972 -70.875 11.484 -70.6 C 5.608 -70.352 -.255 -69.854 -6.131 -69.528 C -9.063 -69.363 -12.007 -69.333 -14.944 -69.236 C -15.363 -69.223 -15.777 -69.177 -16.195 -69.141 C -16.238 -68.969 -16.285 -68.785 -16.329 -68.609 " fill="#231f20" fill-rule="evenodd"/>
<path transform="matrix(1,0,0,-1,632.0508,488.2441)" d="M 0 0 L 0 -34.346 C 4.375 -35.124 8.675 -35.37 12.983 -34.767 C 17.601 -34.116 20.485 -31.34 21.886 -26.958 C 23.167 -22.951 23.243 -18.861 22.562 -14.758 C 21.973 -11.156 20.642 -7.832 18.423 -4.903 C 14.031 .893 6.83 2.842 0 0 M -17.435 4.146 C -16.97 4.206 -16.505 4.325 -16.048 4.309 C -13.474 4.223 -10.906 4.036 -8.333 4.013 C -4.584 3.977 -.829 3.917 2.912 4.11 C 8.442 4.395 13.941 4.617 19.336 3.012 C 21.754 2.291 24.021 1.257 26.042 -.259 C 30.105 -3.324 32.248 -7.403 32.554 -12.496 C 32.846 -17.368 31.472 -21.796 29.21 -26.023 C 27.389 -29.426 24.978 -32.381 22.324 -35.161 C 21.823 -35.688 21.326 -36.219 20.748 -36.83 C 21.81 -38.232 22.828 -39.563 23.826 -40.902 C 27.257 -45.507 30.659 -50.128 34.112 -54.712 C 36.82 -58.308 39.814 -61.651 43.324 -64.494 C 46.438 -67.012 49.782 -69.147 53.869 -69.715 C 55.063 -69.885 56.277 -69.885 57.982 -69.987 C 57.27 -70.567 57 -70.899 56.655 -71.038 C 49.889 -73.828 43.348 -73.762 37.142 -69.453 C 33.897 -67.204 31.157 -64.451 28.828 -61.293 C 26.118 -57.621 23.564 -53.84 20.802 -50.211 C 19.066 -47.936 17.129 -45.806 15.186 -43.706 C 13.425 -41.795 11.194 -40.83 8.568 -40.558 C 5.712 -40.263 2.886 -40.346 -.02 -40.358 C -.1 -40.952 -.187 -41.308 -.187 -41.659 C -.191 -47.988 -.275 -54.317 -.146 -60.646 C -.065 -64.636 1.852 -67.655 5.5 -69.44 C 6.216 -69.791 7.025 -69.95 7.788 -70.216 C 8.094 -70.322 8.379 -70.471 8.675 -70.601 C 8.647 -70.743 8.625 -70.893 8.599 -71.036 C 4.418 -70.839 .232 -70.468 -3.947 -70.498 C -8.084 -70.527 -12.221 -70.969 -16.485 -70.873 C -16.128 -70.584 -15.789 -70.26 -15.397 -70.017 C -11.457 -67.569 -9.443 -64.096 -9.454 -59.396 C -9.49 -41.732 -9.51 -24.068 -9.44 -6.401 C -9.424 -1.818 -11.739 1.015 -15.604 2.915 C -16.224 3.224 -16.871 3.473 -17.501 3.748 C -17.48 3.881 -17.454 4.013 -17.435 4.146 " fill="#231f20" fill-rule="evenodd"/>
<path transform="matrix(1,0,0,-1,377.3369,522.5498)" d="M 0 0 C 3.729 -.836 7.389 -.855 11.047 -.684 C 17.089 -.408 20.722 2.564 22.213 8.429 C 23.675 14.175 23.205 19.8 20.866 25.243 C 19.38 28.7 17.138 31.586 13.882 33.546 C 9.389 36.252 4.72 35.94 0 34.448 Z M -.104 -6.113 C -.161 -6.79 -.229 -7.221 -.229 -7.652 C -.236 -13.617 -.238 -19.577 -.229 -25.538 C -.225 -27.638 .227 -29.632 1.354 -31.429 C 2.654 -33.498 4.435 -34.962 6.822 -35.632 C 7.444 -35.801 8.064 -35.989 8.704 -36.567 C 8.293 -36.65 7.878 -36.819 7.475 -36.793 C 5.271 -36.663 3.07 -36.501 .869 -36.328 C -3.846 -35.963 -8.54 -36.245 -13.228 -36.776 C -14.275 -36.899 -15.332 -36.938 -16.386 -37.015 C -16.428 -36.862 -16.469 -36.706 -16.513 -36.544 C -16.075 -36.229 -15.648 -35.897 -15.194 -35.602 C -11.484 -33.17 -9.474 -29.87 -9.487 -25.309 C -9.537 -7.569 -9.566 10.174 -9.467 27.906 C -9.442 32.538 -11.767 35.307 -15.605 37.228 C -16.209 37.529 -16.857 37.745 -17.418 38.272 C -14.833 38.714 -12.313 38.535 -9.79 38.498 C -5.311 38.436 -.826 38.368 3.65 38.498 C 8.883 38.65 14.107 38.916 19.192 37.337 C 20.592 36.898 21.994 36.401 23.291 35.726 C 29.752 32.378 32.806 27.008 32.58 19.747 C 32.409 14.33 30.341 9.573 27.312 5.221 C 25.807 3.059 23.969 1.125 22.268 -.902 C 21.805 -1.453 21.291 -1.963 20.599 -2.709 C 26.792 -10.591 32.853 -18.442 39.082 -26.161 C 41.304 -28.914 44.14 -31.08 47.199 -32.912 C 50.035 -34.606 53.042 -35.671 56.398 -35.538 C 56.686 -35.525 56.977 -35.592 57.266 -35.638 C 57.321 -35.645 57.365 -35.721 57.566 -35.89 C 57.296 -36.169 57.08 -36.557 56.76 -36.689 C 50.345 -39.344 44.062 -39.545 37.98 -35.679 C 34.514 -33.476 31.633 -30.655 29.174 -27.412 C 27.084 -24.658 25.18 -21.763 23.099 -19.003 C 20.974 -16.187 18.778 -13.417 16.527 -10.701 C 14.162 -7.852 11.167 -6.133 7.362 -6.113 C 4.946 -6.106 2.529 -6.113 -.104 -6.113 " fill="#231f20" fill-rule="evenodd"/>
<path transform="matrix(1,0,0,-1,463.6069,557.1338)" d="M 0 0 C 2.395 .329 4.852 .425 7.177 1.021 C 16.741 3.474 23.031 9.64 26.52 18.735 C 28.995 25.174 29.598 31.868 28.703 38.694 C 27.721 46.184 25.319 53.156 20.655 59.174 C 15.094 66.349 7.936 70.548 -1.378 70.707 C -14.486 70.93 -24.876 63.771 -29.171 51.385 C -31.383 45.003 -31.852 38.455 -30.868 31.804 C -29.722 24.022 -27.051 16.848 -21.882 10.805 C -16.164 4.113 -9.077 .1 0 0 M -40.69 33.423 C -40.596 40.058 -40 45.825 -38.239 51.415 C -35.849 59.001 -31.121 64.689 -24.15 68.508 C -18.282 71.723 -11.958 73.726 -5.417 74.793 C -1.041 75.507 3.387 74.615 7.665 73.421 C 24.098 68.833 35.642 54.839 37.706 37.879 C 40.15 17.773 26.533 .902 7.328 -3.188 C -1.642 -5.098 -10.045 -3.708 -18.015 .737 C -24.596 4.416 -30.208 9.206 -34.662 15.299 C -38.771 20.921 -41.264 27.095 -40.69 33.423 " fill="#231f20" fill-rule="evenodd"/>
<path transform="matrix(1,0,0,-1,694.5342,484.1943)" d="M 0 0 C 14.074 .188 28.175 -.862 42.405 .689 C 41.932 -3.814 41.089 -8.21 39.835 -12.516 L 39.304 -12.516 C 39.172 -11.919 39.022 -11.321 38.92 -10.714 C 38.382 -7.662 36.71 -5.616 33.645 -4.886 C 32.292 -4.564 30.905 -4.239 29.525 -4.202 C 25.85 -4.101 22.168 -4.152 18.486 -4.156 C 18.204 -4.159 17.926 -4.246 17.515 -4.315 L 17.515 -32.692 C 18.168 -32.746 18.799 -32.843 19.428 -32.845 C 23.479 -32.859 27.528 -32.803 31.575 -32.875 C 33.32 -32.909 34.905 -32.543 36.468 -31.808 C 37.845 -31.164 39.28 -30.65 40.737 -30.062 C 41.056 -31.854 39.692 -42.797 38.886 -45.212 C 38.502 -44.804 38.083 -44.522 37.891 -44.13 C 37.565 -43.478 37.313 -42.773 37.157 -42.06 C 36.581 -39.42 34.938 -38.097 32.292 -37.692 C 27.466 -36.962 22.639 -37.237 17.653 -37.244 C 17.604 -38.126 17.524 -38.836 17.524 -39.546 C 17.515 -47.497 17.571 -55.448 17.479 -63.396 C 17.458 -65.203 18.071 -66.567 19.354 -67.648 C 24.298 -71.808 29.904 -73.032 36.054 -70.985 C 39.443 -69.86 41.778 -67.469 43.085 -64.115 C 43.305 -63.552 43.577 -63.007 43.855 -62.391 C 44.094 -62.604 44.18 -62.653 44.177 -62.686 C 43.626 -66.537 43.103 -70.388 42.462 -74.223 C 42.396 -74.624 41.706 -75.102 41.225 -75.214 C 40.306 -75.424 39.33 -75.463 38.376 -75.457 C 28.371 -75.4 18.36 -75.313 8.353 -75.255 C 6.585 -75.24 4.82 -75.311 3.056 -75.32 C 2.598 -75.32 2.136 -75.237 1.639 -74.836 C 2.004 -74.697 2.359 -74.498 2.736 -74.436 C 5.364 -73.987 6.973 -72.362 7.566 -69.88 C 7.99 -68.109 8.21 -66.248 8.21 -64.427 C 8.257 -45.587 8.239 -26.739 8.239 -7.897 C 8.239 -7.606 8.239 -7.312 8.223 -7.016 C 8.051 -4.263 7.198 -3.198 4.578 -2.48 C 3.799 -2.266 2.976 -2.159 2.236 -1.854 C 1.38 -1.51 .594 -1.005 -.223 -.567 C -.149 -.382 -.076 -.192 0 0 " fill="#231f20" fill-rule="evenodd"/>
<path transform="matrix(1,0,0,-1,198.4331,524.4971)" d="M 0 0 C .463 .054 .924 .13 1.391 .166 C 3.222 .306 5.097 .233 6.875 .607 C 12.772 1.855 16.746 5.434 18.504 11.189 C 20.664 18.247 19.55 24.908 15.213 30.886 C 10.95 36.764 3.727 38.959 -3.803 35.251 L -3.803 33.178 C -3.803 14.19 -3.805 -4.799 -3.796 -23.783 C -3.796 -24.961 -3.813 -26.147 -3.677 -27.315 C -3.201 -31.416 -1.142 -33.488 2.942 -34.065 C 3.596 -34.161 4.251 -34.245 4.899 -34.358 C 5.022 -34.381 5.123 -34.533 5.234 -34.62 C 5.244 -34.684 5.281 -34.749 5.262 -34.792 C 5.237 -34.858 5.181 -34.932 5.12 -34.958 C 4.917 -35.031 4.705 -35.137 4.5 -35.137 C -3.301 -35.11 -11.099 -35.081 -18.899 -35.037 C -19.242 -35.034 -19.583 -34.922 -20.369 -34.783 C -19.688 -34.404 -19.383 -34.172 -19.038 -34.056 C -18.412 -33.851 -17.754 -33.734 -17.121 -33.541 C -14.851 -32.855 -13.482 -31.369 -13.271 -28.968 C -13.147 -27.578 -13.084 -26.178 -13.084 -24.785 C -13.071 -6.309 -13.137 12.161 -13.026 30.634 C -13.003 34.69 -14.955 37.089 -18.303 38.75 C -19.186 39.188 -20.117 39.526 -20.972 40.286 C -20.586 40.342 -20.199 40.448 -19.814 40.445 C -10.618 40.336 -1.42 40.27 7.773 40.061 C 10.48 40.001 13.223 39.735 15.869 39.186 C 22.059 37.904 25.853 34 27.014 27.811 C 28.604 19.312 26.519 11.703 20.666 5.32 C 15.504 -.314 9.081 -2.527 1.493 -.929 C .963 -.818 .464 -.566 -.05 -.381 C -.032 -.252 -.017 -.126 0 0 " fill="#231f20" fill-rule="evenodd"/>
<path transform="matrix(1,0,0,-1,531.0859,484.1211)" d="M 0 0 C .346 .03 .69 .089 1.035 .083 C 10.081 -.034 19.127 -.11 28.172 -.31 C 30.883 -.372 33.615 -.591 36.275 -1.092 C 42.96 -2.353 46.913 -6.216 48.012 -12.87 C 49.607 -22.523 46.827 -30.796 39.321 -37.224 C 34.418 -41.428 28.673 -42.647 22.381 -41.291 C 21.88 -41.182 21.419 -40.91 20.937 -40.714 C 20.971 -40.548 21.004 -40.383 21.037 -40.216 C 21.654 -40.216 22.274 -40.246 22.888 -40.203 C 24.5 -40.101 26.148 -40.137 27.715 -39.805 C 33.688 -38.538 37.748 -34.976 39.486 -29.104 C 41.517 -22.225 40.551 -15.681 36.395 -9.778 C 32.146 -3.748 25.031 -1.413 17.202 -5.059 L 17.202 -7.311 C 17.202 -26.437 17.202 -45.563 17.21 -64.689 C 17.21 -65.647 17.226 -66.607 17.31 -67.56 C 17.667 -71.639 19.724 -73.812 23.777 -74.425 C 24.543 -74.544 25.31 -74.647 25.963 -74.743 C 26.052 -75.062 26.1 -75.142 26.086 -75.205 C 26.065 -75.261 25.979 -75.341 25.923 -75.341 C 18.802 -75.404 11.68 -75.474 4.558 -75.51 C 3.413 -75.517 2.266 -75.384 1.028 -74.949 C 1.344 -74.771 1.639 -74.535 1.977 -74.425 C 2.601 -74.216 3.261 -74.107 3.891 -73.904 C 6.243 -73.158 7.596 -71.605 7.702 -69.082 C 7.785 -67.171 7.918 -65.264 7.921 -63.354 C 7.938 -45.695 7.828 -28.039 7.994 -10.383 C 8.041 -5.215 5.45 -2.729 1.632 -1.175 C 1.045 -.936 .458 -.7 -.132 -.464 C -.09 -.31 -.047 -.153 0 0 " fill="#231f20" fill-rule="evenodd"/>
<path transform="matrix(1,0,0,-1,275.0391,546.7676)" d="M 0 0 C -.614 -4.003 -1.229 -8.007 -1.856 -12.097 C -2.996 -12.93 -4.322 -12.896 -5.632 -12.887 C -11.885 -12.834 -18.138 -12.744 -24.389 -12.717 C -30.053 -12.697 -35.72 -12.747 -41.384 -12.758 C -41.8 -12.758 -42.216 -12.701 -42.719 -12.379 C -42.389 -12.21 -42.074 -11.94 -41.726 -11.889 C -38.881 -11.467 -37.291 -9.692 -36.657 -7.042 C -36.319 -5.626 -36.156 -4.137 -36.153 -2.68 C -36.122 16.599 -36.126 35.871 -36.138 55.149 C -36.138 58.384 -36.986 59.396 -40.193 60.194 C -43.022 60.901 -43.061 60.918 -44.736 62.557 C -37.332 62.775 -30.238 62.352 -23.15 62.424 C -16.118 62.5 -9.079 62.271 -1.893 63.396 C -2.377 58.755 -3.233 54.377 -4.455 50.078 C -4.636 50.078 -4.817 50.081 -4.999 50.081 C -5.128 50.679 -5.268 51.272 -5.38 51.873 C -5.961 55.011 -7.735 57.024 -10.879 57.773 C -11.091 57.827 -11.3 57.909 -11.516 57.946 C -16.541 58.888 -21.594 58.231 -26.767 58.453 L -26.767 29.874 C -26.081 29.82 -25.445 29.729 -24.81 29.729 C -20.838 29.714 -16.862 29.777 -12.892 29.694 C -11.072 29.655 -9.417 30.023 -7.787 30.793 C -6.42 31.436 -4.986 31.94 -3.112 32.696 C -3.826 27.287 -4.473 22.397 -5.118 17.504 C -5.301 17.461 -5.481 17.422 -5.663 17.378 C -6.016 17.955 -6.434 18.503 -6.709 19.117 C -7.008 19.783 -7.203 20.5 -7.391 21.206 C -7.918 23.206 -9.233 24.341 -11.222 24.702 C -12.451 24.924 -13.691 25.193 -14.931 25.229 C -18.533 25.336 -22.139 25.336 -25.744 25.359 C -26.02 25.366 -26.294 25.249 -26.704 25.171 C -26.739 24.407 -26.794 23.69 -26.795 22.968 C -26.802 15.02 -26.756 7.079 -26.835 -.869 C -26.854 -2.577 -26.24 -3.812 -25.094 -4.952 C -20.83 -9.182 -12.839 -10.624 -7.41 -8.097 C -4.551 -6.77 -2.49 -4.67 -1.3 -1.731 C -1.044 -1.098 -.76 -.475 -.489 .149 C -.325 .103 -.163 .05 0 0 " fill="#231f20" fill-rule="evenodd"/>
<path transform="matrix(1,0,0,-1,780.5156,483.6836)" d="M 0 0 C -.05 -4.853 -1.121 -12.552 -2.143 -14.654 C -2.461 -13.64 -2.677 -12.909 -2.919 -12.187 C -4.18 -8.416 -6.299 -5.34 -9.968 -3.54 C -14.339 -1.39 -20.26 -2.435 -23.876 -5.983 C -27.282 -9.32 -28.291 -14.827 -26.285 -19.272 C -25.023 -22.055 -23.222 -24.489 -20.997 -26.55 C -18.024 -29.293 -14.9 -31.87 -11.871 -34.554 C -9.56 -36.601 -7.138 -38.558 -5.041 -40.81 C -3.204 -42.787 -1.492 -44.973 -.172 -47.314 C 3.6 -53.992 2.859 -61.163 -2.029 -67.058 C -6.704 -72.687 -12.863 -75.738 -19.952 -77.075 C -22.795 -77.613 -25.661 -77.719 -28.5 -77.082 C -29.642 -76.826 -30.802 -76.527 -31.863 -76.054 C -35.768 -74.322 -37.516 -71.503 -37.015 -67.273 C -36.676 -64.438 -35.917 -61.654 -35.32 -58.852 C -35.287 -58.691 -35.021 -58.576 -34.637 -58.251 C -34.53 -58.974 -34.371 -59.518 -34.384 -60.055 C -34.524 -65.728 -31.187 -71.211 -23.325 -72.527 C -18.456 -73.337 -13.952 -72.212 -10.023 -69.146 C -5.609 -65.701 -4.412 -60.881 -6.647 -55.76 C -7.961 -52.758 -9.835 -50.104 -12.101 -47.778 C -16.107 -43.676 -20.301 -39.748 -24.301 -35.635 C -26.907 -32.952 -29.445 -30.168 -31.751 -27.224 C -33.137 -25.455 -34.265 -23.386 -35.067 -21.282 C -37.101 -15.944 -36.285 -11.022 -32.282 -6.783 C -28.937 -3.24 -24.752 -1.161 -20.128 .05 C -14.362 1.566 -8.519 1.885 -2.644 .644 C -1.791 .465 -.948 .232 0 0 " fill="#231f20" fill-rule="evenodd"/>
<path transform="matrix(1,0,0,-1,584.623,558.9971)" d="M 0 0 C .418 .255 .823 .543 1.264 .76 C 5.025 2.59 6.777 5.692 6.934 9.771 C 6.999 11.387 6.946 13.01 6.946 14.628 C 6.95 31.555 6.95 48.482 6.946 65.405 C 6.946 65.993 6.939 66.583 6.946 67.17 C 6.999 69.946 5.709 71.795 3.099 72.699 C 1.932 73.104 .736 73.43 -.44 74.156 C -.014 74.209 .425 74.339 .843 74.313 C 7.235 73.838 13.627 73.568 20.022 74.206 C 21.07 74.313 22.111 74.391 23.16 74.481 C 23.2 74.328 23.243 74.176 23.282 74.026 C 22.803 73.814 22.328 73.575 21.833 73.396 C 20.937 73.068 19.999 72.849 19.134 72.461 C 17.369 71.668 16.426 70.258 16.32 68.314 C 16.28 67.658 16.28 66.994 16.28 66.331 C 16.28 47.935 16.271 29.534 16.301 11.139 C 16.301 9.606 16.446 8.05 16.712 6.541 C 17.236 3.552 19.156 1.771 22.007 .941 C 23.034 .643 24.086 .428 25.104 .179 C 25.07 -.063 25.07 -.14 25.051 -.203 C 25.031 -.262 24.984 -.358 24.947 -.358 C 16.931 -.435 8.92 -.511 .903 -.581 C .637 -.581 .379 -.481 .112 -.432 C .073 -.285 .04 -.146 0 0 " fill="#231f20" fill-rule="evenodd"/>
<path transform="matrix(1,0,0,-1,339.5308,414.3604)" d="M 0 0 C 11.667 -11.898 22.973 -24.145 34.346 -36.873 C 34.455 -36.033 34.576 -35.572 34.57 -35.111 C 34.461 -25.479 34.356 -15.842 34.207 -6.209 C 34.161 -3.237 33.509 -2.538 30.626 -1.887 C 30.071 -1.761 29.532 -1.559 29.023 -.965 C 31.121 -1.082 33.219 -1.296 35.315 -1.294 C 37.507 -1.29 39.695 -1.075 41.888 -.952 C 41.929 -1.098 41.969 -1.247 42.013 -1.396 C 41.623 -1.602 41.251 -1.864 40.838 -2.013 C 38.439 -2.892 38.282 -3.078 38.289 -5.705 C 38.307 -12.253 38.453 -18.797 38.351 -25.345 C 38.246 -31.959 37.904 -38.574 37.659 -45.185 C 37.642 -45.609 37.534 -46.031 37.423 -46.754 C 36.745 -46.253 36.196 -45.935 35.753 -45.507 C 30.86 -40.73 25.82 -36.09 21.138 -31.11 C 15.396 -25.007 9.955 -18.615 4.38 -12.349 C 3.902 -11.815 3.395 -11.305 2.839 -10.717 C 2.06 -11.45 2.242 -12.3 2.236 -13.042 C 2.213 -15.912 2.213 -18.781 2.3 -21.65 C 2.489 -27.896 2.745 -34.143 2.954 -40.389 C 3.059 -43.487 3.821 -44.2 6.335 -44.661 C 7.573 -44.886 7.558 -44.976 8.636 -46.157 C 3.757 -45.676 -.904 -45.138 -5.686 -46.213 C -5.452 -45.049 -4.641 -44.708 -3.969 -44.415 C -1.637 -43.414 -1.05 -41.576 -1.093 -39.241 C -1.202 -33.36 -1.304 -27.475 -1.272 -21.591 C -1.236 -15.195 -1.06 -8.8 -.914 -2.401 C -.897 -1.628 -.688 -.859 -.567 -.086 C -.378 -.056 -.189 -.027 0 0 " fill="#231f20" fill-rule="evenodd"/>
<path transform="matrix(1,0,0,-1,132.5659,571.7744)" d="M 0 0 L 694.791 0 C 694.817 -.106 694.843 -.212 694.873 -.318 C 694.535 -.458 694.213 -.687 693.865 -.72 C 693.211 -.786 692.544 -.747 691.88 -.747 L 2.926 -.747 C 1.951 -.747 .974 -.687 -.005 -.654 C -.003 -.435 -.001 -.219 0 0 " fill="#231f20" fill-rule="evenodd"/>
<path transform="matrix(1,0,0,-1,639.0498,439.2251)" d="M 0 0 C -.046 5.901 -1.562 11.344 -5.254 16.032 C -9.57 21.511 -15.305 23.582 -22.088 22.334 C -28.586 21.133 -32.799 17.09 -34.936 10.907 C -36.279 7.013 -36.534 2.999 -35.851 -1.064 C -34.941 -6.418 -32.845 -11.158 -28.879 -15.006 C -21.069 -22.589 -7.175 -20.857 -2.146 -10.054 C -.66 -6.859 .036 -3.516 0 0 M -41.99 1.629 C -41.56 4.382 -41.294 7.179 -40.664 9.885 C -39.49 14.943 -36.581 18.824 -31.977 21.282 C -27.93 23.445 -23.645 25.117 -18.994 25.12 C -7.692 25.134 2.259 17.037 4.724 5.994 C 8.701 -11.828 -5.818 -23.08 -19.584 -22.135 C -20.314 -22.085 -21.05 -21.959 -21.757 -21.773 C -30.043 -19.614 -36.196 -14.708 -40.229 -7.191 C -41.695 -4.458 -41.984 -2.089 -41.99 1.629 " fill="#231f20" fill-rule="evenodd"/>
<path transform="matrix(1,0,0,-1,177.3633,472.9326)" d="M 0 0 L 603.77 0 C 603.803 -.097 603.833 -.189 603.862 -.279 C 603.551 -.425 603.245 -.66 602.921 -.704 C 602.337 -.773 601.743 -.73 601.155 -.73 C 401.681 -.73 202.209 -.73 2.738 -.727 C 1.828 -.727 .915 -.7 .004 -.687 Z " fill="#231f20" fill-rule="evenodd"/>
<path transform="matrix(1,0,0,-1,540.8779,415.4214)" d="M 0 0 L 12.956 0 C 12.996 -.116 13.033 -.235 13.069 -.352 C 12.804 -.511 12.546 -.69 12.267 -.83 C 10.22 -1.868 9.295 -3.54 9.301 -5.822 C 9.328 -12.814 9.381 -19.807 9.268 -26.792 C 9.235 -29.048 8.996 -31.373 8.386 -33.533 C 5.731 -42.977 -3.453 -48.005 -12.873 -45.318 C -17.036 -44.124 -20.479 -41.832 -23.113 -38.389 C -24.798 -36.2 -26.072 -33.808 -26.125 -30.955 C -26.241 -24.779 -26.357 -18.603 -26.437 -12.423 C -26.47 -10.217 -26.474 -8.007 -26.37 -5.802 C -26.255 -3.337 -27.263 -1.712 -29.611 -.919 C -30.06 -.767 -30.491 -.571 -30.842 -.086 L -16.519 -.086 C -16.957 -.578 -17.156 -.929 -17.454 -1.118 C -19.727 -2.584 -20.825 -4.438 -20.754 -7.341 C -20.579 -14.917 -20.784 -22.5 -20.771 -30.073 C -20.769 -31.529 -20.582 -33.012 -20.261 -34.435 C -19.809 -36.405 -18.698 -38.047 -17.289 -39.51 C -11.932 -45.063 1.546 -44.814 4.574 -34.047 C 5.022 -32.444 5.089 -30.7 5.089 -29.025 C 5.085 -21.295 4.992 -13.574 4.933 -5.849 C 4.906 -2.501 4.159 -1.506 .902 -.451 C .723 -.395 .564 -.282 0 0 " fill="#231f20" fill-rule="evenodd"/>
<path transform="matrix(1,0,0,-1,485.2705,418.3604)" d="M 0 0 C -3.503 0 -6.74 .02 -9.974 -.01 C -11.629 -.024 -12.928 -.833 -13.959 -2.073 C -14.518 -2.747 -15.007 -3.483 -15.767 -4.521 C -16.48 -1.357 -15.083 1.101 -14.404 3.861 C -9.481 2.026 -4.471 2.989 .468 2.849 C 5.692 2.704 10.92 2.783 16.145 2.839 C 17.879 2.853 19.613 3.108 21.555 3.277 C 21.555 .517 21.847 -2.143 20.825 -4.76 C 20.619 -4.651 20.52 -4.631 20.507 -4.582 C 19.472 -.996 16.771 .073 13.408 .106 C 10.986 .129 8.568 .113 5.918 .113 C 5.864 -.744 5.782 -1.443 5.782 -2.143 C 5.771 -12.963 5.809 -23.78 5.756 -34.601 C 5.738 -38.044 7.126 -40.382 10.426 -41.507 C 10.608 -41.566 10.758 -41.732 11.06 -41.948 L -3.589 -41.948 C -3.615 -41.861 -3.642 -41.775 -3.669 -41.689 C -3.237 -41.517 -2.822 -41.301 -2.381 -41.171 C -.646 -40.674 .153 -39.516 .107 -37.738 C .097 -37.371 .133 -37.002 .133 -36.634 C .133 -25.077 .133 -13.521 .127 -1.967 C .127 -1.393 .054 -.826 0 0 " fill="#231f20" fill-rule="evenodd"/>
<path transform="matrix(1,0,0,-1,572.9971,418.41023)" d="M 0 0 C -3.546 0 -6.989 .046 -10.432 -.02 C -11.925 -.047 -13.036 -.956 -13.958 -2.057 C -14.521 -2.72 -15.007 -3.453 -15.627 -4.295 C -16.602 -2.793 -15.829 -1.417 -15.56 -.09 C -15.282 1.26 -14.764 2.557 -14.28 4.116 C -11.828 2.587 -9.237 2.876 -6.687 2.873 C .448 2.859 7.586 2.839 14.725 2.882 C 16.907 2.896 19.09 3.111 21.272 3.237 C 21.816 .925 21.598 -2.73 20.795 -4.677 C 20.682 -4.601 20.489 -4.545 20.459 -4.445 C 19.594 -1.383 17.418 -.026 14.405 .069 C 11.634 .163 8.854 .089 5.825 .089 L 5.825 -2.448 C 5.825 -12.671 5.935 -22.901 5.769 -33.125 C 5.709 -37.208 6.582 -40.399 10.823 -41.892 L -3.513 -41.892 C -3.556 -41.815 -3.596 -41.739 -3.639 -41.663 C -3.175 -41.467 -2.727 -41.248 -2.256 -41.092 C -.66 -40.568 .149 -39.483 .153 -37.801 C .153 -37.656 .169 -37.506 .169 -37.357 C .176 -25.22 .18 -13.083 .176 -.942 C .176 -.73 .104 -.521 0 0 " fill="#231f20" fill-rule="evenodd"/>
<path transform="matrix(1,0,0,-1,412.6772,414.4165)" d="M 0 0 C 1.975 -1.191 4.177 -1.138 6.387 -1.135 C 13.231 -1.118 20.078 -1.151 26.923 -1.115 C 29.703 -1.098 32.48 -.952 35.563 -.856 C 35.635 -3.34 35.809 -6.004 34.952 -9.02 C 34.58 -8.319 34.332 -7.938 34.169 -7.517 C 33.406 -5.543 31.938 -4.326 29.893 -4.15 C 26.69 -3.878 23.466 -3.858 20.023 -3.715 C 19.975 -4.876 19.905 -5.729 19.905 -6.584 C 19.899 -16.96 19.99 -27.343 19.854 -37.715 C 19.806 -41.656 21.015 -44.465 24.931 -46.048 C 22.522 -45.932 20.116 -45.772 17.706 -45.712 C 15.33 -45.656 12.951 -45.703 10.265 -45.703 C 10.991 -45.414 11.483 -45.188 11.995 -45.016 C 13.42 -44.535 14.124 -43.513 14.23 -42.051 C 14.278 -41.391 14.291 -40.727 14.291 -40.067 C 14.295 -28.732 14.295 -17.398 14.295 -6.057 L 14.295 -4.176 C 13.604 -4.081 13.053 -3.941 12.5 -3.934 C 10.219 -3.904 7.931 -4.03 5.655 -3.891 C 2.776 -3.722 .67 -4.823 -.801 -7.258 C -.954 -7.506 -1.131 -7.739 -1.309 -7.968 C -1.349 -8.021 -1.437 -8.034 -1.505 -8.067 C -2.271 -6.521 -1.667 -3.205 0 0 " fill="#231f20" fill-rule="evenodd"/>
<path transform="matrix(1,0,0,-1,406.8667,414.87403)" d="M 0 0 C -.325 -2.926 -.628 -5.659 -.934 -8.396 C -1.078 -8.413 -1.22 -8.426 -1.364 -8.436 C -1.696 -7.659 -2.01 -6.876 -2.366 -6.107 C -4.158 -2.272 -7.868 -.621 -11.661 -1.961 C -15.706 -3.39 -17.574 -7.736 -15.806 -11.663 C -14.784 -13.929 -13.12 -15.693 -11.279 -17.302 C -9.169 -19.137 -6.945 -20.848 -4.931 -22.778 C -3.348 -24.295 -1.792 -25.917 -.602 -27.741 C 2.261 -32.126 1.828 -36.896 -1.701 -40.724 C -5.574 -44.927 -10.468 -46.781 -16.159 -46.459 C -17.094 -46.406 -18.047 -46.131 -18.927 -45.786 C -21.462 -44.794 -22.534 -43.192 -22.295 -40.501 C -22.141 -38.77 -21.673 -37.068 -21.013 -35.351 C -20.907 -35.739 -20.763 -36.13 -20.705 -36.528 C -20.006 -41.152 -17.157 -43.686 -12.467 -43.703 C -10.211 -43.706 -8.111 -43.039 -6.289 -41.656 C -3.454 -39.506 -2.592 -36.415 -4.257 -33.267 C -5.242 -31.403 -6.546 -29.658 -7.965 -28.096 C -9.987 -25.867 -12.297 -23.9 -14.389 -21.73 C -16.122 -19.933 -17.854 -18.108 -19.325 -16.098 C -20.3 -14.768 -21.005 -13.156 -21.494 -11.563 C -22.28 -9 -21.592 -6.625 -19.87 -4.568 C -19.449 -4.063 -18.992 -3.566 -18.467 -3.172 C -12.951 1.038 -6.793 1.446 0 0 " fill="#231f20" fill-rule="evenodd"/>
<path transform="matrix(1,0,0,-1,329.7422,415.6504)" d="M 0 0 C -.824 -.325 -1.254 -.528 -1.708 -.664 C -3.528 -1.201 -4.279 -2.461 -4.277 -4.299 C -4.267 -15.63 -4.315 -26.965 -4.246 -38.295 C -4.225 -41.759 -3.08 -43.566 .217 -44.124 C .373 -44.154 .502 -44.356 .896 -44.688 L -13.891 -44.688 C -13.65 -44.386 -13.562 -44.167 -13.406 -44.094 C -10.645 -42.771 -9.837 -40.455 -9.85 -37.563 C -9.9 -26.892 -9.867 -16.224 -9.87 -5.553 C -9.874 -1.917 -10.032 -1.695 -13.403 -.418 C -13.588 -.352 -13.751 -.222 -14.116 0 Z " fill="#231f20" fill-rule="evenodd"/>
<path transform="matrix(1,0,0,-1,450.9443,415.6504)" d="M 0 0 L 14.233 0 C 13.542 -.295 13.057 -.541 12.55 -.713 C 10.941 -1.254 10.198 -2.402 10.178 -4.047 C 10.155 -5.742 10.167 -7.434 10.167 -9.122 C 10.165 -18.251 10.165 -27.379 10.167 -36.501 C 10.167 -37.095 10.133 -37.686 10.177 -38.269 C 10.391 -41.211 10.739 -43.414 14.842 -44.164 C 14.96 -44.187 15.051 -44.346 15.373 -44.638 L .455 -44.638 C .828 -44.316 .995 -44.101 1.215 -43.988 C 3.773 -42.697 4.623 -40.508 4.611 -37.794 C 4.584 -31.615 4.602 -25.432 4.602 -19.252 C 4.602 -14.615 4.607 -9.978 4.601 -5.34 C 4.597 -2.067 4.271 -1.605 1.252 -.511 C .992 -.418 .741 -.305 0 0 " fill="#231f20" fill-rule="evenodd"/>
<path transform="matrix(1,0,0,-1,518.3809,597.7539)" d="M 0 0 C 1.195 0 2.203 -.05 3.198 .014 C 4.247 .087 4.917 .723 5.368 1.652 C 6.323 3.605 5.919 6.887 4.499 8.528 C 3.252 9.964 1.828 10.27 0 9.447 Z M .018 -2.037 C .018 -4.126 .024 -6.233 .015 -8.339 C .011 -9.763 1.368 -9.62 2.217 -10.137 C .718 -10.787 -2.526 -10.82 -5.24 -10.153 C -3.701 -9.696 -3.276 -8.807 -3.289 -7.547 C -3.333 -2.252 -3.303 3.042 -3.315 8.333 C -3.315 8.764 -3.419 9.198 -3.495 9.769 C -4.109 10.051 -4.742 10.339 -5.784 10.817 C -4.915 10.976 -4.458 11.139 -3.996 11.132 C -1.355 11.112 1.301 11.231 3.922 10.963 C 8.387 10.512 10.344 6.837 8.363 2.813 C 7.756 1.579 6.867 .481 5.998 -.846 C 8.911 -4.245 10.762 -8.83 16.006 -10.293 C 13.936 -11.443 12.049 -11.371 10.308 -10.21 C 9.229 -9.494 8.307 -8.499 7.457 -7.504 C 6.459 -6.333 5.646 -5.006 4.698 -3.792 C 3.252 -1.947 2.651 -1.734 .018 -2.037 " fill="#231f20" fill-rule="evenodd"/>
<path transform="matrix(1,0,0,-1,480.9253,588.2539)" d="M 0 0 L 0 -8.595 C 0 -11.026 -.04 -13.454 .021 -15.879 C .066 -17.767 .485 -18.201 2.283 -18.532 C 4.598 -18.96 6.827 -18.628 8.95 -17.654 C 11.016 -16.708 12.406 -15.093 12.95 -12.923 C 13.902 -9.148 13.491 -5.522 10.648 -2.644 C 7.782 .259 4.193 .905 0 0 M -4.783 -19.657 C -3.145 -18.171 -3.133 -18.171 -3.129 -15.972 C -3.121 -11.338 -3.177 -6.7 -3.1 -2.063 C -3.073 -.401 -3.179 1.012 -5.203 1.596 C -4.976 1.678 -4.753 1.827 -4.528 1.831 C -1.292 1.854 1.94 1.884 5.175 1.861 C 9.301 1.834 12.545 -.033 14.984 -3.228 C 15.743 -4.223 16.227 -5.597 16.367 -6.85 C 16.552 -8.505 16.493 -10.26 16.167 -11.896 C 15.294 -16.257 12.475 -18.891 8.177 -19.699 C 5.891 -20.128 3.503 -20.098 1.158 -20.098 C -.746 -20.092 -2.648 -19.826 -4.783 -19.657 " fill="#231f20" fill-rule="evenodd"/>
<path transform="matrix(1,0,0,-1,578.6992,608.6904)" d="M 0 0 C -6.037 5.028 -10.768 10.807 -16.271 16.158 C -16.297 15.263 -16.363 14.356 -16.34 13.461 C -16.267 10.595 -16.098 7.729 -16.095 4.859 C -16.091 3.049 -15.988 1.43 -13.573 1.068 C -14.943 .497 -17.143 .385 -20.115 .657 C -19.547 1.334 -18.771 1.911 -18.493 2.674 C -18.204 3.46 -18.39 4.419 -18.39 5.298 C -18.387 10.154 -18.396 15.01 -18.376 19.863 C -18.373 20.612 -18.221 21.362 -18.074 22.686 C -12.272 16.99 -7.228 11.401 -1.811 5.616 C -1.731 6.455 -1.639 6.917 -1.646 7.377 C -1.711 10.903 -1.867 14.437 -1.848 17.962 C -1.837 19.657 -2.057 21.017 -4.106 21.448 C -2.047 22.009 -.073 21.833 2.508 21.773 C -.026 20.391 .61 18.42 .567 16.639 C .458 11.716 .378 6.793 .272 1.871 C .259 1.393 .136 .919 0 0 " fill="#231f20" fill-rule="evenodd"/>
<path transform="matrix(1,0,0,-1,373.418,597.3496)" d="M 0 0 C 4.01 -1.25 6.002 .21 5.889 4.173 C 5.847 5.683 5.437 7.072 4.407 8.22 C 3.191 9.574 1.945 9.825 0 9.1 Z M 16.224 -10.611 C 13.734 -11.924 11.711 -11.716 9.875 -10.346 C 8.888 -9.609 8.059 -8.634 7.269 -7.679 C 6.334 -6.547 5.504 -5.323 4.652 -4.123 C 3.501 -2.507 2 -1.887 -.189 -2.483 C -.189 -3.974 -.211 -5.503 -.184 -7.028 C -.155 -8.704 .012 -10.309 2.47 -10.449 C .711 -11.241 -2.995 -11.225 -5.085 -10.499 C -3.982 -10.09 -3.301 -9.566 -3.317 -8.299 C -3.389 -2.703 -3.352 2.886 -3.365 8.481 C -3.365 8.768 -3.465 9.056 -3.524 9.381 C -4.162 9.683 -4.786 9.981 -5.412 10.276 C -1.729 10.695 1.932 11.305 5.501 10.229 C 8.589 9.295 9.949 6.193 8.652 3.119 C 8.005 1.586 6.972 .219 6.035 -1.356 C 8.996 -4.614 10.696 -9.351 16.224 -10.611 " fill="#231f20" fill-rule="evenodd"/>
<path transform="matrix(1,0,0,-1,428.6118,598.21096)" d="M 0 0 L 4.42 0 C 3.697 2.166 3.025 4.172 2.352 6.182 C 2.219 6.162 2.09 6.146 1.956 6.126 C 1.32 4.135 .685 2.145 0 0 M 13.391 -9.909 L 7.364 -9.909 C 8.001 -6.924 5.75 -4.731 5.27 -1.932 L -.731 -1.932 C -1.316 -3.738 -1.94 -5.601 -2.527 -7.472 C -2.841 -8.463 -2.728 -9.318 -1.619 -9.933 L -7.145 -9.933 C -5.348 -8.884 -4.803 -7.1 -4.173 -5.348 C -2.308 -.17 -.417 4.998 1.475 10.162 C 1.718 10.826 2.03 11.463 2.506 12.555 C 3.128 11.274 3.586 10.451 3.93 9.592 C 6 4.414 8.053 -.771 10.087 -5.958 C 10.738 -7.623 11.489 -9.159 13.391 -9.909 " fill="#231f20" fill-rule="evenodd"/>
<path transform="matrix(1,0,0,-1,357.0298,598.21487)" d="M 0 0 C -.729 2.163 -1.401 4.16 -2.075 6.156 C -2.204 6.136 -2.335 6.127 -2.468 6.109 C -3.109 4.13 -3.753 2.148 -4.45 0 Z M 8.9 -9.935 L 3.04 -9.935 C 2.983 -9.086 3.09 -8.253 2.853 -7.53 C 2.233 -5.659 1.463 -3.834 .718 -1.911 L -5.161 -1.911 C -5.733 -3.643 -6.306 -5.377 -6.88 -7.108 C -7.24 -8.21 -7.38 -9.237 -6.054 -9.948 L -11.598 -9.948 C -9.945 -8.927 -9.304 -7.345 -8.714 -5.709 C -6.823 -.468 -4.909 4.77 -2.997 10.008 C -2.753 10.678 -2.458 11.331 -1.98 12.495 C -1.393 11.374 -.95 10.681 -.648 9.935 C 1.541 4.487 3.704 -.969 5.872 -6.419 C 6.455 -7.889 7.108 -9.287 9.096 -9.41 C 9.029 -9.586 8.963 -9.762 8.9 -9.935 " fill="#231f20" fill-rule="evenodd"/>
<path transform="matrix(1,0,0,-1,615.0273,592.0654)" d="M 0 0 C -.132 .007 -.262 .017 -.392 .023 C -1.034 -1.963 -1.675 -3.951 -2.378 -6.13 L 2.077 -6.13 C 1.341 -3.957 .67 -1.98 0 0 M -9.569 -16.078 C -7.9 -15.126 -7.283 -13.576 -6.71 -11.998 C -4.78 -6.684 -2.849 -1.369 -.908 3.941 C -.663 4.601 -.354 5.238 .133 6.383 C .723 5.187 1.141 4.462 1.45 3.686 C 3.643 -1.764 5.824 -7.215 7.978 -12.685 C 8.541 -14.114 9.282 -15.311 11.136 -15.606 C 9.66 -16.263 6.899 -16.382 4.902 -15.979 C 5.46 -14.555 4.829 -12.336 2.613 -8.034 L -3.098 -8.034 C -3.735 -10.04 -4.425 -12.104 -5.032 -14.196 C -5.234 -14.887 -5.135 -14.913 -3.95 -16.078 Z " fill="#231f20" fill-rule="evenodd"/>
<path transform="matrix(1,0,0,-1,547.3369,598.19827)" d="M 0 0 C -.74 2.153 -1.417 4.129 -2.094 6.11 C -2.229 6.106 -2.365 6.1 -2.498 6.093 C -3.135 4.122 -3.769 2.153 -4.462 0 Z M .662 -1.891 L -5.179 -1.891 C -5.806 -3.857 -6.438 -5.865 -7.089 -7.868 C -7.414 -8.874 -6.923 -9.397 -5.726 -9.603 C -7.321 -10.164 -9.702 -10.18 -11.925 -9.703 C -10.075 -9.02 -9.431 -7.58 -8.874 -6.047 C -6.923 -.661 -4.956 4.72 -2.982 10.098 C -2.74 10.754 -2.429 11.381 -1.934 12.512 C -1.351 11.308 -.936 10.571 -.628 9.795 C 1.535 4.412 3.674 -.979 5.817 -6.368 C 6.401 -7.838 7.041 -9.241 8.992 -9.44 C 8.93 -9.583 8.869 -9.727 8.81 -9.865 L 3.081 -9.865 C 2.981 -9.043 3.015 -8.098 2.732 -7.255 C 2.132 -5.453 1.373 -3.705 .662 -1.891 " fill="#231f20" fill-rule="evenodd"/>
<path transform="matrix(1,0,0,-1,402.3823,598.21096)" d="M 0 0 C -.725 2.116 -1.392 4.05 -2.056 5.99 C -2.212 5.986 -2.37 5.986 -2.526 5.983 C -3.163 4.039 -3.798 2.089 -4.476 0 Z M 2.997 -9.865 C 2.997 -9.192 3.165 -8.489 2.967 -7.916 C 2.277 -5.902 1.465 -3.932 .675 -1.885 L -5.186 -1.885 C -5.818 -3.879 -6.556 -5.938 -7.082 -8.051 C -7.206 -8.552 -6.613 -9.229 -6.315 -9.902 L -11.59 -9.902 C -9.956 -8.934 -9.36 -7.368 -8.785 -5.772 C -6.916 -.588 -5.03 4.594 -3.14 9.771 C -2.864 10.524 -2.526 11.254 -2.02 12.468 C -1.418 11.32 -.923 10.563 -.597 9.738 C 1.111 5.433 2.773 1.11 4.467 -3.198 C 4.896 -4.293 5.412 -5.354 5.839 -6.449 C 6.425 -7.942 7.167 -9.259 9.089 -9.447 C 9.027 -9.588 8.968 -9.727 8.908 -9.865 Z " fill="#231f20" fill-rule="evenodd"/>
<path transform="matrix(1,0,0,-1,602.7275,603.0283)" d="M 0 0 C 0 -.646 .063 -1.304 -.007 -1.943 C -.271 -4.346 -.716 -4.786 -3.131 -5.019 C -4.883 -5.187 -6.64 -5.41 -8.398 -5.413 C -16.492 -5.43 -21.407 1.138 -19.179 8.917 C -17.667 14.188 -14.525 16.628 -8.717 16.997 C -7.841 17.05 -6.949 17.063 -6.08 16.96 C -4.126 16.719 -2.188 16.399 0 16.078 C -.205 14.141 -.401 12.376 -.594 10.608 C -.746 10.589 -.898 10.568 -1.048 10.552 C -1.26 10.949 -1.516 11.335 -1.679 11.749 C -2.504 13.842 -4.033 15.04 -6.216 15.504 C -11.118 16.559 -15.59 13.54 -16.442 8.579 C -17.295 3.603 -14.621 -1.466 -10.14 -3.366 C -6.238 -5.021 -3.387 -4.14 -1.121 -.593 C -.941 -.318 -.686 -.086 -.467 .166 C -.312 .112 -.152 .057 0 0 " fill="#231f20" fill-rule="evenodd"/>
<path transform="matrix(1,0,0,-1,509.9922,590.6094)" d="M 0 0 C -1.741 2.747 -2.305 2.933 -6.173 2.296 L -6.173 -4.952 C -4.029 -5.32 -1.96 -5.182 .405 -4.475 C .199 -6.097 .023 -7.47 -.148 -8.843 C -.269 -8.933 -.381 -9.025 -.5 -9.111 C -1.615 -6.229 -3.838 -6.727 -6.231 -6.886 C -6.231 -9.384 -6.299 -11.788 -6.18 -14.187 C -6.152 -14.707 -5.582 -15.364 -5.085 -15.672 C -3.118 -16.891 -.878 -16.286 .416 -14.303 C .562 -14.08 .728 -13.865 1.258 -13.755 C 1.099 -14.91 .939 -16.067 .787 -17.166 C -1.104 -17.769 -7.416 -17.842 -11.274 -17.292 C -9.423 -16.495 -9.384 -15.082 -9.39 -13.612 C -9.413 -9.197 -9.445 -4.786 -9.373 -.371 C -9.344 1.45 -9.221 3.188 -11.805 3.686 C -10.05 4.279 -3.246 4.432 .804 4.055 C .564 2.84 .329 1.646 0 0 " fill="#231f20" fill-rule="evenodd"/>
<path transform="matrix(1,0,0,-1,338.6768,588.3135)" d="M 0 0 C .267 -6.276 -.382 -12.509 .395 -18.662 C 1.224 -18.947 1.834 -19.16 2.541 -19.405 C 1.026 -20.075 -2.69 -20.128 -4.958 -19.491 C -3.274 -19.047 -3.05 -17.948 -3.065 -16.578 C -3.12 -11.511 -3.083 -6.441 -3.093 -1.374 C -3.095 -.796 -3.174 -.212 -3.221 .382 C -3.921 .72 -4.558 1.021 -5.588 1.516 C -4.81 1.691 -4.432 1.848 -4.058 1.841 C -1.198 1.784 1.68 1.881 4.514 1.572 C 7.83 1.211 9.17 -.704 8.898 -4.067 C 8.656 -7.062 6.541 -9.6 3.737 -10.207 C 2.735 -10.429 1.716 -10.571 .476 -9.521 C 1.391 -9.36 1.977 -9.258 2.567 -9.162 C 4.697 -8.807 5.96 -7.467 6.15 -5.331 C 6.292 -3.729 5.92 -2.259 4.922 -.985 C 3.693 .58 2.323 .886 0 0 " fill="#231f20" fill-rule="evenodd"/>
<path transform="matrix(1,0,0,-1,464.8677,604.1328)" d="M 0 0 C -.113 -1.218 -.226 -2.428 -.354 -3.824 L -13.407 -3.824 C -12.112 -3.101 -11.701 -2.123 -11.706 -.901 C -11.731 4.469 -11.721 9.835 -11.737 15.202 C -11.737 15.49 -11.833 15.776 -11.907 16.171 C -12.527 16.453 -13.172 16.741 -13.9 17.066 C -12.456 17.736 -8.92 17.832 -6.4 17.209 C -8.472 16.774 -8.658 15.501 -8.635 13.985 C -8.576 9.868 -8.609 5.748 -8.618 1.629 C -8.621 -.056 -8.438 -1.651 -6.632 -2.431 C -5.05 -3.121 -3.017 -2.573 -1.615 -1.111 C -1.221 -.7 -.861 -.258 -.484 .166 C -.322 .109 -.161 .057 0 0 " fill="#231f20" fill-rule="evenodd"/>
<path transform="matrix(1,0,0,-1,466.6177,586.6582)" d="M 0 0 L 6.589 0 C 5.97 -.617 5.262 -1.045 5 -1.662 C 4.733 -2.292 4.889 -3.105 4.887 -3.841 C 4.882 -8.104 4.884 -12.363 4.884 -16.625 C 4.884 -16.993 4.879 -17.358 4.889 -17.727 C 4.952 -20.021 5.075 -20.215 7.387 -21.303 L -.646 -21.303 C .041 -20.46 1.481 -20.612 1.534 -19.342 C 1.577 -18.394 1.723 -17.444 1.728 -16.499 C 1.748 -12.24 1.706 -7.975 1.753 -3.715 C 1.769 -2.199 1.806 -.767 0 0 " fill="#231f20" fill-rule="evenodd"/>
<path transform="matrix(1,0,0,-1,597.0059,610.667)" d="M 0 0 C .836 -3.897 .057 -6.187 -2.405 -7.169 C -3.118 -6.316 -2.252 -5.978 -1.9 -5.417 C -1.532 -4.829 -1.377 -4.106 -1.098 -3.37 C -1.718 -3.114 -2.166 -2.936 -2.613 -2.754 L -2.613 0 Z " fill="#231f20" fill-rule="evenodd"/>
<path transform="matrix(1,0,0,-1,448.0435,353.7827)" d="M 0 0 C 0 2.233 .307 4.07 .919 5.515 C 1.533 6.958 2.396 8.117 3.512 8.993 C 4.626 9.869 5.982 10.48 7.58 10.83 C 9.18 11.18 10.961 11.356 12.929 11.356 L 21.07 11.356 C 22.733 11.356 24.416 11.378 26.123 11.42 C 27.83 11.465 29.536 11.53 31.243 11.618 C 31.374 11.618 31.451 11.554 31.473 11.42 C 31.494 11.29 31.44 11.202 31.31 11.159 C 30.741 11.028 30.15 10.819 29.536 10.537 C 28.924 10.25 28.377 9.901 27.896 9.484 C 27.416 9.067 27.009 8.587 26.681 8.042 C 26.353 7.494 26.19 6.894 26.19 6.236 L 26.19 -30.192 C 26.19 -31.242 26.21 -32.129 26.254 -32.85 C 26.299 -33.571 26.451 -34.186 26.713 -34.688 C 26.978 -35.192 27.416 -35.596 28.027 -35.903 C 28.639 -36.21 29.493 -36.45 30.585 -36.624 C 30.716 -36.669 30.773 -36.768 30.751 -36.92 C 30.729 -37.072 30.653 -37.15 30.521 -37.15 C 29.515 -37.192 28.508 -37.214 27.501 -37.214 L 24.483 -37.214 L 14.44 -37.214 C 14.307 -37.214 14.243 -37.129 14.243 -36.953 C 14.243 -36.779 14.307 -36.691 14.44 -36.691 C 16.54 -36.603 18.027 -36.111 18.904 -35.214 C 19.78 -34.316 20.215 -32.839 20.215 -30.783 L 20.215 8.402 C 18.554 9.102 16.979 9.452 15.491 9.452 C 13.872 9.452 12.417 9.081 11.124 8.336 C 9.834 7.593 8.742 6.619 7.844 5.417 C 6.946 4.212 6.269 2.866 5.809 1.378 C 5.349 -.109 5.12 -1.597 5.12 -3.084 C 5.12 -4.749 5.371 -6.279 5.873 -7.678 C 6.378 -9.081 7.099 -10.282 8.039 -11.289 C 8.982 -12.296 10.13 -13.073 11.487 -13.618 C 12.844 -14.166 14.375 -14.44 16.081 -14.44 L 16.869 -14.44 C 17.088 -14.44 17.328 -14.417 17.59 -14.374 C 17.72 -14.331 17.798 -14.395 17.82 -14.571 C 17.843 -14.745 17.788 -14.854 17.656 -14.899 C 16.342 -15.25 15.074 -15.423 13.848 -15.423 C 11.836 -15.423 9.989 -14.975 8.304 -14.077 C 6.619 -13.183 5.163 -12.01 3.937 -10.568 C 2.713 -9.123 1.749 -7.48 1.05 -5.643 C .35 -3.806 0 -1.925 0 0 " fill="#3d7eb8"/>
<path transform="matrix(1,0,0,-1,509.9492,359.42579)" d="M 0 0 C -.7 -1.837 -1.663 -3.48 -2.887 -4.925 C -4.113 -6.367 -5.568 -7.54 -7.254 -8.434 C -8.938 -9.332 -10.788 -9.78 -12.798 -9.78 C -14.024 -9.78 -15.293 -9.606 -16.606 -9.256 C -16.738 -9.211 -16.794 -9.102 -16.771 -8.928 C -16.749 -8.752 -16.672 -8.688 -16.54 -8.731 C -16.278 -8.773 -16.038 -8.797 -15.819 -8.797 L -15.031 -8.797 C -13.324 -8.797 -11.793 -8.522 -10.438 -7.975 C -9.081 -7.43 -7.932 -6.653 -6.989 -5.646 C -6.05 -4.639 -5.328 -3.438 -4.823 -2.035 C -4.321 -.636 -4.07 .895 -4.07 2.559 C -4.07 4.046 -4.3 5.534 -4.76 7.021 C -5.219 8.509 -5.897 9.855 -6.794 11.06 C -7.692 12.262 -8.784 13.236 -10.074 13.979 C -11.367 14.724 -12.822 15.095 -14.44 15.095 C -15.928 15.095 -17.504 14.745 -19.166 14.045 L -19.166 -25.14 C -19.166 -27.196 -18.73 -28.673 -17.854 -29.571 C -16.979 -30.468 -15.491 -30.959 -13.392 -31.048 C -13.258 -31.048 -13.193 -31.136 -13.193 -31.31 C -13.193 -31.486 -13.258 -31.571 -13.392 -31.571 L -23.434 -31.571 L -26.451 -31.571 C -27.459 -31.571 -28.465 -31.549 -29.472 -31.507 C -29.603 -31.507 -29.681 -31.429 -29.702 -31.277 C -29.723 -31.125 -29.667 -31.026 -29.536 -30.981 C -28.443 -30.807 -27.589 -30.567 -26.978 -30.26 C -26.365 -29.953 -25.928 -29.549 -25.663 -29.044 C -25.401 -28.542 -25.249 -27.928 -25.204 -27.207 C -25.161 -26.486 -25.141 -25.599 -25.141 -24.549 L -25.141 11.879 C -25.141 12.537 -25.303 13.137 -25.631 13.685 C -25.961 14.23 -26.365 14.71 -26.847 15.127 C -27.327 15.544 -27.876 15.894 -28.486 16.18 C -29.1 16.462 -29.691 16.671 -30.26 16.802 C -30.391 16.845 -30.444 16.933 -30.423 17.063 C -30.401 17.197 -30.324 17.261 -30.193 17.261 C -28.486 17.173 -26.78 17.108 -25.073 17.063 C -23.367 17.021 -21.684 17 -20.02 17 L -11.88 17 C -9.911 17 -8.131 16.823 -6.53 16.473 C -4.934 16.124 -3.575 15.512 -2.463 14.636 C -1.347 13.76 -.484 12.601 .131 11.158 C .742 9.713 1.049 7.876 1.049 5.643 C 1.049 3.718 .7 1.837 0 0 " fill="#ed145a"/>
</g>
</g>
</g>
</svg>
