<?xml version="1.0" encoding="UTF-8" standalone="no"?>
<!DOCTYPE svg PUBLIC "-//W3C//DTD SVG 1.1//EN" "http://www.w3.org/Graphics/SVG/1.1/DTD/svg11.dtd">
<svg xmlns="http://www.w3.org/2000/svg" xmlns:xlink="http://www.w3.org/1999/xlink" version="1.1" width="960pt" height="960pt" viewBox="0 0 960 960">
<g enable-background="new">
<g id="Layer-1" data-name="Layer 1">
<clipPath id="cp0">
<path transform="matrix(1,0,0,-1,0,960)" d="M 0 960 L 960 960 L 960 0 L 0 0 Z "/>
</clipPath>
<g clip-path="url(#cp0)">
<path transform="matrix(1,0,0,-1,371.626,437.90919)" d="M 0 0 C 23.741 -21.34 47.19 -42.965 70.654 -64.567 C 23.923 -65.101 -23.778 -64.641 -70.881 -64.802 C -59.568 -53.92 -47.724 -43.403 -36.002 -32.63 C -30.237 -27.317 -24.508 -21.734 -18.45 -16.647 C -12.064 -11.291 -6.554 -4.912 0 0 " fill="#25215b"/>
<path transform="matrix(1,0,0,-1,563.8242,437.90919)" d="M 0 0 C 23.741 -21.34 47.19 -42.965 70.654 -64.567 C 23.924 -65.101 -23.777 -64.641 -70.881 -64.802 C -59.575 -53.92 -47.723 -43.403 -36.002 -32.63 C -30.236 -27.317 -24.508 -21.734 -18.45 -16.647 C -12.064 -11.291 -6.554 -4.912 0 0 " fill="#25215b"/>
<path transform="matrix(1,0,0,-1,178.1147,437.90919)" d="M 0 0 C 23.741 -21.34 47.19 -42.965 70.655 -64.567 C 23.924 -65.101 -23.777 -64.641 -70.88 -64.802 C -59.575 -53.92 -47.723 -43.403 -36.002 -32.63 C -30.236 -27.317 -24.507 -21.734 -18.45 -16.647 C -12.064 -11.291 -6.554 -4.912 0 0 " fill="#25215b"/>
<path transform="matrix(1,0,0,-1,757.0713,437.90919)" d="M 0 0 C 23.741 -21.34 47.19 -42.965 70.654 -64.567 C 23.923 -65.101 -23.778 -64.641 -70.881 -64.802 C -59.568 -53.92 -47.724 -43.403 -36.003 -32.63 C -30.237 -27.317 -24.501 -21.734 -18.45 -16.647 C -12.064 -11.291 -6.547 -4.912 0 0 " fill="#25215b"/>
<path transform="matrix(1,0,0,-1,205.79,318.20069)" d="M 0 0 C 47.103 -.153 94.804 .299 141.535 -.219 C 118.202 -21.975 94.359 -43.191 71.107 -65.027 C 69.486 -64.254 68.136 -63.188 67.282 -61.648 C 64.253 -59.364 61.575 -56.729 58.729 -54.233 C 55.904 -51.737 53.263 -49.051 50.401 -46.577 C 47.563 -44.11 44.826 -41.49 42.082 -38.929 C 39.33 -36.353 36.403 -33.93 33.973 -31.054 C 22.369 -21.347 11.619 -10.809 .453 -.679 C .168 -.569 -.007 -.387 0 0 " fill="#25215b"/>
<path transform="matrix(1,0,0,-1,591.4639,318.20069)" d="M 0 0 C 47.103 -.153 94.804 .299 141.534 -.219 C 118.202 -21.975 94.358 -43.191 71.099 -65.027 C 69.486 -64.254 68.129 -63.188 67.274 -61.648 C 64.253 -59.364 61.567 -56.729 58.729 -54.233 C 55.904 -51.737 53.262 -49.051 50.401 -46.577 C 47.563 -44.11 44.825 -41.49 42.081 -38.929 C 39.33 -36.353 36.403 -33.93 33.973 -31.054 C 22.361 -21.347 11.618 -10.809 .452 -.679 C .16 -.569 -.015 -.387 0 0 " fill="#25215b"/>
<path transform="matrix(1,0,0,-1,400.3267,318.20069)" d="M 0 0 C 47.103 -.153 94.804 .299 141.535 -.219 C 118.209 -21.975 94.359 -43.191 71.107 -65.027 C 69.487 -64.254 68.137 -63.188 67.283 -61.648 C 64.254 -59.364 61.576 -56.729 58.729 -54.233 C 55.905 -51.737 53.263 -49.051 50.402 -46.577 C 47.57 -44.11 44.826 -41.49 42.082 -38.929 C 39.338 -36.353 36.404 -33.93 33.974 -31.054 C 22.369 -21.347 11.619 -10.809 .453 -.679 C .168 -.569 -.007 -.387 0 0 " fill="#25215b"/>
<path transform="matrix(1,0,0,-1,612.8379,483.5879)" d="M 0 0 C 39.994 8.16 80.383 15.933 120.837 23.625 L 159.766 31.054 C 163.678 31.558 167.05 32.624 171.013 33.076 C 171.728 30.733 172.377 28.31 172.582 25.427 C 170.626 25.296 169.078 24.749 167.181 24.53 L 109.583 13.276 C 103.008 12.575 95.432 10.933 88.886 9.452 C 61.517 4.423 34.44 -.904 7.656 -6.524 C 7.656 -6.524 -54 -19.53 -60.524 -20.909 C -66.523 -22.201 -72.398 -23.653 -78.076 -24.975 C -101.708 -30.448 -125.15 -37.009 -148.731 -42.301 C -152.183 -43.066 -162.524 -45.724 -163.356 -45.898 C -166.254 -46.497 -169.21 -47.438 -172.136 -48.153 C -174.523 -48.723 -176.887 -49.38 -179.333 -49.941 C -196.243 -53.854 -214.232 -59.247 -231.989 -62.991 C -231.989 -62.991 -250.571 -67.246 -257.409 -68.852 C -264.722 -70.808 -290.266 -74.697 -290.266 -74.697 L -297.243 -75.603 C -297.243 -75.603 -305.804 -76.179 -309.395 -74.697 C -310.46 -74.077 -311.197 -72.676 -311.197 -72.676 C -311.197 -72.676 -312.993 -69.749 -309.84 -66.604 C -304.899 -62.561 -293.878 -59.291 -288.697 -57.604 C -287.069 -59.356 -287.105 -62.758 -285.996 -65.027 C -287.405 -65.487 -288.864 -65.889 -290.266 -66.377 C -284.427 -65.896 -278.603 -65.013 -272.94 -63.889 C -251.505 -59.678 -230.303 -54.576 -209.263 -49.723 C -205.132 -48.773 -199.848 -46.825 -195.535 -45.898 C -189.82 -44.657 -184.726 -43.337 -178.654 -42.074 C -174.457 -41.184 -146.403 -34.061 -137.258 -31.726 C -129.435 -29.718 -120.516 -27.018 -111.604 -24.975 C -105.175 -23.493 -97.942 -21.844 -91.359 -20.479 Z " fill="#be2027"/>
<path transform="matrix(1,0,0,-1,480.3081,287.59669)" d="M 0 0 C .519 -4.335 -.08 -10.67 -2.255 -13.728 L -5.627 -13.728 C -5.196 -16.283 -4.05 -18.144 -4.277 -21.376 C -4.941 -21.778 -6.094 -22.048 -6.298 -22.282 C -10.998 -21.873 -13.246 -19.02 -14.852 -15.531 C -17.005 -.737 -4.357 .795 0 0 " fill="#be2027"/>
<path transform="matrix(1,0,0,-1,355.875,393.35688)" d="M 0 0 L -12.831 -7.196 L 13.947 73.354 Z M -3.832 -34.696 L -10.853 -15.086 L -.555 -9.152 Z M 155.708 66.968 C 155.708 66.968 146.724 41.702 143.557 34.119 C 143.557 34.119 145.986 50.54 155.708 66.968 M 361.817 85.287 C 354.096 83.09 347.995 79.908 340.215 77.405 C 295.761 60.94 246.702 29.5 228.391 3.153 C 226.844 .934 225.436 -1.679 222.99 -3.153 C 218.443 3.043 214.43 9.75 209.708 15.75 C 207.021 17.063 196.213 19.128 196.213 19.128 C 196.213 19.128 188.236 19.391 181.807 18.231 L 167.407 14.406 C 165.685 19.216 164.94 24.981 157.963 24.529 C 154.729 22.967 153.204 20.084 151.212 16.654 C 150.556 15.538 144.498 4.058 143.557 3.598 C 143.213 7.75 142.958 12.005 143.104 16.654 C 148.774 26.974 153.708 39.958 157.729 49.956 C 161.766 59.955 165.838 75.383 165.838 75.383 C 165.838 75.383 166.823 79.996 168.312 85.054 C 165.882 86.236 163.466 87.425 160.882 88.433 C 157.431 84.156 154.059 79.821 150.979 75.157 C 134.368 52.708 134.572 23.755 135.01 18.45 C 129.719 11.487 124.909 -.175 115.881 -4.051 C 115.101 -4.387 113.881 -4.803 112.962 -4.948 C 102.35 -6.54 103.481 5.43 104.635 13.728 C 101.825 14.224 99.869 15.567 96.979 15.976 C 91.221 5.685 85.236 -4.379 79.653 -14.845 C 79.653 -14.845 78.631 -16.969 76.953 -16.874 C 75.997 -16.327 75.566 -15.253 74.931 -14.4 C 75.339 -6.992 80.273 2.926 74.931 8.101 C 73.23 8.276 71.384 8.502 69.756 8.101 C 63.509 4.751 59.984 -1.329 55.802 -6.751 C 55.612 -4.985 56.254 -2.095 56.028 .452 C 55.152 3.984 49.905 5.758 45.898 4.058 C 44.672 3.532 42.979 2.255 42.979 2.255 L 40.505 0 C 40.688 3.043 40.33 5.532 40.052 8.101 C 37.513 13.1 29.134 15.538 20.705 12.867 C 16.326 11.151 13.407 8.422 9.677 6.75 C 17.588 55.401 28.879 100.665 38.25 147.84 C 35.564 148.446 33.163 149.358 30.156 149.636 C 13.29 98.066 -4.131 47.059 -20.479 -4.051 C -22.231 -7.444 -23.384 -10.977 -24.975 -14.4 C -26.544 -17.757 -30.375 -24.077 -30.375 -24.077 L -32.85 -27.675 C -32.85 -27.675 -36.258 -31.923 -37.572 -33.295 C -41.301 -38.024 -45.57 -42.958 -50.176 -47.476 C -54.635 -51.847 -58.846 -55.89 -64.4 -60.378 C -75.274 -68.582 -87.696 -77.529 -103.957 -80.777 C -129.566 -85.894 -136.485 -81.434 -139.061 -80.106 C -144.505 -77.829 -146.885 -75.187 -149.41 -70.421 C -152.636 -61.962 -147.257 -53.949 -144.002 -48.373 C -146.308 -46.986 -148.651 -45.666 -150.76 -44.104 C -152.906 -46.979 -154.482 -50.417 -156.387 -53.555 C -158.255 -57.605 -158.861 -61.648 -158.861 -61.648 C -158.861 -61.648 -161.562 -71.75 -151.118 -82.193 C -140.667 -92.629 -126.457 -91.126 -126.457 -91.126 C -126.457 -91.126 -112.576 -90.287 -106.212 -89.324 C -80.142 -84.412 -62.94 -70.647 -47.256 -55.35 C -35.988 -45.446 -24.88 -31.302 -17.553 -18.443 C -13.67 -29.872 -9.422 -40.921 -6.532 -53.329 L 2.021 -53.329 C 3.328 -36.44 7.648 -4.496 7.648 -4.496 C 7.648 -4.496 19.435 5.97 30.601 5.853 C 30.601 5.853 32.002 5.306 32.178 4.503 C 32.002 -12.13 27.295 -25.004 24.077 -40.498 L 31.732 -42.301 C 33.47 -38.17 44.46 -8.794 47.256 -5.394 C 47.037 -12.911 46.103 -19.706 45.898 -27.223 L 54 -28.573 C 57.78 -19.45 62.108 -10.875 68.18 -4.051 C 67.888 -8.006 66.421 -11.991 66.151 -16.647 C 69.318 -20.669 72.128 -25.077 78.076 -26.318 C 78.076 -26.318 79.529 -26.011 81.674 -24.077 C 88.352 -18.589 91.184 -9.276 96.3 -2.248 C 98.577 -9.576 104.292 -13.465 114.757 -12.604 C 122.282 -10.451 127.668 -6.16 132.083 -.898 L 135.01 3.153 C 135.382 -2.204 135.711 -7.583 140.637 -8.546 C 142.812 -8.97 145.154 -8.269 146.936 -7.196 C 150.957 -.343 154.832 6.67 159.087 13.275 C 160.583 8.794 164.115 5.875 169.881 6.75 C 171.063 6.94 172.523 7.809 173.932 8.101 C 177.901 8.947 180.609 10.188 184.288 10.575 C 188.419 11.027 192.433 10.991 196.658 11.253 C 196.658 11.253 201.796 9.94 204.533 9.451 C 206.336 7.057 209.708 2.021 209.708 2.021 C 209.708 2.021 215.707 -6.985 218.261 -11.028 C 219.21 -12.517 221.983 -13.319 224.333 -13.049 C 226.69 -12.779 229.274 -9.466 234.011 -2.671 C 262.992 36.703 330.326 66.786 354.621 74.479 C 357.891 75.785 361.3 76.96 364.751 78.083 C 363.948 80.66 363.27 83.36 361.817 85.287 " fill="#be2027"/>
<path transform="matrix(1,0,0,-1,108.5322,660.4629)" d="M 0 0 L 20.595 0 L 10.998 24.968 Z M -22.683 -30.448 C -19.604 -26.923 -16.501 -22.5 -13.385 -17.18 C -10.262 -11.867 -6.978 -5.364 -3.525 2.307 C -.643 8.692 1.729 14.414 3.605 19.442 C 5.481 24.479 6.422 27.507 6.422 28.507 C 6.422 29.018 6.349 29.507 6.225 29.996 C 6.086 30.484 5.89 30.996 5.627 31.528 L 18.26 31.528 C 23.208 15.925 27.864 2.752 32.244 -7.984 C 36.623 -18.705 40.381 -26.2 43.541 -30.448 L 32.389 -30.448 L 22.143 -3.591 L -1.642 -3.591 L -6.014 -13.742 L -6.116 -13.976 C -8.838 -20.18 -10.196 -24.675 -10.196 -27.478 C -10.196 -27.916 -10.16 -28.383 -10.072 -28.864 C -9.992 -29.354 -9.868 -29.887 -9.7 -30.448 Z " fill="#2c276c"/>
<path transform="matrix(1,0,0,-1,187.1953,692.2783)" d="M 0 0 L -23.537 57.539 L -23.734 15.297 L -23.734 12.275 C -23.734 9.341 -23.551 7.094 -23.187 5.524 C -22.822 3.948 -22.223 2.568 -21.398 1.364 L -32.988 1.364 C -31.062 2.97 -29.667 8.107 -28.806 16.778 C -27.945 25.448 -27.514 38.709 -27.514 56.546 C -27.514 58.188 -27.704 59.502 -28.091 60.517 C -28.463 61.523 -29.12 62.465 -30.047 63.349 L -18.662 63.349 C -17.728 63.349 -17.114 63.225 -16.815 62.99 C -16.516 62.757 -16.238 62.29 -15.968 61.597 L 2.438 14.917 L 22.938 61.13 C 23.303 62.006 23.712 62.597 24.157 62.896 C 24.603 63.195 25.333 63.349 26.317 63.349 L 36.272 63.349 C 35.411 62.275 34.791 60.59 34.411 58.269 C 34.024 55.955 33.835 52.612 33.835 48.241 C 33.835 32.068 34.192 20.748 34.9 14.275 C 35.616 7.809 36.856 3.503 38.608 1.364 L 23.632 1.364 C 24.595 2.751 25.289 4.474 25.697 6.539 C 26.113 8.597 26.317 11.545 26.317 15.384 C 26.317 15.413 26.303 15.625 26.274 15.997 C 26.208 18.449 26.143 21.033 26.069 23.741 L 25.471 57.539 Z " fill="#2c276c"/>
<path transform="matrix(1,0,0,-1,235.6108,690.91018)" d="M 0 0 C .927 .941 1.583 3.116 1.963 6.518 C 2.342 9.911 2.54 17.18 2.54 28.324 L 2.54 32.287 C 2.54 44.432 2.342 52.183 1.963 55.532 C 1.583 58.882 .927 61.035 0 61.977 L 13.83 61.977 C 12.903 61.064 12.246 58.97 11.867 55.7 C 11.48 52.431 11.29 45.461 11.29 34.791 L 11.29 31.01 L 11.29 27.28 C 11.29 16.581 11.48 9.582 11.867 6.298 C 12.246 3.014 12.903 .912 13.83 0 Z " fill="#2c276c"/>
<path transform="matrix(1,0,0,-1,261.2822,628.9326)" d="M 0 0 L 13.837 0 C 12.903 -.941 12.247 -3.116 11.867 -6.517 C 11.48 -9.91 11.297 -17.158 11.297 -28.229 L 11.297 -32.192 C 11.297 -39.111 11.378 -44.891 11.539 -49.519 C 11.706 -54.146 11.94 -57.101 12.239 -58.393 C 12.903 -58.422 13.604 -58.451 14.355 -58.466 C 15.1 -58.48 16.187 -58.487 17.611 -58.487 C 22.924 -58.487 27.003 -57.97 29.879 -56.955 C 32.74 -55.926 35.075 -54.189 36.871 -51.736 L 34.63 -61.414 C 33.236 -61.662 31.674 -61.859 29.952 -61.977 C 28.222 -62.107 26.383 -62.173 24.435 -62.173 C 22.902 -62.173 19.822 -62.137 15.173 -62.071 C 10.524 -62.013 6.648 -61.977 3.532 -61.977 L 0 -61.977 C .927 -61.035 1.583 -58.86 1.97 -55.466 C 2.343 -52.065 2.54 -44.796 2.54 -33.651 L 2.54 -29.688 C 2.54 -17.545 2.343 -9.794 1.97 -6.444 C 1.583 -3.094 .927 -.941 0 0 " fill="#2c276c"/>
<path transform="matrix(1,0,0,-1,353.772,628.9326)" d="M 0 0 L -.591 -13.261 C -2.051 -9.896 -4.094 -7.363 -6.714 -5.663 C -9.334 -3.963 -12.517 -3.116 -16.268 -3.116 C -23.566 -3.116 -29.295 -5.393 -33.455 -9.962 C -37.615 -14.523 -39.695 -20.821 -39.695 -28.842 C -39.695 -37.118 -37.418 -43.709 -32.856 -48.62 C -28.303 -53.532 -22.201 -55.984 -14.575 -55.984 C -10.962 -55.984 -7.583 -55.32 -4.444 -53.999 C -1.313 -52.679 1.394 -50.795 3.686 -48.336 C 2.496 -52.839 -.182 -56.43 -4.35 -59.13 C -8.51 -61.815 -13.516 -63.158 -19.348 -63.158 C -28.237 -63.158 -35.535 -60.218 -41.242 -54.328 C -46.95 -48.452 -49.796 -40.885 -49.796 -31.63 C -49.796 -21.405 -46.73 -13.385 -40.593 -7.575 C -34.462 -1.766 -25.989 1.132 -15.173 1.132 C -13.479 1.132 -10.955 .942 -7.583 .562 C -4.218 .183 -1.686 0 0 0 " fill="#2c276c"/>
<path transform="matrix(1,0,0,-1,382.0381,660.4629)" d="M 0 0 L 20.596 0 L 10.991 24.968 Z M -22.69 -30.448 C -19.61 -26.923 -16.508 -22.5 -13.385 -17.18 C -10.269 -11.867 -6.984 -5.364 -3.532 2.307 C -.649 8.692 1.73 14.414 3.605 19.442 C 5.481 24.479 6.416 27.507 6.416 28.507 C 6.416 29.018 6.35 29.507 6.218 29.996 C 6.087 30.484 5.89 30.996 5.627 31.528 L 18.26 31.528 C 23.201 15.925 27.857 2.752 32.236 -7.984 C 36.623 -18.705 40.381 -26.2 43.534 -30.448 L 32.382 -30.448 L 22.136 -3.591 L -1.649 -3.591 L -6.021 -13.742 L -6.123 -13.976 C -8.845 -20.18 -10.195 -24.675 -10.195 -27.478 C -10.195 -27.916 -10.167 -28.383 -10.079 -28.864 C -9.991 -29.354 -9.875 -29.887 -9.707 -30.448 Z " fill="#2c276c"/>
<path transform="matrix(1,0,0,-1,441.4438,657.25588)" d="M 0 0 C .598 -.132 1.248 -.219 1.941 -.285 C 2.634 -.351 3.416 -.38 4.277 -.38 C 9.225 -.38 13.02 .847 15.669 3.306 C 18.326 5.758 19.646 9.269 19.646 13.837 C 19.646 17.64 18.64 20.472 16.618 22.333 C 14.596 24.179 11.509 25.113 7.364 25.113 C 5.736 25.113 4.466 25.091 3.554 25.048 C 2.642 24.996 1.773 24.924 .949 24.828 C .613 23.449 .372 21.245 .219 18.245 C .073 15.238 0 10.983 0 5.474 L 0 4.437 Z M -8.364 28.324 C -4.379 28.324 .065 28.434 4.977 28.652 C 9.882 28.872 12.823 28.988 13.786 28.988 C 18.924 28.988 22.821 27.937 25.471 25.843 C 28.127 23.756 29.456 20.676 29.456 16.61 C 29.456 12.647 28.142 9.115 25.522 6.014 C 22.909 2.919 19.056 .365 13.983 -1.657 L 28.558 -20.909 C 30.981 -24.092 33.214 -26.741 35.25 -28.864 C 37.287 -30.988 39.118 -32.587 40.746 -33.652 L 31.098 -33.652 C 29.806 -33.652 28.813 -33.492 28.135 -33.163 C 27.456 -32.827 26.733 -32.163 25.974 -31.156 L 8.561 -7.934 C 7.298 -6.232 6.123 -5.109 5.021 -4.576 C 3.926 -4.043 2.525 -3.78 .795 -3.78 L 0 -3.78 L 0 -9.678 C 0 -19.15 .189 -25.26 .569 -28.019 C .956 -30.77 1.613 -32.652 2.54 -33.652 L -11.298 -33.652 C -10.364 -32.711 -9.707 -30.543 -9.327 -27.143 C -8.948 -23.741 -8.758 -16.473 -8.758 -5.328 L -8.758 -1.365 C -8.758 10.779 -8.948 18.53 -9.327 21.88 C -9.707 25.229 -10.364 27.383 -11.298 28.324 Z " fill="#2c276c"/>
<path transform="matrix(1,0,0,-1,558.3154,628.9326)" d="M 0 0 L -.591 -13.261 C -2.051 -9.896 -4.094 -7.363 -6.714 -5.663 C -9.334 -3.963 -12.523 -3.116 -16.268 -3.116 C -23.565 -3.116 -29.295 -5.393 -33.455 -9.962 C -37.615 -14.523 -39.695 -20.821 -39.695 -28.842 C -39.695 -37.118 -37.425 -43.709 -32.864 -48.62 C -28.303 -53.532 -22.208 -55.984 -14.574 -55.984 C -10.962 -55.984 -7.583 -55.32 -4.444 -53.999 C -1.321 -52.679 1.395 -50.795 3.686 -48.336 C 2.488 -52.839 -.183 -56.43 -4.35 -59.13 C -8.517 -61.815 -13.517 -63.158 -19.348 -63.158 C -28.244 -63.158 -35.535 -60.218 -41.242 -54.328 C -46.949 -48.452 -49.803 -40.885 -49.803 -31.63 C -49.803 -21.405 -46.73 -13.385 -40.593 -7.575 C -34.462 -1.766 -25.989 1.132 -15.173 1.132 C -13.479 1.132 -10.954 .942 -7.583 .562 C -4.218 .183 -1.686 0 0 0 " fill="#2c276c"/>
<path transform="matrix(1,0,0,-1,586.582,660.4629)" d="M 0 0 L 20.596 0 L 10.99 24.968 Z M -22.69 -30.448 C -19.61 -26.923 -16.509 -22.5 -13.386 -17.18 C -10.27 -11.867 -6.984 -5.364 -3.533 2.307 C -.65 8.692 1.729 14.414 3.604 19.442 C 5.48 24.479 6.415 27.507 6.415 28.507 C 6.415 29.018 6.349 29.507 6.218 29.996 C 6.086 30.484 5.89 30.996 5.619 31.528 L 18.26 31.528 C 23.201 15.925 27.857 2.752 32.236 -7.984 C 36.622 -18.705 40.381 -26.2 43.533 -30.448 L 32.382 -30.448 L 22.135 -3.591 L -1.649 -3.591 L -6.021 -13.742 L -6.124 -13.976 C -8.846 -20.18 -10.203 -24.675 -10.203 -27.478 C -10.203 -27.916 -10.167 -28.383 -10.079 -28.864 C -9.999 -29.354 -9.875 -29.887 -9.707 -30.448 Z " fill="#2c276c"/>
<path transform="matrix(1,0,0,-1,645.9863,658.7168)" d="M 0 0 L 0 -11.896 C 0 -15.422 .08 -18.574 .248 -21.362 C .416 -24.15 .613 -25.938 .847 -26.719 C 1.073 -27.508 1.905 -28.12 3.335 -28.559 C 4.759 -29.004 6.635 -29.223 8.955 -29.223 C 13.765 -29.223 17.494 -27.931 20.15 -25.354 C 22.8 -22.771 24.136 -19.15 24.136 -14.487 C 24.136 -9.896 22.596 -6.335 19.53 -3.803 C 16.458 -1.271 12.086 0 6.415 0 Z M 0 5.904 L 0 3.583 L 2.737 3.583 C 8.839 3.583 13.509 4.715 16.742 6.984 C 19.976 9.254 21.596 12.494 21.596 16.705 C 21.596 19.917 20.354 22.34 17.889 23.952 C 15.414 25.573 11.722 26.383 6.816 26.383 C 5.927 26.383 4.985 26.361 4.007 26.31 C 3.029 26.273 2 26.2 .949 26.099 C .613 24.748 .372 22.58 .22 19.588 C .073 16.596 0 12.312 0 6.751 Z M -4.379 -32.192 L -11.298 -32.192 C -10.363 -31.251 -9.714 -29.076 -9.327 -25.683 C -8.955 -22.282 -8.758 -15.013 -8.758 -3.868 L -8.758 .095 C -8.758 12.239 -8.955 19.989 -9.327 23.34 C -9.714 26.689 -10.363 28.843 -11.298 29.784 L -2.736 29.784 C -.511 29.784 2.643 29.894 6.744 30.112 C 10.838 30.331 13.838 30.448 15.721 30.448 C 20.698 30.448 24.552 29.419 27.288 27.375 C 30.025 25.332 31.397 22.449 31.397 18.734 C 31.397 15.246 30.062 12.166 27.391 9.51 C 24.72 6.846 20.786 4.671 15.574 2.97 C 21.646 2.306 26.332 .525 29.653 -2.387 C 32.974 -5.299 34.631 -9.079 34.631 -13.743 C 34.631 -19.399 32.383 -23.989 27.887 -27.5 C 23.391 -31.011 17.399 -32.762 9.896 -32.762 C 8.072 -32.762 5.583 -32.667 2.408 -32.478 C -.759 -32.288 -3.021 -32.192 -4.379 -32.192 " fill="#2c276c"/>
<path transform="matrix(1,0,0,-1,700.7168,657.25588)" d="M 0 0 C .599 -.132 1.248 -.219 1.941 -.285 C 2.635 -.351 3.415 -.38 4.276 -.38 C 9.225 -.38 13.021 .847 15.669 3.306 C 18.326 5.758 19.654 9.269 19.654 13.837 C 19.654 17.64 18.64 20.472 16.618 22.333 C 14.597 24.179 11.51 25.113 7.363 25.113 C 5.736 25.113 4.467 25.091 3.555 25.048 C 2.642 24.996 1.773 24.924 .948 24.828 C .613 23.449 .372 21.245 .219 18.245 C .073 15.238 0 10.983 0 5.474 L 0 4.437 Z M -8.364 28.324 C -4.379 28.324 .065 28.434 4.978 28.652 C 9.882 28.872 12.823 28.988 13.786 28.988 C 18.924 28.988 22.821 27.937 25.471 25.843 C 28.127 23.756 29.456 20.676 29.456 16.61 C 29.456 12.647 28.142 9.115 25.521 6.014 C 22.909 2.919 19.056 .365 13.983 -1.657 L 28.558 -20.909 C 30.981 -24.092 33.214 -26.741 35.25 -28.864 C 37.286 -30.988 39.118 -32.587 40.746 -33.652 L 31.098 -33.652 C 29.806 -33.652 28.813 -33.492 28.135 -33.163 C 27.456 -32.827 26.733 -32.163 25.975 -31.156 L 8.561 -7.934 C 7.298 -6.232 6.123 -5.109 5.021 -4.576 C 3.934 -4.043 2.525 -3.78 .795 -3.78 L 0 -3.78 L 0 -9.678 C 0 -19.15 .189 -25.26 .569 -28.019 C .956 -30.77 1.612 -32.652 2.54 -33.652 L -11.298 -33.652 C -10.363 -32.711 -9.714 -30.543 -9.327 -27.143 C -8.955 -23.741 -8.758 -16.473 -8.758 -5.328 L -8.758 -1.365 C -8.758 10.779 -8.955 18.53 -9.327 21.88 C -9.714 25.229 -10.363 27.383 -11.298 28.324 Z " fill="#2c276c"/>
<path transform="matrix(1,0,0,-1,756.8428,660.4629)" d="M 0 0 L 20.596 0 L 10.991 24.968 Z M -22.689 -30.448 C -19.61 -26.923 -16.509 -22.5 -13.385 -17.18 C -10.269 -11.867 -6.984 -5.364 -3.532 2.307 C -.649 8.692 1.73 14.414 3.605 19.442 C 5.481 24.479 6.416 27.507 6.416 28.507 C 6.416 29.018 6.35 29.507 6.219 29.996 C 6.08 30.484 5.89 30.996 5.62 31.528 L 18.261 31.528 C 23.201 15.925 27.857 2.752 32.236 -7.984 C 36.623 -18.705 40.382 -26.2 43.534 -30.448 L 32.383 -30.448 L 22.136 -3.591 L -1.649 -3.591 L -6.021 -13.742 L -6.123 -13.976 C -8.845 -20.18 -10.202 -24.675 -10.202 -27.478 C -10.202 -27.916 -10.166 -28.383 -10.078 -28.864 C -9.998 -29.354 -9.874 -29.887 -9.706 -30.448 Z " fill="#2c276c"/>
<path transform="matrix(1,0,0,-1,804.9521,628.9326)" d="M 0 0 L 13.837 0 C 12.902 -.941 12.246 -3.116 11.866 -6.517 C 11.479 -9.91 11.297 -17.158 11.297 -28.229 L 11.297 -32.192 C 11.297 -39.111 11.378 -44.891 11.545 -49.519 C 11.706 -54.146 11.947 -57.101 12.238 -58.393 C 12.902 -58.422 13.604 -58.451 14.355 -58.466 C 15.1 -58.48 16.187 -58.487 17.61 -58.487 C 22.924 -58.487 27.011 -57.97 29.879 -56.955 C 32.747 -55.926 35.082 -54.189 36.87 -51.736 L 34.63 -61.414 C 33.235 -61.662 31.681 -61.859 29.951 -61.977 C 28.229 -62.107 26.383 -62.173 24.435 -62.173 C 22.908 -62.173 19.821 -62.137 15.173 -62.071 C 10.531 -62.013 6.648 -61.977 3.532 -61.977 L 0 -61.977 C .927 -61.035 1.583 -58.86 1.97 -55.466 C 2.342 -52.065 2.539 -44.796 2.539 -33.651 L 2.539 -29.688 C 2.539 -17.545 2.342 -9.794 1.97 -6.444 C 1.583 -3.094 .927 -.941 0 0 " fill="#2c276c"/>
<path transform="matrix(1,0,0,-1,115.8057,566.52737)" d="M 0 0 C 1.729 -.095 3.306 -.16 4.714 -.197 C 6.116 -.233 7.4 -.248 8.553 -.248 C 10.707 -.248 12.75 -.168 14.698 -.015 C 16.632 .139 18.544 .357 20.42 .649 C 19.267 -.935 17.559 -2.036 15.319 -2.671 C 13.063 -3.299 9.006 -3.62 3.138 -3.62 L 0 -3.62 L 0 -7.203 C 0 -14.399 .153 -19.034 .467 -21.136 C .788 -23.223 1.335 -24.653 2.102 -25.412 L -9.386 -25.412 C -8.62 -24.697 -8.065 -23.048 -7.751 -20.472 C -7.437 -17.888 -7.276 -12.363 -7.276 -3.904 L -7.276 -.897 C -7.276 8.335 -7.437 14.21 -7.751 16.757 C -8.065 19.312 -8.62 20.932 -9.386 21.654 L -3.555 21.654 C -2.401 21.654 -.088 21.69 3.386 21.756 C 6.86 21.829 9.765 21.865 12.107 21.865 C 13.983 21.865 15.676 21.829 17.194 21.756 C 18.705 21.69 20.062 21.581 21.245 21.442 L 21.573 15.349 C 20.749 16.684 19.282 17.625 17.18 18.173 C 15.063 18.72 11.684 19.005 7.028 19.005 C 5.977 19.005 4.948 18.982 3.926 18.946 C 2.904 18.91 1.861 18.858 .781 18.785 C .503 17.684 .306 15.961 .182 13.604 C .058 11.246 0 7.89 0 3.511 Z " fill="#2c276c"/>
<path transform="matrix(1,0,0,-1,210.8291,593.3535)" d="M 0 0 L .249 6.919 C -1.518 4.408 -3.912 2.481 -6.94 1.132 C -9.977 -.219 -13.421 -.897 -17.275 -.897 C -23.267 -.897 -27.631 .365 -30.404 2.891 C -33.178 5.408 -34.557 9.394 -34.557 14.838 C -34.557 16.297 -34.542 18.005 -34.513 19.946 C -34.491 21.896 -34.477 23.1 -34.477 23.559 C -34.477 33.207 -34.637 39.359 -34.951 41.994 C -35.272 44.637 -35.813 46.329 -36.586 47.066 L -25.091 47.066 C -25.923 46.396 -26.492 44.549 -26.806 41.527 C -27.127 38.506 -27.281 31.857 -27.281 21.581 C -27.281 14.057 -26.303 9.087 -24.347 6.686 C -22.391 4.284 -18.96 3.088 -14.056 3.088 C -9.035 3.088 -5.474 4.576 -3.372 7.562 C -1.262 10.546 -.204 15.881 -.204 23.559 C -.204 33.229 -.357 39.389 -.664 42.031 C -.963 44.673 -1.518 46.352 -2.313 47.066 L 9.298 47.066 C 8.474 46.352 7.904 44.673 7.583 42.031 C 7.269 39.389 7.116 33.229 7.116 23.559 C 7.116 13.874 7.269 7.715 7.583 5.051 C 7.904 2.401 8.474 .723 9.298 0 Z " fill="#2c276c"/>
<path transform="matrix(1,0,0,-1,280.0342,551.8799)" d="M 0 0 L .248 -23.69 C .299 -29.376 .54 -33.448 .971 -35.9 C 1.394 -38.353 2.095 -40.206 3.058 -41.477 L -6.78 -41.477 C -5.678 -40.258 -4.882 -37.426 -4.386 -32.996 C -3.883 -28.559 -3.642 -22.092 -3.642 -13.582 C -3.642 -6.058 -3.868 -1.161 -4.32 1.095 C -4.773 3.356 -5.598 4.853 -6.78 5.598 L 2.021 5.598 C 3.62 5.598 5.401 4.306 7.357 1.722 C 7.853 1.058 8.254 .525 8.554 .146 C 10.159 -1.891 12.619 -5.102 15.961 -9.503 C 23.668 -19.698 29.872 -27.573 34.557 -33.12 L 34.638 -12.546 C 34.638 -5.948 34.477 -1.481 34.148 .839 C 33.813 3.175 33.236 4.758 32.404 5.598 L 40.469 5.598 C 39.644 4.926 39.075 3.138 38.761 .233 C 38.44 -2.664 38.279 -8.539 38.279 -17.385 L 38.279 -26.777 L 38.279 -41.688 L 32.776 -41.688 C 30.901 -39.104 26.237 -33.135 18.764 -23.764 C 11.298 -14.399 5.036 -6.474 0 0 " fill="#2c276c"/>
<path transform="matrix(1,0,0,-1,384.7896,549.2998)" d="M 0 0 C -.219 -1.117 -.387 -2.883 -.496 -5.284 C -.605 -7.686 -.664 -10.97 -.664 -15.122 L -.664 -25.844 C -.664 -28.996 -.627 -31.646 -.562 -33.784 C -.489 -35.923 -.387 -37.411 -.248 -38.243 C -.029 -39.462 .737 -40.287 2.043 -40.703 C 3.35 -41.119 5.868 -41.33 9.583 -41.33 C 16.479 -41.33 21.807 -39.527 25.588 -35.938 C 29.361 -32.339 31.251 -27.26 31.251 -20.72 C 31.251 -13.853 29.266 -8.576 25.303 -4.854 C 21.333 -1.139 15.691 .722 8.386 .722 C 6.875 .722 5.423 .664 4.051 .54 C 2.671 .423 1.321 .24 0 0 M -10.05 -44.053 C -9.276 -43.33 -8.729 -41.688 -8.415 -39.104 C -8.094 -36.528 -7.94 -31.003 -7.94 -22.545 L -7.94 -19.538 C -7.94 -10.306 -8.094 -4.423 -8.415 -1.884 C -8.729 .671 -9.276 2.291 -10.05 3.014 L -3.883 3.014 C -1.401 3.014 1.912 3.16 6.072 3.444 C 10.232 3.736 13.188 3.875 14.925 3.875 C 22.69 3.875 28.799 1.897 33.236 -2.059 C 37.673 -6.015 39.892 -11.444 39.892 -18.355 C 39.892 -26.376 37.236 -32.726 31.915 -37.404 C 26.595 -42.075 19.37 -44.41 10.247 -44.41 C 8.24 -44.41 5.62 -44.352 2.372 -44.235 C -.861 -44.111 -3.087 -44.053 -4.298 -44.053 Z " fill="#2c276c"/>
<path transform="matrix(1,0,0,-1,491.8545,570.2324)" d="M 0 0 L 17.114 0 L 9.137 18.968 Z M -18.852 -23.121 C -16.283 -20.442 -13.714 -17.085 -11.116 -13.042 C -8.532 -9.006 -5.803 -4.08 -2.935 1.759 C -.533 6.604 1.437 10.947 2.999 14.765 C 4.554 18.596 5.327 20.888 5.327 21.654 C 5.327 22.041 5.276 22.405 5.167 22.785 C 5.058 23.15 4.89 23.544 4.678 23.945 L 15.173 23.945 C 19.281 12.093 23.149 2.095 26.791 -6.058 C 30.426 -14.202 33.557 -19.895 36.17 -23.121 L 26.915 -23.121 L 18.398 -2.723 L -1.365 -2.723 L -5.007 -10.429 L -5.08 -10.611 C -7.35 -15.319 -8.474 -18.734 -8.474 -20.858 C -8.474 -21.194 -8.438 -21.544 -8.371 -21.917 C -8.306 -22.289 -8.196 -22.683 -8.058 -23.121 Z " fill="#2c276c"/>
<path transform="matrix(1,0,0,-1,608.3193,593.3535)" d="M 0 0 L 2.978 0 L 2.978 -3.802 L 3.927 -3.802 C 6.992 -3.802 9.313 -4.335 10.918 -5.408 C 12.517 -6.488 13.313 -8.057 13.313 -10.145 C 13.313 -12.275 12.443 -13.889 10.714 -15.005 C 8.97 -16.114 6.423 -16.669 3.065 -16.669 C -.605 -16.669 -3.24 -16.268 -4.854 -15.465 C -6.466 -14.669 -7.356 -13.297 -7.518 -11.363 C -5.867 -12.049 -4.182 -12.567 -2.459 -12.889 C -.737 -13.21 1.103 -13.37 3.065 -13.37 C 4.664 -13.37 5.883 -13.1 6.722 -12.567 C 7.562 -12.02 7.984 -11.239 7.984 -10.21 C 7.984 -9.064 7.518 -8.21 6.591 -7.655 C 5.671 -7.094 4.277 -6.809 2.401 -6.809 C 1.985 -6.809 1.584 -6.823 1.183 -6.838 C .773 -6.867 .387 -6.89 0 -6.919 Z M 19.888 47.066 L 19.392 36.995 C 18.173 39.55 16.487 41.477 14.305 42.761 C 12.13 44.053 9.48 44.702 6.371 44.702 C .307 44.702 -4.452 42.973 -7.911 39.506 C -11.378 36.031 -13.101 31.259 -13.101 25.165 C -13.101 18.881 -11.21 13.874 -7.422 10.152 C -3.627 6.415 1.431 4.555 7.772 4.555 C 10.779 4.555 13.582 5.051 16.187 6.058 C 18.793 7.065 21.048 8.495 22.946 10.364 C 21.953 6.941 19.728 4.211 16.268 2.168 C 12.809 .132 8.656 -.897 3.803 -.897 C -3.576 -.897 -9.641 1.343 -14.385 5.81 C -19.121 10.276 -21.493 16.02 -21.493 23.048 C -21.493 30.821 -18.946 36.907 -13.845 41.315 C -8.743 45.724 -1.7 47.928 7.276 47.928 C 8.678 47.928 10.787 47.789 13.582 47.497 C 16.378 47.213 18.479 47.066 19.888 47.066 " fill="#2c276c"/>
<path transform="matrix(1,0,0,-1,704.209,570.624)" d="M 0 0 L 17.114 0 L 9.13 18.64 Z M 18.56 37.666 L 22.194 37.666 C 21.53 35.477 20.501 33.813 19.093 32.667 C 17.691 31.506 15.976 30.937 13.969 30.937 C 13.451 30.937 12.969 30.966 12.546 31.024 C 12.115 31.083 11.685 31.178 11.239 31.324 L 7.977 32.236 C 7.648 32.338 7.284 32.404 6.896 32.447 C 6.518 32.499 6.146 32.521 5.788 32.521 C 4.788 32.521 3.978 32.353 3.343 32.01 C 2.708 31.674 2.189 31.098 1.773 30.295 L -1.868 30.295 C -1.284 32.433 -.299 34.068 1.088 35.178 C 2.481 36.301 4.211 36.855 6.276 36.855 C 6.663 36.855 7.064 36.826 7.474 36.769 C 7.89 36.702 8.335 36.622 8.802 36.506 L 12.064 35.55 C 12.538 35.433 12.977 35.345 13.393 35.287 C 13.809 35.229 14.188 35.199 14.546 35.199 C 15.538 35.199 16.355 35.403 17.005 35.798 C 17.654 36.199 18.173 36.819 18.56 37.666 M -18.858 -22.728 C -16.29 -20.1 -13.714 -16.801 -11.122 -12.831 C -8.531 -8.86 -5.81 -4.007 -2.934 1.722 C -.54 6.495 1.431 10.758 2.992 14.516 C 4.547 18.274 5.328 20.529 5.328 21.281 C 5.328 21.661 5.276 22.033 5.16 22.391 C 5.051 22.756 4.89 23.135 4.671 23.536 L 15.166 23.536 C 19.274 11.889 23.15 2.051 26.784 -5.956 C 30.419 -13.969 33.55 -19.56 36.17 -22.728 L 26.908 -22.728 L 18.399 -2.679 L -1.364 -2.679 L -5.007 -10.254 L -5.087 -10.43 C -7.35 -15.057 -8.48 -18.414 -8.48 -20.509 C -8.48 -20.837 -8.444 -21.18 -8.371 -21.545 C -8.313 -21.909 -8.203 -22.304 -8.064 -22.728 Z " fill="#2c276c"/>
<path transform="matrix(1,0,0,-1,826.0908,590.7021)" d="M 0 0 C 5.153 0 9.203 1.73 12.138 5.182 C 15.064 8.642 16.538 13.443 16.538 19.61 C 16.538 26.566 14.969 32.032 11.823 36.018 C 8.678 39.987 4.387 41.979 -1.072 41.979 C -6.692 41.979 -11.078 40.221 -14.217 36.711 C -17.362 33.2 -18.932 28.273 -18.932 21.938 C -18.932 15.013 -17.268 9.619 -13.946 5.773 C -10.626 1.927 -5.977 0 0 0 M -2.598 -3.547 C -10.567 -3.547 -16.705 -1.511 -21.019 2.569 C -25.332 6.642 -27.492 12.443 -27.492 19.969 C -27.492 28.164 -25.142 34.434 -20.464 38.769 C -15.778 43.104 -9.006 45.278 -.16 45.278 C 8.188 45.278 14.466 43.345 18.691 39.483 C 22.909 35.631 25.012 29.879 25.012 22.23 C 25.012 14.414 22.501 8.16 17.487 3.481 C 12.473 -1.204 5.773 -3.547 -2.598 -3.547 " fill="#2c276c"/>
</g>
</g>
</g>
</svg>
