<svg width="555" height="555" viewBox="0 0 555 555" fill="none" xmlns="http://www.w3.org/2000/svg">
<path d="M357.798 192.676C357.855 186.997 356.229 181.218 352.958 176.583C347.605 168.998 338.862 164.918 327.675 164.785C311.36 164.59 269.102 164.812 264.295 164.812C255.797 164.812 247.306 167.648 240.294 172.448C233.172 177.321 229.118 183.526 226.118 191.485C222.65 201.039 218.949 210.506 215.707 220.141C212.037 231.038 206.913 243.141 211.041 254.637C211.867 256.936 212.993 259.124 214.399 261.116C219.75 268.696 228.49 272.775 239.68 272.914C246.746 273.001 299.728 272.924 302.04 272.849C306.257 272.714 311.809 272.296 317.355 270.254C324.936 267.463 331.295 262.95 335.741 257.204C337.96 254.336 339.302 250.948 340.608 247.591C344.904 236.543 357.658 200.273 357.794 192.915L357.798 192.676Z" fill="white"/>
<path d="M239.76 266.376C257.503 266.595 298.553 266.42 301.834 266.314C306.395 266.168 310.899 265.671 315.133 264.112C321.131 261.904 326.73 258.227 330.636 253.179C332.038 251.368 333.219 249.362 334.01 247.177L336.473 240.373C336.607 240.001 336.696 239.637 336.802 239.271H336.872L347.017 211.246C347.017 211.246 347.229 210.73 346.612 210.73H346.177C345.746 210.73 345.29 210.936 345 211.25C339.114 217.627 329.5 222.073 320.182 222.073H247.334C239.805 222.073 232.724 224.585 226.909 228.259C221.672 231.569 217.079 236.207 215.998 242.771C215.236 247.399 216.568 252.918 219.678 257.323C224.563 264.246 232.583 266.287 239.76 266.376Z" fill="#1DBECF"/>
<path d="M327.598 171.323C310.127 171.115 267.999 171.351 264.294 171.351C251.036 171.351 237.181 179.934 233.348 190.522L220.341 226.452C220.341 226.452 220.128 226.969 220.746 226.969H221.181C221.612 226.969 222.068 226.763 222.358 226.449C228.244 220.071 237.857 215.626 247.175 215.626H320.023C327.553 215.626 334.634 213.114 340.449 209.439C345.685 206.131 350.279 201.491 351.36 194.927C352.122 190.3 350.789 184.781 347.68 180.376C342.794 173.453 334.774 171.408 327.598 171.323Z" fill="#EF4023"/>
<path d="M230.118 305.831H217.802L212.748 343.31C210.392 343.698 208.104 343.931 205.81 343.931C203.513 343.931 201.212 343.698 198.978 343.31L204.035 305.831H191.72C191.558 301.637 191.924 297.219 193.387 293.496H231.785C231.947 297.686 231.582 302.104 230.118 305.831Z" fill="#1DBECF"/>
<path d="M235.446 321.278C237.68 321.736 239.519 321.815 240.669 321.889C243.422 321.889 244.511 320.344 244.436 318.4C244.372 316.695 243.246 315.294 240.95 315.294C237.814 315.294 236.144 317.625 235.446 321.278ZM256.191 339.587C252.56 342.609 246.596 344.706 239.636 344.706C228.162 344.706 221.515 338.967 221.102 328.256C220.596 315.066 228.863 305.29 241.408 305.29C251.581 305.29 257.353 310.175 257.627 317.317C257.995 326.859 249.297 329.419 242.565 329.419C240.118 329.419 237.58 329.111 235.038 328.564C235.277 332.838 237.103 334.543 241.847 334.543C245.135 334.543 248.074 333.38 251.343 330.895C254.56 332.992 256.141 336.327 256.191 339.587Z" fill="#1DBECF"/>
<path d="M259.57 336.173C259.508 334.543 259.704 331.75 259.886 330.427L265.002 292.561C267.512 292.174 269.878 292.02 272.172 292.02C274.468 292.02 276.692 292.174 278.772 292.561L273.767 329.419C273.705 329.807 273.64 330.119 273.665 330.741C273.688 331.362 274.093 331.904 274.935 331.904C275.318 331.904 275.544 331.825 275.912 331.437C278.844 334.081 279.887 337.415 279.832 341.914C277.822 343.31 274.428 344.552 270.144 344.552C262.724 344.552 259.762 341.143 259.57 336.173Z" fill="#1DBECF"/>
<path d="M294.847 321.278C297.081 321.736 298.92 321.815 300.07 321.889C302.824 321.889 303.912 320.344 303.838 318.4C303.773 316.695 302.647 315.294 300.351 315.294C297.215 315.294 295.545 317.625 294.847 321.278ZM315.592 339.587C311.962 342.609 305.997 344.706 299.037 344.706C287.564 344.706 280.916 338.967 280.504 328.256C279.997 315.066 288.264 305.29 300.809 305.29C310.982 305.29 316.755 310.175 317.028 317.317C317.396 326.859 308.699 329.419 301.966 329.419C299.519 329.419 296.981 329.111 294.44 328.564C294.678 332.838 296.504 334.543 301.248 334.543C304.536 334.543 307.476 333.38 310.744 330.895C313.961 332.992 315.542 336.327 315.592 339.587Z" fill="#1DBECF"/>
<path d="M318.288 328.952C317.722 314.291 326.697 305.056 338.936 305.056C344.825 305.056 349.271 307.228 351.261 309.321C350.407 312.894 347.415 316.616 344.348 318.48C343.32 317.55 341.6 316.616 339 316.616C335.02 316.616 331.96 320.498 332.209 326.939C332.358 330.816 334.135 333.3 337.653 333.3C339.947 333.3 341.371 332.525 343.14 330.741C346.719 332.291 348.905 335.472 349.519 339.508C346.49 342.301 342.375 344.706 335.646 344.706C325.241 344.706 318.673 338.966 318.288 328.952Z" fill="#1DBECF"/>
<path d="M375.47 322.67C375.324 318.868 373.857 316.537 370.567 316.537C366.207 316.537 364.332 321.501 364.387 326.86C364.539 330.741 366.161 333.226 369.452 333.226C373.964 333.226 375.684 328.176 375.47 322.67ZM350.67 328.176C350.131 314.216 358.189 304.977 370.811 304.977C381.978 304.977 388.79 311.03 389.2 321.661C389.732 335.472 381.984 344.786 368.982 344.786C358.12 344.786 351.082 338.887 350.67 328.176Z" fill="#1DBECF"/>
<path d="M451.481 316.616C451.528 317.779 451.496 318.947 451.315 320.19L448.226 343.231C445.796 343.698 443.507 343.852 441.211 343.852C438.917 343.852 436.618 343.698 434.379 343.231L437.187 322.745C437.239 322.202 437.294 321.582 437.275 321.119C437.17 318.401 435.453 317.471 433.234 317.471C431.551 317.471 430.493 317.779 429.288 318.246C429.315 318.947 429.26 319.568 429.134 320.265L426.047 343.31C423.615 343.698 421.324 343.852 419.03 343.852C416.734 343.852 414.435 343.698 412.201 343.31L415.006 322.823C415.058 322.202 415.116 321.661 415.098 321.199C414.989 318.401 413.272 317.55 411.056 317.55C409.142 317.55 408.006 317.858 407.179 318.167L403.864 343.31C401.508 343.698 399.143 343.852 396.846 343.852C394.552 343.852 392.329 343.698 390.097 343.31L394.667 309.087C396.987 307.849 404.376 305.056 414.092 305.056C418.757 305.056 422.235 305.985 424.67 307.62C427.597 306.219 431.606 304.977 436.27 304.977C446.521 304.977 451.207 309.474 451.481 316.616Z" fill="#1DBECF"/>
<path d="M103.53 322.998C102.829 304.847 114.285 291.21 131.334 291.21C138.399 291.21 143.093 293.397 146.115 296.12C144.821 300.33 141.309 304.922 137.171 307.109C134.945 305.156 133.079 304.613 130.161 304.613C123.02 304.613 118.37 311.467 118.736 320.975C118.979 327.287 122.128 331.258 127.657 331.258C131.727 331.258 133.601 330.085 135.686 328.37C139.704 330.945 141.61 334.607 141.886 339.751C138.901 342.008 134.078 344.424 125.783 344.424C111.959 344.424 104.022 335.776 103.53 322.998Z" fill="#EF4023"/>
<path d="M192.93 293.63C189.387 309.285 181.899 326.273 170.18 343.022C167.819 343.489 165.438 343.564 163.058 343.564C160.372 343.564 158.371 343.489 155.511 343.022C150.678 327.207 147.581 310.687 146.54 293.63C149.589 293.083 154.03 292.69 157.564 292.69C159.176 292.69 160.638 292.77 161.87 292.849C162.285 305.548 163.455 318.013 165.458 330.085C172.026 317.232 176.452 304.534 178.691 292.849C179.454 292.77 180.604 292.69 181.986 292.69C185.825 292.69 191.682 293.163 192.93 293.63Z" fill="#EF4023"/>
<path d="M113.317 374.613L112.525 379.133H119.563C119.648 380.236 119.507 381.083 119.083 381.931H112.045L111.169 386.96H119.309C119.45 388.119 119.224 389.052 118.8 389.843H107.466L110.66 371.703H121.739C121.909 372.917 121.683 373.765 121.231 374.613H113.317Z" fill="#1DBECF"/>
<path d="M129.548 388.147C129.916 387.017 130.679 386.141 131.555 385.661C132.515 386.593 134.24 387.328 136.162 387.328C138.536 387.328 139.695 386.451 139.695 384.729C139.695 381.14 132.063 382.835 132.063 376.986C132.063 373.596 134.805 371.25 138.932 371.25C141.871 371.25 143.68 372.155 144.641 373.059C144.387 374.048 143.595 375.15 142.69 375.63C141.73 374.839 140.373 374.217 138.564 374.217C136.614 374.217 135.286 375.094 135.286 376.534C135.286 379.642 142.945 378.173 142.945 384.163C142.945 387.978 140.203 390.295 135.795 390.295C132.431 390.295 130.452 389.136 129.548 388.147Z" fill="#1DBECF"/>
<path d="M168.226 374.585H163.11L160.397 389.871C159.832 389.956 159.295 390.04 158.758 390.04C158.221 390.04 157.712 389.956 157.175 389.871L159.888 374.585H154.716C154.688 373.483 154.829 372.607 155.225 371.703H168.735C168.763 372.777 168.65 373.596 168.226 374.585Z" fill="#1DBECF"/>
<path d="M184.283 382.835L183.35 377.128L183.124 375.573L182.389 377.128L179.421 382.835H184.283ZM188.777 389.645C188.098 389.871 187.42 389.955 186.685 389.955C186.289 389.955 185.809 389.927 185.441 389.842L184.735 385.491H178.036L175.775 389.842C175.295 389.927 174.786 389.955 174.334 389.955C173.684 389.955 173.09 389.871 172.638 389.645L182.219 371.703C182.785 371.562 183.379 371.533 183.915 371.533C184.48 371.533 184.961 371.562 185.498 371.703L188.777 389.645Z" fill="#1DBECF"/>
<path d="M219.552 371.787L216.359 389.842C215.793 389.956 215.341 390.012 214.832 390.012C214.351 390.012 213.899 389.956 213.334 389.842L215.086 380.01L215.708 377.241L214.974 378.738L209.518 388.175C208.954 388.26 208.529 388.288 208.105 388.288C207.709 388.288 207.286 388.26 206.72 388.175L204.516 378.681L204.261 377.325L203.894 380.01L202.141 389.842C201.633 389.956 201.067 390.012 200.615 390.012C200.106 390.012 199.711 389.956 199.146 389.842L202.34 371.787C202.792 371.675 203.357 371.561 204.091 371.561C204.601 371.561 205.11 371.59 205.646 371.703L208.529 384.022L208.671 385.039L209.123 384.022L216.245 371.703C216.839 371.618 217.235 371.59 217.913 371.59C218.45 371.59 218.987 371.646 219.552 371.787Z" fill="#1DBECF"/>
<path d="M243.187 379.19C243.187 376.082 241.576 374.161 238.721 374.161C234.793 374.161 232.729 377.636 232.729 382.27C232.729 385.35 234.369 387.299 237.167 387.299C241.124 387.299 243.187 383.852 243.187 379.19ZM229.253 382.609C229.253 375.772 233.295 371.166 239.145 371.166C243.696 371.166 246.664 374.161 246.664 378.88C246.664 385.774 242.622 390.295 236.715 390.295C232.249 390.295 229.253 387.328 229.253 382.609Z" fill="#1DBECF"/>
<path d="M255.319 388.147C255.686 387.017 256.449 386.141 257.326 385.661C258.287 386.593 260.011 387.328 261.932 387.328C264.307 387.328 265.466 386.451 265.466 384.729C265.466 381.14 257.835 382.835 257.835 376.986C257.835 373.596 260.576 371.25 264.702 371.25C267.642 371.25 269.451 372.155 270.412 373.059C270.157 374.048 269.367 375.15 268.462 375.63C267.501 374.839 266.145 374.217 264.336 374.217C262.385 374.217 261.057 375.094 261.057 376.534C261.057 379.642 268.716 378.173 268.716 384.163C268.716 387.978 265.975 390.295 261.565 390.295C258.202 390.295 256.223 389.136 255.319 388.147Z" fill="#1DBECF"/>
<path d="M304.662 389.843H294.12L297.313 371.703C297.879 371.59 298.387 371.533 298.924 371.533C299.462 371.533 299.999 371.59 300.535 371.703L297.822 386.961H305.171C305.227 387.977 305.114 388.938 304.662 389.843Z" fill="#1DBECF"/>
<path d="M315.34 389.843L318.533 371.731C319.099 371.59 319.636 371.533 320.145 371.533C320.682 371.533 321.19 371.59 321.727 371.731L318.533 389.843C317.997 389.955 317.488 390.012 316.95 390.012C316.386 390.012 315.905 389.955 315.34 389.843Z" fill="#1DBECF"/>
<path d="M340.351 379.868H346.682L345.099 388.882C343.601 389.645 341.736 390.295 339.079 390.295C334.217 390.295 331.278 387.469 331.278 382.581C331.278 375.545 336.082 371.137 342.244 371.137C344.647 371.137 346.512 371.872 347.501 372.776C347.162 373.879 346.427 374.895 345.41 375.46C344.449 374.641 343.177 374.189 341.481 374.189C337.778 374.189 334.754 377.156 334.754 382.214C334.754 385.322 336.507 387.299 339.559 387.299C340.633 387.299 341.509 387.158 342.272 386.904L342.979 382.863H339.813C339.757 381.761 339.983 380.772 340.351 379.868Z" fill="#1DBECF"/>
<path d="M366.665 382.835L365.733 377.128L365.507 375.573L364.772 377.128L361.804 382.835H366.665ZM371.159 389.645C370.482 389.871 369.803 389.955 369.068 389.955C368.673 389.955 368.192 389.927 367.825 389.842L367.117 385.491H360.419L358.158 389.842C357.677 389.927 357.168 389.955 356.716 389.955C356.067 389.955 355.473 389.871 355.021 389.645L364.603 371.703C365.167 371.562 365.761 371.533 366.298 371.533C366.864 371.533 367.344 371.562 367.881 371.703L371.159 389.645Z" fill="#1DBECF"/>
<path d="M394.785 379.501C394.785 376.337 393.032 374.387 389.414 374.387C388.793 374.387 388.171 374.387 387.436 374.443L385.203 387.073C385.966 387.158 386.701 387.187 387.521 387.187C392.891 387.187 394.785 383.655 394.785 379.501ZM398.289 379.021C398.289 385.519 394.304 390.125 386.843 390.125C384.977 390.125 383.282 390.068 381.529 389.786L384.694 371.787C386.362 371.505 387.718 371.392 389.697 371.392C395.406 371.392 398.289 374.358 398.289 379.021Z" fill="#1DBECF"/>
<path d="M422.502 379.19C422.502 376.082 420.891 374.161 418.036 374.161C414.107 374.161 412.044 377.636 412.044 382.27C412.044 385.35 413.683 387.299 416.481 387.299C420.439 387.299 422.502 383.852 422.502 379.19ZM408.567 382.609C408.567 375.772 412.61 371.166 418.46 371.166C423.011 371.166 425.978 374.161 425.978 378.88C425.978 385.774 421.936 390.295 416.029 390.295C411.563 390.295 408.567 387.328 408.567 382.609Z" fill="#1DBECF"/>
<path d="M434.634 388.147C435.001 387.017 435.764 386.141 436.641 385.661C437.601 386.593 439.325 387.328 441.247 387.328C443.622 387.328 444.781 386.451 444.781 384.729C444.781 381.14 437.149 382.835 437.149 376.986C437.149 373.596 439.891 371.25 444.017 371.25C446.957 371.25 448.766 372.155 449.727 373.059C449.472 374.048 448.681 375.15 447.776 375.63C446.816 374.839 445.459 374.217 443.65 374.217C441.7 374.217 440.371 375.094 440.371 376.534C440.371 379.642 448.031 378.173 448.031 384.163C448.031 387.978 445.289 390.295 440.88 390.295C437.517 390.295 435.538 389.136 434.634 388.147Z" fill="#1DBECF"/>
</svg>
