<?xml version="1.0" encoding="UTF-8" standalone="no"?>
<!DOCTYPE svg PUBLIC "-//W3C//DTD SVG 1.1//EN" "http://www.w3.org/Graphics/SVG/1.1/DTD/svg11.dtd">
<svg xmlns="http://www.w3.org/2000/svg" xmlns:xlink="http://www.w3.org/1999/xlink" version="1.1" width="960pt" height="960pt" viewBox="0 0 960 960">
<g enable-background="new">
<g id="Layer-1" data-name="Layer 1">
<clipPath id="cp0">
<path transform="matrix(1,0,0,-1,0,960)" d="M 59.055 182.363 L 900.945 182.363 L 900.945 777.63906 L 59.055 777.63906 Z "/>
</clipPath>
<g clip-path="url(#cp0)">
<path transform="matrix(1,0,0,-1,618.8931,333.2771)" d="M 0 0 C .1 9.823 -2.714 19.819 -8.371 27.837 C -17.631 40.957 -32.753 48.013 -52.104 48.244 C -80.324 48.581 -153.42 48.196 -161.734 48.196 C -176.433 48.196 -191.12 43.291 -203.25 34.989 C -215.568 26.56 -222.58 15.826 -227.77 2.059 C -233.769 -14.466 -240.17 -30.842 -245.779 -47.507 C -252.127 -66.357 -260.989 -87.291 -253.849 -107.176 C -252.421 -111.152 -250.472 -114.938 -248.041 -118.383 C -238.785 -131.494 -223.667 -138.55 -204.312 -138.79 C -192.09 -138.941 -100.444 -138.807 -96.445 -138.678 C -89.151 -138.444 -79.547 -137.722 -69.955 -134.19 C -56.841 -129.361 -45.843 -121.555 -38.151 -111.616 C -34.313 -106.656 -31.992 -100.796 -29.733 -94.988 C -22.302 -75.879 -.242 -13.141 -.006 -.414 L 0 0 " fill="#ffffff"/>
<path transform="matrix(1,0,0,-1,414.7198,460.7581)" d="M 0 0 C 30.691 -.38 101.696 -.076 107.371 .106 C 115.26 .36 123.052 1.219 130.375 3.915 C 140.75 7.735 150.434 14.095 157.191 22.826 C 159.617 25.959 161.659 29.43 163.027 33.209 L 167.287 44.978 C 167.52 45.622 167.674 46.25 167.857 46.884 L 167.977 46.884 L 185.525 95.359 C 185.525 95.359 185.892 96.252 184.825 96.252 L 184.072 96.252 C 183.327 96.252 182.539 95.896 182.037 95.353 C 171.855 84.322 155.227 76.632 139.109 76.632 L 13.102 76.632 C .078 76.632 -12.17 72.287 -22.229 65.931 C -31.287 60.207 -39.232 52.183 -41.102 40.829 C -42.42 32.825 -40.116 23.279 -34.737 15.659 C -26.286 3.684 -12.414 .154 0 0 " fill="#1dbecf"/>
<path transform="matrix(1,0,0,-1,566.6558,296.3421)" d="M 0 0 C -30.22 .36 -103.09 -.048 -109.498 -.048 C -132.431 -.048 -156.397 -14.895 -163.027 -33.209 L -185.525 -95.359 C -185.525 -95.359 -185.893 -96.253 -184.825 -96.253 L -184.072 -96.253 C -183.327 -96.253 -182.539 -95.896 -182.037 -95.353 C -171.855 -84.322 -155.227 -76.632 -139.109 -76.632 L -13.102 -76.632 C -.078 -76.632 12.17 -72.287 22.229 -65.931 C 31.286 -60.208 39.232 -52.183 41.102 -40.829 C 42.42 -32.826 40.115 -23.279 34.737 -15.659 C 26.285 -3.684 12.413 -.148 0 0 " fill="#ef4023"/>
<path transform="matrix(1,0,0,-1,398.042,529.00576)" d="M 0 0 L -21.303 0 L -30.045 -64.828 C -34.121 -65.498 -38.079 -65.902 -42.047 -65.902 C -46.019 -65.902 -49.999 -65.498 -53.863 -64.828 L -45.116 0 L -66.418 0 C -66.698 7.256 -66.066 14.898 -63.534 21.337 L 2.884 21.337 C 3.164 14.09 2.532 6.448 0 0 " fill="#1dbecf"/>
<path transform="matrix(1,0,0,-1,407.2578,555.72439)" d="M 0 0 C 3.864 -.791 7.045 -.928 9.035 -1.057 C 13.797 -1.057 15.68 1.616 15.551 4.978 C 15.439 7.927 13.492 10.351 9.521 10.351 C 4.096 10.351 1.208 6.319 0 0 M 35.883 -31.67 C 29.603 -36.896 19.287 -40.524 7.247 -40.524 C -12.599 -40.524 -24.097 -30.596 -24.811 -12.069 C -25.687 10.746 -11.387 27.656 10.312 27.656 C 27.909 27.656 37.894 19.205 38.367 6.852 C 39.003 -9.654 23.959 -14.081 12.314 -14.081 C 8.081 -14.081 3.692 -13.548 -.705 -12.603 C -.292 -19.996 2.867 -22.944 11.072 -22.944 C 16.759 -22.944 21.844 -20.933 27.497 -16.635 C 33.063 -20.262 35.797 -26.03 35.883 -31.67 " fill="#1dbecf"/>
<path transform="matrix(1,0,0,-1,448.9864,581.4881)" d="M 0 0 C -.107 2.819 .232 7.65 .546 9.938 L 9.396 75.436 C 13.737 76.106 17.83 76.373 21.797 76.373 C 25.769 76.373 29.616 76.106 33.213 75.436 L 24.557 11.683 C 24.449 11.012 24.337 10.471 24.38 9.396 C 24.419 8.321 25.12 7.384 26.577 7.384 C 27.239 7.384 27.63 7.521 28.266 8.192 C 33.338 3.619 35.143 -2.149 35.048 -9.93 C 31.571 -12.346 25.7 -14.494 18.29 -14.494 C 5.455 -14.494 .331 -8.597 0 0 " fill="#1dbecf"/>
<path transform="matrix(1,0,0,-1,510.0054,555.72439)" d="M 0 0 C 3.864 -.791 7.046 -.928 9.035 -1.057 C 13.798 -1.057 15.681 1.616 15.552 4.978 C 15.44 7.927 13.493 10.351 9.521 10.351 C 4.097 10.351 1.208 6.319 0 0 M 35.883 -31.67 C 29.604 -36.896 19.287 -40.524 7.247 -40.524 C -12.598 -40.524 -24.097 -30.596 -24.81 -12.069 C -25.687 10.746 -11.386 27.656 10.313 27.656 C 27.91 27.656 37.895 19.205 38.367 6.852 C 39.004 -9.654 23.96 -14.081 12.315 -14.081 C 8.081 -14.081 3.692 -13.548 -.704 -12.603 C -.292 -19.996 2.867 -22.944 11.073 -22.944 C 16.76 -22.944 21.845 -20.933 27.497 -16.635 C 33.063 -20.262 35.797 -26.03 35.883 -31.67 " fill="#1dbecf"/>
<path transform="matrix(1,0,0,-1,550.5522,568.9979)" d="M 0 0 C -.979 25.36 14.546 41.334 35.715 41.334 C 45.902 41.334 53.592 37.577 57.035 33.957 C 55.557 27.776 50.381 21.338 45.077 18.113 C 43.298 19.722 40.323 21.338 35.827 21.338 C 28.941 21.338 23.649 14.623 24.079 3.482 C 24.338 -3.224 27.411 -7.521 33.497 -7.521 C 37.465 -7.521 39.928 -6.181 42.988 -3.095 C 49.178 -5.776 52.96 -11.278 54.021 -18.259 C 48.782 -23.091 41.664 -27.251 30.024 -27.251 C 12.027 -27.251 .666 -17.322 0 0 " fill="#1dbecf"/>
<path transform="matrix(1,0,0,-1,649.4624,558.1316)" d="M 0 0 C -.254 6.577 -2.79 10.608 -8.481 10.608 C -16.024 10.608 -19.266 2.021 -19.171 -7.247 C -18.909 -13.961 -16.103 -18.259 -10.411 -18.259 C -2.605 -18.259 .369 -9.524 0 0 M -42.898 -9.524 C -43.831 14.623 -29.892 30.604 -8.06 30.604 C 11.257 30.604 23.039 20.134 23.748 1.745 C 24.668 -22.145 11.266 -38.255 -11.224 -38.255 C -30.012 -38.255 -42.185 -28.051 -42.898 -9.524 " fill="#1dbecf"/>
<path transform="matrix(1,0,0,-1,780.9409,547.66006)" d="M 0 0 C .081 -2.012 .025 -4.032 -.288 -6.182 L -5.631 -46.036 C -9.835 -46.844 -13.794 -47.11 -17.766 -47.11 C -21.733 -47.11 -25.709 -46.844 -29.582 -46.036 L -24.725 -10.601 C -24.635 -9.663 -24.54 -8.589 -24.574 -7.789 C -24.755 -3.087 -27.725 -1.479 -31.563 -1.479 C -34.474 -1.479 -36.305 -2.012 -38.389 -2.82 C -38.342 -4.032 -38.437 -5.106 -38.655 -6.311 L -43.994 -46.174 C -48.202 -46.844 -52.165 -47.11 -56.133 -47.11 C -60.104 -47.11 -64.08 -46.844 -67.944 -46.174 L -63.092 -10.737 C -63.002 -9.663 -62.902 -8.727 -62.933 -7.927 C -63.122 -3.087 -66.092 -1.616 -69.926 -1.616 C -73.236 -1.616 -75.2 -2.149 -76.632 -2.683 L -82.366 -46.174 C -86.44 -46.844 -90.532 -47.11 -94.504 -47.11 C -98.472 -47.11 -102.318 -46.844 -106.179 -46.174 L -98.274 13.023 C -94.26 15.164 -81.48 19.996 -64.674 19.996 C -56.605 19.996 -50.588 18.388 -46.376 15.56 C -41.313 17.984 -34.379 20.133 -26.311 20.133 C -8.58 20.133 -.474 12.354 0 0 " fill="#1dbecf"/>
<path transform="matrix(1,0,0,-1,179.0786,558.699)" d="M 0 0 C -1.212 31.396 18.604 54.985 48.094 54.985 C 60.314 54.985 68.434 51.202 73.661 46.491 C 71.422 39.21 65.348 31.267 58.191 27.484 C 54.34 30.862 51.112 31.8 46.065 31.8 C 33.712 31.8 25.67 19.945 26.302 3.499 C 26.723 -7.419 32.169 -14.287 41.733 -14.287 C 48.773 -14.287 52.015 -12.259 55.621 -9.293 C 62.571 -13.746 65.868 -20.081 66.345 -28.979 C 61.183 -32.882 52.84 -37.061 38.492 -37.061 C 14.58 -37.061 .851 -22.102 0 0 " fill="#ef4023"/>
<path transform="matrix(1,0,0,-1,333.7168,507.9002)" d="M 0 0 C -6.129 -27.08 -19.081 -56.464 -39.352 -85.435 C -43.435 -86.243 -47.553 -86.372 -51.671 -86.372 C -56.317 -86.372 -59.777 -86.243 -64.725 -85.435 C -73.085 -58.08 -78.441 -29.504 -80.242 0 C -74.968 .945 -67.287 1.625 -61.174 1.625 C -58.385 1.625 -55.857 1.487 -53.726 1.35 C -53.008 -20.615 -50.983 -42.176 -47.519 -63.058 C -36.158 -40.826 -28.502 -18.861 -24.63 1.35 C -23.31 1.487 -21.32 1.625 -18.93 1.625 C -12.289 1.625 -2.158 .808 0 0 " fill="#ef4023"/>
<path transform="matrix(1,0,0,-1,196.0073,647.9793)" d="M 0 0 L -1.369 -7.819 L 10.805 -7.819 C 10.951 -9.726 10.707 -11.191 9.974 -12.658 L -2.2 -12.658 L -3.715 -21.357 L 10.365 -21.357 C 10.609 -23.361 10.218 -24.975 9.485 -26.343 L -10.12 -26.343 L -4.595 5.034 L 14.569 5.034 C 14.862 2.933 14.471 1.467 13.689 0 Z " fill="#1dbecf"/>
<path transform="matrix(1,0,0,-1,224.083,671.3895)" d="M 0 0 C .636 1.955 1.956 3.47 3.471 4.301 C 5.133 2.688 8.116 1.417 11.44 1.417 C 15.547 1.417 17.551 2.933 17.551 5.913 C 17.551 12.12 4.351 9.188 4.351 19.305 C 4.351 25.17 9.093 29.227 16.231 29.227 C 21.316 29.227 24.445 27.662 26.107 26.099 C 25.667 24.388 24.298 22.481 22.733 21.651 C 21.071 23.02 18.725 24.095 15.596 24.095 C 12.222 24.095 9.925 22.579 9.925 20.087 C 9.925 14.711 23.173 17.252 23.173 6.891 C 23.173 .293 18.431 -3.715 10.805 -3.715 C 4.987 -3.715 1.564 -1.711 0 0 " fill="#1dbecf"/>
<path transform="matrix(1,0,0,-1,290.9859,647.93057)" d="M 0 0 L -8.849 0 L -13.542 -26.44 C -14.52 -26.587 -15.449 -26.733 -16.378 -26.733 C -17.307 -26.733 -18.187 -26.587 -19.116 -26.44 L -14.422 0 L -23.369 0 C -23.418 1.906 -23.173 3.422 -22.489 4.985 L .88 4.985 C .929 3.128 .733 1.711 0 0 " fill="#1dbecf"/>
<path transform="matrix(1,0,0,-1,318.7593,662.201)" d="M 0 0 L -1.613 9.872 L -2.005 12.561 L -3.276 9.872 L -8.409 0 Z M 7.773 -11.779 C 6.6 -12.17 5.427 -12.316 4.155 -12.316 C 3.471 -12.316 2.64 -12.268 2.004 -12.121 L .782 -4.595 L -10.805 -4.595 L -14.716 -12.121 C -15.547 -12.268 -16.427 -12.316 -17.209 -12.316 C -18.333 -12.316 -19.36 -12.17 -20.143 -11.779 L -3.569 19.256 C -2.591 19.5 -1.564 19.549 -.636 19.549 C .342 19.549 1.173 19.5 2.102 19.256 Z " fill="#1dbecf"/>
<path transform="matrix(1,0,0,-1,379.7661,643.0916)" d="M 0 0 L -5.524 -31.23 C -6.502 -31.426 -7.285 -31.523 -8.165 -31.523 C -8.996 -31.523 -9.778 -31.426 -10.756 -31.23 L -7.725 -14.223 L -6.649 -9.433 L -7.92 -12.023 L -17.356 -28.347 C -18.333 -28.493 -19.067 -28.542 -19.8 -28.542 C -20.485 -28.542 -21.218 -28.493 -22.196 -28.347 L -26.009 -11.925 L -26.449 -9.579 L -27.085 -14.223 L -30.116 -31.23 C -30.996 -31.426 -31.974 -31.523 -32.756 -31.523 C -33.636 -31.523 -34.32 -31.426 -35.298 -31.23 L -29.773 0 C -28.991 .195 -28.014 .391 -26.743 .391 C -25.862 .391 -24.982 .342 -24.054 .146 L -19.067 -21.162 L -18.822 -22.922 L -18.04 -21.162 L -5.72 .146 C -4.693 .293 -4.009 .342 -2.836 .342 C -1.907 .342 -.978 .244 0 0 " fill="#1dbecf"/>
<path transform="matrix(1,0,0,-1,420.648,655.8963)" d="M 0 0 C 0 5.376 -2.787 8.699 -7.725 8.699 C -14.52 8.699 -18.089 2.688 -18.089 -5.327 C -18.089 -10.655 -15.253 -14.027 -10.413 -14.027 C -3.569 -14.027 0 -8.064 0 0 M -24.102 -5.914 C -24.102 5.913 -17.111 13.88 -6.991 13.88 C .88 13.88 6.014 8.699 6.014 .537 C 6.014 -11.388 -.978 -19.208 -11.195 -19.208 C -18.92 -19.208 -24.102 -14.076 -24.102 -5.914 " fill="#1dbecf"/>
<path transform="matrix(1,0,0,-1,441.6333,671.3895)" d="M 0 0 C .635 1.955 1.955 3.47 3.471 4.301 C 5.133 2.688 8.115 1.417 11.439 1.417 C 15.547 1.417 17.551 2.933 17.551 5.913 C 17.551 12.12 4.351 9.188 4.351 19.305 C 4.351 25.17 9.093 29.227 16.23 29.227 C 21.315 29.227 24.444 27.662 26.106 26.099 C 25.666 24.388 24.298 22.481 22.733 21.651 C 21.071 23.02 18.725 24.095 15.596 24.095 C 12.222 24.095 9.924 22.579 9.924 20.087 C 9.924 14.711 23.173 17.252 23.173 6.891 C 23.173 .293 18.431 -3.715 10.804 -3.715 C 4.986 -3.715 1.564 -1.711 0 0 " fill="#1dbecf"/>
<path transform="matrix(1,0,0,-1,526.9829,674.32217)" d="M 0 0 L -18.235 0 L -12.711 31.377 C -11.733 31.572 -10.854 31.67 -9.925 31.67 C -8.995 31.67 -8.066 31.572 -7.138 31.377 L -11.831 4.985 L .88 4.985 C .978 3.226 .782 1.564 0 0 " fill="#1dbecf"/>
<path transform="matrix(1,0,0,-1,545.4526,674.32217)" d="M 0 0 L 5.524 31.328 C 6.502 31.572 7.431 31.67 8.311 31.67 C 9.24 31.67 10.12 31.572 11.049 31.328 L 5.524 0 C 4.596 -.195 3.716 -.293 2.786 -.293 C 1.809 -.293 .978 -.195 0 0 " fill="#1dbecf"/>
<path transform="matrix(1,0,0,-1,588.7144,657.0691)" d="M 0 0 L 10.951 0 L 8.213 -15.591 C 5.622 -16.911 2.396 -18.035 -2.2 -18.035 C -10.609 -18.035 -15.693 -13.147 -15.693 -4.692 C -15.693 7.478 -7.383 15.102 3.275 15.102 C 7.431 15.102 10.657 13.831 12.369 12.267 C 11.782 10.36 10.511 8.602 8.751 7.624 C 7.089 9.041 4.889 9.823 1.955 9.823 C -4.449 9.823 -9.681 4.691 -9.681 -4.057 C -9.681 -9.433 -6.649 -12.854 -1.369 -12.854 C .488 -12.854 2.004 -12.61 3.324 -12.17 L 4.547 -5.181 L -.929 -5.181 C -1.026 -3.275 -.636 -1.564 0 0 " fill="#1dbecf"/>
<path transform="matrix(1,0,0,-1,634.232,662.201)" d="M 0 0 L -1.613 9.872 L -2.004 12.561 L -3.275 9.872 L -8.408 0 Z M 7.773 -11.779 C 6.601 -12.17 5.427 -12.316 4.156 -12.316 C 3.472 -12.316 2.641 -12.268 2.005 -12.121 L .782 -4.595 L -10.804 -4.595 L -14.716 -12.121 C -15.547 -12.268 -16.427 -12.316 -17.209 -12.316 C -18.333 -12.316 -19.359 -12.17 -20.142 -11.779 L -3.568 19.256 C -2.591 19.5 -1.564 19.549 -.636 19.549 C .343 19.549 1.174 19.5 2.103 19.256 Z " fill="#1dbecf"/>
<path transform="matrix(1,0,0,-1,682.8706,656.4344)" d="M 0 0 C 0 5.474 -3.031 8.847 -9.289 8.847 C -10.364 8.847 -11.44 8.847 -12.711 8.749 L -16.573 -13.098 C -15.253 -13.245 -13.982 -13.294 -12.564 -13.294 C -3.275 -13.294 0 -7.185 0 0 M 6.062 .831 C 6.062 -10.41 -.831 -18.376 -13.737 -18.376 C -16.965 -18.376 -19.897 -18.278 -22.929 -17.79 L -17.453 13.343 C -14.569 13.831 -12.223 14.027 -8.8 14.027 C 1.075 14.027 6.062 8.896 6.062 .831 " fill="#1dbecf"/>
<path transform="matrix(1,0,0,-1,730.814,655.8963)" d="M 0 0 C 0 5.376 -2.787 8.699 -7.725 8.699 C -14.521 8.699 -18.089 2.688 -18.089 -5.327 C -18.089 -10.655 -15.254 -14.027 -10.414 -14.027 C -3.569 -14.027 0 -8.064 0 0 M -24.103 -5.914 C -24.103 5.913 -17.111 13.88 -6.991 13.88 C .88 13.88 6.013 8.699 6.013 .537 C 6.013 -11.388 -.979 -19.208 -11.196 -19.208 C -18.921 -19.208 -24.103 -14.076 -24.103 -5.914 " fill="#1dbecf"/>
<path transform="matrix(1,0,0,-1,751.7993,671.3895)" d="M 0 0 C .635 1.955 1.955 3.47 3.471 4.301 C 5.133 2.688 8.115 1.417 11.439 1.417 C 15.547 1.417 17.551 2.933 17.551 5.913 C 17.551 12.12 4.351 9.188 4.351 19.305 C 4.351 25.17 9.093 29.227 16.23 29.227 C 21.315 29.227 24.444 27.662 26.106 26.099 C 25.666 24.388 24.298 22.481 22.733 21.651 C 21.071 23.02 18.725 24.095 15.596 24.095 C 12.222 24.095 9.924 22.579 9.924 20.087 C 9.924 14.711 23.173 17.252 23.173 6.891 C 23.173 .293 18.431 -3.715 10.804 -3.715 C 4.986 -3.715 1.564 -1.711 0 0 " fill="#1dbecf"/>
</g>
</g>
</g>
</svg>
