<svg width="555" height="556" viewBox="0 0 555 556" fill="none" xmlns="http://www.w3.org/2000/svg">
<path d="M275.147 269.873C275.147 264.624 269.327 260.368 262.139 260.368H233.925V279.398H262.139C269.306 279.398 275.147 275.126 275.147 269.873ZM233.925 234.185V252.415H259.73C266.582 252.415 272.129 248.338 272.129 243.289C272.129 238.262 266.582 234.185 259.73 234.185H233.925ZM286.811 270.295C286.811 279.739 275.784 287.351 262.139 287.351H222.261V226.23H259.73C273.039 226.23 283.793 233.707 283.793 242.935C283.793 248.126 280.423 252.756 275.121 255.824C282.142 258.822 286.811 264.181 286.811 270.295Z" fill="#ED1C24"/>
<path d="M296.934 256.79C296.934 239.416 316.915 225.332 341.562 225.332C356.001 225.332 368.837 230.167 376.992 237.665L367.884 242.569C361.813 236.938 352.286 233.287 341.562 233.287C323.357 233.287 308.599 243.81 308.599 256.79C308.599 269.772 323.357 280.295 341.562 280.295C352.286 280.295 361.813 276.644 367.884 271.014L376.992 275.918C368.837 283.416 356.001 288.25 341.562 288.25C316.915 288.25 296.934 274.166 296.934 256.79Z" fill="#ED1C24"/>
<path d="M463.779 226.249V287.364H452.115L398.74 239.038V287.351H387.076V226.23H398.74L452.115 274.476V226.249H463.779Z" fill="#ED1C24"/>
<path d="M203.13 256.428L173.191 226.961C172.537 226.318 171.505 225.939 170.409 225.939H138.822C137.721 225.939 136.686 226.321 136.033 226.969L121.18 241.702C120.281 242.594 120.281 243.811 121.18 244.704L137.071 260.467L154.611 243.203L171.113 259.445C171.766 260.088 172.798 260.467 173.895 260.467H200.349C203.195 260.467 204.827 258.098 203.13 256.428Z" fill="#ED1C24"/>
<path d="M154.749 253.016L139.99 267.543C138.605 268.906 135.812 268.906 134.427 267.543L120.706 254.038C120.052 253.395 119.021 253.016 117.924 253.016H91.4705C88.6235 253.016 86.9923 255.385 88.6886 257.055L118.628 286.523C119.282 287.165 120.313 287.544 121.41 287.544H152.998C154.1 287.544 155.135 287.162 155.787 286.514L170.639 271.781C171.539 270.889 171.539 269.672 170.639 268.779L154.749 253.016Z" fill="#ED1C24"/>
<path d="M230.07 314.244C231.078 314.244 231.872 314.092 232.451 313.787C233.031 313.483 233.321 313.058 233.321 312.513V312.486C233.321 311.96 233.024 311.551 232.432 311.261C231.84 310.971 230.965 310.826 229.806 310.826H225.63V314.244H230.07ZM229.54 309.843C230.447 309.843 231.18 309.697 231.741 309.409C232.302 309.119 232.582 308.69 232.582 308.12V308.093C232.582 307.615 232.33 307.233 231.826 306.949C231.323 306.663 230.598 306.521 229.654 306.521H225.63V309.843H229.54ZM224.133 305.539H229.768C230.524 305.539 231.195 305.615 231.781 305.767C232.367 305.918 232.849 306.128 233.227 306.395C233.795 306.827 234.078 307.344 234.078 307.942V307.97C234.078 308.283 234.018 308.562 233.899 308.806C233.78 309.049 233.618 309.262 233.417 309.441C233.216 309.621 232.992 309.772 232.746 309.897C232.501 310.021 232.245 310.125 231.981 310.208C232.372 310.29 232.74 310.4 233.087 310.533C233.433 310.668 233.733 310.826 233.985 311.012C234.238 311.197 234.439 311.416 234.591 311.671C234.742 311.925 234.818 312.218 234.818 312.55V312.578C234.818 312.994 234.703 313.366 234.477 313.695C234.25 314.023 233.925 314.3 233.503 314.527C233.08 314.753 232.573 314.926 231.981 315.046C231.388 315.166 230.732 315.226 230.014 315.226H224.133V305.539Z" fill="#ED1C24"/>
<path d="M246.41 311.684L243.398 306.743L240.367 311.684H246.41ZM242.716 305.47H244.117L250.161 315.227H248.551L246.997 312.666H239.78L238.208 315.227H236.673L242.716 305.47Z" fill="#ED1C24"/>
<path d="M252.774 305.539H254.176L262.53 313.303V305.539H263.989V315.226H262.796L254.233 307.283V315.226H252.774V305.539Z" fill="#ED1C24"/>
<path d="M273.801 315.393C272.841 315.393 271.957 315.263 271.149 315.005C270.341 314.747 269.64 314.394 269.047 313.946C268.453 313.498 267.988 312.971 267.654 312.362C267.319 311.753 267.152 311.102 267.152 310.41V310.382C267.152 309.699 267.319 309.054 267.654 308.445C267.988 307.836 268.453 307.303 269.047 306.846C269.64 306.389 270.347 306.029 271.168 305.767C271.988 305.504 272.885 305.372 273.858 305.372C274.464 305.372 275.01 305.409 275.496 305.483C275.982 305.557 276.434 305.66 276.851 305.795C277.267 305.928 277.653 306.09 278.006 306.279C278.36 306.468 278.701 306.678 279.029 306.909L278.006 307.712C277.438 307.324 276.829 307.006 276.178 306.756C275.528 306.507 274.748 306.382 273.839 306.382C273.106 306.382 272.428 306.485 271.802 306.687C271.177 306.89 270.634 307.172 270.173 307.531C269.712 307.891 269.352 308.313 269.094 308.798C268.835 309.282 268.705 309.801 268.705 310.355V310.382C268.705 310.945 268.835 311.469 269.094 311.953C269.352 312.438 269.712 312.86 270.173 313.219C270.634 313.579 271.177 313.863 271.802 314.07C272.428 314.278 273.106 314.382 273.839 314.382C274.748 314.382 275.531 314.26 276.188 314.015C276.844 313.771 277.489 313.427 278.12 312.984L279.105 313.69C278.764 313.949 278.407 314.181 278.035 314.389C277.662 314.596 277.261 314.774 276.832 314.921C276.402 315.069 275.942 315.185 275.449 315.268C274.956 315.351 274.407 315.393 273.801 315.393Z" fill="#ED1C24"/>
<path d="M287.913 314.382C288.671 314.382 289.369 314.278 290.006 314.071C290.644 313.863 291.191 313.579 291.646 313.219C292.101 312.859 292.457 312.44 292.716 311.96C292.974 311.48 293.103 310.964 293.103 310.41V310.382C293.103 309.829 292.974 309.31 292.716 308.825C292.457 308.341 292.093 307.919 291.627 307.558C291.159 307.199 290.607 306.913 289.969 306.701C289.331 306.489 288.634 306.383 287.876 306.383C287.118 306.383 286.42 306.487 285.782 306.694C285.144 306.902 284.599 307.186 284.145 307.545C283.69 307.905 283.333 308.325 283.074 308.805C282.815 309.284 282.685 309.801 282.685 310.354V310.382C282.685 310.936 282.815 311.455 283.074 311.939C283.333 312.424 283.695 312.846 284.164 313.206C284.63 313.565 285.183 313.852 285.821 314.064C286.457 314.276 287.156 314.382 287.913 314.382ZM287.876 315.392C286.865 315.392 285.947 315.258 285.119 314.991C284.292 314.724 283.582 314.361 282.988 313.904C282.395 313.447 281.938 312.917 281.615 312.313C281.293 311.708 281.132 311.075 281.132 310.41V310.382C281.132 309.718 281.296 309.081 281.624 308.472C281.952 307.864 282.414 307.331 283.007 306.873C283.601 306.417 284.315 306.053 285.147 305.78C285.981 305.509 286.903 305.372 287.913 305.372C288.923 305.372 289.843 305.506 290.67 305.774C291.497 306.041 292.208 306.403 292.8 306.86C293.395 307.316 293.852 307.848 294.174 308.452C294.496 309.056 294.657 309.69 294.657 310.354C294.67 310.364 294.67 310.373 294.657 310.382C294.657 311.047 294.493 311.684 294.164 312.292C293.836 312.901 293.376 313.434 292.782 313.891C292.188 314.348 291.475 314.712 290.641 314.984C289.807 315.256 288.886 315.392 287.876 315.392Z" fill="#ED1C24"/>
<path d="M309.564 315.393C308.605 315.393 307.721 315.263 306.913 315.005C306.104 314.747 305.403 314.394 304.811 313.946C304.217 313.498 303.752 312.971 303.417 312.362C303.083 311.753 302.915 311.102 302.915 310.41V310.382C302.915 309.699 303.083 309.054 303.417 308.445C303.752 307.836 304.217 307.303 304.811 306.846C305.403 306.389 306.11 306.029 306.932 305.767C307.752 305.504 308.649 305.372 309.622 305.372C310.228 305.372 310.773 305.409 311.26 305.483C311.746 305.557 312.197 305.66 312.615 305.795C313.031 305.928 313.416 306.09 313.769 306.279C314.123 306.468 314.465 306.678 314.793 306.909L313.769 307.712C313.202 307.324 312.593 307.006 311.942 306.756C311.292 306.507 310.512 306.382 309.603 306.382C308.87 306.382 308.191 306.485 307.566 306.687C306.941 306.89 306.398 307.172 305.937 307.531C305.476 307.891 305.115 308.313 304.858 308.798C304.599 309.282 304.469 309.801 304.469 310.355V310.382C304.469 310.945 304.599 311.469 304.858 311.953C305.115 312.438 305.476 312.86 305.937 313.219C306.398 313.579 306.941 313.863 307.566 314.07C308.191 314.278 308.87 314.382 309.603 314.382C310.512 314.382 311.295 314.26 311.952 314.015C312.608 313.771 313.253 313.427 313.884 312.984L314.869 313.69C314.527 313.949 314.17 314.181 313.798 314.389C313.426 314.596 313.025 314.774 312.595 314.921C312.166 315.069 311.706 315.185 311.212 315.268C310.72 315.351 310.17 315.393 309.564 315.393Z" fill="#ED1C24"/>
<path d="M326.083 311.684L323.072 306.743L320.04 311.684H326.083ZM322.39 305.47H323.79L329.833 315.227H328.224L326.671 312.666H319.453L317.882 315.227H316.346L322.39 305.47Z" fill="#ED1C24"/>
<path d="M338.385 314.244C339.392 314.244 340.187 314.092 340.765 313.787C341.345 313.483 341.635 313.058 341.635 312.513V312.486C341.635 311.96 341.338 311.551 340.747 311.261C340.155 310.971 339.28 310.826 338.12 310.826H333.944V314.244H338.385ZM337.855 309.843C338.761 309.843 339.494 309.697 340.055 309.409C340.616 309.119 340.896 308.69 340.896 308.12V308.093C340.896 307.615 340.645 307.233 340.141 306.949C339.637 306.663 338.912 306.521 337.968 306.521H333.944V309.843H337.855ZM332.447 305.539H338.082C338.838 305.539 339.51 305.615 340.096 305.767C340.681 305.918 341.163 306.128 341.541 306.395C342.109 306.827 342.392 307.344 342.392 307.942V307.97C342.392 308.283 342.332 308.562 342.213 308.806C342.094 309.049 341.932 309.262 341.731 309.441C341.53 309.621 341.307 309.772 341.06 309.897C340.815 310.021 340.559 310.125 340.296 310.208C340.686 310.29 341.055 310.4 341.401 310.533C341.747 310.668 342.048 310.826 342.3 311.012C342.552 311.197 342.754 311.416 342.905 311.671C343.056 311.925 343.132 312.218 343.132 312.55V312.578C343.132 312.994 343.017 313.366 342.791 313.695C342.564 314.023 342.239 314.3 341.818 314.527C341.395 314.753 340.887 314.926 340.296 315.046C339.702 315.166 339.047 315.226 338.328 315.226H332.447V305.539Z" fill="#ED1C24"/>
<path d="M352.319 314.382C353.076 314.382 353.774 314.278 354.411 314.071C355.049 313.863 355.596 313.579 356.051 313.219C356.506 312.859 356.862 312.44 357.121 311.96C357.379 311.48 357.508 310.964 357.508 310.41V310.382C357.508 309.829 357.379 309.31 357.121 308.825C356.862 308.341 356.498 307.919 356.032 307.558C355.564 307.199 355.012 306.913 354.374 306.701C353.736 306.489 353.039 306.383 352.281 306.383C351.522 306.383 350.825 306.487 350.187 306.694C349.549 306.902 349.004 307.186 348.55 307.545C348.095 307.905 347.738 308.325 347.479 308.805C347.219 309.284 347.09 309.801 347.09 310.354V310.382C347.09 310.936 347.219 311.455 347.479 311.939C347.738 312.424 348.1 312.846 348.568 313.206C349.036 313.565 349.588 313.852 350.226 314.064C350.862 314.276 351.561 314.382 352.319 314.382ZM352.281 315.392C351.27 315.392 350.352 315.258 349.524 314.991C348.697 314.724 347.987 314.361 347.393 313.904C346.8 313.447 346.343 312.917 346.02 312.313C345.698 311.708 345.537 311.075 345.537 310.41V310.382C345.537 309.718 345.701 309.081 346.029 308.472C346.357 307.864 346.819 307.331 347.413 306.873C348.006 306.417 348.719 306.053 349.552 305.78C350.386 305.509 351.308 305.372 352.319 305.372C353.328 305.372 354.248 305.506 355.075 305.774C355.902 306.041 356.613 306.403 357.205 306.86C357.8 307.316 358.257 307.848 358.579 308.452C358.901 309.056 359.062 309.69 359.062 310.354C359.075 310.364 359.075 310.373 359.062 310.382C359.062 311.047 358.898 311.684 358.569 312.292C358.241 312.901 357.781 313.434 357.187 313.891C356.593 314.348 355.88 314.712 355.046 314.984C354.212 315.256 353.291 315.392 352.281 315.392Z" fill="#ED1C24"/>
<path d="M361.089 305.539H362.756L367.472 313.883L372.208 305.539H373.819L368.117 315.295H366.79L361.089 305.539Z" fill="#ED1C24"/>
<path d="M376.432 305.539H386.018V306.521H377.929V309.856H385.166V310.839H377.929V314.244H386.112V315.226H376.432V305.539Z" fill="#ED1C24"/>
<path d="M394.704 310.48C395.198 310.48 395.654 310.433 396.071 310.34C396.49 310.248 396.85 310.118 397.153 309.947C397.457 309.776 397.695 309.568 397.866 309.323C398.037 309.08 398.122 308.801 398.122 308.487V308.459C398.122 307.859 397.825 307.391 397.229 307.054C396.636 306.717 395.8 306.549 394.723 306.549H390.621V310.48H394.704ZM389.124 305.539H394.826C395.647 305.539 396.376 305.624 397.015 305.795C397.652 305.966 398.18 306.203 398.595 306.507C398.925 306.747 399.178 307.028 399.354 307.352C399.531 307.674 399.619 308.03 399.619 308.417V308.445C399.619 308.851 399.531 309.213 399.354 309.531C399.178 309.85 398.927 310.127 398.605 310.361C398.284 310.597 397.902 310.791 397.459 310.943C397.018 311.096 396.538 311.204 396.02 311.268L400.092 315.227H398.255L394.41 311.462H394.372H390.621V315.227H389.124V305.539Z" fill="#ED1C24"/>
<path d="M407.423 314.216C408.256 314.216 409.014 314.119 409.696 313.925C410.378 313.731 410.957 313.464 411.43 313.122C411.903 312.781 412.27 312.377 412.529 311.911C412.786 311.446 412.916 310.946 412.916 310.409V310.382C412.916 309.848 412.786 309.347 412.529 308.881C412.27 308.415 411.903 308.008 411.43 307.663C410.957 307.316 410.378 307.045 409.696 306.846C409.014 306.648 408.256 306.549 407.423 306.549H404.317V314.216H407.423ZM402.821 305.538H407.423C408.458 305.538 409.409 305.661 410.275 305.905C411.139 306.149 411.884 306.489 412.509 306.923C413.135 307.355 413.618 307.866 413.958 308.452C414.3 309.038 414.469 309.671 414.469 310.354V310.382C414.469 311.065 414.3 311.702 413.958 312.292C413.618 312.883 413.135 313.394 412.509 313.828C411.884 314.262 411.139 314.603 410.275 314.853C409.409 315.101 408.458 315.225 407.423 315.225H402.821V305.538Z" fill="#ED1C24"/>
<path d="M417.766 305.539H419.263V315.226H417.766V305.539Z" fill="#ED1C24"/>
<path d="M431.745 311.684L428.734 306.743L425.702 311.684H431.745ZM428.052 305.47H429.453L435.496 315.227H433.887L432.333 312.666H425.116L423.544 315.227H422.008L428.052 305.47Z" fill="#ED1C24"/>
<path d="M438.11 305.539H439.512L447.865 313.303V305.539H449.325V315.226H448.132L439.568 307.283V315.226H438.11V305.539Z" fill="#ED1C24"/>
<path d="M459.27 314.382C460.027 314.382 460.725 314.278 461.362 314.071C462 313.863 462.547 313.579 463.001 313.219C463.456 312.859 463.813 312.44 464.072 311.96C464.329 311.48 464.459 310.964 464.459 310.41V310.382C464.459 309.829 464.329 309.31 464.072 308.825C463.813 308.341 463.449 307.919 462.983 307.558C462.515 307.199 461.963 306.913 461.325 306.701C460.687 306.489 459.989 306.383 459.231 306.383C458.473 306.383 457.776 306.487 457.138 306.694C456.5 306.902 455.955 307.186 455.5 307.545C455.046 307.905 454.689 308.325 454.43 308.805C454.17 309.284 454.041 309.801 454.041 310.354V310.382C454.041 310.936 454.17 311.455 454.43 311.939C454.689 312.424 455.051 312.846 455.519 313.206C455.986 313.565 456.539 313.852 457.177 314.064C457.813 314.276 458.512 314.382 459.27 314.382ZM459.231 315.392C458.221 315.392 457.302 315.258 456.475 314.991C455.648 314.724 454.938 314.361 454.344 313.904C453.751 313.447 453.293 312.917 452.97 312.313C452.648 311.708 452.488 311.075 452.488 310.41V310.382C452.488 309.718 452.651 309.081 452.98 308.472C453.308 307.864 453.77 307.331 454.364 306.873C454.956 306.417 455.67 306.053 456.503 305.78C457.337 305.509 458.259 305.372 459.27 305.372C460.279 305.372 461.198 305.506 462.025 305.774C462.853 306.041 463.563 306.403 464.156 306.86C464.751 307.316 465.208 307.848 465.529 308.452C465.851 309.056 466.012 309.69 466.012 310.354C466.026 310.364 466.026 310.373 466.012 310.382C466.012 311.047 465.849 311.684 465.52 312.292C465.192 312.901 464.732 313.434 464.137 313.891C463.543 314.348 462.831 314.712 461.997 314.984C461.163 315.256 460.242 315.392 459.231 315.392Z" fill="#ED1C24"/>
<path d="M228.736 330.823C229.57 330.823 230.328 330.727 231.01 330.533C231.691 330.339 232.27 330.072 232.743 329.73C233.217 329.388 233.583 328.984 233.842 328.519C234.1 328.054 234.23 327.553 234.23 327.017V326.99C234.23 326.455 234.1 325.954 233.842 325.488C233.583 325.022 233.217 324.616 232.743 324.27C232.27 323.924 231.691 323.652 231.01 323.454C230.328 323.256 229.57 323.156 228.736 323.156H225.63V330.823H228.736ZM224.134 322.146H228.736C229.771 322.146 230.722 322.268 231.588 322.513C232.452 322.757 233.198 323.096 233.823 323.53C234.448 323.963 234.931 324.473 235.272 325.059C235.613 325.646 235.783 326.279 235.783 326.961V326.99C235.783 327.673 235.613 328.309 235.272 328.9C234.931 329.49 234.448 330.002 233.823 330.436C233.198 330.87 232.452 331.211 231.588 331.46C230.722 331.709 229.771 331.833 228.736 331.833H224.134V322.146Z" fill="#ED1C24"/>
<path d="M238.946 322.146H248.532V323.128H240.443V326.464H247.68V327.447H240.443V330.851H248.626V331.834H238.946V322.146Z" fill="#ED1C24"/>
<path d="M257.321 322.146H258.723L267.076 329.91V322.146H268.536V331.834H267.342L258.78 323.89V331.834H257.321V322.146Z" fill="#ED1C24"/>
<path d="M272.286 322.146H281.871V323.128H273.783V326.464H281.019V327.447H273.783V330.851H281.966V331.834H272.286V322.146Z" fill="#ED1C24"/>
<path d="M291.133 332C290.085 332 289.147 331.871 288.321 331.612C287.494 331.354 286.786 330.999 286.199 330.546C285.612 330.095 285.163 329.566 284.855 328.962C284.545 328.358 284.39 327.71 284.39 327.018V326.99C284.39 326.325 284.552 325.692 284.874 325.087C285.195 324.483 285.646 323.95 286.227 323.489C286.809 323.027 287.506 322.66 288.321 322.388C289.136 322.116 290.041 321.98 291.04 321.98C291.595 321.98 292.103 322.007 292.564 322.063C293.024 322.119 293.454 322.201 293.853 322.312C294.25 322.423 294.622 322.559 294.97 322.72C295.316 322.881 295.655 323.064 295.984 323.267L295.018 324.098C294.765 323.931 294.499 323.781 294.221 323.648C293.943 323.514 293.643 323.398 293.322 323.302C292.999 323.205 292.645 323.128 292.261 323.073C291.876 323.018 291.45 322.99 290.982 322.99C290.25 322.99 289.574 323.096 288.956 323.309C288.336 323.521 287.806 323.806 287.365 324.166C286.922 324.526 286.575 324.949 286.323 325.433C286.07 325.917 285.944 326.427 285.944 326.962V326.99C285.944 327.571 286.067 328.106 286.313 328.595C286.558 329.084 286.91 329.509 287.365 329.868C287.819 330.229 288.368 330.509 289.013 330.713C289.656 330.916 290.383 331.017 291.191 331.017C291.949 331.017 292.662 330.922 293.33 330.733C294.001 330.545 294.563 330.316 295.018 330.048V327.64H290.982V326.657H296.457V330.519C295.837 330.925 295.076 331.273 294.174 331.564C293.271 331.855 292.258 332 291.133 332Z" fill="#ED1C24"/>
<path d="M307.311 319.281L308.826 319.792L306.686 321.288H305.511L307.311 319.281ZM306.023 330.989C306.781 330.989 307.477 330.885 308.116 330.678C308.753 330.47 309.3 330.186 309.755 329.827C310.21 329.467 310.567 329.047 310.825 328.567C311.083 328.088 311.213 327.57 311.213 327.017V326.99C311.213 326.436 311.083 325.917 310.825 325.433C310.567 324.948 310.203 324.526 309.735 324.166C309.269 323.806 308.716 323.521 308.079 323.309C307.441 323.096 306.742 322.99 305.984 322.99C305.227 322.99 304.529 323.094 303.892 323.301C303.254 323.509 302.708 323.792 302.253 324.152C301.798 324.512 301.442 324.932 301.184 325.412C300.924 325.892 300.794 326.408 300.794 326.961V326.99C300.794 327.543 300.924 328.062 301.184 328.546C301.442 329.031 301.804 329.453 302.273 329.812C302.739 330.173 303.293 330.459 303.929 330.671C304.567 330.883 305.266 330.989 306.023 330.989ZM305.984 331.999C304.974 331.999 304.055 331.866 303.229 331.598C302.402 331.33 301.692 330.968 301.097 330.512C300.503 330.054 300.047 329.524 299.724 328.92C299.403 328.316 299.241 327.681 299.241 327.017V326.99C299.241 326.326 299.406 325.689 299.734 325.08C300.062 324.471 300.523 323.938 301.116 323.481C301.711 323.024 302.424 322.66 303.257 322.388C304.09 322.116 305.013 321.979 306.023 321.979C307.033 321.979 307.952 322.114 308.779 322.381C309.605 322.648 310.316 323.011 310.91 323.467C311.504 323.923 311.962 324.455 312.284 325.059C312.605 325.663 312.767 326.298 312.767 326.961C312.778 326.971 312.778 326.98 312.767 326.99C312.767 327.654 312.602 328.291 312.273 328.899C311.945 329.508 311.484 330.041 310.891 330.498C310.297 330.955 309.583 331.319 308.75 331.591C307.917 331.864 306.994 331.999 305.984 331.999Z" fill="#ED1C24"/>
<path d="M321.991 332C321.032 332 320.148 331.871 319.34 331.612C318.531 331.354 317.83 331.001 317.238 330.553C316.643 330.106 316.179 329.578 315.844 328.969C315.51 328.36 315.342 327.71 315.342 327.018V326.99C315.342 326.306 315.51 325.661 315.844 325.052C316.179 324.443 316.643 323.911 317.238 323.453C317.83 322.997 318.537 322.637 319.359 322.375C320.179 322.111 321.076 321.98 322.049 321.98C322.655 321.98 323.2 322.017 323.687 322.09C324.173 322.165 324.624 322.268 325.042 322.402C325.458 322.536 325.843 322.697 326.196 322.886C326.55 323.076 326.892 323.285 327.22 323.516L326.196 324.319C325.629 323.931 325.02 323.613 324.369 323.364C323.719 323.115 322.939 322.99 322.03 322.99C321.297 322.99 320.618 323.092 319.993 323.295C319.368 323.498 318.824 323.779 318.364 324.138C317.903 324.499 317.542 324.921 317.285 325.405C317.026 325.889 316.896 326.409 316.896 326.962V326.99C316.896 327.553 317.026 328.077 317.285 328.561C317.542 329.045 317.903 329.467 318.364 329.826C318.824 330.187 319.368 330.471 319.993 330.678C320.618 330.886 321.297 330.99 322.03 330.99C322.939 330.99 323.722 330.867 324.379 330.622C325.035 330.379 325.68 330.035 326.311 329.592L327.296 330.297C326.954 330.556 326.597 330.788 326.225 330.996C325.853 331.204 325.452 331.381 325.022 331.529C324.593 331.676 324.133 331.792 323.639 331.876C323.147 331.958 322.597 332 321.991 332Z" fill="#ED1C24"/>
<path d="M330.042 322.146H331.539V331.833H330.042V322.146Z" fill="#ED1C24"/>
<path d="M341.616 330.989C342.373 330.989 343.072 330.886 343.709 330.678C344.347 330.471 344.894 330.186 345.348 329.827C345.803 329.467 346.16 329.048 346.419 328.568C346.676 328.088 346.806 327.571 346.806 327.017V326.99C346.806 326.437 346.676 325.917 346.419 325.433C346.16 324.949 345.796 324.526 345.33 324.166C344.861 323.807 344.309 323.521 343.671 323.309C343.033 323.096 342.336 322.991 341.578 322.991C340.82 322.991 340.123 323.094 339.484 323.302C338.847 323.509 338.302 323.793 337.847 324.153C337.393 324.513 337.035 324.933 336.776 325.412C336.517 325.892 336.387 326.409 336.387 326.962V326.99C336.387 327.543 336.517 328.063 336.776 328.547C337.035 329.031 337.397 329.454 337.866 329.813C338.333 330.173 338.886 330.459 339.523 330.671C340.16 330.884 340.858 330.989 341.616 330.989ZM341.578 331.999C340.567 331.999 339.649 331.866 338.822 331.598C337.995 331.331 337.285 330.969 336.69 330.512C336.098 330.055 335.64 329.525 335.317 328.921C334.995 328.316 334.834 327.682 334.834 327.017V326.99C334.834 326.326 334.998 325.689 335.327 325.08C335.655 324.471 336.117 323.938 336.71 323.481C337.303 323.025 338.017 322.661 338.85 322.388C339.683 322.116 340.606 321.979 341.616 321.979C342.626 321.979 343.545 322.114 344.372 322.382C345.2 322.648 345.91 323.011 346.503 323.467C347.097 323.924 347.555 324.455 347.876 325.059C348.198 325.664 348.359 326.298 348.359 326.962C348.372 326.972 348.372 326.98 348.359 326.99C348.359 327.654 348.195 328.291 347.866 328.9C347.538 329.509 347.078 330.042 346.484 330.499C345.89 330.955 345.178 331.319 344.343 331.591C343.51 331.864 342.589 331.999 341.578 331.999Z" fill="#ED1C24"/>
<path d="M356.088 331.972C355.028 331.972 354.058 331.845 353.181 331.592C352.302 331.338 351.466 330.948 350.671 330.422L351.599 329.619C352.294 330.081 352.994 330.425 353.701 330.65C354.408 330.877 355.223 330.989 356.146 330.989C357.041 330.989 357.758 330.835 358.295 330.526C358.832 330.217 359.1 329.823 359.1 329.343V329.314C359.1 329.093 359.049 328.893 358.948 328.713C358.847 328.533 358.669 328.369 358.416 328.221C358.163 328.074 357.812 327.94 357.363 327.82C356.913 327.701 356.34 327.585 355.644 327.475C354.884 327.354 354.224 327.216 353.661 327.059C353.096 326.902 352.631 326.713 352.264 326.492C351.897 326.27 351.624 326.012 351.448 325.717C351.27 325.422 351.182 325.075 351.182 324.679V324.65C351.182 324.273 351.289 323.922 351.504 323.599C351.718 323.276 352.021 322.997 352.414 322.762C352.805 322.527 353.265 322.342 353.796 322.208C354.326 322.074 354.908 322.008 355.54 322.008C356.511 322.008 357.361 322.107 358.087 322.305C358.813 322.504 359.518 322.801 360.199 323.198L359.327 324.042C358.709 323.673 358.087 323.406 357.462 323.239C356.836 323.073 356.183 322.991 355.501 322.991C354.63 322.991 353.942 323.14 353.437 323.44C352.931 323.74 352.678 324.111 352.678 324.554V324.582C352.678 324.813 352.729 325.017 352.83 325.198C352.931 325.378 353.114 325.543 353.38 325.696C353.644 325.848 354.011 325.987 354.478 326.111C354.945 326.236 355.544 326.353 356.278 326.463C357.755 326.703 358.844 327.036 359.546 327.461C360.246 327.885 360.596 328.466 360.596 329.204V329.232C360.596 329.647 360.484 330.023 360.259 330.36C360.035 330.697 359.726 330.985 359.331 331.224C358.938 331.464 358.462 331.649 357.906 331.778C357.35 331.907 356.744 331.972 356.088 331.972Z" fill="#ED1C24"/>
</svg>
