<svg width="555" height="555" viewBox="0 0 555 555" fill="none" xmlns="http://www.w3.org/2000/svg">
<path d="M215.439 205.663H116.216C108.917 205.663 103 211.573 103 218.854V316.053H202.23C209.523 316.053 215.439 310.15 215.439 302.869V205.663Z" fill="#052F57"/>
<path d="M268.364 283.476C278.224 287.831 276.82 308.904 267.457 313.499C260.978 316.691 253.846 315.941 246.787 316.045L250.299 307.635C259.558 307.635 264.466 308.755 264.466 298.031C264.466 286.464 258.717 287.754 248.902 287.754L252.061 280.065C258.476 280.065 261.877 280.131 262.323 273.684C262.353 273.2 262.367 272.676 262.367 272.133C262.367 265.428 258.885 264.433 252.061 264.298C250.276 264.262 245.464 264.298 243.745 264.298V316.045C238.209 316.045 232.415 315.783 232.415 309.075V282.507V255.927L244.118 255.869C246.517 255.869 249.07 255.859 251.629 255.869C262.353 255.895 273.119 257.313 273.119 271.487C273.119 276.578 272.585 280.087 268.364 283.476Z" fill="#052F57"/>
<path d="M341.403 316.053C336.283 316.122 331.887 314.257 331.727 309.06V255.939C337.058 256.022 342.997 258.198 343.085 264.32V316.053H341.403Z" fill="#052F57"/>
<path d="M314.472 309.337L301.184 271.586L295.207 289.645H302.294L305.505 297.333H292.457L287.66 310.34C286.54 313.466 284.704 315.988 281.851 316.053H275.093C275.093 316.053 295.602 259.339 295.843 258.734C297.643 254.419 305.527 254.674 306.918 258.609C307.129 259.244 327.843 316.053 327.843 316.053H323.754C317.311 316.159 316.359 314.702 314.472 309.337Z" fill="#052F57"/>
<path d="M256.654 229.185H242.333L249.487 210.79L256.654 229.185ZM266.719 244.459L251.629 205.561H247.373L232.27 244.459H236.417L240.936 232.92H258.052L262.528 244.459H266.719Z" fill="#052F57"/>
<path d="M291.089 240.39L288.346 237.934C285.838 240.722 284.214 241.443 281.647 241.443C278.853 241.443 276.548 240.324 275.093 238.21C273.872 236.487 273.418 234.479 273.418 231.08C273.418 227.625 273.872 225.675 275.093 223.894C276.548 221.831 278.853 220.712 281.647 220.712C284.214 220.712 285.838 221.441 288.346 224.225L291.089 221.77C287.798 218.202 285.384 217.206 281.647 217.206C274.084 217.206 269.513 222.616 269.513 231.08C269.513 239.497 274.084 244.897 281.647 244.897C285.384 244.897 287.798 243.957 291.089 240.39Z" fill="#052F57"/>
<path d="M312.462 238.543C310.735 240.106 308.71 241.395 305.082 241.395C301.951 241.395 299.589 239.275 299.589 236.873C299.589 234.48 301.951 232.198 305.082 232.198H309.609C310.735 232.198 311.679 231.915 312.462 231.59V238.543ZM316.988 243.895L316.155 241.333V224.954C316.155 220.103 311.847 217.207 306.866 217.207C302.791 217.207 298.257 218.712 296.692 223.894L300.276 224.954C301.286 221.718 304.13 220.826 306.866 220.891C310.004 220.891 312.462 222.276 312.462 224.954V227.796C311.788 228.401 310.948 228.743 309.609 228.743H305.082C300.041 228.743 295.852 231.915 295.852 236.873C295.852 241.395 300.041 245.01 305.082 245.01C308.483 245.01 310.948 243.957 312.74 242.795L313.42 245.01L316.988 243.895Z" fill="#052F57"/>
<path d="M339.465 227.016V235.092C339.347 236.261 339.129 237.318 338.617 238.276C337.505 240.16 335.384 241.279 332.691 241.279C330.008 241.279 327.827 240.106 326.768 238.276C325.583 236.214 325.481 233.419 325.481 231.079C325.481 228.583 325.649 225.843 326.768 223.894C327.886 221.995 330.008 220.826 332.691 220.826C335.384 220.826 337.505 221.995 338.617 223.894C339.129 224.787 339.347 225.843 339.465 227.016ZM343.993 243.895L343.21 241.279V205.561H339.465V219.32C337.622 217.929 335.259 217.142 332.691 217.142C328.677 217.142 325.311 218.941 323.527 222.05C321.962 224.787 321.736 228.179 321.736 231.079C321.736 233.703 321.903 237.267 323.527 240.048C325.311 243.174 328.677 244.945 332.691 244.945C335.384 245.01 337.841 244.118 339.684 242.613L340.422 245.01L343.993 243.895Z" fill="#052F57"/>
<path d="M367.09 228.631H352.609C352.718 226.966 353.112 225.286 353.947 224.058C355.241 221.987 357.355 220.938 360.325 220.997C362.84 220.997 364.684 221.944 366.022 224.058C366.637 225.002 366.981 226.849 367.09 228.631ZM370.777 232.246C370.835 229.072 371.004 224.888 369.218 222.05C367.207 218.989 364.062 217.324 360.325 217.324C356.177 217.324 352.828 218.931 350.765 222.05C348.965 224.837 348.747 228.299 348.747 231.142C348.747 233.751 348.965 237.38 350.765 240.226C352.762 243.279 356.463 245.01 360.822 244.963C364.859 244.963 368.319 243.505 370.718 240.437L367.822 238.21C366.139 240.324 363.733 241.334 360.822 241.334C357.691 241.334 355.183 240.106 353.947 238.21C352.894 236.593 352.55 234.312 352.492 232.246H370.777Z" fill="#052F57"/>
<path d="M412.862 244.449V227.851C412.862 225.172 412.299 223.449 411.122 221.448C409.446 218.712 406.484 217.207 402.79 217.207C399.433 217.207 396.581 218.759 394.737 221.553C392.953 218.598 390.034 217.207 386.465 217.207C383.942 217.207 382.157 218.213 380.432 219.823V217.484H376.672V244.449H380.432V227.851C380.432 225.788 380.702 224.455 381.25 223.62C382.435 221.944 384.286 220.778 386.407 220.778C388.864 220.778 391.161 222.213 392.061 223.781C392.726 224.888 392.953 226.343 392.953 227.851V244.449H396.639V227.851C396.639 226.517 396.983 224.786 397.59 223.781C398.702 221.995 400.443 220.778 402.79 220.778C405.19 220.778 406.93 221.831 407.881 223.336C408.671 224.56 409.11 225.788 409.11 227.851V244.449H412.862Z" fill="#052F57"/>
<path d="M424.038 217.484H420.234V244.459H424.038V217.484ZM424.711 207.558C424.711 206.118 423.592 205 422.129 205C420.74 205 419.569 206.118 419.569 207.558C419.569 208.954 420.74 210.134 422.129 210.134C423.592 210.134 424.711 208.954 424.711 207.558Z" fill="#052F57"/>
<path d="M447.479 238.543C445.732 240.106 443.735 241.395 440.085 241.395C436.962 241.395 434.614 239.275 434.614 236.873C434.614 234.48 436.962 232.198 440.085 232.198H444.62C445.732 232.198 446.689 231.915 447.479 231.59V238.543ZM452 243.895L451.166 241.333V224.954C451.166 220.103 446.851 217.207 441.877 217.207C437.796 217.207 433.276 218.712 431.696 223.894L435.28 224.954C436.289 221.718 439.135 220.826 441.877 220.891C445.015 220.891 447.479 222.276 447.479 224.954V227.796C446.799 228.401 445.958 228.743 444.62 228.743H440.085C435.053 228.743 430.87 231.915 430.87 236.873C430.87 241.395 435.053 245.01 440.085 245.01C443.508 245.01 445.958 243.957 447.743 242.795L448.423 245.01L452 243.895Z" fill="#052F57"/>
<path d="M105.919 256.256C110.541 253.872 119.332 251.875 132.307 250.257C134.209 253.77 136.088 258.165 137.442 263.42C140.755 276.349 154.609 332.848 160.825 342.672C164.796 348.936 166.559 348.67 168.498 348.619C168.797 348.605 206.795 334.969 208.294 334.583C208.747 334.415 178.672 347.165 170.077 349.497C167.876 350.095 163.743 350.761 160.76 347.621C153.102 339.579 127.605 285.185 122.543 273.484C114.14 254.065 105.919 256.256 105.919 256.256Z" fill="#416786"/>
<path d="M173.281 346.459L229.227 326.373C227.391 327.27 193.49 340.3 192.078 340.825C176.924 346.527 170.787 349.093 167.715 348.845C165.784 348.685 164.124 348.524 160.496 343.358C153.825 333.828 135.548 276.28 131.335 263.602C129.616 258.456 128.219 252.91 126.076 249.536C121.431 242.019 117.657 242.383 116.722 242.613C123.004 240.619 128.562 238.575 138.4 238.772C139.336 240.94 140.222 243.388 140.974 246.096C141.457 247.838 141.882 249.697 142.24 251.675C144.741 265.763 156.641 329.412 162.346 340.468C165.615 346.761 168.673 347.314 170.458 347.314C170.721 347.314 171.731 346.79 173.281 346.459Z" fill="#7A90A8"/>
<path d="M243.065 321.064C197.147 339.101 173.493 346.72 172.067 346.939L167.444 336.247L243.065 321.064Z" fill="#AEBBCA"/>
<path d="M208.375 236.943C208.375 236.943 204.505 231.71 194.814 229.643C190.916 228.813 180.266 228.241 180.266 228.241L192.861 242.532L208.375 236.943Z" fill="#AEBBCA"/>
<path d="M125.608 228.227C132.995 225.049 179.089 227.986 181.619 228.375C185.144 229.05 190.578 229.284 196.964 236.611C199.883 235.175 206.904 233.751 208.813 237.62C212.353 244.818 222 297.209 225.496 311.323C229 325.422 244.725 320.484 244.725 320.484C244.725 320.484 182.219 341.692 178.664 341.145C177.677 342.919 174.956 345.3 174.956 345.3C173.661 346.543 171.607 347.278 170.457 347.314C168.673 347.362 165.622 346.761 162.346 340.468C156.641 329.427 144.741 265.763 142.24 251.672C141.882 249.697 141.457 247.838 140.974 246.097C140.221 243.388 139.322 240.948 138.4 238.78C133.134 226.441 125.608 228.227 125.608 228.227Z" fill="#E4E8ED"/>
</svg>
