<svg width="555" height="555" viewBox="0 0 555 555" fill="none" xmlns="http://www.w3.org/2000/svg">
<path d="M214.846 253.166C228.572 265.503 242.128 278.005 255.693 290.494C228.677 290.803 201.1 290.537 173.868 290.63C180.409 284.339 187.256 278.259 194.033 272.03C197.366 268.959 200.678 265.731 204.18 262.79C207.872 259.694 211.057 256.006 214.846 253.166Z" fill="#25215B"/>
<path d="M325.961 253.166C339.686 265.503 353.243 278.005 366.808 290.494C339.792 290.803 312.215 290.537 284.983 290.63C291.519 284.339 298.371 278.259 305.147 272.03C308.481 268.959 311.792 265.731 315.294 262.79C318.986 259.694 322.172 256.006 325.961 253.166Z" fill="#25215B"/>
<path d="M102.973 253.166C116.698 265.503 130.254 278.005 143.82 290.494C116.804 290.803 89.2265 290.537 61.9951 290.63C68.5308 284.339 75.3827 278.259 82.1589 272.03C85.4924 268.959 88.8045 265.731 92.3062 262.79C95.9981 259.694 99.1835 256.006 102.973 253.166Z" fill="#25215B"/>
<path d="M437.682 253.166C451.407 265.503 464.964 278.005 478.529 290.494C451.512 290.803 423.935 290.537 396.704 290.63C403.244 284.339 410.091 278.259 416.868 272.03C420.201 268.959 423.517 265.731 427.015 262.79C430.707 259.694 433.897 256.006 437.682 253.166Z" fill="#25215B"/>
<path d="M118.972 183.96C146.204 184.048 173.781 183.787 200.797 184.086C187.308 196.664 173.524 208.93 160.081 221.553C159.144 221.107 158.363 220.49 157.87 219.6C156.119 218.28 154.57 216.756 152.925 215.313C151.292 213.87 149.765 212.317 148.11 210.887C146.47 209.461 144.887 207.946 143.301 206.466C141.71 204.976 140.018 203.576 138.613 201.913C131.904 196.301 125.69 190.209 119.234 184.352C119.069 184.289 118.968 184.183 118.972 183.96Z" fill="#25215B"/>
<path d="M341.94 183.96C369.172 184.048 396.749 183.787 423.764 184.086C410.276 196.664 396.491 208.93 383.044 221.553C382.112 221.107 381.327 220.49 380.833 219.6C379.086 218.28 377.533 216.756 375.893 215.313C374.26 213.87 372.732 212.317 371.078 210.887C369.437 209.461 367.855 207.946 366.268 206.466C364.678 204.976 362.986 203.576 361.581 201.913C354.868 196.301 348.657 190.209 342.201 184.352C342.033 184.289 341.931 184.183 341.94 183.96Z" fill="#25215B"/>
<path d="M231.439 183.96C258.67 184.048 286.247 183.787 313.264 184.086C299.778 196.664 285.99 208.93 272.548 221.553C271.611 221.107 270.831 220.49 270.337 219.6C268.586 218.28 267.038 216.756 265.392 215.313C263.759 213.87 262.232 212.317 260.578 210.887C258.94 209.461 257.354 207.946 255.768 206.466C254.181 204.976 252.485 203.576 251.08 201.913C244.371 196.301 238.156 190.209 231.701 184.352C231.536 184.289 231.435 184.183 231.439 183.96Z" fill="#25215B"/>
<path d="M354.297 279.574C377.418 274.857 400.768 270.363 424.156 265.916L446.662 261.621C448.923 261.33 450.873 260.713 453.164 260.452C453.577 261.807 453.952 263.207 454.071 264.874C452.94 264.95 452.045 265.266 450.948 265.393L417.65 271.899C413.848 272.304 409.469 273.254 405.684 274.11C389.861 277.017 374.208 280.097 358.723 283.346C358.723 283.346 323.078 290.865 319.307 291.662C315.838 292.409 312.442 293.249 309.159 294.013C295.497 297.177 281.945 300.97 268.312 304.03C266.316 304.472 260.338 306.008 259.857 306.109C258.181 306.455 256.472 306.999 254.781 307.413C253.401 307.742 252.034 308.122 250.62 308.446C240.844 310.709 230.444 313.826 220.178 315.991C220.178 315.991 209.436 318.451 205.482 319.379C201.255 320.51 186.487 322.758 186.487 322.758L182.453 323.282C182.453 323.282 177.504 323.615 175.428 322.758C174.812 322.4 174.386 321.59 174.386 321.59C174.386 321.59 173.348 319.898 175.171 318.08C178.027 315.742 184.399 313.852 187.394 312.877C188.335 313.889 188.314 315.856 188.956 317.168C188.141 317.434 187.297 317.666 186.487 317.948C189.863 317.67 193.23 317.16 196.504 316.51C208.896 314.076 221.153 311.126 233.317 308.32C235.705 307.771 238.76 306.645 241.253 306.109C244.557 305.392 247.502 304.628 251.013 303.898C253.439 303.384 269.658 299.266 274.945 297.916C279.467 296.755 284.624 295.194 289.776 294.013C293.493 293.156 297.674 292.203 301.48 291.414L354.297 279.574Z" fill="#BE2027"/>
<path d="M277.678 166.267C277.978 168.773 277.632 172.435 276.374 174.203H274.425C274.674 175.68 275.337 176.756 275.206 178.625C274.822 178.857 274.155 179.013 274.037 179.149C271.32 178.912 270.02 177.263 269.092 175.246C267.847 166.693 275.159 165.807 277.678 166.267Z" fill="#BE2027"/>
<path d="M205.74 227.409L198.322 231.57L213.803 185.002L205.74 227.409ZM203.525 247.468L199.466 236.131L205.419 232.7L203.525 247.468ZM295.759 188.694C295.759 188.694 290.565 203.3 288.734 207.684C288.734 207.684 290.138 198.191 295.759 188.694ZM414.916 178.103C410.452 179.373 406.925 181.213 402.427 182.66C376.727 192.178 348.365 210.355 337.779 225.587C336.884 226.869 336.07 228.38 334.656 229.232C332.028 225.65 329.708 221.773 326.978 218.304C325.424 217.545 319.176 216.351 319.176 216.351C319.176 216.351 314.564 216.199 310.847 216.87L302.522 219.081C301.527 216.3 301.096 212.967 297.063 213.229C295.193 214.132 294.311 215.798 293.16 217.781C292.78 218.426 289.278 225.063 288.734 225.329C288.535 222.929 288.388 220.469 288.472 217.781C291.75 211.815 294.603 204.309 296.927 198.529C299.261 192.748 301.615 183.829 301.615 183.829C301.615 183.829 302.185 181.162 303.046 178.238C301.641 177.554 300.244 176.867 298.75 176.284C296.755 178.757 294.806 181.263 293.025 183.959C283.422 196.938 283.54 213.676 283.793 216.743C280.734 220.768 277.953 227.511 272.734 229.751C272.283 229.946 271.578 230.186 271.046 230.27C264.911 231.19 265.565 224.27 266.232 219.473C264.608 219.186 263.477 218.41 261.806 218.173C258.477 224.123 255.017 229.941 251.79 235.992C251.79 235.992 251.199 237.22 250.229 237.165C249.676 236.848 249.427 236.228 249.06 235.734C249.296 231.452 252.148 225.718 249.06 222.726C248.076 222.625 247.009 222.494 246.068 222.726C242.456 224.663 240.419 228.178 238.001 231.312C237.891 230.291 238.262 228.621 238.131 227.148C237.625 225.106 234.592 224.081 232.275 225.063C231.566 225.367 230.588 226.106 230.588 226.106L229.157 227.409C229.263 225.65 229.056 224.211 228.895 222.726C227.427 219.836 222.583 218.426 217.71 219.971C215.179 220.963 213.491 222.54 211.335 223.507C215.908 195.381 222.436 169.212 227.854 141.939C226.301 141.589 224.913 141.062 223.174 140.901C213.424 170.715 203.352 200.203 193.901 229.751C192.888 231.713 192.221 233.755 191.302 235.734C190.395 237.675 188.18 241.329 188.18 241.329L186.749 243.409C186.749 243.409 184.779 245.865 184.019 246.658C181.863 249.392 179.395 252.244 176.732 254.856C174.154 257.383 171.72 259.721 168.509 262.315C162.222 267.058 155.041 272.231 145.64 274.109C130.835 277.067 126.835 274.488 125.346 273.721C122.198 272.404 120.822 270.877 119.363 268.122C117.498 263.231 120.607 258.599 122.489 255.375C121.156 254.573 119.801 253.81 118.582 252.907C117.341 254.569 116.43 256.557 115.329 258.371C114.249 260.712 113.899 263.05 113.899 263.05C113.899 263.05 112.337 268.89 118.375 274.927C124.417 280.961 132.632 280.092 132.632 280.092C132.632 280.092 140.657 279.607 144.336 279.05C159.408 276.21 169.353 268.252 178.42 259.409C184.935 253.683 191.357 245.506 195.592 238.072C197.837 244.679 200.293 251.067 201.964 258.24H206.909C207.664 248.476 210.162 230.009 210.162 230.009C210.162 230.009 216.976 223.958 223.431 224.026C223.431 224.026 224.241 224.342 224.343 224.806C224.241 234.422 221.52 241.865 219.66 250.822L224.085 251.865C225.09 249.476 231.444 232.493 233.06 230.528C232.934 234.874 232.394 238.802 232.275 243.148L236.959 243.928C239.144 238.654 241.646 233.697 245.157 229.751C244.988 232.038 244.14 234.342 243.984 237.033C245.815 239.359 247.439 241.907 250.878 242.624C250.878 242.624 251.718 242.447 252.958 241.329C256.819 238.156 258.456 232.772 261.414 228.709C262.73 232.946 266.034 235.194 272.084 234.696C276.435 233.451 279.548 230.971 282.101 227.929L283.793 225.587C284.008 228.684 284.198 231.793 287.046 232.35C288.303 232.595 289.657 232.19 290.688 231.57C293.012 227.608 295.253 223.553 297.712 219.735C298.577 222.325 300.619 224.013 303.953 223.507C304.636 223.397 305.48 222.895 306.295 222.726C308.589 222.237 310.155 221.519 312.282 221.296C314.67 221.034 316.991 221.055 319.433 220.904C319.433 220.904 322.404 221.663 323.986 221.946C325.028 223.33 326.978 226.241 326.978 226.241C326.978 226.241 330.446 231.448 331.922 233.785C332.471 234.646 334.074 235.109 335.433 234.953C336.795 234.797 338.289 232.882 341.028 228.954C357.783 206.19 396.71 188.799 410.756 184.351C412.646 183.596 414.617 182.917 416.612 182.268C416.148 180.778 415.756 179.217 414.916 178.103Z" fill="#BE2027"/>
<path d="M62.7452 381.83H74.6517L69.1034 367.395L62.7452 381.83ZM49.6316 399.433C51.4116 397.395 53.2056 394.838 55.007 391.762C56.8125 388.691 58.711 384.931 60.7073 380.496C62.3735 376.805 63.7448 373.497 64.8293 370.59C65.9139 367.678 66.4579 365.928 66.4579 365.349C66.4579 365.054 66.4157 364.771 66.344 364.489C66.2637 364.206 66.1504 363.91 65.9983 363.603H73.3018C76.1623 372.623 78.8541 380.239 81.3863 386.446C83.9179 392.644 86.0905 396.977 87.9173 399.433H81.4701L75.5466 383.906H61.7959L59.2684 389.775L59.2094 389.91C57.6357 393.497 56.8506 396.095 56.8506 397.716C56.8506 397.969 56.8715 398.239 56.9223 398.517C56.9686 398.8 57.0403 399.109 57.1374 399.433H49.6316Z" fill="#2C276C"/>
<path d="M108.222 400.223L94.615 366.959L94.5011 391.38V393.127C94.5011 394.823 94.6069 396.122 94.8173 397.03C95.0283 397.941 95.3746 398.739 95.8516 399.435H89.1511C90.2646 398.506 91.0711 395.537 91.5688 390.524C92.0666 385.511 92.3158 377.845 92.3158 367.533C92.3158 366.583 92.2059 365.824 91.9822 365.237C91.7671 364.655 91.3873 364.111 90.8514 363.6H97.4333C97.9733 363.6 98.3283 363.671 98.5011 363.807C98.674 363.942 98.8347 364.212 98.9908 364.613L109.632 391.6L121.483 364.883C121.694 364.376 121.931 364.035 122.188 363.862C122.446 363.689 122.868 363.6 123.437 363.6H129.192C128.694 364.221 128.336 365.195 128.116 366.537C127.892 367.874 127.783 369.807 127.783 372.334C127.783 381.684 127.99 388.228 128.399 391.971C128.813 395.709 129.53 398.198 130.543 399.435H121.885C122.441 398.633 122.843 397.637 123.078 396.443C123.319 395.253 123.437 393.549 123.437 391.33C123.437 391.313 123.429 391.19 123.412 390.975C123.374 389.558 123.336 388.064 123.293 386.498L122.948 366.959L108.222 400.223Z" fill="#2C276C"/>
<path d="M136.213 399.432C136.748 398.888 137.128 397.631 137.347 395.664C137.566 393.703 137.681 389.5 137.681 383.058V380.767C137.681 373.745 137.566 369.264 137.347 367.328C137.128 365.391 136.748 364.147 136.213 363.602H144.208C143.672 364.13 143.292 365.34 143.073 367.231C142.849 369.121 142.74 373.15 142.74 379.319V381.505V383.661C142.74 389.847 142.849 393.893 143.073 395.791C143.292 397.69 143.672 398.905 144.208 399.432H136.213Z" fill="#2C276C"/>
<path d="M151.054 363.602H159.053C158.513 364.146 158.134 365.403 157.914 367.369C157.691 369.331 157.585 373.521 157.585 379.922V382.213C157.585 386.213 157.632 389.554 157.725 392.23C157.821 394.905 157.957 396.613 158.129 397.36C158.513 397.377 158.919 397.394 159.353 397.402C159.783 397.41 160.412 397.414 161.235 397.414C164.307 397.414 166.665 397.116 168.328 396.529C169.982 395.934 171.332 394.93 172.37 393.512L171.074 399.107C170.268 399.25 169.365 399.364 168.37 399.432C167.37 399.507 166.306 399.545 165.18 399.545C164.294 399.545 162.513 399.525 159.826 399.487C157.138 399.453 154.897 399.432 153.096 399.432H151.054C151.59 398.888 151.969 397.63 152.193 395.668C152.408 393.702 152.522 389.499 152.522 383.056V380.765C152.522 373.745 152.408 369.264 152.193 367.327C151.969 365.39 151.59 364.146 151.054 363.602Z" fill="#2C276C"/>
<path d="M204.524 363.602L204.183 371.268C203.339 369.323 202.158 367.858 200.643 366.876C199.128 365.893 197.288 365.403 195.12 365.403C190.9 365.403 187.588 366.719 185.183 369.361C182.778 371.998 181.576 375.639 181.576 380.276C181.576 385.06 182.892 388.871 185.53 391.71C188.162 394.55 191.69 395.967 196.098 395.967C198.187 395.967 200.141 395.584 201.955 394.82C203.765 394.057 205.33 392.968 206.655 391.546C205.967 394.149 204.419 396.225 202.01 397.786C199.605 399.338 196.711 400.115 193.339 400.115C188.2 400.115 183.981 398.415 180.681 395.01C177.382 391.613 175.736 387.238 175.736 381.888C175.736 375.976 177.509 371.34 181.057 367.981C184.601 364.623 189.5 362.947 195.753 362.947C196.732 362.947 198.191 363.057 200.141 363.277C202.086 363.496 203.55 363.602 204.524 363.602Z" fill="#2C276C"/>
<path d="M220.866 381.83H232.773L227.22 367.395L220.866 381.83ZM207.748 399.433C209.529 397.395 211.322 394.838 213.128 391.762C214.929 388.691 216.828 384.931 218.824 380.496C220.491 376.805 221.866 373.497 222.95 370.59C224.034 367.678 224.575 365.928 224.575 365.349C224.575 365.054 224.537 364.771 224.461 364.489C224.385 364.206 224.271 363.91 224.119 363.603H231.422C234.279 372.623 236.971 380.239 239.502 386.446C242.038 392.644 244.211 396.977 246.034 399.433H239.587L233.663 383.906H219.912L217.385 389.775L217.326 389.91C215.752 393.497 214.972 396.095 214.972 397.716C214.972 397.969 214.988 398.239 215.039 398.517C215.09 398.8 215.157 399.109 215.254 399.433H207.748Z" fill="#2C276C"/>
<path d="M255.21 379.976C255.555 380.052 255.931 380.103 256.332 380.141C256.733 380.179 257.185 380.196 257.682 380.196C260.543 380.196 262.737 379.486 264.268 378.065C265.804 376.647 266.568 374.617 266.568 371.977C266.568 369.778 265.986 368.141 264.817 367.065C263.648 365.998 261.863 365.458 259.467 365.458C258.526 365.458 257.792 365.47 257.264 365.495C256.737 365.525 256.235 365.567 255.758 365.622C255.564 366.42 255.425 367.694 255.336 369.428C255.252 371.167 255.21 373.627 255.21 376.811V377.411V379.976ZM250.374 363.601C252.678 363.601 255.247 363.538 258.087 363.412C260.923 363.285 262.623 363.217 263.18 363.217C266.15 363.217 268.403 363.825 269.935 365.036C271.471 366.242 272.239 368.023 272.239 370.373C272.239 372.665 271.479 374.707 269.965 376.499C268.454 378.289 266.226 379.765 263.294 380.934L271.72 392.064C273.121 393.904 274.412 395.436 275.589 396.663C276.766 397.891 277.825 398.815 278.766 399.431H273.188C272.441 399.431 271.867 399.339 271.475 399.148C271.083 398.954 270.665 398.57 270.226 397.988L260.159 384.563C259.429 383.579 258.75 382.93 258.113 382.622C257.479 382.313 256.67 382.161 255.669 382.161H255.21V385.571C255.21 391.047 255.319 394.58 255.539 396.175C255.762 397.765 256.142 398.853 256.678 399.431H248.678C249.218 398.887 249.598 397.634 249.818 395.668C250.037 393.701 250.147 389.5 250.147 383.056V380.765C250.147 373.745 250.037 369.263 249.818 367.327C249.598 365.391 249.218 364.145 248.678 363.601H250.374Z" fill="#2C276C"/>
<path d="M322.776 363.602L322.434 371.268C321.59 369.323 320.409 367.858 318.895 366.876C317.38 365.893 315.536 365.403 313.371 365.403C309.153 365.403 305.84 366.719 303.435 369.361C301.03 371.998 299.827 375.639 299.827 380.276C299.827 385.06 301.14 388.871 303.777 391.71C306.413 394.55 309.937 395.967 314.351 395.967C316.439 395.967 318.392 395.584 320.207 394.82C322.012 394.057 323.583 392.968 324.907 391.546C324.214 394.149 322.67 396.225 320.261 397.786C317.852 399.338 314.962 400.115 311.591 400.115C306.448 400.115 302.232 398.415 298.933 395.01C295.634 391.613 293.984 387.238 293.984 381.888C293.984 375.976 295.76 371.34 299.308 367.981C302.853 364.623 307.751 362.947 314.004 362.947C314.984 362.947 316.443 363.057 318.392 363.277C320.338 363.496 321.801 363.602 322.776 363.602Z" fill="#2C276C"/>
<path d="M339.118 381.83H351.025L345.471 367.395L339.118 381.83ZM326 399.433C327.781 397.395 329.574 394.838 331.379 391.762C333.18 388.691 335.08 384.931 337.075 380.496C338.742 376.805 340.117 373.497 341.201 370.59C342.286 367.678 342.826 365.928 342.826 365.349C342.826 365.054 342.788 364.771 342.713 364.489C342.636 364.206 342.523 363.91 342.366 363.603H349.674C352.531 372.623 355.223 380.239 357.754 386.446C360.29 392.644 362.463 396.977 364.285 399.433H357.839L351.915 383.906H338.164L335.637 389.775L335.577 389.91C334.004 393.497 333.219 396.095 333.219 397.716C333.219 397.969 333.24 398.239 333.291 398.517C333.337 398.8 333.409 399.109 333.506 399.433H326Z" fill="#2C276C"/>
<path d="M373.461 380.821V387.698C373.461 389.736 373.507 391.559 373.604 393.171C373.701 394.782 373.815 395.816 373.951 396.268C374.081 396.724 374.562 397.078 375.389 397.331C376.212 397.589 377.297 397.715 378.638 397.715C381.419 397.715 383.575 396.968 385.11 395.478C386.642 393.985 387.415 391.892 387.415 389.196C387.415 386.542 386.524 384.483 384.752 383.019C382.976 381.555 380.448 380.821 377.17 380.821H373.461ZM373.461 377.407V378.749H375.043C378.571 378.749 381.271 378.095 383.14 376.783C385.01 375.471 385.946 373.598 385.946 371.163C385.946 369.306 385.228 367.905 383.803 366.973C382.372 366.036 380.238 365.568 377.401 365.568C376.887 365.568 376.343 365.581 375.777 365.61C375.212 365.632 374.617 365.674 374.01 365.732C373.815 366.513 373.676 367.767 373.588 369.496C373.503 371.226 373.461 373.703 373.461 376.918V377.407ZM370.929 399.432H366.929C367.47 398.888 367.845 397.63 368.069 395.669C368.284 393.702 368.398 389.5 368.398 383.057V380.766C368.398 373.745 368.284 369.264 368.069 367.327C367.845 365.391 367.47 364.146 366.929 363.602H371.879C373.165 363.602 374.989 363.538 377.36 363.412C379.727 363.286 381.461 363.218 382.55 363.218C385.427 363.218 387.655 363.813 389.237 364.994C390.819 366.176 391.612 367.842 391.612 369.99C391.612 372.007 390.841 373.787 389.296 375.323C387.752 376.863 385.478 378.12 382.465 379.104C385.975 379.487 388.684 380.517 390.604 382.201C392.524 383.884 393.482 386.069 393.482 388.766C393.482 392.036 392.182 394.689 389.583 396.719C386.984 398.749 383.52 399.761 379.182 399.761C378.128 399.761 376.689 399.706 374.853 399.597C373.022 399.487 371.714 399.432 370.929 399.432Z" fill="#2C276C"/>
<path d="M405.102 379.976C405.448 380.052 405.823 380.103 406.224 380.141C406.625 380.179 407.076 380.196 407.574 380.196C410.435 380.196 412.63 379.486 414.161 378.065C415.697 376.647 416.464 374.617 416.464 371.977C416.464 369.778 415.878 368.141 414.709 367.065C413.541 365.998 411.756 365.458 409.359 365.458C408.418 365.458 407.684 365.47 407.157 365.495C406.629 365.525 406.127 365.567 405.65 365.622C405.456 366.42 405.317 367.694 405.229 369.428C405.144 371.167 405.102 373.627 405.102 376.811V377.411V379.976ZM400.267 363.601C402.57 363.601 405.14 363.538 407.98 363.412C410.815 363.285 412.515 363.217 413.072 363.217C416.042 363.217 418.295 363.825 419.827 365.036C421.363 366.242 422.131 368.023 422.131 370.373C422.131 372.665 421.372 374.707 419.856 376.499C418.346 378.289 416.119 379.765 413.186 380.934L421.612 392.064C423.013 393.904 424.304 395.436 425.481 396.663C426.658 397.891 427.717 398.815 428.658 399.431H423.08C422.334 399.431 421.759 399.339 421.368 399.148C420.975 398.954 420.557 398.57 420.119 397.988L410.051 384.563C409.321 383.579 408.642 382.93 408.005 382.622C407.376 382.313 406.562 382.161 405.562 382.161H405.102V385.571C405.102 391.047 405.211 394.58 405.431 396.175C405.655 397.765 406.034 398.853 406.57 399.431H398.57C399.111 398.887 399.486 397.634 399.71 395.668C399.925 393.701 400.039 389.5 400.039 383.056V380.765C400.039 373.745 399.925 369.263 399.71 367.327C399.486 365.391 399.111 364.145 398.57 363.601H400.267Z" fill="#2C276C"/>
<path d="M437.55 381.83H449.457L443.904 367.395L437.55 381.83ZM424.433 399.433C426.213 397.395 428.005 394.838 429.812 391.762C431.613 388.691 433.512 384.931 435.508 380.496C437.175 376.805 438.55 373.497 439.634 370.59C440.718 367.678 441.259 365.928 441.259 365.349C441.259 365.054 441.221 364.771 441.145 364.489C441.065 364.206 440.955 363.91 440.799 363.603H448.107C450.963 372.623 453.655 380.239 456.186 386.446C458.722 392.644 460.896 396.977 462.718 399.433H456.271L450.347 383.906H436.596L434.069 389.775L434.01 389.91C432.436 393.497 431.652 396.095 431.652 397.716C431.652 397.969 431.673 398.239 431.723 398.517C431.77 398.8 431.841 399.109 431.938 399.433H424.433Z" fill="#2C276C"/>
<path d="M465.363 363.602H473.362C472.822 364.146 472.443 365.403 472.223 367.369C471.999 369.331 471.894 373.521 471.894 379.922V382.213C471.894 386.213 471.941 389.554 472.037 392.23C472.13 394.905 472.27 396.613 472.438 397.36C472.822 397.377 473.228 397.394 473.662 397.402C474.093 397.41 474.721 397.414 475.544 397.414C478.616 397.414 480.979 397.116 482.637 396.529C484.295 395.934 485.645 394.93 486.678 393.512L485.383 399.107C484.577 399.25 483.678 399.364 482.678 399.432C481.683 399.507 480.616 399.545 479.489 399.545C478.607 399.545 476.822 399.525 474.135 399.487C471.451 399.453 469.206 399.432 467.405 399.432H465.363C465.899 398.888 466.278 397.63 466.502 395.668C466.717 393.702 466.831 389.499 466.831 383.056V380.765C466.831 373.745 466.717 369.264 466.502 367.327C466.278 365.39 465.899 364.146 465.363 363.602Z" fill="#2C276C"/>
<path d="M66.9502 327.524C67.9498 327.579 68.8615 327.616 69.6755 327.638C70.486 327.658 71.2283 327.667 71.8949 327.667C73.1402 327.667 74.3213 327.621 75.4475 327.532C76.5656 327.443 77.671 327.317 78.7555 327.148C78.0889 328.064 77.1015 328.701 75.8065 329.068C74.5023 329.431 72.1568 329.616 68.7644 329.616H66.9502V331.688C66.9502 335.848 67.0387 338.528 67.2202 339.743C67.4058 340.949 67.722 341.776 68.1654 342.215H61.5239C61.9668 341.802 62.2876 340.848 62.4692 339.359C62.6507 337.865 62.7438 334.671 62.7438 329.781V328.042C62.7438 322.705 62.6507 319.309 62.4692 317.836C62.2876 316.359 61.9668 315.422 61.5239 315.005H64.895C65.5621 315.005 66.8993 314.984 68.9077 314.946C70.9161 314.904 72.5956 314.883 73.9496 314.883C75.0341 314.883 76.0129 314.904 76.8905 314.946C77.764 314.984 78.5485 315.047 79.2325 315.128L79.4221 318.65C78.9457 317.878 78.0976 317.334 76.8824 317.017C75.6585 316.701 73.705 316.536 71.0133 316.536C70.4057 316.536 69.8108 316.55 69.2199 316.571C68.6291 316.591 68.0261 316.621 67.4017 316.664C67.241 317.3 67.1271 318.296 67.0554 319.659C66.9837 321.022 66.9502 322.962 66.9502 325.494V327.524Z" fill="#2C276C"/>
<path d="M121.886 343.032L122.03 339.032C121.008 340.484 119.624 341.598 117.873 342.378C116.118 343.159 114.127 343.551 111.898 343.551C108.434 343.551 105.911 342.821 104.308 341.361C102.705 339.906 101.907 337.602 101.907 334.454C101.907 333.611 101.916 332.623 101.933 331.501C101.945 330.374 101.954 329.678 101.954 329.412C101.954 323.835 101.861 320.278 101.68 318.755C101.494 317.227 101.181 316.248 100.734 315.822H107.38C106.899 316.21 106.57 317.278 106.388 319.025C106.203 320.771 106.114 324.615 106.114 330.556C106.114 334.906 106.679 337.779 107.81 339.167C108.941 340.556 110.924 341.247 113.759 341.247C116.662 341.247 118.721 340.387 119.936 338.661C121.156 336.936 121.768 333.851 121.768 329.412C121.768 323.822 121.679 320.261 121.502 318.733C121.329 317.206 121.008 316.235 120.548 315.822H127.261C126.785 316.235 126.455 317.206 126.27 318.733C126.088 320.261 126 323.822 126 329.412C126 335.012 126.088 338.572 126.27 340.112C126.455 341.644 126.785 342.614 127.261 343.032H121.886Z" fill="#2C276C"/>
<path d="M161.895 319.056L162.038 332.751C162.068 336.039 162.207 338.393 162.456 339.81C162.701 341.228 163.106 342.3 163.663 343.034H157.975C158.612 342.33 159.072 340.692 159.359 338.131C159.65 335.566 159.789 331.827 159.789 326.908C159.789 322.558 159.659 319.727 159.397 318.422C159.135 317.115 158.658 316.25 157.975 315.819H163.063C163.988 315.819 165.017 316.566 166.148 318.06C166.435 318.444 166.667 318.752 166.84 318.971C167.768 320.149 169.19 322.005 171.122 324.549C175.578 330.443 179.165 334.996 181.873 338.203L181.92 326.309C181.92 322.494 181.827 319.912 181.637 318.57C181.443 317.22 181.109 316.305 180.628 315.819H185.291C184.814 316.208 184.485 317.241 184.303 318.921C184.118 320.596 184.025 323.992 184.025 329.106V334.536V343.156H180.843C179.759 341.662 177.063 338.212 172.743 332.794C168.426 327.38 164.806 322.798 161.895 319.056Z" fill="#2C276C"/>
<path d="M222.457 317.564C222.33 318.21 222.233 319.231 222.17 320.619C222.107 322.007 222.073 323.906 222.073 326.306V332.505C222.073 334.327 222.094 335.859 222.132 337.095C222.174 338.332 222.233 339.192 222.313 339.673C222.44 340.378 222.883 340.855 223.638 341.095C224.393 341.336 225.849 341.458 227.997 341.458C231.983 341.458 235.064 340.415 237.25 338.341C239.431 336.26 240.524 333.324 240.524 329.543C240.524 325.573 239.376 322.522 237.085 320.37C234.79 318.222 231.528 317.146 227.305 317.146C226.431 317.146 225.592 317.18 224.799 317.252C224.001 317.319 223.22 317.425 222.457 317.564ZM216.646 343.032C217.094 342.614 217.41 341.665 217.592 340.171C217.777 338.682 217.866 335.488 217.866 330.598V328.859C217.866 323.522 217.777 320.121 217.592 318.653C217.41 317.176 217.094 316.239 216.646 315.821H220.212C221.647 315.821 223.562 315.737 225.967 315.573C228.372 315.404 230.081 315.324 231.085 315.324C235.574 315.324 239.106 316.467 241.671 318.754C244.236 321.041 245.519 324.18 245.519 328.175C245.519 332.813 243.984 336.484 240.907 339.188C237.832 341.889 233.655 343.238 228.381 343.238C227.22 343.238 225.706 343.205 223.828 343.137C221.959 343.066 220.672 343.032 219.972 343.032H216.646Z" fill="#2C276C"/>
<path d="M284.353 329.666H294.247L289.636 318.7L284.353 329.666ZM273.455 343.032C274.94 341.484 276.425 339.543 277.927 337.205C279.421 334.872 280.999 332.024 282.657 328.649C284.045 325.848 285.184 323.337 286.087 321.13C286.986 318.915 287.433 317.59 287.433 317.147C287.433 316.923 287.404 316.713 287.341 316.493C287.278 316.282 287.18 316.054 287.058 315.822H293.125C295.5 322.674 297.736 328.454 299.842 333.168C301.943 337.876 303.754 341.167 305.264 343.032H299.914L294.99 331.24H283.564L281.459 335.695L281.417 335.8C280.104 338.522 279.454 340.496 279.454 341.724C279.454 341.918 279.475 342.121 279.514 342.336C279.551 342.551 279.615 342.779 279.695 343.032H273.455Z" fill="#2C276C"/>
<path d="M351.685 343.032H353.406V345.231H353.955C355.727 345.231 357.069 345.539 357.997 346.159C358.921 346.783 359.381 347.69 359.381 348.898C359.381 350.129 358.878 351.062 357.879 351.707C356.87 352.348 355.398 352.669 353.457 352.669C351.335 352.669 349.811 352.437 348.878 351.973C347.946 351.513 347.432 350.72 347.338 349.602C348.293 349.998 349.267 350.298 350.263 350.484C351.259 350.67 352.322 350.762 353.457 350.762C354.381 350.762 355.086 350.606 355.571 350.298C356.056 349.982 356.3 349.53 356.3 348.935C356.3 348.273 356.031 347.779 355.495 347.458C354.963 347.134 354.157 346.969 353.073 346.969C352.832 346.969 352.6 346.977 352.369 346.986C352.131 347.002 351.908 347.016 351.685 347.033V343.032ZM363.182 315.822L362.896 321.645C362.191 320.168 361.216 319.054 359.955 318.311C358.697 317.564 357.165 317.189 355.368 317.189C351.862 317.189 349.111 318.189 347.111 320.193C345.107 322.202 344.111 324.961 344.111 328.484C344.111 332.117 345.204 335.012 347.394 337.163C349.588 339.324 352.512 340.399 356.178 340.399C357.916 340.399 359.537 340.112 361.043 339.53C362.549 338.948 363.853 338.121 364.95 337.041C364.376 339.02 363.09 340.598 361.09 341.779C359.09 342.956 356.689 343.551 353.883 343.551C349.617 343.551 346.111 342.256 343.368 339.674C340.63 337.092 339.259 333.771 339.259 329.708C339.259 325.214 340.731 321.696 343.68 319.147C346.63 316.598 350.702 315.324 355.891 315.324C356.702 315.324 357.921 315.404 359.537 315.573C361.153 315.737 362.368 315.822 363.182 315.822Z" fill="#2C276C"/>
<path d="M407.121 329.892H417.015L412.399 319.116L407.121 329.892ZM417.851 308.116H419.952C419.568 309.382 418.973 310.344 418.159 311.006C417.348 311.678 416.357 312.007 415.197 312.007C414.897 312.007 414.619 311.99 414.374 311.956C414.125 311.922 413.876 311.867 413.618 311.783L411.733 311.256C411.542 311.197 411.332 311.158 411.108 311.134C410.889 311.104 410.674 311.091 410.467 311.091C409.889 311.091 409.421 311.188 409.054 311.386C408.686 311.58 408.386 311.913 408.146 312.378H406.041C406.379 311.142 406.948 310.196 407.75 309.555C408.555 308.905 409.555 308.585 410.749 308.585C410.973 308.585 411.205 308.602 411.442 308.635C411.682 308.674 411.94 308.72 412.21 308.787L414.095 309.34C414.369 309.407 414.623 309.458 414.864 309.492C415.104 309.525 415.323 309.543 415.53 309.543C416.104 309.543 416.576 309.425 416.952 309.196C417.327 308.964 417.627 308.606 417.851 308.116ZM396.219 343.032C397.703 341.512 399.192 339.605 400.691 337.31C402.189 335.014 403.762 332.209 405.425 328.896C406.809 326.137 407.948 323.673 408.851 321.5C409.75 319.327 410.201 318.024 410.201 317.589C410.201 317.369 410.171 317.154 410.104 316.947C410.041 316.736 409.948 316.517 409.821 316.285H415.889C418.264 323.019 420.504 328.706 422.605 333.335C424.707 337.968 426.517 341.2 428.032 343.032H422.677L417.758 331.441H406.332L404.226 335.82L404.18 335.922C402.872 338.597 402.218 340.538 402.218 341.749C402.218 341.938 402.239 342.137 402.281 342.348C402.315 342.558 402.379 342.786 402.459 343.032H396.219Z" fill="#2C276C"/>
<path d="M477.584 341.5C480.563 341.5 482.904 340.499 484.601 338.504C486.293 336.503 487.145 333.728 487.145 330.163C487.145 326.141 486.238 322.981 484.419 320.677C482.601 318.382 480.12 317.231 476.964 317.231C473.715 317.231 471.179 318.247 469.365 320.276C467.546 322.306 466.639 325.154 466.639 328.817C466.639 332.82 467.601 335.939 469.521 338.162C471.441 340.386 474.128 341.5 477.584 341.5ZM476.082 343.55C471.475 343.55 467.926 342.373 465.432 340.014C462.939 337.66 461.69 334.306 461.69 329.955C461.69 325.217 463.049 321.592 465.753 319.086C468.462 316.58 472.377 315.323 477.491 315.323C482.317 315.323 485.947 316.441 488.39 318.674C490.828 320.9 492.044 324.226 492.044 328.648C492.044 333.167 490.592 336.782 487.693 339.487C484.795 342.196 480.921 343.55 476.082 343.55Z" fill="#2C276C"/>
</svg>
