<svg width="555" height="556" viewBox="0 0 555 556" fill="none" xmlns="http://www.w3.org/2000/svg">
<path d="M159.099 252.615C159.154 247.211 157.607 241.713 154.494 237.302C149.401 230.084 141.082 226.203 130.438 226.076C114.913 225.891 74.703 226.102 70.1302 226.102C62.0435 226.102 53.9649 228.801 47.2916 233.367C40.5155 238.005 36.6586 243.91 33.8037 251.483C30.5036 260.572 26.9826 269.581 23.8971 278.749C20.4049 289.118 15.53 300.634 19.4576 311.573C20.2426 313.759 21.3153 315.843 22.6524 317.737C27.7443 324.949 36.0608 328.832 46.7075 328.963C53.4314 329.046 103.845 328.972 106.045 328.902C110.057 328.772 115.341 328.375 120.617 326.432C127.831 323.777 133.882 319.483 138.112 314.015C140.224 311.287 141.501 308.063 142.743 304.867C146.831 294.356 158.966 259.844 159.096 252.842C159.098 252.767 159.099 252.691 159.099 252.615Z" fill="white"/>
<path d="M46.7844 322.742C63.6672 322.952 102.726 322.784 105.849 322.684C110.188 322.544 114.475 322.072 118.503 320.588C124.21 318.487 129.538 314.989 133.255 310.185C134.589 308.462 135.712 306.553 136.465 304.474L138.808 298C138.936 297.646 139.022 297.3 139.122 296.951H139.188L148.841 270.286C148.841 270.286 149.043 269.794 148.456 269.794H148.041C147.631 269.794 147.198 269.99 146.923 270.289C141.321 276.356 132.174 280.587 123.308 280.587H53.9912C46.827 280.587 40.0886 282.977 34.5564 286.473C29.5737 289.622 25.2026 294.036 24.1741 300.282C23.4485 304.685 24.7164 309.936 27.675 314.128C32.3242 320.716 39.9552 322.658 46.7844 322.742Z" fill="#2FB8C9"/>
<path d="M130.363 232.297C113.74 232.099 73.6539 232.324 70.1296 232.324C57.5135 232.324 44.3301 240.491 40.6829 250.565L28.307 284.754C28.307 284.754 28.1046 285.246 28.6919 285.246H29.1065C29.5163 285.246 29.9502 285.049 30.225 284.75C35.8264 278.683 44.9737 274.452 53.8406 274.452H123.157C130.321 274.452 137.059 272.062 142.591 268.566C147.574 265.417 151.945 261.003 152.974 254.757C153.699 250.355 152.431 245.103 149.473 240.911C144.824 234.324 137.192 232.379 130.363 232.297Z" fill="#E53417"/>
<path d="M302.062 282.745H288.987L283.621 322.534C281.12 322.946 278.69 323.193 276.255 323.193C273.818 323.193 271.374 322.946 269.002 322.534L274.372 282.745H261.297C261.126 278.292 261.513 273.601 263.067 269.649H303.832C304.003 274.097 303.616 278.788 302.062 282.745Z" fill="#2FB8C9"/>
<path d="M307.718 299.144C310.089 299.629 312.042 299.714 313.263 299.793C316.186 299.793 317.342 298.153 317.263 296.089C317.194 294.279 315.999 292.791 313.561 292.791C310.232 292.791 308.459 295.266 307.718 299.144ZM329.741 318.581C325.886 321.791 319.555 324.016 312.165 324.016C299.986 324.016 292.928 317.922 292.49 306.553C291.952 292.549 300.73 282.17 314.046 282.17C324.847 282.17 330.976 287.357 331.266 294.939C331.656 305.069 322.423 307.787 315.276 307.787C312.677 307.787 309.984 307.46 307.285 306.879C307.538 311.416 309.477 313.226 314.513 313.226C318.004 313.226 321.125 311.992 324.594 309.354C328.011 311.581 329.689 315.121 329.741 318.581Z" fill="#2FB8C9"/>
<path d="M333.329 314.957C333.263 313.226 333.472 310.261 333.664 308.858L339.096 268.657C341.761 268.246 344.272 268.082 346.706 268.082C349.145 268.082 351.506 268.246 353.714 268.657L348.401 307.786C348.335 308.198 348.266 308.531 348.293 309.19C348.316 309.85 348.747 310.424 349.641 310.424C350.047 310.424 350.287 310.34 350.677 309.929C353.791 312.735 354.899 316.276 354.84 321.051C352.706 322.534 349.102 323.853 344.555 323.853C336.677 323.853 333.532 320.233 333.329 314.957Z" fill="#2FB8C9"/>
<path d="M370.78 299.144C373.152 299.629 375.104 299.714 376.325 299.793C379.249 299.793 380.405 298.153 380.325 296.089C380.257 294.279 379.062 292.791 376.623 292.791C373.294 292.791 371.522 295.266 370.78 299.144ZM392.803 318.581C388.949 321.791 382.618 324.016 375.228 324.016C363.048 324.016 355.991 317.922 355.553 306.553C355.015 292.549 363.792 282.17 377.11 282.17C387.91 282.17 394.038 287.357 394.329 294.939C394.719 305.069 385.486 307.787 378.338 307.787C375.74 307.787 373.046 307.46 370.348 306.879C370.6 311.416 372.54 313.226 377.576 313.226C381.067 313.226 384.188 311.992 387.657 309.354C391.073 311.581 392.751 315.121 392.803 318.581Z" fill="#2FB8C9"/>
<path d="M395.666 307.291C395.065 291.726 404.593 281.922 417.586 281.922C423.839 281.922 428.559 284.228 430.671 286.45C429.765 290.243 426.588 294.195 423.333 296.173C422.24 295.187 420.415 294.195 417.655 294.195C413.429 294.195 410.181 298.315 410.445 305.154C410.603 309.269 412.489 311.907 416.226 311.907C418.66 311.907 420.172 311.085 422.05 309.19C425.849 310.836 428.171 314.213 428.822 318.498C425.607 321.463 421.237 324.016 414.094 324.016C403.048 324.016 396.075 317.922 395.666 307.291Z" fill="#2FB8C9"/>
<path d="M456.373 300.622C456.218 296.585 454.661 294.11 451.168 294.11C446.538 294.11 444.549 299.381 444.606 305.069C444.768 309.19 446.49 311.828 449.983 311.828C454.775 311.828 456.6 306.467 456.373 300.622ZM430.044 306.467C429.472 291.646 438.028 281.838 451.426 281.838C463.282 281.838 470.514 288.264 470.949 299.55C471.514 314.213 463.287 324.101 449.485 324.101C437.953 324.101 430.482 317.838 430.044 306.467Z" fill="#2FB8C9"/>
<path d="M537.069 294.195C537.119 295.429 537.086 296.669 536.892 297.989L533.613 322.449C531.033 322.945 528.604 323.109 526.166 323.109C523.73 323.109 521.29 322.945 518.913 322.449L521.894 300.701C521.95 300.126 522.008 299.466 521.987 298.975C521.876 296.089 520.053 295.102 517.697 295.102C515.911 295.102 514.788 295.429 513.508 295.925C513.537 296.669 513.479 297.329 513.344 298.067L510.067 322.535C507.485 322.945 505.052 323.109 502.617 323.109C500.18 323.109 497.74 322.945 495.368 322.535L498.346 300.785C498.402 300.126 498.462 299.551 498.444 299.06C498.328 296.089 496.505 295.187 494.152 295.187C492.12 295.187 490.914 295.515 490.036 295.842L486.517 322.535C484.016 322.945 481.504 323.109 479.066 323.109C476.631 323.109 474.27 322.945 471.901 322.535L476.753 286.201C479.217 284.888 487.06 281.922 497.376 281.922C502.328 281.922 506.02 282.909 508.606 284.644C511.714 283.157 515.969 281.838 520.92 281.838C531.803 281.838 536.78 286.612 537.069 294.195Z" fill="#2FB8C9"/>
<path d="M167.671 300.969C166.927 281.701 179.089 267.222 197.189 267.222C204.69 267.222 209.672 269.544 212.881 272.435C211.507 276.905 207.779 281.78 203.386 284.101C201.022 282.028 199.041 281.452 195.944 281.452C188.361 281.452 183.425 288.728 183.813 298.822C184.072 305.523 187.415 309.739 193.285 309.739C197.606 309.739 199.595 308.493 201.808 306.673C206.074 309.406 208.098 313.295 208.391 318.756C205.222 321.151 200.102 323.716 191.295 323.716C176.619 323.716 168.193 314.535 167.671 300.969Z" fill="#E53417"/>
<path d="M262.581 269.792C258.819 286.412 250.871 304.447 238.429 322.228C235.923 322.724 233.395 322.804 230.868 322.804C228.016 322.804 225.892 322.724 222.856 322.228C217.725 305.439 214.437 287.9 213.332 269.792C216.569 269.211 221.283 268.795 225.035 268.795C226.747 268.795 228.298 268.879 229.607 268.964C230.047 282.444 231.291 295.677 233.417 308.494C240.389 294.849 245.088 281.368 247.465 268.964C248.275 268.879 249.496 268.795 250.963 268.795C255.039 268.795 261.257 269.296 262.581 269.792Z" fill="#E53417"/>
</svg>
