<svg width="555" height="555" viewBox="0 0 555 555" fill="none" xmlns="http://www.w3.org/2000/svg">
<path d="M435.266 202.7H433.605C432.721 202.7 431.998 203.436 431.998 204.343V291.17C431.998 299.906 438.926 307.011 447.441 307.011H449.101C449.986 307.011 450.705 306.27 450.705 305.364V218.538C450.705 209.805 443.782 202.7 435.266 202.7ZM391.117 208.271C389.525 204.155 385.857 201.597 381.539 201.597H381.527C377.206 201.6 373.537 204.165 371.953 208.29L334.913 304.763C334.717 305.269 334.782 305.84 335.081 306.289C335.378 306.742 335.875 307.011 336.408 307.011H344.398C349.475 307.011 353.961 303.88 355.822 299.029L381.168 233.024C381.256 232.797 381.452 232.778 381.517 232.782C381.573 232.782 381.773 232.801 381.861 233.024L392.017 259.323C392.063 259.444 392.048 259.574 391.98 259.678C391.907 259.784 391.794 259.845 391.669 259.845H378.309C377.16 259.845 376.143 260.555 375.716 261.655L371.549 272.45C371.352 272.959 371.413 273.53 371.711 273.983C372.009 274.432 372.509 274.704 373.038 274.704H397.432C397.75 274.704 398.03 274.898 398.147 275.199L407.359 299.055C409.226 303.887 413.708 307.011 418.774 307.011H426.299C426.966 307.011 427.581 306.674 427.957 306.112C428.327 305.549 428.406 304.835 428.16 304.204L391.117 208.271ZM325.869 249.666C330.123 244.522 332.456 237.991 332.456 231.229C332.456 215.599 320.075 202.813 304.847 202.7H304.806H278.872C270.361 202.7 263.432 209.805 263.432 218.538V291.17C263.432 299.906 270.361 307.011 278.872 307.011H280.536C281.418 307.011 282.14 306.27 282.14 305.364V219.195C282.14 218.761 282.484 218.406 282.907 218.406H304.435C311.328 218.406 317.031 224.06 317.145 231.006C317.202 234.477 315.927 237.748 313.56 240.215C311.189 242.689 308.024 244.049 304.647 244.049H296.921C295.818 244.049 294.815 244.717 294.369 245.756L290.127 255.622C289.907 256.136 289.952 256.717 290.248 257.186C290.547 257.654 291.049 257.934 291.593 257.934H304.557C313.549 257.934 320.952 265.319 321.07 274.395C321.127 278.897 319.462 283.139 316.38 286.338C313.299 289.542 309.188 291.301 304.806 291.301H293.046C291.904 291.301 290.855 292.038 290.444 293.133L286.054 304.771C285.86 305.277 285.925 305.847 286.228 306.293C286.526 306.742 287.022 307.011 287.552 307.011H304.462C322.245 307.011 336.721 292.324 336.725 274.277C336.728 264.839 332.777 255.894 325.869 249.666" fill="#26356E"/>
<path d="M120.314 202.546C110.904 202.546 103.282 210.164 103.282 219.558V345.029H231.144C240.552 345.029 248.175 337.408 248.175 328.008V202.546H120.314Z" fill="url(#paint0_radial)"/>
<path d="M108.196 273.787C108.196 311.043 138.434 341.239 175.727 341.239C213.021 341.239 243.257 311.043 243.257 273.787C243.257 236.531 213.021 206.333 175.727 206.333C138.434 206.333 108.196 236.531 108.196 273.787Z" fill="url(#paint1_radial)"/>
<path d="M226.351 312.01C226.579 311.071 227.099 310.32 227.883 309.766C228.096 309.611 228.378 309.509 228.641 309.466C229.185 309.375 229.546 309.718 229.559 310.346C229.546 310.414 229.534 310.565 229.499 310.702C229.263 311.616 228.762 312.361 228.015 312.93C227.788 313.099 227.504 313.222 227.224 313.285C226.732 313.392 226.359 313.092 226.31 312.59C226.29 312.397 226.307 312.195 226.351 312.01ZM225.807 307.412C225.904 306.386 226.412 305.466 227.395 304.838C227.617 304.695 227.902 304.612 228.171 304.581C228.772 304.51 229.205 304.881 229.274 305.486C229.291 305.647 229.286 305.814 229.263 305.971C229.096 306.979 228.588 307.783 227.805 308.424C227.695 308.514 227.56 308.585 227.43 308.641C226.513 309.035 225.786 308.542 225.807 307.412ZM225.076 302.815C225.018 302.613 224.986 302.395 224.996 302.19C225.031 301.022 225.548 300.103 226.501 299.439C226.96 299.119 227.46 299.028 227.971 299.315C228.475 299.601 228.67 300.059 228.677 300.738C228.616 301.753 228.141 302.685 227.253 303.385C227.059 303.538 226.794 303.636 226.546 303.692C225.847 303.841 225.287 303.498 225.076 302.815V302.815ZM225.116 317.796C224.791 318.898 224.065 319.68 223.05 320.201C222.895 320.28 222.708 320.291 222.615 320.316C221.998 320.331 221.686 319.996 221.814 319.475C222.132 318.206 222.895 317.303 224.154 316.887C224.847 316.658 225.314 317.105 225.116 317.796V317.796ZM221.364 315.464C221.272 314.238 222.676 312.571 223.898 312.457C224.564 312.393 224.986 312.748 224.999 313.456C224.986 313.526 224.977 313.674 224.943 313.811C224.669 314.798 224.073 315.548 223.212 316.073C222.96 316.225 222.636 316.303 222.335 316.327C221.786 316.373 221.41 316.01 221.364 315.464V315.464ZM220.694 310.008C220.89 309.11 221.364 308.384 222.137 307.894C222.428 307.708 222.786 307.578 223.126 307.53C223.98 307.412 224.528 307.954 224.495 308.969C224.34 310.035 223.744 310.979 222.655 311.567C222.156 311.836 221.591 311.919 221.093 311.519C220.597 311.121 220.572 310.571 220.694 310.008V310.008ZM219.606 304.941C219.688 303.882 220.227 302.949 221.258 302.329C221.477 302.2 221.742 302.116 221.991 302.081C222.902 301.95 223.626 302.551 223.683 303.471C223.717 303.948 223.598 304.404 223.402 304.838C223.159 305.383 222.809 305.857 222.331 306.204C222.062 306.393 221.738 306.556 221.417 306.619C220.369 306.828 219.593 306.154 219.606 304.941V304.941ZM218.392 299.127C218.424 298.012 218.919 297.128 219.911 296.551C221.12 295.844 222.44 296.582 222.477 297.98C222.505 299.063 222.055 299.936 221.19 300.58C220.597 301.022 219.931 301.117 219.256 300.785C218.594 300.461 218.399 299.85 218.392 299.127ZM217.06 294.204C216.743 293.724 216.638 293.19 216.719 292.624C216.833 291.823 217.194 291.144 217.775 290.591C218.409 289.991 219.151 289.77 219.967 290.129C220.792 290.493 221.169 291.18 221.186 292.025C221.146 293.139 220.739 294.028 219.89 294.688C218.94 295.425 217.721 295.217 217.06 294.204V294.204ZM215.022 287.27C214.944 287.021 214.928 286.76 214.903 286.618C214.932 285.754 215.127 285.054 215.569 284.445C216.103 283.716 216.829 283.368 217.73 283.517C218.64 283.668 219.184 284.269 219.435 285.129C219.763 286.255 219.175 287.795 218.193 288.444C217.068 289.182 215.411 288.572 215.022 287.27V287.27ZM213.718 281.483C212.393 280.212 212.844 277.728 214.534 277.013C215.298 276.689 216.008 276.851 216.633 277.359C217.266 277.878 217.519 278.58 217.539 279.375C217.519 280.237 217.214 280.967 216.578 281.539C215.724 282.31 214.547 282.282 213.718 281.483V281.483ZM210.742 273.577C210.436 272.518 210.647 271.544 211.346 270.698C211.931 269.991 212.702 269.777 213.587 270.005C214.75 270.311 215.521 271.365 215.521 272.76C215.512 273.378 215.289 274.063 214.786 274.639C214.084 275.444 212.991 275.647 212.041 275.144C211.395 274.801 210.941 274.28 210.742 273.577V273.577ZM210.937 283.779C210.278 284.695 209.305 285.054 208.298 284.758C207.266 284.458 206.506 283.546 206.457 282.487C206.406 281.417 206.799 280.508 207.622 279.825C208.946 278.728 211.051 279.51 211.469 281.235C211.518 281.439 211.528 281.649 211.562 281.86C211.54 282.566 211.346 283.206 210.937 283.779V283.779ZM204.483 276.606C203.789 275.383 204.2 273.605 205.357 272.806C206.19 272.235 207.087 272.219 207.943 272.704C208.833 273.21 209.344 273.995 209.336 275.058C209.332 275.607 209.227 276.128 208.954 276.606C208.483 277.436 207.817 277.996 206.81 277.972C205.791 277.954 204.991 277.498 204.483 276.606V276.606ZM201.702 267.965C201.747 267.472 201.897 267.013 202.149 266.583C202.697 265.65 203.558 265.255 204.63 265.454C206.047 265.709 206.977 266.807 206.973 268.339C206.966 268.779 206.818 269.303 206.523 269.786C205.857 270.866 204.773 271.254 203.571 270.844C202.335 270.421 201.581 269.264 201.702 267.965ZM199.806 280.493C199.163 280.444 198.604 280.2 198.186 279.706C197.479 278.88 197.265 277.924 197.585 276.887C197.902 275.884 198.644 275.32 199.643 275.084C200.699 274.837 201.666 275.248 202.25 276.16C202.563 276.65 202.721 277.186 202.725 277.585C202.725 279.351 201.385 280.603 199.806 280.493V280.493ZM194.843 270.396C194.848 270.382 194.848 270.365 194.852 270.351C195.088 269.178 195.635 268.237 196.85 267.879C197.869 267.578 199.188 268.122 199.903 269.07C200.216 269.48 200.394 269.948 200.407 270.469C200.422 271.35 200.131 272.124 199.537 272.78C199.023 273.345 198.353 273.553 197.731 273.561C195.99 273.557 194.636 272.008 194.843 270.396V270.396ZM193.045 283.304C191.529 283.299 190.3 281.954 190.328 280.329C190.361 278.777 191.706 277.507 193.301 277.522C194.807 277.535 196.018 278.826 196.001 280.398C195.98 282.079 194.73 283.312 193.045 283.304V283.304ZM187.912 273.213C187.921 271.697 189.166 270.496 190.718 270.513C192.269 270.532 193.398 271.713 193.398 273.324C193.398 274.884 192.175 276.073 190.58 276.065C189.102 276.06 187.908 274.781 187.912 273.213ZM186.25 285.923C184.574 285.919 183.235 284.762 183.235 283.309C183.23 281.559 184.447 280.146 185.95 280.149C187.64 280.157 189.009 281.338 189.013 282.795C189.017 284.509 187.766 285.927 186.25 285.923V285.923ZM180.607 276.077C180.603 274.327 181.893 272.968 183.559 272.975C185.174 272.98 186.445 274.28 186.434 275.915C186.417 277.494 185.113 278.838 183.611 278.822C182.02 278.801 180.614 277.519 180.607 276.077ZM179.056 288.558C177.4 288.516 176.014 287.273 176.039 285.84C176.063 284.142 177.358 282.728 178.86 282.76C180.539 282.795 181.918 284.09 181.877 285.587C181.832 287.231 180.533 288.597 179.056 288.558V288.558ZM173.403 278.688C173.396 276.946 174.675 275.607 176.359 275.595C178.021 275.588 179.279 276.847 179.288 278.529C179.295 280.034 177.95 281.439 176.505 281.436C174.849 281.433 173.412 280.16 173.403 278.688V278.688ZM171.944 291.12C170.288 291.105 168.887 289.841 168.897 288.375C168.9 286.737 170.151 285.342 171.596 285.354C173.29 285.37 174.739 286.674 174.712 288.155C174.679 289.782 173.415 291.137 171.944 291.12V291.12ZM166.248 281.188C166.24 279.589 167.515 278.182 168.972 278.194C170.641 278.205 172.082 279.482 172.082 280.943C172.088 282.649 170.842 284.004 169.273 284.008C167.621 284.008 166.261 282.74 166.248 281.188V281.188ZM162.109 286.428C160.566 286.417 159.325 285.136 159.331 283.565C159.345 282.04 160.534 280.887 162.09 280.891C163.544 280.895 164.843 282.234 164.823 283.707C164.806 285.259 163.632 286.437 162.109 286.428ZM156.599 276.61C156.599 275.034 157.875 273.616 159.292 273.621C160.908 273.621 162.35 274.919 162.346 276.374C162.342 278.024 161.066 279.399 159.537 279.406C157.963 279.413 156.599 278.114 156.599 276.61V276.61ZM154.342 268.442C154.495 268.044 154.736 267.658 155.008 267.321C155.467 266.756 156.084 266.511 156.973 266.516C157.79 266.552 158.606 266.927 159.235 267.677C159.629 268.147 159.807 268.696 159.763 269.303C159.698 270.231 159.328 271.025 158.662 271.678C158.208 272.115 157.656 272.317 157.026 272.309C154.962 272.278 153.624 270.365 154.342 268.442V268.442ZM161.562 256.997C163.024 256.997 164.197 258.207 164.185 259.695C164.173 261.216 162.906 262.435 161.339 262.432C159.922 262.428 158.703 261.191 158.719 259.77C158.74 258.288 160.068 256.993 161.562 256.997ZM163.478 249.643C163.791 248.553 164.539 247.88 165.655 247.641C165.814 247.609 165.977 247.605 166.048 247.597C167.288 247.597 168.27 248.252 168.656 249.272C169.017 250.227 168.709 251.357 167.884 252.104C166.865 253.028 165.282 253.075 164.266 252.19C163.487 251.512 163.19 250.642 163.478 249.643ZM170.3 247.499C170.434 246.203 171.543 245.121 172.851 245.022C173.091 245.001 173.339 245.014 173.577 245.05C175.055 245.27 176.055 246.448 175.954 247.838C175.852 249.236 174.605 250.374 173.159 250.413C172.872 250.361 172.578 250.338 172.298 250.259C171.012 249.892 170.176 248.726 170.3 247.499V247.499ZM178.771 242.941C180.005 242.372 181.549 242.684 182.406 243.738C183.03 244.505 183.111 245.374 182.76 246.263C182.398 247.178 181.68 247.704 180.716 247.886C180.652 247.897 180.586 247.901 180.522 247.905C180.423 247.91 180.327 247.905 180.229 247.905C179.502 247.897 178.864 247.661 178.288 247.218C176.62 245.939 177.4 243.576 178.771 242.941ZM184.464 242.017C184.862 241.06 185.56 240.433 186.641 240.397C187.632 240.366 188.485 240.744 189.188 241.443C189.638 241.894 189.793 242.47 189.808 242.984C189.816 244.521 188.595 245.697 187.157 245.622C186.3 245.575 185.545 245.243 184.936 244.627C184.188 243.873 184.071 242.973 184.464 242.017V242.017ZM193.004 238.447C194.23 238.268 195.625 238.921 196.152 240.038C197.073 241.989 195.497 243.528 194.055 243.447C192.918 243.423 192.025 242.964 191.388 242.004C190.389 240.512 191.523 238.663 193.004 238.447V238.447ZM199.135 247.644C199.188 249.058 197.935 250.389 196.265 250.077C194.636 249.777 193.524 248.303 193.829 246.775C194.084 245.484 195.071 244.741 196.387 244.805C197.638 244.864 199.246 246.171 199.135 247.644ZM200.87 243.675C201.402 242.964 202.144 242.771 203.002 242.925C204.322 243.169 205.308 244.165 205.463 245.417C205.524 245.899 205.471 246.365 205.251 246.795C204.845 247.585 204.2 248.008 203.455 248.004C201.974 247.964 201.04 247.309 200.489 246.144C200.071 245.263 200.313 244.417 200.87 243.675ZM200.135 258.897C200.537 258.556 201 258.394 201.527 258.4C202.757 258.443 203.7 258.988 204.207 260.105C204.719 261.236 204.455 262.298 203.684 263.237C203.42 263.562 203.075 263.767 202.664 263.869C201.406 264.177 199.993 263.537 199.408 262.388C198.807 261.216 199.115 259.75 200.135 258.897V258.897ZM196.536 254.758C196.294 253.746 196.582 252.866 197.321 252.135C197.706 251.756 198.177 251.57 198.718 251.531C200.435 251.406 201.942 252.918 201.844 254.414C201.836 256.187 200.277 257.361 198.58 256.847C197.527 256.531 196.801 255.84 196.536 254.758V254.758ZM194.852 260.761C196.455 260.789 197.796 262.013 197.803 263.518C197.816 265.12 196.728 266.384 195.32 266.401C193.584 266.424 192.261 265.192 192.256 263.562C192.248 262.147 193.386 260.733 194.852 260.761V260.761ZM190.791 258.762C189.979 258.207 189.578 257.444 189.602 256.447C189.645 254.877 190.764 253.771 192.347 253.762C193.581 253.755 194.758 254.659 195.124 255.899C195.449 257.013 194.877 258.458 193.865 259.082C193.414 259.359 192.927 259.442 192.412 259.383C191.819 259.315 191.282 259.099 190.791 258.762V258.762ZM188.095 263.32C189.597 263.324 190.811 264.595 190.819 266.179C190.828 267.652 189.622 268.841 188.103 268.853C186.523 268.865 185.312 267.641 185.309 266.033C185.305 264.512 186.531 263.32 188.095 263.32V263.32ZM187.052 249.62C187.002 248.166 188.131 247.056 189.658 247.068C191.184 247.079 192.448 248.372 192.423 249.9C192.404 251.109 191.462 252.095 190.174 252.266C188.595 252.475 187.108 251.215 187.052 249.62ZM182.563 258.964C182.563 257.424 183.791 256.168 185.289 256.168C186.925 256.168 188.323 257.439 188.318 258.925C188.314 260.556 187.055 261.843 185.468 261.839C183.88 261.832 182.559 260.528 182.563 258.964V258.964ZM180.894 265.91C182.458 265.903 183.709 267.151 183.713 268.727C183.722 270.271 182.498 271.484 180.919 271.499C179.408 271.512 178.161 270.24 178.155 268.684C178.15 267.155 179.373 265.915 180.894 265.91ZM180.043 251.91C180.079 250.45 181.265 249.35 182.771 249.378C184.309 249.411 185.536 250.67 185.5 252.179C185.468 253.584 184.234 254.734 182.792 254.694C181.256 254.659 180.001 253.392 180.043 251.91ZM175.519 261.602C175.498 260.062 176.712 258.803 178.222 258.786C179.795 258.771 181.09 260.003 181.09 261.504C181.085 263.024 179.847 264.26 178.321 264.269C176.794 264.28 175.539 263.083 175.519 261.602V261.602ZM173.761 268.493C175.271 268.486 176.51 269.755 176.521 271.322C176.534 272.917 175.3 274.122 173.643 274.129C172.128 274.138 170.918 272.858 170.902 271.223C170.889 269.726 172.174 268.498 173.761 268.493V268.493ZM172.936 254.442C172.958 252.952 174.195 251.796 175.759 251.804C177.232 251.811 178.455 253.055 178.442 254.529C178.431 256.005 177.196 257.202 175.702 257.195C174.158 257.183 172.915 255.946 172.936 254.442V254.442ZM168.189 264.269C168.209 262.555 169.545 261.223 171.231 261.243C172.819 261.262 174.069 262.577 174.037 264.196C174.005 265.717 172.663 267.029 171.161 267.01C169.509 266.986 168.173 265.757 168.189 264.269V264.269ZM166.577 271.01C168.132 271.025 169.472 272.352 169.46 273.861C169.448 275.465 168.167 276.862 166.722 276.859C165.046 276.851 163.624 275.559 163.632 274.047C163.646 272.301 164.908 270.999 166.577 271.01ZM165.834 257.044C165.858 255.575 167.13 254.367 168.639 254.379C170.162 254.39 171.328 255.567 171.317 257.081C171.304 258.605 170.038 259.805 168.457 259.793C166.967 259.781 165.805 258.566 165.834 257.044V257.044ZM166.865 266.556C166.857 268.242 165.569 269.695 164.093 269.683C162.385 269.674 161.082 268.428 161.095 266.812C161.107 265.216 162.41 263.873 163.946 263.885C165.545 263.896 166.873 265.113 166.865 266.556V266.556ZM208.174 252.392C208.174 252.996 207.988 253.537 207.582 253.995C206.9 254.769 205.991 254.955 204.915 254.549C203.4 253.979 202.664 252.274 203.29 250.784C203.676 249.86 204.492 249.362 205.496 249.442C207.006 249.565 208.183 250.855 208.174 252.392V252.392ZM209.177 241.325C210.368 241.669 211.188 242.602 211.327 243.774C211.483 245.149 210.47 246.147 209.102 245.958C207.749 245.772 206.682 244.548 206.69 243.193C206.697 241.822 207.863 240.946 209.177 241.325V241.325ZM212.412 247.901C213.425 248.43 213.961 249.296 214.022 250.275C214.026 252.088 212.589 253.02 211.09 252.349C210.047 251.882 209.348 250.784 209.392 249.671C209.458 248.044 210.965 247.148 212.412 247.901ZM214.583 239.702C215.932 239.999 216.922 241.214 216.922 242.561C216.917 243.846 215.967 244.608 214.718 244.323C213.409 244.027 212.365 242.68 212.419 241.365C212.471 240.161 213.406 239.437 214.583 239.702ZM219.578 248.739C219.541 249.011 219.533 249.291 219.468 249.556C219.26 250.385 218.523 250.884 217.673 250.789C216.017 250.603 214.793 248.853 215.189 247.234C215.432 246.25 216.178 245.772 217.187 245.875C218.279 245.985 219.703 247.376 219.578 248.739ZM221.23 253.064C221.945 253.845 222.237 254.761 222.009 255.809C221.705 257.218 220.459 257.779 219.216 257.044C218.232 256.465 217.705 255.594 217.71 254.252C217.705 253.825 217.86 253.273 218.274 252.815C218.685 252.353 219.196 252.171 219.809 252.27C220.382 252.364 220.848 252.641 221.23 253.064V253.064ZM224.405 261.626C224.405 262.301 224.219 262.906 223.764 263.419C223.31 263.932 222.753 264.098 222.094 263.885C221.234 263.613 220.634 263.049 220.312 262.215C220.004 261.417 220.061 260.61 220.422 259.849C220.91 258.814 221.966 258.471 222.952 259.043C223.93 259.612 224.402 260.496 224.405 261.626V261.626ZM224.495 265.409C225.271 265.544 225.868 265.939 226.204 266.646C226.675 267.634 226.663 268.64 226.127 269.596C225.494 270.725 224.23 270.895 223.289 270.005C222.676 269.43 222.346 268.731 222.392 267.992C222.384 267.115 222.604 266.44 223.131 265.871C223.504 265.468 223.959 265.319 224.495 265.409V265.409ZM225.555 258.027C225.953 256.93 227.005 256.591 227.954 257.266C228.832 257.886 229.198 258.778 229.27 259.849C229.165 260.224 229.112 260.619 228.953 260.963C228.511 261.927 227.568 262.182 226.675 261.611C226.212 261.314 225.875 260.899 225.644 260.402C225.282 259.625 225.266 258.822 225.555 258.027ZM230.416 263.932C230.948 264.524 231.256 265.204 231.216 265.891C231.224 266.613 231.102 267.178 230.745 267.673C230.221 268.399 229.428 268.549 228.698 268.036C228.422 267.842 228.154 267.597 227.984 267.313C227.398 266.321 227.363 265.26 227.854 264.233C228.386 263.126 229.596 263.009 230.416 263.932V263.932ZM232.096 270.196C232.616 270.678 232.905 271.429 232.905 272.312C232.905 272.914 232.751 273.47 232.389 273.956C231.78 274.763 230.859 274.801 230.19 274.051C229.286 273.047 229.311 271.235 230.237 270.248C230.778 269.674 231.504 269.655 232.096 270.196ZM234.108 276.835C234.367 277.297 234.473 277.803 234.455 278.474C234.431 279.063 234.24 279.743 233.785 280.328C233.233 281.038 232.394 281.101 231.773 280.444C231.557 280.216 231.358 279.928 231.264 279.631C230.94 278.58 231.066 277.57 231.716 276.668C232.418 275.691 233.526 275.776 234.108 276.835V276.835ZM234.403 268.337C234.894 267.602 235.663 267.565 236.235 268.242C237.014 269.162 237.108 270.774 236.441 271.768C235.986 272.44 235.273 272.511 234.704 271.93C234.147 271.357 234.009 270.627 233.978 269.911C233.984 269.314 234.094 268.794 234.403 268.337V268.337ZM237.807 274.445C238.055 274.84 238.196 275.438 238.201 276.239C238.196 276.713 238.055 277.302 237.68 277.822C237.165 278.534 236.475 278.529 235.972 277.822C235.292 276.867 235.329 275.26 236.047 274.344C236.584 273.668 237.343 273.712 237.807 274.445ZM238.111 266.452C238.484 265.797 239.062 265.725 239.507 266.321C240.263 267.325 240.409 268.435 239.914 269.592C239.581 270.374 238.874 270.434 238.363 269.745C237.935 269.172 237.807 268.51 237.791 267.858C237.798 267.337 237.871 266.875 238.111 266.452ZM237.018 294.522C237.046 294.647 237.046 294.779 237.056 294.904C236.974 295.876 236.617 296.729 235.951 297.439C235.841 297.555 235.702 297.654 235.561 297.721C235.114 297.941 234.668 297.806 234.451 297.361C234.35 297.148 234.281 296.898 234.278 296.663C234.26 295.65 234.59 294.754 235.273 293.999C235.553 293.689 235.886 293.434 236.336 293.589C236.766 293.734 236.936 294.107 237.018 294.522ZM237.218 299.715C237.128 300.679 236.778 301.54 236.11 302.254C235.99 302.385 235.845 302.499 235.69 302.582C235.232 302.827 234.845 302.66 234.708 302.164C234.672 302.025 234.664 301.879 234.639 301.717C234.749 300.719 235.073 299.802 235.824 299.079C236.1 298.81 236.433 298.585 236.832 298.783C237.205 298.968 237.25 299.348 237.218 299.715ZM233.721 291.574C233.652 291.33 233.636 291.066 233.592 290.813C233.631 290.162 233.79 289.556 234.12 289C234.209 288.846 234.311 288.695 234.431 288.566C234.736 288.226 235.094 287.965 235.581 288.099C236.063 288.226 236.284 288.617 236.368 289.062C236.584 290.188 236.295 291.196 235.516 292.029C234.854 292.732 233.998 292.499 233.721 291.574ZM233.514 307.63C233.298 308.444 232.889 309.154 232.267 309.731C232.128 309.86 231.967 309.983 231.796 310.07C231.188 310.391 230.688 310.086 230.757 309.403C230.878 308.248 231.447 307.333 232.368 306.63C232.422 306.591 232.483 306.564 232.538 306.536C233.133 306.256 233.588 306.547 233.579 307.27C233.566 307.341 233.551 307.488 233.514 307.63ZM230.497 304.447C230.615 303.545 230.98 302.764 231.647 302.14C231.845 301.953 232.089 301.796 232.337 301.701C232.941 301.468 233.404 301.756 233.518 302.392C233.534 302.487 233.534 302.585 233.551 302.741C233.413 303.751 233.032 304.698 232.171 305.386C231.805 305.679 231.374 305.884 230.911 305.611C230.469 305.35 230.441 304.901 230.497 304.447V304.447ZM233.566 282.365C234.074 281.985 234.672 282.029 235.106 282.487C235.536 282.942 235.646 283.506 235.642 284.162C235.617 284.869 235.426 285.579 234.964 286.201C234.228 287.175 233.189 287.065 232.669 285.954C232.171 284.885 232.624 283.067 233.566 282.365V282.365ZM229.989 300.066C229.961 299.992 229.941 299.912 229.921 299.833C229.681 298.712 230.421 297.076 231.415 296.507C232.174 296.074 232.957 296.433 233.108 297.289C233.137 297.436 233.133 297.582 233.14 297.689C233.091 298.723 232.73 299.587 232.011 300.293C231.866 300.434 231.691 300.568 231.508 300.663C230.903 300.966 230.232 300.698 229.989 300.066V300.066ZM230.111 291.18C230.237 291.061 230.395 290.963 230.554 290.888C231.208 290.58 231.848 290.801 232.128 291.46C232.259 291.768 232.3 292.112 232.381 292.441C232.312 293.186 232.096 293.858 231.658 294.446C231.532 294.616 231.386 294.77 231.224 294.904C230.488 295.497 229.66 295.326 229.242 294.482C229.133 294.257 229.059 293.989 229.043 293.74C228.985 292.721 229.36 291.867 230.111 291.18ZM227.748 287.926C227.663 287.002 227.865 286.144 228.454 285.413C228.637 285.188 228.861 284.983 229.104 284.833C229.651 284.497 230.303 284.596 230.76 285.042C231.183 285.453 231.37 285.943 231.37 286.78C231.35 287.542 231.094 288.361 230.441 289.02C229.599 289.862 228.483 289.687 227.954 288.62C227.845 288.403 227.768 288.163 227.748 287.926V287.926ZM223.869 296.374C223.887 295.299 224.332 294.426 225.157 293.755C225.888 293.155 226.745 293.254 227.341 293.993C227.617 294.336 227.753 294.73 227.756 295.164C227.76 296.204 227.329 297.057 226.57 297.736C226.066 298.195 225.462 298.371 224.811 298.095C224.171 297.823 223.926 297.274 223.869 296.615C223.865 296.536 223.869 296.453 223.869 296.374V296.374ZM223.553 287.766C224.669 286.833 226.062 287.278 226.432 288.688C226.737 289.841 226.246 291.235 225.282 291.945C224.368 292.621 223.025 292.243 222.611 291.169C222.498 290.872 222.473 290.543 222.404 290.228C222.485 289.253 222.793 288.407 223.553 287.766V287.766ZM229.49 279.012C229.863 279.445 230.034 279.963 230.026 280.753C230.014 281.436 229.81 282.175 229.274 282.795C228.515 283.673 227.533 283.663 226.77 282.791C226.342 282.3 226.132 281.74 226.164 281.092C226.204 280.291 226.46 279.564 227.005 278.964C227.76 278.131 228.755 278.155 229.49 279.012V279.012ZM227.727 276.282C226.988 277.194 225.909 277.222 225.128 276.346C224.674 275.832 224.495 275.22 224.495 274.493C224.503 273.846 224.681 273.198 225.153 272.656C225.904 271.8 227.005 271.82 227.719 272.699C228.511 273.672 228.515 275.314 227.727 276.282V276.282ZM221.924 281.381C222.807 280.702 223.878 280.868 224.514 281.785C224.82 282.222 224.977 282.708 224.95 283.497C224.917 284.071 224.653 284.805 224.065 285.398C223.171 286.303 221.808 286.11 221.181 285C220.545 283.866 220.89 282.171 221.924 281.381ZM219.887 274.703C220.515 274.181 221.252 274.11 221.973 274.5C222.781 274.936 223.277 275.855 223.269 277.064C223.252 277.705 223.009 278.406 222.425 278.968C221.433 279.916 220.028 279.75 219.285 278.597C218.502 277.388 218.774 275.623 219.887 274.703ZM217.129 268.667C217.864 267.404 219.383 267.203 220.434 268.222C220.974 268.743 221.272 269.497 221.267 270.524C221.258 271.207 220.963 271.949 220.288 272.522C219.821 272.917 219.289 273.04 218.697 272.905C217.609 272.653 216.731 271.582 216.687 270.437C216.662 269.805 216.812 269.212 217.129 268.667V268.667ZM215.175 261.358C215.721 260.808 216.373 260.67 217.106 260.899C218.27 261.259 219.082 262.384 219.079 263.775C219.075 264.213 218.924 264.754 218.599 265.24C217.986 266.164 217.007 266.436 215.997 265.97C214.25 265.157 213.811 262.724 215.175 261.358V261.358ZM212.252 255.188C212.84 254.197 213.896 253.865 214.952 254.327C215.951 254.761 216.674 255.868 216.674 257.056C216.662 257.467 216.578 257.965 216.312 258.407C215.915 259.082 215.327 259.406 214.534 259.39C212.787 259.363 211.086 257.135 212.252 255.188V255.188ZM206.453 260.722C205.353 259.541 205.364 257.905 206.481 256.783C206.88 256.386 207.355 256.195 207.923 256.172C209.421 256.12 210.851 257.573 210.77 259.035C210.77 260.157 210.177 261.125 209.255 261.495C208.407 261.836 207.168 261.495 206.453 260.722ZM209.344 263.406C209.683 263.122 210.096 263.036 210.53 263.032C212.212 263.032 213.328 264.659 213.255 265.714C213.234 266.626 212.983 267.364 212.374 267.945C211.773 268.518 211.055 268.715 210.258 268.462C209.167 268.115 208.427 267.392 208.224 266.251C208.017 265.097 208.463 264.15 209.344 263.406V263.406ZM221.064 232.071C221.372 232.135 221.686 232.265 221.956 232.431C222.585 232.811 223.041 233.368 223.293 234.05C223.411 234.375 223.447 234.749 223.419 235.093C223.374 235.599 222.984 235.883 222.473 235.879C222.392 235.875 222.31 235.866 222.233 235.852C221.104 235.646 219.993 234.437 219.87 233.292C219.862 233.229 219.862 233.161 219.857 233.134C219.862 232.371 220.354 231.934 221.064 232.071V232.071ZM221.962 226.684C222.137 226.716 222.307 226.783 222.465 226.862C223.171 227.233 223.756 227.751 224.166 228.431C224.336 228.715 224.405 229.055 224.524 229.37C224.45 229.912 224.141 230.164 223.626 230.074C222.542 229.88 221.29 228.612 221.113 227.526C221.015 226.938 221.372 226.574 221.962 226.684V226.684ZM224.925 231.542C225.161 231.594 225.396 231.689 225.599 231.814C226.294 232.246 226.806 232.854 227.15 233.588C227.264 233.833 227.297 234.113 227.366 234.378C227.341 235.105 226.878 235.468 226.212 235.196C225.071 234.729 224.345 233.876 224.048 232.676C224.008 232.522 224.012 232.351 224.032 232.19C224.097 231.7 224.443 231.44 224.925 231.542V231.542ZM213.677 220.777C213.145 220.752 212.613 220.547 212.184 220.163C211.489 219.553 210.835 218.9 210.161 218.269C210.14 218.244 210.116 218.221 210.1 218.193C209.913 217.937 209.982 217.774 210.299 217.743C210.347 217.739 210.401 217.734 210.445 217.743C211.363 217.888 212.28 218.032 213.098 218.502C213.449 218.71 213.755 219.019 214.056 219.306C214.189 219.437 214.286 219.623 214.364 219.796C214.615 220.374 214.36 220.763 213.677 220.777V220.777ZM233.356 241.799C233.698 241.622 233.994 241.803 234.24 242.024C235.037 242.723 235.479 243.596 235.545 244.631C235.533 244.758 235.533 244.856 235.511 244.951C235.426 245.378 235.114 245.564 234.715 245.393C234.513 245.306 234.314 245.176 234.152 245.022C233.465 244.383 233.116 243.576 233.024 242.656C232.991 242.325 233.014 241.981 233.356 241.799V241.799ZM241.007 264.92C241.095 264.604 241.222 264.28 241.603 264.228C241.989 264.173 242.188 264.461 242.353 264.746C242.7 265.339 242.792 265.991 242.846 266.673C242.781 267.035 242.732 267.408 242.644 267.768C242.573 268.036 242.434 268.293 242.118 268.344C241.818 268.396 241.616 268.201 241.481 267.98C241.283 267.648 241.07 267.309 240.978 266.942C240.804 266.274 240.819 265.592 241.007 264.92V264.92ZM227.126 317.258C226.708 317.247 226.501 317.081 226.477 316.788C226.465 316.616 226.488 316.43 226.541 316.264C226.834 315.331 227.407 314.6 228.223 314.071C228.405 313.952 228.641 313.873 228.857 313.849C229.237 313.811 229.47 314.06 229.453 314.443C229.448 314.537 229.421 314.632 229.395 314.727C231.353 312.17 233.133 309.469 234.713 306.642C234.7 306.567 234.694 306.489 234.692 306.405C234.728 305.892 234.878 305.394 235.138 304.944C235.374 304.542 235.654 304.162 235.943 303.795C236.047 303.661 236.213 303.555 236.37 303.489C237.075 302.055 237.73 300.593 238.334 299.106C238.298 298.916 238.288 298.711 238.31 298.518C238.398 297.78 238.654 297.1 239.09 296.491C239.239 296.284 239.395 296.079 239.549 295.875C239.71 295.411 239.866 294.944 240.016 294.476C239.982 294.476 239.949 294.478 239.922 294.485C239.706 294.553 239.505 294.659 239.296 294.758C238.635 295.067 238.233 294.873 238.111 294.145C238.062 293.862 238.07 293.562 238.102 293.273C238.201 292.427 238.554 291.685 239.073 291.017C239.292 290.733 239.518 290.449 239.691 290.142C239.88 289.785 239.71 289.56 239.317 289.612C239.09 289.64 238.871 289.719 238.648 289.751C238.233 289.802 237.948 289.654 237.77 289.284C237.675 289.099 237.615 288.889 237.58 288.682C237.441 287.901 237.562 287.151 237.94 286.463C238.164 286.049 238.452 285.675 238.715 285.284C238.841 285.093 239.008 284.928 239.109 284.727C239.178 284.6 239.223 284.386 239.163 284.283C239.101 284.181 238.894 284.146 238.744 284.134C238.601 284.118 238.456 284.174 238.314 284.201C237.481 284.347 237.056 284.103 236.795 283.292C236.43 282.171 236.673 281.143 237.322 280.192C237.379 280.113 237.449 280.043 237.523 279.975C237.988 279.557 238.562 279.617 238.894 280.145C239.041 280.374 239.135 280.643 239.232 280.899C239.373 281.282 239.491 281.669 239.633 282.049C239.696 282.211 239.756 282.397 239.995 282.397C240.198 282.231 240.194 281.989 240.202 281.771C240.223 281.235 240.226 280.699 240.213 280.164C240.19 279.043 240.502 278.048 241.27 277.211C241.424 277.04 241.567 276.859 241.693 276.673C241.825 276.476 242.037 276.267 241.854 276.018C241.693 275.796 241.441 275.907 241.222 275.958C241.015 276.005 240.812 276.073 240.604 276.112C240.138 276.195 239.756 276.038 239.532 275.614C238.931 274.462 238.938 273.296 239.59 272.17C239.954 271.535 240.527 271.558 240.936 272.174C241.035 272.326 241.115 272.488 241.193 272.645C241.314 272.893 241.416 273.155 241.555 273.394C241.631 273.533 241.761 273.644 241.884 273.782C242.115 273.577 242.127 273.363 242.13 273.155C242.136 272.748 242.111 272.34 242.136 271.934C242.164 271.499 242.221 271.065 242.297 270.635C242.33 270.449 242.427 270.263 242.536 270.109C242.706 269.873 242.937 269.831 243.147 269.959C242.934 266.17 242.409 262.464 241.596 258.868C241.532 258.743 241.444 258.619 241.209 258.619C241.201 258.854 241.173 259.075 241.193 259.287C241.24 259.79 241.346 260.287 241.371 260.789C241.393 261.191 241.393 261.611 241.291 261.993C241.12 262.65 240.56 262.752 240.129 262.23C239.938 261.993 239.801 261.709 239.662 261.437C239.419 260.958 239.203 260.465 238.955 259.991C238.874 259.833 238.728 259.71 238.611 259.572C238.573 259.584 238.533 259.596 238.492 259.608C238.469 259.79 238.412 259.975 238.423 260.157C238.456 260.623 238.522 261.093 238.566 261.559C238.607 261.934 238.668 262.305 238.654 262.676C238.648 262.997 238.594 263.328 238.472 263.625C238.179 264.362 237.526 264.481 236.97 263.92C236.819 263.775 236.69 263.6 236.584 263.419C236.422 263.139 236.287 262.844 236.138 262.555C235.954 262.191 235.78 261.824 235.569 261.476C235.479 261.325 235.321 261.216 235.183 261.077C234.915 261.322 234.977 261.579 235.005 261.807C235.082 262.467 235.187 263.126 235.277 263.787C235.353 264.378 235.308 264.958 235.025 265.497C234.582 266.345 233.766 266.499 233.043 265.876C231.869 264.856 231.658 262.456 233.12 261.385C233.384 261.191 233.644 260.994 233.884 260.777C234.069 260.61 234.346 260.445 234.212 260.137C234.099 259.868 233.807 259.904 233.566 259.907C233.193 259.916 232.82 259.94 232.446 259.96C231.755 259.999 231.216 259.722 230.797 259.184C230.416 258.696 230.197 258.146 230.132 257.53C230.038 256.606 230.29 255.828 231.087 255.274C231.363 255.078 231.626 254.856 231.881 254.632C232.036 254.493 232.223 254.335 232.125 254.094C232.033 253.857 231.788 253.865 231.581 253.845C231.434 253.829 231.288 253.834 231.142 253.834C230.866 253.837 230.59 253.837 230.31 253.845C229.648 253.869 229.096 253.629 228.681 253.114C228.397 252.759 228.149 252.375 227.906 251.993C227.61 251.526 227.341 251.042 227.045 250.575C226.941 250.405 226.838 250.196 226.561 250.208C226.363 250.413 226.432 250.666 226.469 250.895C226.579 251.586 226.717 252.27 226.838 252.961C226.92 253.411 226.941 253.865 226.773 254.308C226.383 255.35 225.357 255.695 224.443 255.069C223.593 254.489 223.135 253.679 223.093 252.649C223.058 251.84 223.346 251.191 224.032 250.729C224.415 250.477 224.791 250.224 225.157 249.951C225.344 249.813 225.62 249.674 225.523 249.386C225.424 249.105 225.123 249.137 224.889 249.131C224.402 249.121 223.91 249.137 223.422 249.142C222.465 249.142 221.686 248.743 221.081 248.02C220.045 246.783 220.276 245.208 221.604 244.314C221.888 244.122 222.188 243.957 222.469 243.763C222.676 243.62 222.977 243.487 222.874 243.173C222.786 242.893 222.473 242.937 222.242 242.921C221.705 242.885 221.166 242.878 220.63 242.854C220.183 242.838 219.752 242.758 219.383 242.494C218.831 242.099 218.384 241.609 218.076 241.005C217.832 240.519 217.762 240.014 217.921 239.489C218.14 238.747 218.728 238.378 219.487 238.514C219.983 238.6 220.426 238.813 220.767 239.177C221.055 239.486 221.311 239.824 221.559 240.165C221.913 240.65 222.242 241.16 222.59 241.646C222.708 241.807 222.827 242.004 223.086 241.981C223.252 241.783 223.192 241.566 223.15 241.369C223.03 240.812 222.874 240.263 222.77 239.705C222.692 239.292 222.623 238.864 222.64 238.45C222.671 237.727 223.188 237.344 223.907 237.446C224.373 237.514 224.775 237.727 225.1 238.067C225.357 238.336 225.584 238.632 225.819 238.924C226.062 239.228 226.29 239.549 226.538 239.848C226.655 239.995 226.785 240.156 227.021 240.101C227.198 239.867 227.122 239.622 227.087 239.39C227.012 238.908 226.899 238.435 226.842 237.948C226.798 237.542 226.806 237.108 227.217 236.858C227.617 236.617 228.011 236.791 228.365 237.009C229.218 237.542 229.75 238.315 229.993 239.292C230.155 239.954 229.993 240.512 229.441 240.938C229.286 241.057 229.133 241.184 229.01 241.329C228.8 241.586 228.857 241.831 229.169 241.945C229.409 242.037 229.672 242.076 229.924 242.13C231.358 242.444 232.316 243.474 232.547 244.928C232.657 245.607 232.486 246.183 231.954 246.637C231.845 246.733 231.735 246.831 231.634 246.934C231.484 247.083 231.313 247.242 231.378 247.479C231.45 247.744 231.702 247.771 231.926 247.818C232.052 247.843 232.182 247.866 232.312 247.873C233.201 247.926 233.838 248.363 234.285 249.118C234.502 249.481 234.731 249.836 234.968 250.184C235.082 250.355 235.187 250.555 235.434 250.567C235.597 250.286 235.605 250.283 235.569 249.975C235.507 249.509 235.418 249.042 235.378 248.573C235.348 248.268 235.341 247.953 235.406 247.656C235.516 247.118 235.962 246.957 236.396 247.293C236.624 247.471 236.823 247.699 236.999 247.929C237.275 248.292 237.514 248.68 237.779 249.051C237.884 249.201 237.977 249.39 238.281 249.362C238.289 249.169 238.318 248.983 238.302 248.802C238.282 248.598 238.253 248.397 238.223 248.197C236.662 244.396 234.765 240.767 232.567 237.351C232.573 237.398 232.576 237.449 232.588 237.494C232.723 237.996 232.894 238.489 233.026 238.991C233.116 239.327 233.181 239.694 232.828 239.919C232.499 240.128 232.199 239.94 231.931 239.742C231.171 239.177 230.679 238.43 230.469 237.505C230.346 236.968 230.481 236.542 230.955 236.238C231.053 236.179 231.151 236.116 231.236 236.041C231.38 235.92 231.444 235.801 231.458 235.689C231.371 235.563 231.284 235.437 231.197 235.311C231.17 235.297 231.157 235.28 231.126 235.267C230.888 235.165 230.631 235.101 230.378 235.045C229.144 234.766 228.365 233.955 227.849 232.865C227.563 232.257 227.473 231.661 228.062 231.158C227.73 230.752 227.393 230.351 227.053 229.953C226.935 229.901 226.817 229.85 226.704 229.788C225.896 229.35 225.271 228.722 224.889 227.881C224.82 227.727 224.77 227.558 224.744 227.39C223.528 226.109 222.263 224.877 220.95 223.695C221.028 223.797 221.112 223.892 221.181 224.003C221.303 224.204 221.389 224.445 221.422 224.682C221.475 225.062 221.234 225.303 220.848 225.287C220.674 225.278 220.495 225.231 220.333 225.168C219.44 224.816 218.761 224.208 218.29 223.379C218.188 223.202 218.113 222.991 218.083 222.79C218.034 222.411 218.279 222.17 218.713 222.177C218.781 222.198 218.912 222.217 219.033 222.261C219.247 222.341 219.448 222.437 219.641 222.545C218.985 221.983 218.318 221.435 217.642 220.899C217.556 220.88 217.468 220.853 217.385 220.824C216.525 220.508 215.826 219.974 215.273 219.244C215.219 219.171 215.172 219.089 215.132 219.005C213.899 218.119 212.637 217.275 211.344 216.472C211.275 216.598 211.14 216.704 210.937 216.784C210.676 216.881 210.404 216.942 210.149 217.044C209.742 217.205 209.52 217.514 209.548 217.952C209.563 218.24 209.629 218.533 209.715 218.805C209.828 219.161 210.007 219.496 210.124 219.848C210.331 220.444 210.177 220.804 209.609 221.092C209.378 221.206 209.125 221.286 208.906 221.42C208.779 221.495 208.627 221.662 208.638 221.771C208.646 221.885 208.829 222.032 208.964 222.071C209.352 222.182 209.75 222.273 210.152 222.329C211.257 222.478 212.146 222.991 212.854 223.841C213.162 224.221 213.482 224.587 213.807 224.95C213.937 225.097 214.08 225.231 214.238 225.345C214.315 225.401 214.432 225.396 214.62 225.44C214.583 225.168 214.579 224.959 214.522 224.769C214.396 224.361 214.233 223.971 214.104 223.568C214.034 223.355 213.97 223.13 213.957 222.908C213.934 222.533 214.148 222.284 214.517 222.23C214.676 222.206 214.843 222.21 215.001 222.238C216.191 222.474 217.007 223.206 217.564 224.239C217.79 224.667 217.673 225.062 217.304 225.373C217.165 225.489 217.007 225.575 216.858 225.673C216.751 225.748 216.633 225.811 216.54 225.898C216.334 226.104 216.357 226.305 216.613 226.455C216.735 226.527 216.881 226.574 217.019 226.606C217.288 226.672 217.559 226.724 217.832 226.783C218.912 227.009 219.728 227.62 220.316 228.533C220.48 228.785 220.592 229.094 220.638 229.39C220.763 230.168 220.263 230.642 219.48 230.516C218.883 230.424 218.371 230.14 217.946 229.721C217.62 229.402 217.336 229.047 217.038 228.698C216.727 228.328 216.43 227.937 216.11 227.573C215.992 227.438 215.817 227.356 215.659 227.245C215.44 227.514 215.537 227.739 215.594 227.947C215.753 228.512 215.944 229.066 216.096 229.631C216.273 230.251 216.077 230.752 215.545 231.115C215.317 231.27 215.075 231.401 214.843 231.558C214.647 231.689 214.371 231.799 214.432 232.095C214.49 232.391 214.782 232.407 215.018 232.442C215.403 232.503 215.793 232.534 216.182 232.578C217.499 232.715 218.388 233.458 218.989 234.592C219.171 234.943 219.241 235.326 219.208 235.725C219.123 236.638 218.461 237.154 217.556 237.02C216.844 236.914 216.273 236.565 215.821 236.021C215.386 235.492 214.973 234.946 214.547 234.414C214.416 234.252 214.278 234.081 214.119 233.951C214.034 233.88 213.881 233.841 213.776 233.869C213.714 233.884 213.657 234.057 213.661 234.158C213.681 234.429 213.729 234.702 213.776 234.974C213.856 235.488 213.99 235.998 214.022 236.515C214.088 237.459 213.467 238.094 212.52 238.106C211.968 238.114 211.451 237.961 211.018 237.62C210.709 237.383 210.433 237.103 210.177 236.811C209.788 236.353 209.43 235.866 209.049 235.401C208.914 235.239 208.768 235.085 208.598 234.963C208.407 234.825 208.236 234.908 208.215 235.14C208.199 235.298 208.219 235.464 208.252 235.622C208.345 236.101 208.459 236.578 208.549 237.055C208.602 237.325 208.646 237.601 208.654 237.877C208.666 238.896 207.98 239.643 206.961 239.722C206.137 239.785 205.418 239.528 204.816 238.963C204.557 238.723 204.331 238.441 204.106 238.162C203.774 237.743 203.469 237.301 203.139 236.878C203.03 236.735 202.905 236.602 202.762 236.5C202.596 236.381 202.434 236.448 202.396 236.645C202.364 236.819 202.364 237.005 202.388 237.178C202.462 237.66 202.558 238.138 202.636 238.62C202.676 238.892 202.725 239.168 202.721 239.441C202.697 240.532 201.811 241.467 200.744 241.48C199.509 241.495 198.535 240.97 197.909 239.892C197.275 238.789 197.556 237.625 198.601 236.895C198.956 236.642 199.339 236.42 199.709 236.179C199.842 236.092 199.98 235.998 200.086 235.875C200.285 235.658 200.228 235.453 199.94 235.361C199.775 235.306 199.59 235.287 199.413 235.279C198.956 235.262 198.498 235.262 198.043 235.259C196.862 235.251 195.9 234.797 195.181 233.845C194.839 233.39 194.49 232.94 194.138 232.494C194.006 232.329 193.869 232.163 193.706 232.032C193.464 231.834 193.261 231.917 193.236 232.226C193.219 232.451 193.248 232.68 193.276 232.905C193.36 233.501 193.492 234.094 193.536 234.69C193.63 235.958 192.798 236.882 191.526 236.968C190.515 237.04 189.67 236.684 189.021 235.911C188.574 235.373 188.156 234.812 187.72 234.264C187.587 234.101 187.449 233.936 187.287 233.806C187.068 233.636 186.873 233.715 186.828 233.992C186.802 234.149 186.811 234.315 186.832 234.477C186.893 234.974 186.97 235.473 187.032 235.973C187.064 236.261 187.101 236.558 187.084 236.846C187.015 238.149 186.089 239.054 184.794 239.109C183.709 239.157 182.816 238.778 182.13 237.941C181.756 237.491 181.408 237.016 181.029 236.57C180.858 236.372 180.692 236.049 180.366 236.195C180.087 236.326 180.164 236.648 180.185 236.902C180.221 237.471 180.302 238.035 180.335 238.6C180.412 240.085 179.189 241.349 177.704 241.325C176.643 241.313 175.77 240.91 175.145 240.038C174.731 239.453 174.337 238.857 173.922 238.273C173.801 238.103 173.671 237.929 173.518 237.791C173.286 237.581 173.074 237.657 173.038 237.961C173.013 238.182 173.038 238.415 173.058 238.64C173.127 239.398 173.22 240.161 173.286 240.918C173.342 241.641 173.103 242.265 172.61 242.791C171.543 243.936 169.598 243.912 168.567 242.723C168.263 242.367 168.01 241.965 167.734 241.583C167.433 241.155 167.146 240.722 166.842 240.301C166.728 240.148 166.597 239.95 166.371 240.018C166.105 240.096 166.155 240.35 166.155 240.556C166.155 240.748 166.175 240.946 166.2 241.14C166.264 241.654 166.354 242.17 166.399 242.688C166.432 243.056 166.455 243.438 166.406 243.802C166.228 245.124 165.229 246.077 163.9 246.211C162.861 246.317 162.009 245.962 161.375 245.133C160.981 244.615 160.628 244.07 160.246 243.541C160.124 243.371 159.994 243.198 159.836 243.059C159.589 242.838 159.365 242.917 159.32 243.241C159.292 243.45 159.304 243.663 159.325 243.873C159.378 244.426 159.455 244.97 159.503 245.524C159.609 246.748 159.154 247.712 158.134 248.411C157.907 248.565 157.672 248.708 157.44 248.857C156.904 249.201 156.365 249.533 155.837 249.887C155.653 250.007 155.381 250.136 155.463 250.397C155.562 250.702 155.873 250.61 156.1 250.583C156.827 250.5 157.554 250.389 158.282 250.299C158.633 250.255 158.995 250.2 159.349 250.215C160.933 250.283 162.042 251.732 161.664 253.273C161.387 254.398 160.66 255.125 159.527 255.386C158.439 255.638 157.542 255.274 156.852 254.398C156.644 254.13 156.45 253.849 156.25 253.573C156.011 253.24 155.784 252.906 155.536 252.581C155.394 252.396 155.251 252.108 154.976 252.194C154.658 252.289 154.736 252.621 154.747 252.87C154.781 253.537 154.832 254.201 154.886 254.864C154.984 256.085 154.541 257.056 153.566 257.792C153.141 258.115 152.701 258.431 152.274 258.755C152.12 258.874 151.969 258.999 151.849 259.15C151.658 259.387 151.735 259.593 152.031 259.647C152.239 259.687 152.455 259.678 152.664 259.667C153.265 259.636 153.862 259.576 154.467 259.553C155.238 259.522 155.901 259.79 156.453 260.33C157.542 261.409 157.521 263.139 156.405 264.331C155.378 265.421 153.737 265.493 152.636 264.478C152.384 264.248 152.178 263.971 151.976 263.696C151.727 263.356 151.504 262.997 151.263 262.645C151.174 262.515 151.081 262.369 150.959 262.27C150.854 262.187 150.684 262.1 150.581 262.136C150.48 262.17 150.395 262.344 150.361 262.475C150.322 262.645 150.326 262.831 150.329 263.009C150.339 263.577 150.361 264.145 150.374 264.714C150.403 265.832 149.965 266.737 149.068 267.408C148.596 267.759 148.121 268.1 147.65 268.45C147.507 268.558 147.353 268.66 147.248 268.799C147.158 268.913 147.053 269.11 147.094 269.212C147.138 269.319 147.345 269.395 147.492 269.417C147.699 269.45 147.914 269.426 148.125 269.415C148.774 269.378 149.425 269.3 150.073 269.308C151.784 269.334 152.958 270.82 152.62 272.499C152.479 273.213 152.128 273.801 151.547 274.244C151.044 274.631 150.529 274.999 150.021 275.383C149.863 275.497 149.696 275.607 149.574 275.757C149.477 275.868 149.38 276.041 149.396 276.173C149.421 276.385 149.644 276.412 149.822 276.409C150.261 276.401 150.7 276.378 151.137 276.346C151.513 276.319 151.881 276.25 152.255 276.231C154.123 276.136 155.551 277.751 155.244 279.584C155.105 280.398 154.695 281.034 154.029 281.511C153.543 281.863 153.039 282.199 152.551 282.546C152.393 282.66 152.235 282.783 152.113 282.929C151.938 283.139 152.008 283.337 152.271 283.403C152.425 283.442 152.596 283.451 152.755 283.442C153.241 283.423 153.729 283.382 154.216 283.365C154.541 283.348 154.871 283.32 155.19 283.344C156.388 283.431 157.424 284.24 157.783 285.342C158.138 286.452 157.762 287.669 156.802 288.451C156.576 288.632 156.332 288.795 156.089 288.96C155.767 289.182 155.43 289.383 155.122 289.616C154.886 289.793 154.476 289.932 154.609 290.291C154.743 290.635 155.15 290.511 155.446 290.5C155.983 290.485 156.517 290.441 157.053 290.39C158.371 290.264 159.413 290.722 160.182 291.799C160.482 292.226 160.783 292.649 161.092 293.067C161.209 293.222 161.343 293.372 161.497 293.486C161.692 293.632 161.878 293.562 161.948 293.325C161.992 293.17 162.005 293.002 161.996 292.843C161.977 292.372 161.919 291.901 161.916 291.428C161.911 290.963 161.911 290.485 161.989 290.027C162.102 289.359 162.468 288.821 163.031 288.435C164.526 287.404 166.751 288.092 167.393 289.798C167.474 290.007 167.519 290.236 167.54 290.458C167.618 291.528 167.256 292.413 166.386 293.055C165.878 293.434 165.343 293.775 164.823 294.138C164.636 294.268 164.449 294.407 164.299 294.572C164.097 294.798 164.16 295.007 164.457 295.078C164.645 295.121 164.843 295.13 165.038 295.126C165.72 295.105 166.402 295.061 167.089 295.047C168.152 295.023 169.017 295.433 169.656 296.299C170.012 296.785 170.354 297.278 170.707 297.764C170.857 297.977 171.016 298.187 171.182 298.384C171.308 298.53 171.466 298.727 171.665 298.596C171.778 298.523 171.827 298.298 171.839 298.131C171.859 297.926 171.824 297.713 171.799 297.503C171.734 296.971 171.66 296.437 171.604 295.903C171.575 295.647 171.555 295.383 171.568 295.126C171.668 293.163 173.453 291.966 175.303 292.607C175.92 292.823 176.432 293.186 176.806 293.724C177.184 294.273 177.546 294.833 177.915 295.386C178.053 295.587 178.191 295.789 178.346 295.979C178.455 296.113 178.594 296.306 178.779 296.191C178.885 296.125 178.942 295.923 178.958 295.778C178.983 295.567 178.958 295.355 178.933 295.145C178.873 294.612 178.792 294.08 178.726 293.55C178.698 293.289 178.658 293.033 178.662 292.772C178.686 290.872 180.383 289.548 182.226 289.979C182.925 290.142 183.486 290.509 183.895 291.089C184.335 291.717 184.745 292.361 185.18 292.992C185.305 293.175 185.456 293.357 185.626 293.503C185.78 293.628 185.95 293.566 185.999 293.372C186.04 293.217 186.049 293.049 186.04 292.89C186.007 292.436 185.955 291.982 185.922 291.528C185.886 291.01 185.853 290.493 185.828 289.972C185.768 288.723 187.258 286.965 189.021 287.297C189.886 287.459 190.577 287.849 191.067 288.577C191.444 289.146 191.802 289.731 192.175 290.3C192.288 290.477 192.42 290.651 192.574 290.79C192.764 290.963 192.951 290.899 193.004 290.643C193.045 290.441 193.05 290.224 193.036 290.015C192.988 289.301 192.922 288.589 192.866 287.873C192.794 286.989 193.057 286.204 193.626 285.524C194.329 284.675 195.234 284.399 196.298 284.668C197.057 284.861 197.638 285.318 198.064 285.97C198.417 286.511 198.754 287.072 199.108 287.617C199.22 287.795 199.339 287.977 199.48 288.127C199.562 288.209 199.741 288.305 199.809 288.269C199.915 288.213 200.008 288.06 200.029 287.933C200.065 287.712 200.054 287.479 200.041 287.253C200 286.684 199.948 286.121 199.899 285.552C199.854 285.014 199.863 284.481 200.029 283.96C200.489 282.522 201.987 281.74 203.367 282.218C204.745 282.692 205.369 284.106 204.85 285.56C204.646 286.124 204.301 286.591 203.817 286.951C203.275 287.361 202.714 287.755 202.165 288.163C201.996 288.289 201.828 288.419 201.69 288.577C201.47 288.835 201.556 289.04 201.897 289.073C202.12 289.094 202.352 289.08 202.579 289.055C203.192 288.991 203.81 288.917 204.422 288.846C205.474 288.723 206.303 289.099 206.905 289.972C207.18 290.374 207.444 290.785 207.72 291.188C207.823 291.334 207.932 291.481 208.065 291.591C208.273 291.768 208.475 291.709 208.549 291.444C208.602 291.243 208.618 291.027 208.618 290.817C208.627 290.215 208.598 289.612 208.621 289.011C208.659 287.949 209.125 287.1 210.007 286.508C211.313 285.623 213.13 286.335 213.5 287.866C213.75 288.904 213.514 289.837 212.776 290.618C212.545 290.868 212.273 291.082 212.004 291.291C211.54 291.65 211.062 291.985 210.594 292.341C210.452 292.447 210.315 292.569 210.211 292.708C210.055 292.914 210.128 293.104 210.375 293.135C210.583 293.163 210.803 293.146 211.009 293.119C211.656 293.033 212.293 292.914 212.942 292.839C214.31 292.684 215.281 293.569 215.281 294.943C215.278 295.903 214.871 296.674 214.139 297.274C213.624 297.692 213.081 298.084 212.556 298.494C212.39 298.625 212.223 298.759 212.085 298.917C212.008 299.004 211.936 299.171 211.968 299.256C212 299.339 212.174 299.408 212.285 299.411C212.511 299.414 212.74 299.379 212.962 299.344C213.575 299.241 214.177 299.094 214.79 299.028C216.061 298.882 216.934 299.678 216.943 300.955C216.949 301.742 216.683 302.429 216.125 302.977C215.801 303.297 215.437 303.574 215.082 303.858C214.713 304.15 214.327 304.423 213.961 304.719C213.803 304.845 213.575 304.992 213.691 305.232C213.786 305.447 214.03 305.383 214.218 305.354C214.571 305.303 214.923 305.228 215.273 305.166C215.611 305.103 215.944 305.015 216.28 304.976C217.648 304.806 218.47 305.698 218.196 307.053C218.037 307.834 217.628 308.463 217.015 308.961C216.536 309.352 216.037 309.718 215.554 310.102C215.386 310.233 215.224 310.372 215.094 310.536C214.928 310.743 215.004 310.919 215.261 310.938C215.419 310.955 215.585 310.935 215.744 310.905C216.207 310.809 216.667 310.699 217.129 310.608C217.385 310.556 217.644 310.508 217.9 310.508C218.636 310.505 219.131 310.979 219.171 311.709C219.2 312.232 219.062 312.721 218.761 313.138C218.525 313.466 218.246 313.767 217.942 314.032C217.519 314.411 217.052 314.743 216.61 315.098C216.458 315.22 216.312 315.354 216.188 315.505C216.131 315.568 216.083 315.71 216.117 315.762C216.17 315.837 216.301 315.911 216.39 315.904C216.645 315.884 216.901 315.828 217.158 315.774C217.666 315.659 218.165 315.49 218.676 315.426C219.667 315.296 220.187 315.924 219.926 316.895C219.76 317.527 219.399 318.045 218.908 318.467C218.551 318.776 218.168 319.053 217.804 319.348C217.575 319.533 217.352 319.723 217.145 319.928C217.064 320.007 217.038 320.138 216.949 320.331C217.238 320.311 217.429 320.323 217.609 320.284C218.006 320.189 218.392 320.051 218.786 319.956C219.069 319.889 219.362 319.822 219.65 319.822C220.183 319.826 220.492 320.176 220.373 320.683C220.288 321.038 220.125 321.393 219.915 321.69C219.682 322.015 219.362 322.283 219.062 322.559C218.668 322.919 218.246 323.254 217.852 323.618C217.721 323.739 217.633 323.91 217.527 324.056C217.547 324.092 217.564 324.126 217.584 324.163C217.751 324.163 217.924 324.195 218.083 324.158C218.384 324.087 218.676 323.98 218.974 323.89C219.188 323.826 219.402 323.744 219.626 323.696C220.081 323.601 220.325 323.721 220.556 324.123C220.569 324.146 220.581 324.17 220.593 324.195C221.051 323.788 221.503 323.376 221.95 322.957C222.275 322.184 222.806 321.558 223.496 321.046C223.717 320.888 223.975 320.774 224.23 320.675C224.248 320.669 224.265 320.666 224.281 320.661C225.39 319.517 226.456 318.333 227.481 317.114C227.343 317.176 227.211 317.222 227.126 317.258" fill="white"/>
<path d="M160.969 208.315C160.998 208.166 161.053 208.044 161.108 207.922C160.534 208.049 159.963 208.183 159.395 208.323C159.634 208.406 159.875 208.512 160.12 208.667C160.588 208.959 160.871 208.84 160.969 208.315Z" fill="white"/>
<path d="M153.543 210.062C153.958 210.15 154.094 210.501 153.806 210.846C153.612 211.084 153.362 211.276 153.115 211.455C152.759 211.712 152.377 211.932 152.015 212.185C151.85 212.301 151.646 212.406 151.662 212.672C151.84 212.853 152.06 212.79 152.263 212.762C152.633 212.711 152.998 212.632 153.368 212.572C154.228 212.426 154.943 212.672 155.487 213.367C155.609 213.521 155.742 213.663 155.885 213.801C156.015 213.927 156.19 214.054 156.361 213.938C156.474 213.86 156.558 213.683 156.579 213.54C156.62 213.303 156.609 213.054 156.596 212.81C156.544 212.044 156.875 211.498 157.538 211.131C157.891 210.934 158.252 210.744 158.598 210.531C158.755 210.436 158.877 210.294 159.016 210.171C159.007 210.132 158.995 210.092 158.987 210.052C158.841 210.021 158.695 209.966 158.554 209.966C158.261 209.969 157.968 210.013 157.677 210.03C157.253 210.049 156.831 210.084 156.409 210.072C156.104 210.062 155.751 210.025 155.666 209.65C155.638 209.533 155.66 209.438 155.699 209.349C154.974 209.574 154.258 209.814 153.543 210.062Z" fill="white"/>
<path d="M193.69 213.49C193.361 213.608 192.999 213.643 192.656 213.718C191.859 213.648 191.152 213.398 190.519 212.936C190.466 212.897 190.413 212.858 190.369 212.814C190.08 212.552 189.853 212.256 189.942 211.842C190.037 211.424 190.369 211.25 190.737 211.14C191.749 210.839 193.37 211.337 194.033 212.146C194.486 212.7 194.361 213.245 193.69 213.49ZM191.173 218.351C190.832 218.706 190.405 218.896 189.918 218.928C189.029 218.979 188.208 218.769 187.486 218.233C187.308 218.099 187.137 217.941 187.002 217.763C186.564 217.187 186.662 216.491 187.23 216.037C187.646 215.706 188.123 215.595 188.502 215.61C189.448 215.626 190.185 215.843 190.816 216.348C191.019 216.507 191.201 216.705 191.34 216.917C191.635 217.399 191.563 217.941 191.173 218.351V218.351ZM184.502 220.057C184.127 220.204 183.722 220.255 183.327 220.349C182.649 220.271 182.028 220.096 181.468 219.733C180.923 219.378 180.492 218.928 180.634 218.217C180.777 217.499 181.268 217.068 181.951 216.847C182.073 216.808 182.207 216.791 182.337 216.788C183.149 216.771 183.924 216.93 184.639 217.313C185.192 217.609 185.573 218.036 185.536 218.703C185.496 219.378 185.097 219.821 184.502 220.057V220.057ZM179.003 221.009C178.479 221.665 177.768 221.929 176.932 221.929C176.229 221.913 175.559 221.76 174.982 221.309C174.089 220.611 174.08 219.536 174.962 218.825C175.666 218.256 176.469 218.09 177.346 218.28C177.845 218.386 178.312 218.572 178.722 218.876C179.461 219.429 179.58 220.286 179.003 221.009V221.009ZM172.684 222.593C172.229 223.382 171.336 223.852 170.113 223.841C169.643 223.829 169.041 223.662 168.518 223.265C167.79 222.703 167.653 221.933 168.14 221.155C168.213 221.029 168.307 220.914 168.409 220.808C169.346 219.832 171.125 219.674 172.227 220.469C173.009 221.034 173.164 221.751 172.684 222.593V222.593ZM166.281 216.559C167.158 215.566 169.046 215.334 170.138 216.085C170.808 216.542 170.947 217.225 170.5 217.905C170.117 218.477 169.554 218.785 168.899 218.939C168.648 218.999 168.389 219.014 168.133 219.053C167.564 219.027 167.028 218.911 166.549 218.6C165.773 218.086 165.664 217.257 166.281 216.559ZM166.13 224.709C165.558 225.551 164.732 225.946 163.852 225.979C163.161 225.973 162.629 225.838 162.154 225.528C161.327 224.982 161.143 224.196 161.639 223.335C161.879 222.912 162.225 222.597 162.641 222.36C163.556 221.846 164.51 221.818 165.452 222.245C166.511 222.719 166.784 223.746 166.13 224.709V224.709ZM161.705 232.004C161.314 233.008 160.177 233.73 158.988 233.73C158.574 233.73 158.184 233.636 157.826 233.422C156.969 232.909 156.661 231.993 157.023 231.064C157.595 229.619 159.495 228.928 160.864 229.675C161.736 230.152 162.069 231.064 161.705 232.004ZM156.393 228.225C156.145 228.177 155.898 228.066 155.677 227.934C155.061 227.557 154.809 226.964 154.992 226.262C155.259 225.231 155.958 224.6 156.969 224.311C157.245 224.232 157.545 224.224 157.943 224.165C158.228 224.228 158.622 224.268 158.976 224.41C159.649 224.678 159.983 225.287 159.921 226.005C159.877 226.491 159.694 226.922 159.361 227.278C158.548 228.134 157.55 228.45 156.393 228.225V228.225ZM155.179 234.386C154.789 235.539 153.627 236.37 152.377 236.424C152.035 236.341 151.673 236.301 151.349 236.164C150.452 235.785 150.046 234.914 150.286 233.968C150.676 232.443 152.279 231.471 153.785 231.847C155.012 232.151 155.581 233.19 155.179 234.386V234.386ZM149.785 230.71C148.958 230.508 148.49 229.781 148.629 228.945C148.897 227.289 150.87 226.156 152.437 226.76C153.31 227.1 153.664 227.806 153.416 228.711C153.095 229.872 151.852 230.797 150.606 230.816C150.33 230.78 150.051 230.772 149.785 230.71V230.71ZM170.565 211.119C171.471 210.353 173.249 210.262 174.235 210.935C174.856 211.352 174.91 211.954 174.365 212.487C173.873 212.967 173.245 213.115 172.588 213.168C172.489 213.178 172.392 213.168 172.293 213.168C171.714 213.178 171.17 213.039 170.678 212.723C170 212.289 169.959 211.636 170.565 211.119V211.119ZM176.644 214.8C177.094 215.29 177.097 215.871 176.648 216.376C176.088 217.004 175.373 217.249 174.755 217.225C173.899 217.218 173.285 217.092 172.74 216.716C171.99 216.199 171.912 215.429 172.543 214.765C173.485 213.766 175.709 213.785 176.644 214.8V214.8ZM176.773 209.634C177.139 209.429 177.562 209.346 178.191 209.346C178.767 209.339 179.324 209.434 179.84 209.701C180.009 209.793 180.18 209.895 180.322 210.026C180.688 210.365 180.709 210.796 180.348 211.134C180.127 211.341 179.856 211.526 179.575 211.621C178.609 211.957 177.654 211.893 176.75 211.396C176.4 211.207 176.079 210.957 176.088 210.507C176.096 210.062 176.424 209.828 176.773 209.634ZM182.642 215.116C182.153 215.583 181.569 215.771 181.021 215.733C180.205 215.72 179.546 215.583 178.954 215.2C178.029 214.591 178.076 213.56 179.056 213.027C180.054 212.49 181.818 212.719 182.637 213.493C183.152 213.983 183.156 214.619 182.642 215.116V215.116ZM182.682 208.636C182.991 208.548 183.319 208.52 183.636 208.469C184.285 208.509 184.903 208.639 185.471 208.947C185.638 209.038 185.809 209.145 185.952 209.275C186.325 209.622 186.313 210.053 185.906 210.353C185.686 210.512 185.426 210.642 185.167 210.697C184.225 210.898 183.319 210.772 182.487 210.283C182.142 210.081 181.813 209.836 181.869 209.373C181.931 208.924 182.3 208.742 182.682 208.636V208.636ZM188.091 212.305C188.159 212.344 188.229 212.392 188.29 212.442C189.073 213.056 188.991 213.919 188.088 214.322C187.741 214.476 187.343 214.524 186.97 214.619C186.223 214.536 185.544 214.334 184.927 213.939C184.793 213.849 184.659 213.75 184.55 213.635C184.054 213.126 184.131 212.424 184.744 212.067C185.022 211.91 185.349 211.802 185.662 211.763C186.526 211.656 187.34 211.858 188.091 212.305V212.305ZM188.164 208.075C189.257 207.916 190.264 208.177 191.177 208.785C191.4 208.93 191.563 209.145 191.518 209.441C191.469 209.753 191.241 209.919 190.962 209.986C190.677 210.053 190.385 210.076 190.097 210.121C189.293 210.076 188.545 209.88 187.879 209.429C187.608 209.247 187.319 209.038 187.397 208.655C187.478 208.256 187.818 208.126 188.164 208.075V208.075ZM200.412 210.983C199.072 210.456 197.709 209.976 196.328 209.534C196.226 209.662 196.063 209.715 195.892 209.744C195.745 209.769 195.598 209.773 195.473 209.785C194.625 209.737 193.853 209.5 193.15 209.065C192.926 208.928 192.72 208.756 192.695 208.481C189.783 207.728 186.794 207.168 183.743 206.808C183.727 207.111 183.571 207.339 183.274 207.435C182.922 207.55 182.552 207.647 182.186 207.667C181.249 207.723 180.383 207.47 179.588 206.965C179.355 206.819 179.124 206.661 178.873 206.551C178.54 206.403 178.337 206.551 178.317 206.909C178.312 206.992 178.325 207.071 178.333 207.154C178.366 207.801 178.203 208.066 177.585 208.304C176.579 208.686 175.576 208.655 174.6 208.193C174.252 208.023 173.927 207.801 173.587 207.608C173.363 207.482 173.144 207.28 172.867 207.418C172.583 207.57 172.631 207.865 172.648 208.118C172.689 208.745 172.392 209.129 171.839 209.366C170.593 209.903 169.403 209.872 168.283 209.046C168.177 208.967 168.072 208.889 167.966 208.817C167.348 208.39 167.045 208.528 166.979 209.268C166.979 209.284 166.975 209.299 166.975 209.314C167.004 210.076 166.614 210.566 165.956 210.89C165.594 211.072 165.229 211.258 164.875 211.455C164.712 211.546 164.519 211.634 164.538 211.878C164.831 212.063 164.839 212.076 165.217 212.06C165.769 212.032 166.321 211.984 166.873 211.969C167.372 211.957 167.848 212.063 168.263 212.355C168.79 212.731 168.879 213.277 168.494 213.797C168.226 214.16 167.869 214.422 167.447 214.575C166.15 215.042 164.952 214.918 163.921 213.919C163.747 213.753 163.572 213.576 163.368 213.446C163.068 213.257 162.816 213.367 162.743 213.707C162.699 213.912 162.691 214.128 162.699 214.339C162.739 215.187 162.371 215.808 161.651 216.234C161.274 216.459 160.889 216.676 160.514 216.906C160.364 216.996 160.214 217.103 160.092 217.229C159.901 217.423 159.959 217.609 160.223 217.636C160.511 217.668 160.807 217.652 161.095 217.631C161.565 217.605 162.037 217.545 162.508 217.526C162.975 217.506 163.414 217.621 163.8 217.888C164.566 218.418 164.685 219.165 164.12 219.906C163.06 221.298 160.733 221.499 159.617 220.149C159.43 219.923 159.227 219.713 159.015 219.508C158.865 219.362 158.699 219.196 158.463 219.295C158.252 219.381 158.232 219.599 158.216 219.793C158.192 220.132 158.18 220.472 158.168 220.816C158.107 222.854 155.544 223.841 154.123 223.078C153.794 222.901 153.531 222.589 153.255 222.321C153.055 222.127 152.905 221.886 152.695 221.707C152.443 221.495 152.205 221.574 152.084 221.886C152.035 222.021 152.015 222.171 151.995 222.312C151.958 222.605 151.922 222.893 151.897 223.186C151.772 224.663 150.537 225.528 149.543 225.726C148.584 225.919 147.768 225.721 147.167 224.892C146.997 224.655 146.806 224.426 146.589 224.232C146.302 223.971 146.026 224.05 145.937 224.426C145.863 224.722 145.838 225.037 145.827 225.342C145.799 226.435 145.315 227.269 144.425 227.885C143.959 228.213 143.497 228.545 143.041 228.888C142.887 229.003 142.737 229.137 142.623 229.292C142.493 229.457 142.566 229.624 142.773 229.634C142.979 229.646 143.195 229.619 143.402 229.581C144.007 229.457 144.605 229.276 145.218 229.203C146.602 229.047 147.479 230.191 147.008 231.503C146.813 232.041 146.464 232.463 146.013 232.803C145.498 233.197 144.962 233.565 144.438 233.951C144.267 234.078 144.101 234.209 143.959 234.363C143.893 234.438 143.841 234.588 143.873 234.663C143.906 234.741 144.048 234.808 144.146 234.813C144.39 234.817 144.633 234.789 144.872 234.758C145.501 234.674 146.127 234.529 146.761 234.509C148.141 234.461 148.958 235.559 148.576 236.89C148.401 237.506 148.032 237.992 147.528 238.379C147.037 238.755 146.533 239.114 146.037 239.481C145.856 239.619 145.673 239.754 145.501 239.908C145.371 240.022 145.21 240.152 145.283 240.358C145.364 240.567 145.571 240.551 145.746 240.539C146.037 240.52 146.331 240.484 146.618 240.442C147.085 240.373 147.548 240.282 148.015 240.224C149.018 240.097 149.807 240.442 150.346 241.309C150.63 241.763 150.902 242.226 151.183 242.684C151.305 242.878 151.415 243.083 151.561 243.249C151.67 243.375 151.844 243.529 151.978 243.52C152.219 243.506 152.214 243.245 152.226 243.056C152.238 242.861 152.234 242.664 152.219 242.47C152.182 241.985 152.129 241.499 152.084 241.013C152.063 240.803 152.04 240.595 152.044 240.382C152.055 239.075 152.945 237.894 154.179 237.542C155.419 237.19 156.47 237.633 157.25 238.841C157.545 239.303 157.837 239.773 158.139 240.24C158.236 240.385 158.342 240.539 158.469 240.658C158.557 240.737 158.728 240.836 158.797 240.8C158.902 240.741 159 240.587 159.011 240.461C159.04 240.188 159.031 239.911 159.011 239.635C158.971 239.083 158.91 238.533 158.862 237.985C158.8 237.308 158.946 236.692 159.358 236.144C160.205 234.998 162.415 234.296 163.758 236.116C163.893 236.299 164.023 236.487 164.153 236.674C164.449 237.1 164.741 237.53 165.046 237.956C165.14 238.088 165.24 238.217 165.363 238.32C165.598 238.518 165.805 238.454 165.862 238.159C165.903 237.953 165.903 237.736 165.883 237.53C165.821 236.847 165.74 236.172 165.672 235.492C165.569 234.454 165.972 233.651 166.824 233.071C166.999 232.953 167.182 232.846 167.365 232.744C167.746 232.522 168.133 232.309 168.514 232.092C168.726 231.969 168.936 231.851 169.135 231.709C169.314 231.582 169.611 231.475 169.529 231.216C169.436 230.922 169.12 231.036 168.888 231.036C168.693 231.036 168.498 231.068 168.304 231.096C167.661 231.187 167.015 231.286 166.369 231.369C165.834 231.44 165.297 231.42 164.783 231.227C163.341 230.689 162.943 229.158 163.942 227.988C165.046 226.696 167.045 226.625 168.233 227.845C168.47 228.091 168.681 228.363 168.903 228.62C169.041 228.778 169.168 228.959 169.331 229.086C169.46 229.189 169.65 229.299 169.793 229.28C170.02 229.248 170.028 228.999 170.049 228.805C170.061 228.659 170.061 228.513 170.058 228.368C170.049 228.043 170.028 227.715 170.024 227.392C170.012 226.266 170.633 225.366 171.714 225.041C172.916 224.678 174.005 224.903 174.902 225.82C175.173 226.096 175.412 226.408 175.677 226.696C175.818 226.85 175.96 227.012 176.131 227.135C176.407 227.337 176.631 227.234 176.692 226.894C176.716 226.752 176.716 226.601 176.709 226.459C176.692 226.132 176.659 225.807 176.644 225.484C176.566 224.196 177.318 223.245 178.6 223.066C179.697 222.912 180.668 223.202 181.451 224.015C181.732 224.311 181.995 224.619 182.271 224.92C182.381 225.037 182.496 225.16 182.621 225.255C182.946 225.496 183.185 225.393 183.23 224.998C183.251 224.841 183.238 224.674 183.221 224.512C183.194 224.22 183.149 223.931 183.116 223.64C182.998 222.51 183.526 221.751 184.635 221.495C185.764 221.231 186.767 221.502 187.611 222.297C187.977 222.644 188.306 223.027 188.662 223.382C188.842 223.56 189.02 223.844 189.309 223.722C189.629 223.588 189.512 223.248 189.496 222.984C189.467 222.565 189.379 222.143 189.379 221.724C189.382 220.871 189.942 220.223 190.787 220.117C191.916 219.974 192.923 220.275 193.735 221.087C194.564 221.918 194.442 222.968 193.455 223.599C193.138 223.802 192.797 223.964 192.477 224.149C192.306 224.247 192.135 224.347 191.992 224.48C191.79 224.67 191.834 224.88 192.094 224.963C192.293 225.026 192.51 225.054 192.72 225.065C193.177 225.086 193.63 225.086 194.084 225.101C194.989 225.132 195.765 225.449 196.383 226.124C196.756 226.534 197.142 226.929 197.533 227.324C197.641 227.439 197.771 227.55 197.909 227.626C198.108 227.735 198.271 227.659 198.308 227.435C198.34 227.245 198.332 227.048 198.308 226.855C198.259 226.452 198.177 226.053 198.132 225.65C198.064 225.006 198.303 224.501 198.855 224.162C199.135 223.987 199.428 223.844 199.708 223.683C199.862 223.596 200.024 223.506 200.156 223.391C200.382 223.186 200.35 222.972 200.065 222.874C199.868 222.802 199.652 222.772 199.445 222.751C198.973 222.703 198.502 222.688 198.036 222.628C197.073 222.514 196.257 222.104 195.648 221.34C195.079 220.622 195.233 219.776 196.006 219.287C196.184 219.173 196.379 219.086 196.566 218.99C196.723 218.908 196.89 218.836 197.045 218.746C197.206 218.647 197.442 218.541 197.357 218.32C197.308 218.193 197.094 218.095 196.939 218.051C196.705 217.988 196.455 217.98 196.212 217.956C195.843 217.916 195.465 217.9 195.095 217.849C194.437 217.763 193.837 217.521 193.313 217.111C193.15 216.981 192.988 216.834 192.859 216.673C192.354 216.037 192.521 215.263 193.264 214.935C193.548 214.808 193.894 214.757 194.21 214.765C195.079 214.784 195.862 215.084 196.54 215.638C196.858 215.894 197.162 216.163 197.483 216.411C197.622 216.523 197.779 216.622 197.946 216.681C198.203 216.776 198.364 216.65 198.344 216.373C198.328 216.195 198.275 216.021 198.222 215.851C197.926 214.84 198.06 214.572 199.038 214.173C199.234 214.093 199.432 214.006 199.595 213.88C199.765 213.753 199.741 213.589 199.558 213.49C199.417 213.415 199.253 213.363 199.096 213.336C198.713 213.264 198.325 213.212 197.938 213.15C197.239 213.043 196.577 212.826 195.992 212.411C195.608 212.139 195.197 211.85 195.323 211.282C195.407 210.898 195.872 210.717 196.573 210.764C197.459 210.823 198.251 211.143 198.957 211.673C199.193 211.846 199.412 212.04 199.648 212.218C199.761 212.305 199.883 212.392 200.017 212.447C200.273 212.552 200.439 212.435 200.423 212.159C200.411 212 200.359 211.842 200.321 211.685C200.249 211.364 200.279 211.13 200.412 210.983" fill="white"/>
<path d="M154.025 333.077C153.619 332.741 153.32 332.319 153.505 331.761C153.688 331.203 154.18 331.055 154.7 330.992C154.796 330.98 154.895 330.992 154.992 330.992C155.966 331.043 156.831 331.375 157.53 332.07C158.131 332.665 158.017 333.377 157.273 333.796C156.92 333.993 156.535 334.036 156.142 333.993C155.345 333.898 154.633 333.591 154.025 333.077ZM152.373 333.846C152.178 334.289 151.764 334.345 151.341 334.325C150.399 334.286 149.578 333.945 148.889 333.298C148.876 333.285 148.864 333.274 148.856 333.263C148.555 332.946 148.279 332.607 148.487 332.145C148.686 331.702 149.103 331.666 149.571 331.663C150.5 331.705 151.353 332.05 152.044 332.756C152.337 333.056 152.563 333.408 152.373 333.846V333.846ZM145.587 328.894C145.497 328.763 145.432 328.605 145.392 328.452C145.238 327.887 145.505 327.404 146.071 327.243C146.254 327.189 146.451 327.18 146.582 327.16C147.8 327.25 148.726 327.765 149.424 328.677C149.688 329.021 149.761 329.416 149.574 329.822C149.384 330.237 149.014 330.41 148.584 330.415C147.325 330.435 146.322 329.916 145.587 328.894V328.894ZM150.643 327.156C150.919 326.524 151.496 326.359 152.133 326.355H152.235C153.143 326.41 153.989 326.733 154.654 327.456C154.792 327.611 154.922 327.784 155.016 327.97C155.357 328.637 155.123 329.325 154.44 329.637C154.208 329.743 153.939 329.814 153.688 329.818C152.69 329.83 151.804 329.498 151.094 328.78C150.646 328.334 150.358 327.797 150.643 327.156V327.156ZM160.238 336C160.494 336.217 160.657 336.505 160.567 336.86C160.469 337.239 160.164 337.389 159.816 337.464C159.609 337.508 159.397 337.517 159.292 337.528C158.337 337.5 157.559 337.251 156.868 336.757C156.527 336.517 156.218 336.22 156.332 335.754C156.446 335.293 156.855 335.139 157.262 335.087C158.383 334.944 159.381 335.269 160.238 336ZM143.853 330.615C143.711 330.636 143.56 330.636 143.418 330.612C142.391 330.459 141.568 329.956 140.953 329.119C140.933 329.094 140.917 329.067 140.897 329.039C140.715 328.736 140.588 328.415 140.8 328.081C140.995 327.773 141.311 327.714 141.745 327.722C142.773 327.856 143.675 328.365 144.316 329.305C144.397 329.419 144.449 329.564 144.478 329.703C144.588 330.182 144.336 330.545 143.853 330.615ZM137.705 324.446C137.522 324.068 137.453 323.665 137.745 323.301C138.035 322.946 138.428 322.879 138.85 322.954C139.89 323.144 140.715 323.676 141.298 324.562C141.421 324.747 141.509 324.965 141.563 325.181C141.733 325.923 141.298 326.425 140.426 326.387C139.268 326.213 138.269 325.644 137.705 324.446V324.446ZM136.089 326.54C135.987 326.512 135.776 326.477 135.581 326.402C134.74 326.074 134.074 325.517 133.571 324.775C133.323 324.415 133.157 324.004 133.461 323.601C133.758 323.216 134.181 323.286 134.579 323.412C135.48 323.689 136.186 324.246 136.707 325.023C136.828 325.208 136.914 325.43 136.961 325.648C137.084 326.208 136.767 326.568 136.089 326.54ZM132.983 321.982C131.862 321.812 130.606 320.663 130.343 319.565C130.169 318.827 130.619 318.257 131.33 318.419C132.52 318.687 133.392 319.399 133.883 320.536C133.928 320.639 133.941 320.758 133.966 320.869C133.979 320.947 133.982 321.03 133.986 321.073C133.986 321.74 133.599 322.073 132.983 321.982V321.982ZM129.766 316.958C128.706 316.698 127.586 315.462 127.424 314.379C127.282 313.435 127.882 312.903 128.795 313.167C129.941 313.499 131.05 314.866 131.05 315.959C131.053 316.75 130.542 317.148 129.766 316.958V316.958ZM129.153 322.006C127.947 321.587 127.078 320.793 126.713 319.546C126.554 319.001 126.879 318.661 127.411 318.747C128.385 318.902 129.742 320.245 129.9 321.208C129.909 321.275 129.913 321.339 129.917 321.374C129.917 321.883 129.604 322.16 129.153 322.006ZM126.055 317.254C124.97 316.805 124.187 316.042 123.838 314.889C123.797 314.751 123.794 314.6 123.785 314.534C123.782 313.818 124.191 313.499 124.78 313.752C125.868 314.213 126.616 315.011 126.94 316.169C126.981 316.308 126.989 316.461 126.985 316.603C126.96 317.161 126.57 317.468 126.055 317.254ZM154.483 337.733C154.34 337.732 154.206 337.708 154.067 337.694C155.729 338.256 157.422 338.753 159.14 339.186C159.137 339.138 159.134 339.091 159.146 339.037C159.207 338.768 159.413 338.626 159.661 338.575C159.897 338.523 160.145 338.495 160.384 338.495C161.152 338.488 161.866 338.685 162.521 339.083C162.699 339.191 162.87 339.328 163 339.49C163.149 339.677 163.161 339.885 163.054 340.048C164.654 340.351 166.273 340.598 167.911 340.787C168.034 340.734 168.157 340.681 168.262 340.604C168.457 340.467 168.437 340.273 168.21 340.205C167.977 340.142 167.73 340.131 167.49 340.099C166.926 340.031 166.349 340.02 165.8 339.885C165.384 339.783 164.968 339.586 164.619 339.335C164.16 339.013 164.213 338.531 164.692 338.219C164.826 338.132 164.977 338.07 165.127 338.001C165.302 337.918 165.492 337.859 165.663 337.769C165.854 337.669 166.163 337.614 166.106 337.33C166.049 337.065 165.749 337.088 165.529 337.065C165.171 337.03 164.81 337.043 164.458 336.99C163.962 336.912 163.462 336.829 162.985 336.679C162.667 336.576 162.361 336.386 162.102 336.172C161.46 335.644 161.537 334.957 162.268 334.562C162.556 334.411 162.865 334.305 163.162 334.167C163.321 334.09 163.487 334.007 163.62 333.894C163.775 333.764 163.755 333.595 163.572 333.499C163.446 333.436 163.3 333.392 163.157 333.377C162.785 333.333 162.41 333.317 162.037 333.274C161.634 333.226 161.229 333.187 160.835 333.097C160.27 332.962 159.771 332.686 159.369 332.264C158.731 331.6 158.818 330.822 159.596 330.336C159.873 330.162 160.173 330.039 160.461 329.885C160.636 329.795 160.815 329.708 160.966 329.585C161.205 329.391 161.164 329.178 160.871 329.083C160.673 329.024 160.458 329 160.246 328.985C159.742 328.942 159.239 328.928 158.736 328.873C157.842 328.771 157.079 328.393 156.514 327.686C155.816 326.816 156.21 325.624 157.283 325.319C157.457 325.267 157.635 325.244 157.814 325.233C158.825 325.165 159.707 325.481 160.437 326.185C160.778 326.512 161.099 326.856 161.436 327.184C161.566 327.31 161.704 327.43 161.862 327.508C162.081 327.622 162.248 327.535 162.297 327.291C162.325 327.148 162.318 326.998 162.3 326.856C162.272 326.563 162.228 326.276 162.183 325.987C162.054 325.131 162.37 324.494 163.125 324.072C163.495 323.867 163.868 323.669 164.235 323.451C164.433 323.334 164.729 323.222 164.657 322.931C164.587 322.638 164.274 322.67 164.039 322.653C163.519 322.626 163 322.622 162.476 322.614C161.429 322.599 160.542 322.224 159.84 321.442C159.531 321.102 159.226 320.766 158.918 320.433C158.804 320.316 158.687 320.197 158.553 320.115C158.293 319.948 158.099 320.04 158.073 320.336C158.058 320.53 158.086 320.727 158.111 320.919C158.163 321.323 158.252 321.721 158.277 322.124C158.342 323.207 157.639 323.97 156.555 324.004C155.581 324.04 154.724 323.735 154.034 323.041C153.639 322.65 153.278 322.231 152.892 321.836C152.73 321.667 152.555 321.402 152.287 321.525C151.987 321.658 152.1 321.978 152.128 322.224C152.178 322.641 152.275 323.056 152.311 323.479C152.389 324.396 151.877 325.015 150.955 325.102C150.014 325.194 149.188 324.886 148.49 324.258C148.226 324.016 147.995 323.739 147.76 323.472C147.439 323.105 147.134 322.721 146.817 322.354C146.712 322.231 146.585 322.121 146.451 322.034C146.273 321.923 146.115 322.002 146.108 322.207C146.103 322.397 146.135 322.594 146.184 322.785C146.319 323.317 146.492 323.846 146.606 324.387C146.773 325.173 146.362 325.734 145.567 325.829C145.344 325.853 145.104 325.845 144.888 325.798C144.173 325.636 143.537 325.307 143.044 324.759C142.834 324.516 142.659 324.23 142.542 323.933C142.286 323.298 142.476 322.792 143.065 322.436C143.286 322.303 143.528 322.196 143.755 322.077C143.959 321.971 144.177 321.883 144.357 321.749C144.482 321.65 144.641 321.485 144.644 321.346C144.649 321.109 144.397 321.078 144.211 321.035C144.084 321.003 143.954 320.987 143.825 320.972C143.568 320.944 143.309 320.896 143.05 320.9C141.53 320.932 140.401 320.265 139.557 319.028C139.272 318.613 138.931 318.239 138.602 317.86C138.481 317.716 138.355 317.546 138.054 317.625C138.054 317.799 138.022 317.989 138.059 318.168C138.123 318.488 138.23 318.795 138.31 319.111C138.415 319.517 138.557 319.924 138.606 320.34C138.717 321.236 138.111 321.786 137.231 321.587C136.174 321.356 135.37 320.754 134.825 319.818C134.724 319.64 134.659 319.431 134.611 319.226C134.481 318.68 134.648 318.231 135.102 317.895C135.285 317.76 135.483 317.654 135.676 317.521C135.886 317.381 136.19 317.279 136.155 316.97C136.105 316.623 135.765 316.623 135.5 316.572C135.152 316.5 134.789 316.472 134.44 316.41C133.364 316.219 132.552 315.628 131.999 314.703C131.375 313.661 131.585 312.784 132.58 312.101C132.784 311.963 132.99 311.828 133.169 311.666C133.481 311.374 133.42 311.097 133.011 310.994C132.763 310.929 132.499 310.896 132.239 310.892C130.923 310.873 129.945 310.268 129.227 309.194C129.016 308.886 128.788 308.584 128.553 308.297C128.434 308.155 128.3 307.946 128.077 308.037C127.845 308.132 127.915 308.372 127.943 308.553C128.008 308.989 128.113 309.418 128.158 309.854C128.195 310.206 128.206 310.571 128.141 310.916C128.04 311.449 127.638 311.699 127.095 311.635C126.66 311.587 126.278 311.401 125.961 311.11C125.699 310.873 125.462 310.599 125.235 310.323C124.975 310.012 124.746 309.672 124.492 309.36C124.362 309.201 124.239 309.008 123.931 309.036C123.794 309.344 123.882 309.632 123.931 309.917C124.008 310.379 124.138 310.84 124.155 311.307C124.187 312.08 123.668 312.393 122.96 312.065C122.871 312.027 122.785 311.978 122.706 311.924C121.909 311.378 121.373 310.647 121.109 309.718C120.929 309.079 121.065 308.53 121.604 308.104C121.747 307.996 121.884 307.874 121.99 307.737C122.176 307.492 122.128 307.266 121.852 307.135C121.678 307.057 121.482 306.998 121.291 306.979C120.288 306.859 119.587 306.327 119.087 305.47C118.818 305.004 118.514 304.56 118.213 304.115C118.1 303.949 117.994 303.751 117.67 303.743C117.662 303.934 117.617 304.119 117.645 304.293C117.718 304.726 117.828 305.153 117.917 305.583C117.979 305.884 118.052 306.184 118.092 306.493C118.12 306.741 118.087 306.99 117.841 307.135C117.592 307.282 117.366 307.167 117.166 307.014C117.016 306.891 116.865 306.761 116.743 306.61C116.713 306.573 116.687 306.532 116.657 306.494C117.169 307.413 117.701 308.32 118.253 309.212C118.363 308.985 118.601 308.914 118.909 309.032C118.997 309.065 119.087 309.11 119.164 309.167C119.955 309.763 120.492 310.528 120.699 311.509C120.716 311.587 120.716 311.671 120.723 311.713C120.718 312.089 120.556 312.303 120.308 312.334C120.716 312.919 121.13 313.498 121.556 314.069C121.645 314.107 121.732 314.151 121.811 314.206C122.498 314.676 123.018 315.292 123.372 316.042C123.46 316.24 123.504 316.455 123.539 316.597C125.535 319.021 127.699 321.303 130.009 323.426C130.189 323.346 130.396 323.4 130.591 323.479C131.475 323.835 132.202 324.391 132.698 325.217C132.812 325.406 132.88 325.627 132.933 325.747C132.933 325.824 132.922 325.886 132.909 325.947C134.14 326.956 135.406 327.923 136.707 328.845C136.658 328.77 136.611 328.687 136.581 328.602C136.438 328.219 136.618 327.914 137.026 327.87C137.202 327.856 137.388 327.87 137.554 327.923C138.436 328.188 139.155 328.692 139.707 329.427C139.768 329.506 139.814 329.595 139.853 329.68C140.078 330.187 139.846 330.546 139.213 330.536C141.088 331.743 143.027 332.86 145.024 333.88C144.664 333.674 144.326 333.425 144.024 333.108C144.015 333.097 144.003 333.085 143.995 333.073C143.805 332.82 143.614 332.556 143.764 332.227C143.926 331.871 144.275 331.876 144.661 331.868C145.648 331.973 146.537 332.389 147.244 333.171C147.256 333.183 147.268 333.195 147.276 333.207C147.479 333.475 147.657 333.764 147.475 334.1C147.293 334.435 146.947 334.467 146.623 334.423C146.201 334.366 145.811 334.246 145.44 334.087C147.596 335.168 149.816 336.139 152.095 336.989C151.952 336.891 151.807 336.8 151.67 336.682C151.573 336.6 151.487 336.493 151.427 336.383C151.232 336.034 151.341 335.691 151.714 335.553C151.925 335.474 152.156 335.463 152.267 335.442C153.344 335.486 154.191 335.821 154.927 336.434C155.179 336.643 155.43 336.887 155.313 337.259C155.19 337.647 154.833 337.733 154.483 337.733" fill="white"/>
<path d="M273.938 343.312C271.17 343.312 269.062 342.569 267.616 341.081C266.191 339.594 265.426 337.538 265.323 334.914C265.302 334.356 265.292 333.447 265.292 332.187C265.292 330.906 265.302 329.976 265.323 329.398C265.426 326.795 266.201 324.749 267.647 323.262C269.093 321.754 271.19 321 273.938 321C275.777 321 277.337 321.33 278.618 321.991C279.899 322.632 280.87 323.479 281.531 324.532C282.192 325.586 282.553 326.712 282.615 327.91V327.972C282.615 328.138 282.543 328.282 282.398 328.406C282.274 328.509 282.13 328.561 281.965 328.561H280.26C279.847 328.561 279.589 328.324 279.485 327.848C279.134 326.299 278.504 325.214 277.595 324.594C276.686 323.954 275.467 323.634 273.938 323.634C270.385 323.634 268.546 325.607 268.422 329.553C268.401 330.111 268.391 330.968 268.391 332.125C268.391 333.282 268.401 334.16 268.422 334.759C268.546 338.705 270.385 340.678 273.938 340.678C275.467 340.678 276.686 340.368 277.595 339.748C278.525 339.108 279.155 338.013 279.485 336.464C279.547 336.195 279.64 336.009 279.764 335.906C279.888 335.802 280.054 335.751 280.26 335.751H281.965C282.151 335.751 282.305 335.813 282.429 335.937C282.574 336.04 282.636 336.185 282.615 336.371C282.553 337.59 282.192 338.726 281.531 339.779C280.87 340.833 279.899 341.691 278.618 342.352C277.337 342.992 275.777 343.312 273.938 343.312ZM285.1 343.002C284.935 343.002 284.79 342.94 284.666 342.817C284.542 342.693 284.48 342.548 284.48 342.383C284.48 342.217 284.491 342.104 284.511 342.042L292.197 321.991C292.362 321.537 292.693 321.309 293.189 321.309H295.296C295.792 321.309 296.122 321.537 296.288 321.991L303.942 342.042L304.004 342.383C304.004 342.548 303.942 342.693 303.818 342.817C303.694 342.94 303.55 343.002 303.384 343.002H301.804C301.576 343.002 301.401 342.951 301.277 342.847C301.153 342.724 301.07 342.6 301.029 342.476L299.325 338.075H289.16L287.455 342.476C287.414 342.6 287.321 342.724 287.176 342.847C287.053 342.951 286.887 343.002 286.681 343.002H285.1ZM298.426 335.41L294.242 324.408L290.059 335.41H298.426ZM308.03 343.002C307.824 343.002 307.648 342.94 307.503 342.817C307.38 342.672 307.318 342.496 307.318 342.29V322.053C307.318 321.826 307.38 321.65 307.503 321.526C307.648 321.382 307.824 321.309 308.03 321.309H316.522C318.732 321.309 320.395 321.836 321.511 322.89C322.627 323.944 323.184 325.328 323.184 327.043C323.184 328.2 322.916 329.16 322.379 329.925C321.862 330.689 321.242 331.247 320.519 331.598C321.387 332.032 322.12 332.703 322.72 333.612C323.319 334.522 323.618 335.565 323.618 336.742C323.618 337.899 323.35 338.953 322.813 339.903C322.296 340.854 321.521 341.608 320.488 342.166C319.455 342.724 318.216 343.002 316.769 343.002H308.03ZM316.057 330.482C317.358 330.482 318.35 330.183 319.032 329.584C319.734 328.985 320.085 328.148 320.085 327.074C320.085 326.02 319.745 325.214 319.063 324.656C318.381 324.099 317.379 323.82 316.057 323.82H310.355V330.482H316.057ZM316.367 340.492C317.668 340.492 318.681 340.141 319.404 339.439C320.147 338.736 320.519 337.837 320.519 336.742C320.519 335.606 320.147 334.697 319.404 334.015C318.681 333.313 317.668 332.962 316.367 332.962H310.355V340.492H316.367ZM335.827 343.312C333.121 343.312 331.024 342.61 329.536 341.205C328.07 339.779 327.295 337.641 327.212 334.79C327.191 334.17 327.181 333.292 327.181 332.156C327.181 331.02 327.191 330.152 327.212 329.553C327.295 326.764 328.101 324.646 329.629 323.2C331.158 321.733 333.224 321 335.827 321C338.41 321 340.466 321.733 341.994 323.2C343.523 324.646 344.329 326.764 344.412 329.553C344.453 330.751 344.474 331.619 344.474 332.156C344.474 332.672 344.453 333.55 344.412 334.79C344.329 337.641 343.544 339.779 342.056 341.205C340.59 342.61 338.513 343.312 335.827 343.312ZM335.827 340.678C337.46 340.678 338.761 340.182 339.732 339.191C340.703 338.199 341.23 336.68 341.313 334.635C341.354 333.396 341.375 332.569 341.375 332.156C341.375 331.701 341.354 330.875 341.313 329.677C341.23 327.631 340.693 326.113 339.701 325.121C338.73 324.13 337.439 323.634 335.827 323.634C334.195 323.634 332.883 324.13 331.892 325.121C330.921 326.113 330.394 327.631 330.311 329.677C330.29 330.276 330.28 331.102 330.28 332.156C330.28 333.189 330.29 334.015 330.311 334.635C330.394 336.68 330.921 338.199 331.892 339.191C332.883 340.182 334.195 340.678 335.827 340.678ZM362.185 343.002C361.628 343.002 361.245 342.734 361.039 342.197L354.128 322.27L354.066 321.929C354.066 321.764 354.128 321.619 354.252 321.495C354.376 321.371 354.52 321.309 354.686 321.309H356.297C356.69 321.309 356.969 321.495 357.134 321.867L363.177 339.439L369.251 321.867C369.292 321.743 369.385 321.619 369.53 321.495C369.675 321.371 369.85 321.309 370.057 321.309H371.668C371.834 321.309 371.978 321.371 372.102 321.495C372.247 321.619 372.319 321.764 372.319 321.929L372.257 322.27L365.315 342.197C365.109 342.734 364.737 343.002 364.2 343.002H362.185ZM376.759 343.002C376.553 343.002 376.377 342.94 376.232 342.817C376.108 342.672 376.046 342.496 376.046 342.29V322.053C376.046 321.826 376.108 321.65 376.232 321.526C376.377 321.382 376.553 321.309 376.759 321.309H389.558C389.765 321.309 389.93 321.382 390.054 321.526C390.198 321.65 390.271 321.826 390.271 322.053V323.231C390.271 323.437 390.209 323.613 390.085 323.758C389.961 323.882 389.785 323.944 389.558 323.944H379.021V330.73H388.876C389.083 330.73 389.248 330.803 389.372 330.947C389.517 331.071 389.589 331.247 389.589 331.474V332.621C389.589 332.827 389.517 333.003 389.372 333.148C389.248 333.272 389.083 333.334 388.876 333.334H379.021V340.368H389.806C390.033 340.368 390.209 340.43 390.333 340.554C390.457 340.678 390.519 340.854 390.519 341.081V342.29C390.519 342.496 390.446 342.672 390.302 342.817C390.178 342.94 390.013 343.002 389.806 343.002H376.759ZM395.553 343.002C395.346 343.002 395.171 342.94 395.026 342.817C394.902 342.672 394.84 342.496 394.84 342.29V322.053C394.84 321.826 394.902 321.65 395.026 321.526C395.171 321.382 395.346 321.309 395.553 321.309H403.114C405.49 321.309 407.35 321.867 408.693 322.983C410.036 324.099 410.707 325.71 410.707 327.817C410.707 329.388 410.314 330.679 409.529 331.691C408.765 332.703 407.68 333.406 406.275 333.798L411.048 342.042C411.11 342.166 411.141 342.279 411.141 342.383C411.141 342.548 411.069 342.693 410.924 342.817C410.8 342.94 410.655 343.002 410.49 343.002H409.003C408.693 343.002 408.445 342.93 408.259 342.786C408.093 342.641 407.939 342.434 407.794 342.166L403.3 334.294H397.877V342.29C397.877 342.496 397.805 342.672 397.66 342.817C397.516 342.94 397.34 343.002 397.133 343.002H395.553ZM402.99 331.66C406.069 331.66 407.608 330.369 407.608 327.786C407.608 325.204 406.069 323.913 402.99 323.913H397.877V331.66H402.99ZM415.86 343.002C415.653 343.002 415.478 342.94 415.333 342.817C415.209 342.672 415.147 342.496 415.147 342.29V322.053C415.147 321.826 415.209 321.65 415.333 321.526C415.478 321.382 415.653 321.309 415.86 321.309H422.895C426.014 321.309 428.266 322.012 429.65 323.417C431.035 324.801 431.758 326.898 431.82 329.708C431.84 330.307 431.851 331.113 431.851 332.125C431.851 333.137 431.84 333.953 431.82 334.573C431.758 336.536 431.427 338.137 430.828 339.377C430.249 340.596 429.33 341.505 428.07 342.104C426.81 342.703 425.136 343.002 423.049 343.002H415.86ZM422.895 340.368C424.32 340.368 425.446 340.172 426.272 339.779C427.119 339.387 427.729 338.767 428.101 337.92C428.493 337.052 428.71 335.895 428.752 334.449C428.793 333.21 428.814 332.435 428.814 332.125C428.814 331.794 428.793 331.03 428.752 329.832C428.71 327.786 428.225 326.299 427.295 325.369C426.365 324.419 424.847 323.944 422.74 323.944H418.184V340.368H422.895ZM437.226 343.002C437.019 343.002 436.844 342.94 436.699 342.817C436.575 342.672 436.513 342.496 436.513 342.29V322.053C436.513 321.826 436.575 321.65 436.699 321.526C436.844 321.382 437.019 321.309 437.226 321.309H450.025C450.231 321.309 450.397 321.382 450.521 321.526C450.665 321.65 450.738 321.826 450.738 322.053V323.231C450.738 323.437 450.676 323.613 450.552 323.758C450.428 323.882 450.252 323.944 450.025 323.944H439.488V330.73H449.343C449.55 330.73 449.715 330.803 449.839 330.947C449.983 331.071 450.056 331.247 450.056 331.474V332.621C450.056 332.827 449.983 333.003 449.839 333.148C449.715 333.272 449.55 333.334 449.343 333.334H439.488V340.368H450.273C450.5 340.368 450.676 340.43 450.8 340.554C450.924 340.678 450.985 340.854 450.985 341.081V342.29C450.985 342.496 450.913 342.672 450.769 342.817C450.645 342.94 450.479 343.002 450.273 343.002H437.226Z" fill="#26356E"/>
<defs>
<radialGradient id="paint0_radial" cx="0" cy="0" r="1" gradientUnits="userSpaceOnUse" gradientTransform="translate(183.987 276.26) scale(107.096 106.975)">
<stop stop-color="#CEEEFB"/>
<stop offset="0.0914738" stop-color="#CEEEFB"/>
<stop offset="0.886138" stop-color="#25356E"/>
<stop offset="1" stop-color="#25356E"/>
</radialGradient>
<radialGradient id="paint1_radial" cx="0" cy="0" r="1" gradientUnits="userSpaceOnUse" gradientTransform="translate(209.579 292.734) scale(115.797 115.667)">
<stop stop-color="#25356E"/>
<stop offset="0.521973" stop-color="#25356E"/>
<stop offset="1" stop-color="#25356E"/>
</radialGradient>
</defs>
</svg>
