<?xml version="1.0" encoding="UTF-8" standalone="no"?>
<!DOCTYPE svg PUBLIC "-//W3C//DTD SVG 1.1//EN" "http://www.w3.org/Graphics/SVG/1.1/DTD/svg11.dtd">
<svg xmlns="http://www.w3.org/2000/svg" xmlns:xlink="http://www.w3.org/1999/xlink" version="1.1" width="694.878pt" height="574.5301pt" viewBox="0 0 694.878 574.5301">
<g enable-background="new">
<path transform="matrix(1,0,-0,1,60.17462,481.8461)" d="M 566.743 0 L 566.743 84.897 L 7.786011 84.897 L 7.786011 4.162003 C 5.19101 4.223999 2.596 4.271996 0 4.295998 L 0 92.684 L 574.529 92.684 L 574.529 0 L 566.743 0 Z " fill="#3d7eb8"/>
<path transform="matrix(1,0,-0,1,60.174104,0)" d="M 7.787 7.78701 L 566.74398 7.78701 L 566.74398 80.83801 L 574.52999 80.83801 L 574.52999 .000008 L 0 .000008 L 0 74.99801 L 7.787 74.99801 L 7.787 7.78701 Z " fill="#3d7eb8"/>
<path transform="matrix(1,0,-0,1,147.30408,290.78486)" d="M 17.343 6.240883 C 17.314002 6.896881 17.267 7.480881 17.267 8.063881 C 17.262001 25.867882 17.256 43.66688 17.282 61.47188 C 17.282999 62.78588 17.436 64.11988 17.687 65.40988 C 18.489 69.52688 20.957 71.83188 25.134 72.39588 C 31.394001 73.24488 37.626005 73.002887 43.745004 71.429889 C 55.04 68.527889 62.457 61.612886 65.205 50.101884 C 66.341 45.338884 66.466 40.482885 65.829 35.629884 C 64.246 23.601883 58.516004 14.337887 47.550004 8.707886 C 40.566 5.122887 33.048 4.000885 25.279 4.531883 C 22.588999 4.71888 19.883 5.071884 17.343 6.240883 Z M 1.014 74.849887 C 1.669 74.60889 2.319 74.35288 2.981 74.13088 C 5.849 73.17588 7.536 71.26189 7.783 68.19289 C 7.866 67.167888 7.946 66.13689 7.946 65.10788 C 7.956 46.204885 7.952001 27.296887 7.952001 8.388885 C 7.952001 7.948883 7.968001 7.507889 7.938001 7.068886 C 7.757001 4.568886 6.731 3.321884 4.319 2.714882 C 3.392 2.48188 2.441001 2.339882 1.516001 2.103882 C .831001 1.928879 .065 1.775879 0 .48188 C .959 .48188 1.881001 .409882 2.792001 .491882 C 12.492001 1.381882 22.181 .956886 31.884 .474884 C 35.902 .275887 40.039 .196884 43.968004 .910881 C 55.588 3.00988 64.827 8.986885 71.219 19.060883 C 73.838008 23.193882 75.066 27.720887 75.161 32.646886 C 75.244 36.912885 75.41 41.155885 74.777 45.404886 C 72.466 60.886888 63.217 71.137889 48.086 75.055889 C 41.752 76.69788 35.315 77.11588 28.827 76.84088 C 22.951 76.59288 17.088 76.09488 11.212 75.76888 C 8.28 75.60388 5.336 75.57388 2.399 75.47688 C 1.98 75.46388 1.566001 75.417888 1.148001 75.38188 C 1.105001 75.209888 1.058 75.02589 1.014 74.849887 Z " fill="#231f20" fill-rule="evenodd"/>
<path transform="matrix(1,0,-0,1,481.9889,290.00804)" d="M 17.501 5.501106 L 17.501 39.847108 C 21.876 40.625108 26.175999 40.871107 30.484 40.268106 C 35.101999 39.617105 37.986 36.841108 39.387 32.459108 C 40.668 28.452107 40.744 24.362107 40.063 20.259106 C 39.474 16.657105 38.143 13.333107 35.924 10.404106 C 31.532 4.608109 24.331 2.659103 17.501 5.501106 Z M .066 1.355103 C .531 1.295105 .995999 1.176109 1.452999 1.192108 C 4.026999 1.278107 6.594999 1.465103 9.167999 1.488106 C 12.917 1.524109 16.672 1.584106 20.413 1.391106 C 25.943 1.106102 31.441998 .884102 36.836999 2.489105 C 39.254999 3.210106 41.522 4.24411 43.543 5.760109 C 47.606 8.825111 49.749 12.904106 50.055 17.997105 C 50.347 22.869107 48.973 27.297104 46.711 31.524106 C 44.89 34.927106 42.478998 37.882108 39.824998 40.662107 C 39.323999 41.189107 38.827 41.720109 38.249 42.33111 C 39.311 43.73311 40.329 45.064107 41.327 46.403108 C 44.758 51.008108 48.16 55.62911 51.613 60.213109 C 54.321 63.80911 57.315004 67.15211 60.825 69.99511 C 63.939 72.51311 67.283 74.6481 71.369998 75.2161 C 72.563999 75.3861 73.778 75.38611 75.483 75.488109 C 74.771 76.06811 74.501 76.40011 74.156 76.53911 C 67.39 79.32911 60.849 79.26311 54.642999 74.95411 C 51.398 72.70511 48.657999 69.9521 46.329 66.794109 C 43.619 63.122106 41.065004 59.341104 38.303 55.712106 C 36.567 53.437105 34.63 51.307107 32.687 49.207109 C 30.926 47.29611 28.695 46.331106 26.069 46.059106 C 23.213002 45.764108 20.387 45.847108 17.480999 45.859109 C 17.401 46.45311 17.314 46.809106 17.314 47.160108 C 17.31 53.489107 17.226 59.818109 17.355 66.1471 C 17.435999 70.13711 19.352999 73.156108 23.001 74.94111 C 23.717 75.29211 24.526 75.45111 25.289 75.71711 C 25.595 75.823108 25.88 75.97211 26.175999 76.102108 C 26.147999 76.2441 26.125998 76.39411 26.099999 76.53711 C 21.918999 76.34011 17.732998 75.96911 13.553999 75.99911 C 9.416999 76.02811 5.279999 76.47011 1.015999 76.37411 C 1.372999 76.085109 1.711999 75.7611 2.103999 75.518108 C 6.043999 73.07011 8.057999 69.59711 8.046999 64.8971 C 8.010999 47.233106 7.991 29.569108 8.061 11.902107 C 8.077 7.319107 5.761999 4.486107 1.896999 2.586105 C 1.276999 2.277107 .63 2.028107 0 1.753105 C .021 1.620102 .047 1.488106 .066 1.355103 Z " fill="#231f20" fill-rule="evenodd"/>
<path transform="matrix(1,0,-0,1,227.35803,289.99269)" d="M 17.418 39.82218 C 21.147 40.65818 24.807 40.67718 28.465 40.50618 C 34.507 40.23018 38.139997 37.25818 39.630998 31.39318 C 41.093 25.647183 40.622999 20.022183 38.283998 14.579182 C 36.797998 11.122185 34.556 8.236176 31.3 6.276176 C 26.807 3.570175 22.137999 3.882179 17.418 5.374176 L 17.418 39.82218 Z M 17.314 45.93518 C 17.257 46.612184 17.189 47.043184 17.189 47.474184 C 17.182 53.43918 17.179999 59.39918 17.189 65.36018 C 17.192999 67.46018 17.644999 69.45418 18.772 71.25118 C 20.071999 73.32018 21.853 74.78418 24.24 75.45418 C 24.862 75.623188 25.482 75.81118 26.122 76.38918 C 25.711 76.47218 25.296 76.64118 24.893 76.61518 C 22.689 76.48518 20.487999 76.32318 18.286999 76.15018 C 13.571999 75.78518 8.878 76.067188 4.19 76.59818 C 3.143 76.72118 2.085999 76.76018 1.032 76.83718 C .99 76.68418 .948999 76.52818 .904999 76.36618 C 1.342999 76.05118 1.769999 75.719188 2.223999 75.42418 C 5.933999 72.99218 7.943999 69.692188 7.930999 65.13118 C 7.880999 47.391183 7.851999 29.648186 7.950999 11.916183 C 7.975999 7.28418 5.651 4.515175 1.813 2.594177 C 1.209 2.293175 .561 2.077179 0 1.550179 C 2.585 1.108177 5.105 1.287178 7.627999 1.324181 C 12.106999 1.386177 16.592 1.454178 21.067999 1.324181 C 26.300999 1.17218 31.525002 .906174 36.61 2.485176 C 38.010004 2.924179 39.412 3.421173 40.709 4.096176 C 47.17 7.444176 50.224004 12.814178 49.998 20.07518 C 49.827 25.49218 47.759 30.24918 44.73 34.60118 C 43.225 36.76318 41.386999 38.69718 39.685998 40.724184 C 39.222997 41.27518 38.709 41.785184 38.017 42.53118 C 44.21 50.41318 50.271 58.26418 56.5 65.98318 C 58.722 68.73618 61.558008 70.902179 64.617008 72.73418 C 67.453 74.42818 70.45999 75.49318 73.815998 75.360179 C 74.104 75.347179 74.395 75.414188 74.684 75.46018 C 74.739 75.46718 74.783008 75.54318 74.984 75.71218 C 74.714008 75.99118 74.49799 76.37918 74.17799 76.51118 C 67.76299 79.16618 61.48 79.36718 55.398 75.50118 C 51.932 73.29818 49.051 70.47718 46.592 67.234188 C 44.502 64.48018 42.598 61.585184 40.517 58.82518 C 38.392 56.009183 36.196 53.23918 33.945 50.523183 C 31.58 47.674184 28.585 45.95518 24.779999 45.93518 C 22.363999 45.92818 19.946999 45.93518 17.314 45.93518 Z " fill="#231f20" fill-rule="evenodd"/>
<path transform="matrix(1,0,-0,1,290.27424,287.81697)" d="M 40.771799 76.58185 C 43.166799 76.252849 45.6238 76.156848 47.9488 75.560848 C 57.5128 73.10785 63.802804 66.94185 67.2918 57.846849 C 69.7668 51.407846 70.3698 44.71385 69.4748 37.887849 C 68.4928 30.39785 66.0908 23.42585 61.4268 17.407849 C 55.8658 10.232849 48.707799 6.033844 39.3938 5.874847 C 26.285799 5.651848 15.895799 12.810852 11.600799 25.19685 C 9.388799 31.57885 8.919798 38.126848 9.903798 44.777849 C 11.049798 52.559846 13.720798 59.733846 18.8898 65.77685 C 24.6078 72.46884 31.694798 76.48185 40.771799 76.58185 Z M .0818 43.158849 C .1758 36.52385 .7718 30.756848 2.5328 25.166848 C 4.9228 17.580849 9.650799 11.892845 16.6218 8.073845 C 22.4898 4.858849 28.813797 2.85585 35.354799 1.788849 C 39.730798 1.074852 44.1588 1.96685 48.4368 3.160851 C 64.8698 7.748848 76.413799 21.742848 78.4778 38.702848 C 80.9218 58.808847 67.3048 75.67985 48.0998 79.769847 C 39.1298 81.67985 30.726799 80.28985 22.7568 75.84485 C 16.1758 72.16585 10.5638 67.37585 6.1098 61.282846 C 2.0008 55.660848 -.4922 49.486848 .0818 43.158849 Z " fill="#231f20" fill-rule="evenodd"/>
<path transform="matrix(1,0,-0,1,561.7503,290.7649)" d="M .223 .694443 C 14.297 .506439 28.397999 1.556442 42.628 .00544 C 42.155 4.508438 41.312 8.904442 40.058 13.210442 L 39.527 13.210442 C 39.395 12.613441 39.245 12.015442 39.142999 11.40844 C 38.605 8.356438 36.933 6.31044 33.868 5.580437 C 32.515 5.258438 31.127999 4.933441 29.748 4.896439 C 26.073 4.795441 22.390999 4.846443 18.709 4.850441 C 18.427 4.853439 18.148999 4.940437 17.737999 5.009438 L 17.737999 33.38644 C 18.390999 33.44044 19.022 33.53744 19.651 33.53944 C 23.702 33.55344 27.751 33.49744 31.798 33.56944 C 33.543 33.60344 35.128 33.237443 36.690999 32.50244 C 38.067998 31.85844 39.503 31.34444 40.96 30.75644 C 41.279 32.54844 39.915 43.491445 39.109 45.90644 C 38.725004 45.498445 38.306 45.216444 38.114 44.82444 C 37.788 44.17244 37.536 43.46744 37.38 42.75444 C 36.804 40.11444 35.161 38.79144 32.515 38.38644 C 27.689 37.65644 22.862 37.93144 17.876 37.93844 C 17.827 38.82044 17.747 39.53044 17.747 40.24044 C 17.737999 48.19144 17.793999 56.14244 17.702 64.09044 C 17.681 65.89744 18.293999 67.261447 19.577 68.342449 C 24.521 72.50244 30.127 73.72644 36.277 71.67944 C 39.666 70.55444 42.001 68.16344 43.308 64.80944 C 43.528 64.24644 43.8 63.70144 44.078 63.085439 C 44.316999 63.29844 44.402997 63.347444 44.399999 63.38044 C 43.849 67.23144 43.326 71.08244 42.685 74.91744 C 42.619 75.31844 41.928998 75.79644 41.447999 75.90844 C 40.529 76.11844 39.552999 76.15744 38.599 76.15144 C 28.593998 76.094448 18.583 76.00744 8.575999 75.94944 C 6.807999 75.93444 5.043 76.00544 3.279 76.01444 C 2.821 76.01444 2.359 75.93144 1.862 75.53044 C 2.227 75.39144 2.582 75.19244 2.959 75.13044 C 5.587 74.681438 7.196 73.056438 7.789 70.57444 C 8.213 68.80344 8.433 66.942447 8.433 65.121448 C 8.48 46.28144 8.462 27.433438 8.462 8.591438 C 8.462 8.300438 8.461999 8.006439 8.445999 7.710442 C 8.273999 4.957443 7.421 3.892441 4.801 3.174438 C 4.022 2.960442 3.199 2.853439 2.459 2.548439 C 1.603 2.204437 .817 1.69944 0 1.261436 C .074 1.076439 .147 .886444 .223 .694443 Z " fill="#231f20" fill-rule="evenodd"/>
<path transform="matrix(1,0,-0,1,44.900209,291.31416)" d="M 20.972 40.44799 C 21.435 40.39399 21.896 40.31799 22.363 40.28199 C 24.194 40.14199 26.069 40.214994 27.847 39.840993 C 33.744 38.59299 37.718 35.013994 39.475999 29.258992 C 41.635999 22.200993 40.522005 15.539989 36.185 9.561989 C 31.922 3.68399 24.699002 1.488991 17.169 5.196991 L 17.169 7.269989 C 17.169 26.257988 17.167 45.246995 17.176 64.23099 C 17.176 65.40899 17.159 66.59499 17.295 67.76299 C 17.771 71.86399 19.83 73.93599 23.914 74.512989 C 24.567999 74.608989 25.223 74.69299 25.871 74.80599 C 25.994 74.828998 26.095002 74.98099 26.206002 75.06799 C 26.216002 75.13199 26.253 75.19699 26.234002 75.23999 C 26.209002 75.30599 26.153 75.37999 26.092 75.40599 C 25.889 75.47899 25.677 75.58499 25.472 75.58499 C 17.671 75.55799 9.873 75.52899 2.073 75.484989 C 1.73 75.48199 1.389001 75.369998 .603001 75.23099 C 1.284001 74.85199 1.589 74.61999 1.934 74.50399 C 2.56 74.29899 3.218 74.18199 3.851 73.98899 C 6.121 73.30299 7.49 71.81699 7.701 69.41599 C 7.825 68.02599 7.888 66.62599 7.888 65.23299 C 7.901 46.75699 7.835 28.286988 7.946 9.813988 C 7.969 5.757988 6.017001 3.358994 2.669001 1.69799 C 1.786001 1.259987 .855 .921989 0 .161987 C .386 .105988 .773001 -.000008 1.158001 .002991 C 10.354001 .111992 19.551999 .177994 28.744999 .386993 C 31.452 .446991 34.195 .71299 36.841 1.261993 C 43.031 2.543991 46.825 6.44799 47.986 12.63699 C 49.576 21.13599 47.491 28.744992 41.638 35.12799 C 36.476 40.76199 30.053 42.97499 22.465 41.37699 C 21.935 41.26599 21.436 41.013994 20.922 40.82899 C 20.94 40.69999 20.955 40.57399 20.972 40.44799 Z " fill="#231f20" fill-rule="evenodd"/>
<path transform="matrix(1,0,-0,1,398.393,291.2904)" d="M .132 .095741 C .478 .065742 .822 .006744 1.167 .012741 C 10.212999 .129738 19.259 .205742 28.304 .405739 C 31.015002 .467735 33.747 .686745 36.407 1.187744 C 43.092004 2.448746 47.045003 6.311737 48.144 12.96574 C 49.739004 22.61874 46.959 30.891739 39.453 37.31974 C 34.55 41.52374 28.805 42.74274 22.513 41.38674 C 22.012001 41.27774 21.551 41.00574 21.069 40.809743 C 21.103 40.64374 21.136 40.47874 21.169 40.31174 C 21.786002 40.31174 22.406 40.34174 23.02 40.29874 C 24.632 40.19674 26.28 40.232744 27.847 39.90074 C 33.82 38.633745 37.88 35.071744 39.618 29.199742 C 41.649 22.32074 40.683 15.776741 36.527 9.873741 C 32.278 3.843742 25.163 1.508743 17.334 5.154739 L 17.334 7.406738 C 17.334 26.532738 17.334 45.658746 17.342 64.784748 C 17.342 65.742748 17.358 66.702739 17.442 67.65574 C 17.799 71.73474 19.856 73.907749 23.909 74.520748 C 24.675002 74.63974 25.442 74.74274 26.095 74.83874 C 26.184 75.15774 26.232 75.23774 26.218 75.30074 C 26.197 75.35674 26.111 75.436748 26.055 75.436748 C 18.934 75.49974 11.812 75.56974 4.69 75.60574 C 3.545 75.61274 2.398 75.47974 1.16 75.04474 C 1.476 74.86674 1.771 74.630748 2.109 74.520748 C 2.733 74.311748 3.393 74.20274 4.023 73.99974 C 6.375 73.25374 7.728 71.700748 7.834 69.17774 C 7.917 67.26674 8.05 65.35974 8.053 63.44974 C 8.070001 45.79074 7.960001 28.134743 8.126 10.478745 C 8.173 5.310745 5.582 2.824745 1.764 1.270744 C 1.177 1.031746 .59 .795738 0 .559738 C .042 .405739 .085 .248741 .132 .095741 Z " fill="#231f20" fill-rule="evenodd"/>
<path transform="matrix(1,0,-0,1,97.74219,290.59645)" d="M 44.736 63.436185 C 44.122 67.439189 43.507 71.443187 42.88 75.53319 C 41.74 76.36619 40.414 76.332187 39.104 76.32318 C 32.851 76.27019 26.598 76.18018 20.347 76.15318 C 14.683001 76.13319 9.016001 76.18318 3.352001 76.19418 C 2.936001 76.19418 2.519998 76.137187 2.016998 75.815189 C 2.346998 75.64619 2.661998 75.37618 3.009998 75.32519 C 5.854999 74.90318 7.444999 73.12818 8.078999 70.47819 C 8.416999 69.06219 8.58 67.57318 8.583 66.11619 C 8.614 46.837186 8.61 27.565186 8.598 8.287186 C 8.598 5.052185 7.749999 4.040184 4.542999 3.242188 C 1.713999 2.535187 1.675 2.518188 0 .879189 C 7.404 .661186 14.498001 1.084183 21.586 1.012184 C 28.618 .936188 35.656999 1.165184 42.843 .040184 C 42.358999 4.681183 41.503 9.059189 40.281 13.358185 C 40.1 13.358185 39.919 13.355183 39.737 13.355183 C 39.607999 12.757183 39.468 12.164185 39.356 11.563187 C 38.774999 8.425186 37.001005 6.412186 33.857004 5.663185 C 33.645 5.609184 33.436 5.527191 33.22 5.490189 C 28.195002 4.548187 23.142 5.205185 17.969 4.983185 L 17.969 33.562185 C 18.655 33.616186 19.291 33.707185 19.926 33.707185 C 23.898 33.722185 27.874 33.659185 31.844 33.742185 C 33.664 33.781187 35.319 33.413187 36.949 32.643186 C 38.316 32.000185 39.75 31.496186 41.624 30.740185 C 40.91 36.149187 40.263 41.039186 39.618 45.932184 C 39.435 45.97518 39.254999 46.014184 39.072999 46.05818 C 38.719999 45.481187 38.302003 44.93318 38.027 44.319185 C 37.728 43.653184 37.533 42.936189 37.345 42.230188 C 36.818 40.230188 35.503 39.095186 33.514 38.734186 C 32.285 38.512186 31.045 38.243185 29.805 38.207185 C 26.203001 38.100187 22.597 38.100187 18.992 38.077188 C 18.716002 38.070188 18.442 38.187189 18.032 38.265188 C 17.997 39.029188 17.942 39.746187 17.941 40.468187 C 17.934 48.416185 17.980002 56.357187 17.901001 64.30518 C 17.882002 66.01318 18.496 67.248188 19.642 68.38818 C 23.906 72.61819 31.897 74.06019 37.326 71.53319 C 40.185 70.206188 42.246004 68.106189 43.436 65.16718 C 43.692 64.53419 43.976 63.911188 44.247 63.287187 C 44.411005 63.333185 44.573 63.386186 44.736 63.436185 Z " fill="#231f20" fill-rule="evenodd"/>
<path transform="matrix(1,0,-0,1,610.85586,288.86479)" d="M 37.09883 2.083862 C 37.048833 6.936859 35.97783 14.635864 34.95583 16.737866 C 34.63783 15.723866 34.421834 14.992867 34.179834 14.270866 C 32.91883 10.499863 30.799832 7.423866 27.13083 5.623863 C 22.75983 3.473862 16.83883 4.518867 13.222832 8.066864 C 9.816832 11.403862 8.807831 16.910866 10.813831 21.355866 C 12.075831 24.138867 13.876831 26.572865 16.101832 28.633866 C 19.074831 31.376866 22.198832 33.953866 25.22783 36.637868 C 27.538832 38.684869 29.96083 40.64187 32.05783 42.893869 C 33.894834 44.87087 35.60683 47.056867 36.92683 49.397867 C 40.69883 56.075868 39.957834 63.246866 35.06983 69.14186 C 30.394833 74.77087 24.235833 77.82186 17.146832 79.15886 C 14.303831 79.69686 11.437831 79.802867 8.598831 79.16586 C 7.456831 78.90987 6.29683 78.61086 5.23583 78.13786 C 1.33083 76.40587 -.417168 73.58687 .083832 69.356868 C .422832 66.521869 1.181831 63.73787 1.778831 60.935869 C 1.811831 60.774869 2.07783 60.659868 2.46183 60.334867 C 2.56883 61.057867 2.727832 61.601869 2.714832 62.138868 C 2.574832 67.81187 5.91183 73.29487 13.77383 74.61086 C 18.64283 75.42087 23.146832 74.29587 27.075833 71.229869 C 31.489832 67.78487 32.686834 62.964868 30.451832 57.843866 C 29.137833 54.841867 27.263833 52.187868 24.997832 49.861867 C 20.99183 45.759866 16.79783 41.831865 12.797831 37.718866 C 10.191831 35.035867 7.653831 32.251867 5.347832 29.307866 C 3.961832 27.538865 2.83383 25.469864 2.03183 23.365864 C -.00217 18.027863 .81383 13.105865 4.81683 8.866867 C 8.16183 5.323868 12.34683 3.244865 16.97083 2.033867 C 22.736832 .517868 28.57983 .198868 34.45483 1.439865 C 35.30783 1.618866 36.15083 1.85186 37.09883 2.083862 Z " fill="#231f20" fill-rule="evenodd"/>
<path transform="matrix(1,0,-0,1,451.62208,291.78117)" d="M .44 74.48101 C .858 74.22601 1.263 73.93801 1.704 73.72101 C 5.465 71.891017 7.217 68.78901 7.374 64.710018 C 7.439 63.09401 7.386 61.471014 7.386 59.853013 C 7.39 42.92601 7.39 25.999012 7.386 9.076012 C 7.386 8.488014 7.379 7.89801 7.386 7.311012 C 7.439 4.535011 6.149 2.686012 3.539 1.782013 C 2.372 1.377014 1.176 1.05101 0 .325012 C .426 .272011 .865 .142006 1.283 .168007 C 7.675 .643005 14.066999 .91301 20.462 .275009 C 21.51 .168007 22.551 .090004 23.6 .000008 C 23.640002 .153008 23.683 .305008 23.722 .455009 C 23.243 .667007 22.768002 .906006 22.273 1.085007 C 21.377 1.41301 20.439002 1.632011 19.574002 2.020012 C 17.809002 2.813011 16.866002 4.223007 16.76 6.167007 C 16.72 6.823006 16.720002 7.487007 16.720002 8.150009 C 16.720002 26.54601 16.711 44.94701 16.741002 63.34201 C 16.741002 64.875019 16.886 66.431018 17.152 67.94001 C 17.676 70.929019 19.596 72.710018 22.447 73.54001 C 23.474 73.83801 24.526001 74.05301 25.544 74.30201 C 25.51 74.544017 25.51 74.62101 25.491002 74.68401 C 25.471 74.74301 25.424002 74.83901 25.387001 74.83901 C 17.371003 74.91601 9.360001 74.99201 1.343 75.06201 C 1.077 75.06201 .819 74.96201 .552 74.91301 C .513 74.766017 .48 74.627017 .44 74.48101 Z " fill="#231f20" fill-rule="evenodd"/>
<path transform="matrix(1,0,-0,1,201.28388,221.62546)" d="M 5.686 -.000004 C 17.353 11.897995 28.659 24.144997 40.032 36.872999 C 40.141004 36.032999 40.262 35.572 40.256 35.110998 C 40.147 25.478997 40.042 15.841995 39.893 6.208996 C 39.847 3.236996 39.195 2.537998 36.312 1.886997 C 35.757 1.760998 35.218 1.558998 34.709 .964996 C 36.807 1.081997 38.905 1.295994 41.001 1.293995 C 43.193 1.289993 45.381 1.074997 47.574 .951996 C 47.615 1.097996 47.655004 1.246998 47.699 1.395996 C 47.309003 1.601997 46.937 1.863998 46.524003 2.012997 C 44.125005 2.891998 43.968004 3.077995 43.975004 5.704994 C 43.993005 12.252995 44.139005 18.796996 44.037004 25.344996 C 43.932004 31.958996 43.59 38.573999 43.345 45.184999 C 43.328004 45.608999 43.22 46.031 43.109 46.753999 C 42.431 46.253 41.882 45.934999 41.439 45.506998 C 36.545999 40.729997 31.506 36.089998 26.824002 31.109997 C 21.082 25.006997 15.641 18.614995 10.066 12.348995 C 9.588 11.814995 9.080999 11.304996 8.525 10.716995 C 7.746 11.449997 7.928 12.299995 7.922 13.041996 C 7.899 15.911995 7.899 18.780997 7.986 21.649996 C 8.175 27.895997 8.431 34.142999 8.639999 40.388998 C 8.744999 43.486997 9.507 44.199998 12.021 44.660997 C 13.259 44.885995 13.243999 44.975999 14.322 46.156999 C 9.442999 45.676 4.782 45.137998 0 46.212999 C .234 45.048997 1.045 44.707998 1.717 44.414999 C 4.049 43.413999 4.636 41.575998 4.593 39.240999 C 4.484 33.359998 4.382 27.474995 4.414 21.590996 C 4.45 15.194996 4.626 8.799995 4.772 2.400997 C 4.789 1.627998 4.998 .858994 5.119 .085995 C 5.308 .055996 5.497 .026997 5.686 -.000004 Z " fill="#231f20" fill-rule="evenodd"/>
<path transform="matrix(1,0,-0,1,0,379.0119)" d="M .005 .027553 L 694.796 .027553 C 694.822 .133553 694.84799 .239553 694.878 .345553 C 694.54 .485553 694.218 .714553 693.87 .747553 C 693.216 .813553 692.549 .774553 691.885 .774553 L 2.931 .774553 C 1.956 .774553 .979 .714553 0 .681553 C .002 .462553 .004 .246553 .005 .027553 Z " fill="#231f20" fill-rule="evenodd"/>
<path transform="matrix(1,0,-0,1,464.4989,220.46637)" d="M 41.99 26.023776 C 41.944 20.122776 40.428 14.679775 36.736 9.991776 C 32.42 4.512775 26.685002 2.441776 19.902003 3.689777 C 13.404002 4.890778 9.191001 8.933777 7.054001 15.116776 C 5.711001 19.010777 5.456 23.024777 6.139 27.087777 C 7.049 32.441778 9.145002 37.181776 13.111002 41.029775 C 20.921002 48.612775 34.815004 46.880777 39.844 36.077775 C 41.33 32.882776 42.026 29.539776 41.99 26.023776 Z M 0 24.394776 C .43 21.641776 .696 18.844775 1.326 16.138775 C 2.5 11.080776 5.409002 7.199776 10.013002 4.741776 C 14.060002 2.578773 18.345002 .906773 22.996003 .903774 C 34.298006 .889774 44.249 8.986774 46.714 20.029776 C 50.691 37.851778 36.172 49.103776 22.406002 48.158777 C 21.676003 48.108777 20.940003 47.982778 20.233002 47.796777 C 11.947001 45.637777 5.794002 40.731775 1.761002 33.214776 C .295002 30.481776 .006 28.112776 0 24.394776 Z " fill="#231f20" fill-rule="evenodd"/>
<path transform="matrix(1,0,-0,1,44.8024,280.1679)" d="M 0 .029742 L 603.77 .029742 C 603.80307 .126742 603.833 .218742 603.862 .308742 C 603.551 .454742 603.245 .689742 602.921 .733742 C 602.33706 .802742 601.74307 .759742 601.155 .759742 C 401.68104 .759742 202.209 .759742 2.738 .756742 C 1.828 .756742 .915 .729742 .004 .716742 L 0 .029742 Z " fill="#231f20" fill-rule="evenodd"/>
<path transform="matrix(1,0,-0,1,377.47499,220.71979)" d="M 30.842 1.966652 L 43.798 1.966652 C 43.838 2.082653 43.875 2.201653 43.911 2.318653 C 43.646 2.477654 43.388 2.656654 43.109 2.796654 C 41.062 3.834652 40.136999 5.506653 40.142999 7.788654 C 40.17 14.780655 40.223 21.773653 40.11 28.758654 C 40.077 31.014655 39.837999 33.339654 39.227998 35.499658 C 36.572999 44.943658 27.388998 49.971654 17.968998 47.284654 C 13.805998 46.090654 10.362998 43.798654 7.728998 40.35565 C 6.043998 38.166654 4.769999 35.774656 4.716999 32.921655 C 4.600999 26.745654 4.484999 20.569653 4.404999 14.389652 C 4.371999 12.183651 4.367998 9.973656 4.471998 7.768654 C 4.586998 5.303654 3.578999 3.678654 1.230999 2.885654 C .781999 2.733654 .351 2.537655 0 2.052654 L 14.323 2.052654 C 13.885 2.544655 13.685999 2.895653 13.387999 3.084652 C 11.114999 4.550652 10.016999 6.404655 10.087999 9.307655 C 10.263 16.883656 10.058 24.466654 10.070999 32.039655 C 10.072999 33.495656 10.259999 34.978654 10.580999 36.401659 C 11.032999 38.371656 12.143999 40.013654 13.552999 41.476655 C 18.91 47.02965 32.388 46.780656 35.416 36.013658 C 35.864004 34.410657 35.931 32.666654 35.931 30.991654 C 35.927 23.261654 35.833997 15.540653 35.774999 7.815655 C 35.747999 4.467655 35.001 3.472652 31.744 2.417652 C 31.564999 2.361652 31.405999 2.248653 30.842 1.966652 Z " fill="#231f20" fill-rule="evenodd"/>
<path transform="matrix(1,0,-0,1,336.74525,221.76447)" d="M 15.964379 3.860989 C 12.461379 3.860989 9.224379 3.840988 5.990379 3.870987 C 4.335379 3.884987 3.036379 4.693989 2.005379 5.93399 C 1.446379 6.60799 .957379 7.34399 .197379 8.381989 C -.515621 5.217987 .881379 2.759987 1.560379 -.000011 C 6.483378 1.834988 11.493379 .87199 16.432379 1.01199 C 21.65638 1.15699 26.884379 1.077988 32.10938 1.021988 C 33.84338 1.007988 35.577379 .752987 37.51938 .583988 C 37.51938 3.343987 37.81138 6.003986 36.78938 8.620987 C 36.583379 8.511986 36.48438 8.491989 36.47138 8.442989 C 35.43638 4.856991 32.73538 3.787991 29.37238 3.75499 C 26.950379 3.731991 24.53238 3.74799 21.88238 3.74799 C 21.828379 4.604988 21.74638 5.303989 21.74638 6.00399 C 21.73538 16.82399 21.773379 27.640992 21.720379 38.46199 C 21.70238 41.90499 23.09038 44.24299 26.390379 45.36799 C 26.572379 45.426988 26.72238 45.59299 27.02438 45.80899 L 12.375379 45.80899 C 12.349379 45.72199 12.322379 45.635988 12.295379 45.549989 C 12.727379 45.377988 13.142379 45.16199 13.583379 45.03199 C 15.318378 44.53499 16.117379 43.376989 16.071379 41.598989 C 16.061379 41.231988 16.09738 40.862989 16.09738 40.494989 C 16.09738 28.937989 16.09738 17.381989 16.09138 5.827988 C 16.09138 5.253986 16.01838 4.686989 15.964379 3.860989 Z " fill="#231f20" fill-rule="evenodd"/>
<path transform="matrix(1,0,-0,1,424.3307,221.55927)" d="M 16.105504 4.115997 C 12.559504 4.115997 9.116502 4.069996 5.673502 4.135998 C 4.180502 4.162998 3.069502 5.071995 2.147502 6.172997 C 1.584502 6.835995 1.098502 7.568996 .478502 8.410995 C -.496498 6.908997 .276502 5.532997 .545502 4.205997 C .823502 2.855999 1.341503 1.558998 1.825503 -.000004 C 4.277503 1.528996 6.868503 1.239998 9.418503 1.242996 C 16.553503 1.256996 23.691504 1.276997 30.830504 1.233997 C 33.012506 1.219997 35.195505 1.004997 37.377504 .878998 C 37.9215 3.190998 37.703504 6.846001 36.9005 8.792999 C 36.787504 8.716999 36.5945 8.660995 36.564504 8.560997 C 35.6995 5.498997 33.523504 4.141998 30.510502 4.046997 C 27.739502 3.952995 24.959502 4.026997 21.930502 4.026997 L 21.930502 6.563995 C 21.930502 16.786995 22.040503 27.016999 21.874503 37.240999 C 21.814503 41.323999 22.687504 44.514997 26.928503 46.007997 L 12.592503 46.007997 C 12.549502 45.930997 12.509502 45.854997 12.466502 45.778997 C 12.930502 45.582998 13.378503 45.363996 13.849503 45.207998 C 15.445502 44.684 16.254504 43.598997 16.258503 41.916997 C 16.258503 41.771997 16.274502 41.621995 16.274502 41.472997 C 16.281502 29.335995 16.285502 17.198998 16.281502 5.057999 C 16.281502 4.845997 16.209504 4.636997 16.105504 4.115997 Z " fill="#231f20" fill-rule="evenodd"/>
<path transform="matrix(1,0,-0,1,278.28303,221.68155)" d="M 1.833261 .000004 C 3.808261 1.191002 6.010261 1.138 8.220261 1.135002 C 15.06426 1.118004 21.911263 1.151005 28.756262 1.115005 C 31.536263 1.098007 34.31326 .952003 37.39626 .856003 C 37.468259 3.340004 37.642259 6.004005 36.78526 9.020004 C 36.413259 8.319004 36.165258 7.938007 36.00226 7.517006 C 35.239259 5.543007 33.771265 4.326004 31.726262 4.150005 C 28.523262 3.878006 25.299263 3.858006 21.856263 3.715004 C 21.808262 4.876003 21.738263 5.729004 21.738263 6.584003 C 21.732262 16.960003 21.823262 27.343005 21.687262 37.715005 C 21.639262 41.656007 22.84826 44.465005 26.764262 46.048006 C 24.35526 45.932004 21.94926 45.772008 19.53926 45.712007 C 17.163262 45.656007 14.784261 45.703004 12.098261 45.703004 C 12.824261 45.414 13.31626 45.188005 13.82826 45.016004 C 15.253261 44.535005 15.957261 43.513 16.063261 42.051004 C 16.111262 41.391004 16.124262 40.727006 16.124262 40.067007 C 16.128262 28.732007 16.128262 17.398003 16.128262 6.057003 L 16.128262 4.176003 C 15.437262 4.081001 14.886261 3.941006 14.333261 3.934006 C 12.05226 3.904007 9.764261 4.030003 7.488261 3.891003 C 4.609262 3.722004 2.503261 4.823002 1.032261 7.258003 C .879261 7.506004 .702261 7.739002 .524261 7.968002 C .484261 8.021004 .396261 8.034004 .328261 8.067005 C -.437739 6.521004 .166261 3.205002 1.833261 .000004 Z " fill="#231f20" fill-rule="evenodd"/>
<path transform="matrix(1,0,-0,1,251.97823,220.40671)" d="M 22.327565 1.732353 C 22.002564 4.658352 21.699564 7.391354 21.393565 10.128353 C 21.249566 10.145351 21.107563 10.158356 20.963564 10.168354 C 20.631564 9.391354 20.317564 8.608356 19.961564 7.839355 C 18.169564 4.004356 14.459564 2.353355 10.666564 3.693356 C 6.621564 5.122356 4.753564 9.468353 6.521564 13.395355 C 7.543564 15.661354 9.207564 17.425354 11.048564 19.034354 C 13.158564 20.869355 15.382565 22.580353 17.396565 24.510354 C 18.979565 26.027354 20.535563 27.649353 21.725564 29.473353 C 24.588562 33.858354 24.155564 38.628355 20.626564 42.456354 C 16.753565 46.65935 11.859564 48.51335 6.168563 48.191354 C 5.233563 48.138357 4.280564 47.863355 3.400564 47.518354 C .865564 46.526353 -.206436 44.924356 .032564 42.233354 C .186564 40.502355 .654563 38.800355 1.314563 37.083356 C 1.420563 37.471357 1.564564 37.862356 1.622564 38.260354 C 2.321564 42.884355 5.170564 45.418355 9.860564 45.435354 C 12.116564 45.438356 14.216564 44.77135 16.038565 43.38835 C 18.873566 41.23835 19.735566 38.147356 18.070565 34.99935 C 17.085564 33.135354 15.781564 31.390355 14.362564 29.828354 C 12.340564 27.599354 10.030563 25.632353 7.938564 23.462353 C 6.205564 21.665352 4.473563 19.840353 3.002563 17.830353 C 2.027563 16.500353 1.322564 14.888351 .833564 13.295353 C .047564 10.732353 .735563 8.357353 2.457563 6.300354 C 2.878563 5.795353 3.335565 5.298355 3.860565 4.904354 C 9.376564 .694355 15.534564 .286354 22.327565 1.732353 Z " fill="#231f20" fill-rule="evenodd"/>
<path transform="matrix(1,0,-0,1,183.0653,222.91547)" d="M 14.116 -.000011 C 13.292 .324989 12.862 .527988 12.408 .66399 C 10.588 1.200989 9.837001 2.460987 9.839001 4.298988 C 9.849001 15.62999 9.801001 26.964987 9.870001 38.294988 C 9.891001 41.758989 11.036 43.56599 14.333 44.12399 C 14.489 44.153989 14.618 44.355989 15.012 44.68799 L .225 44.68799 C .466 44.38599 .554 44.166994 .71 44.09399 C 3.471 42.77099 4.279 40.454988 4.266 37.56299 C 4.216 26.891989 4.249 16.22399 4.246 5.55299 C 4.242 1.916988 4.084001 1.694988 .713 .417988 C .528 .351986 .365 .221989 0 -.000011 L 14.116 -.000011 Z " fill="#231f20" fill-rule="evenodd"/>
<path transform="matrix(1,0,-0,1,318.38343,222.91544)" d="M 0 0 L 14.233 0 C 13.542 .294998 13.057 .541 12.55 .713001 C 10.941 1.254002 10.198001 2.402 10.178 4.047001 C 10.155001 5.742001 10.167 7.434002 10.167 9.122002 C 10.165 18.251002 10.165 27.379 10.167 36.501 C 10.167 37.095 10.133 37.686 10.177 38.269 C 10.391 41.211004 10.739 43.414 14.842 44.164 C 14.96 44.187 15.051001 44.346 15.373 44.638 L .455 44.638 C .828 44.316 .995 44.100999 1.215 43.988 C 3.773 42.697 4.623 40.508 4.611 37.794 C 4.584 31.614998 4.602 25.432002 4.602 19.252 C 4.602 14.615002 4.607 9.978001 4.601 5.34 C 4.597 2.067001 4.271 1.605003 1.252 .511002 C .992 .418003 .741 .305 0 0 Z " fill="#231f20" fill-rule="evenodd"/>
<path transform="matrix(1,0,-0,1,380.036,393.46406)" d="M 5.784 11.554897 C 6.979 11.554897 7.987 11.604897 8.982 11.540896 C 10.031 11.467896 10.701 10.831897 11.152 9.902897 C 12.107 7.949897 11.703 4.667898 10.283 3.026897 C 9.036 1.590897 7.612 1.284897 5.784 2.107897 L 5.784 11.554897 Z M 5.802 13.591897 C 5.802 15.680897 5.808 17.787898 5.799 19.893897 C 5.795 21.317896 7.151999 21.174897 8.000999 21.691897 C 6.501999 22.341897 3.258 22.374897 .544 21.707898 C 2.083 21.250897 2.508 20.361897 2.495 19.101897 C 2.451 13.806896 2.481 8.512897 2.469 3.221897 C 2.469 2.790897 2.365 2.356895 2.289 1.785896 C 1.675 1.503897 1.042 1.215897 0 .737896 C .869 .578896 1.326 .415897 1.788 .422897 C 4.429 .442898 7.084999 .323896 9.705999 .591896 C 14.171 1.042896 16.127999 4.717896 14.146999 8.741897 C 13.539999 9.975897 12.651 11.073897 11.782 12.400897 C 14.695 15.799897 16.546002 20.384898 21.79 21.847897 C 19.720002 22.997897 17.832999 22.925898 16.092 21.764897 C 15.012999 21.048897 14.091 20.053898 13.240999 19.058897 C 12.242999 17.887898 11.43 16.560898 10.482 15.346897 C 9.036 13.501897 8.434999 13.288897 5.802 13.591897 Z " fill="#231f20" fill-rule="evenodd"/>
<path transform="matrix(1,0,-0,1,343.16139,393.6054)" d="M 5.203 1.913542 L 5.203 10.508542 C 5.203 12.939542 5.163 15.367542 5.224 17.792542 C 5.269 19.680542 5.688 20.114542 7.486 20.445542 C 9.801001 20.87354 12.03 20.541543 14.153 19.567542 C 16.219 18.621542 17.609 17.006543 18.153 14.836542 C 19.105 11.061543 18.694 7.435543 15.851 4.557543 C 12.985 1.654543 9.396 1.008541 5.203 1.913542 Z M .42 21.570542 C 2.058 20.084542 2.07 20.084542 2.074 17.885542 C 2.082 13.251543 2.026 8.613542 2.103 3.976542 C 2.13 2.314541 2.024 .901543 0 .317543 C .227 .235542 .45 .086542 .675 .082542 C 3.911 .059542 7.143001 .029541 10.378 .052542 C 14.504 .079542 17.748002 1.946543 20.187 5.141542 C 20.946002 6.136542 21.43 7.510542 21.57 8.763542 C 21.755 10.418542 21.696 12.173542 21.369999 13.809542 C 20.497 18.170542 17.678 20.804543 13.38 21.612542 C 11.094 22.041543 8.706 22.011542 6.361 22.011542 C 4.457 22.00554 2.555 21.739542 .42 21.570542 Z " fill="#231f20" fill-rule="evenodd"/>
<path transform="matrix(1,0,-0,1,426.02333,393.26948)" d="M 20.115 22.686005 C 14.077999 17.658005 9.347 11.879004 3.844 6.528004 C 3.818 7.423004 3.752 8.330004 3.775 9.225004 C 3.848 12.091004 4.017001 14.957005 4.02 17.827004 C 4.024001 19.637005 4.127 21.256005 6.542 21.618004 C 5.172 22.189005 2.972 22.301005 0 22.029006 C .568 21.352005 1.344 20.775006 1.622 20.012005 C 1.911 19.226006 1.725 18.267006 1.725 17.388005 C 1.728 12.532005 1.719 7.676004 1.739 2.823004 C 1.742 2.074003 1.894 1.324003 2.041 .000004 C 7.843 5.696003 12.886999 11.285005 18.303999 17.070004 C 18.383999 16.231005 18.476 15.769005 18.469 15.309005 C 18.404 11.783005 18.248002 8.249004 18.267 4.724005 C 18.278 3.029005 18.057999 1.669004 16.008999 1.238005 C 18.067999 .677004 20.042 .853004 22.623 .913004 C 20.088999 2.295004 20.724999 4.266005 20.682 6.047005 C 20.573 10.970005 20.493 15.893004 20.387 20.815005 C 20.373999 21.293005 20.251 21.767004 20.115 22.686005 Z " fill="#231f20" fill-rule="evenodd"/>
<path transform="matrix(1,0,-0,1,235.44513,392.87809)" d="M 5.412 11.736585 C 9.422001 12.986585 11.414001 11.526585 11.301001 7.563584 C 11.259001 6.053585 10.849 4.664585 9.819 3.516584 C 8.603001 2.162584 7.357 1.911583 5.412 2.636583 L 5.412 11.736585 Z M 21.636002 22.347584 C 19.146002 23.660584 17.123002 23.452584 15.287001 22.082585 C 14.300001 21.345585 13.471 20.370585 12.681 19.415585 C 11.745999 18.283585 10.916 17.059586 10.064 15.859585 C 8.913 14.243585 7.412 13.623585 5.223 14.219584 C 5.223 15.710585 5.201 17.239584 5.228 18.764584 C 5.257 20.440585 5.424 22.045586 7.882 22.185585 C 6.123 22.977585 2.417 22.961585 .327 22.235585 C 1.43 21.826584 2.111 21.302584 2.095 20.035584 C 2.023 14.439584 2.06 8.850584 2.047 3.255585 C 2.047 2.968584 1.947 2.680586 1.888 2.355585 C 1.25 2.053585 .626 1.755585 0 1.460585 C 3.683 1.041584 7.344 .431583 10.913 1.507584 C 14.001 2.441584 15.361001 5.543585 14.064001 8.617584 C 13.417001 10.150584 12.384001 11.517585 11.447001 13.092585 C 14.408001 16.350584 16.108002 21.087584 21.636002 22.347584 Z " fill="#231f20" fill-rule="evenodd"/>
<path transform="matrix(1,0,-0,1,288.90589,392.92103)" d="M 7.145 12.555007 L 11.565001 12.555007 C 10.842001 10.389008 10.17 8.383007 9.497 6.373007 C 9.363999 6.393007 9.235 6.409006 9.101 6.429007 C 8.465 8.420007 7.83 10.410007 7.145 12.555007 Z M 20.536 22.464009 L 14.509 22.464009 C 15.146 19.479008 12.895 17.286007 12.415 14.487007 L 6.414 14.487007 C 5.829 16.293007 5.205 18.156006 4.618 20.027009 C 4.304 21.018008 4.417 21.873007 5.526 22.488007 L 0 22.488007 C 1.797 21.439007 2.342 19.655007 2.972 17.903008 C 4.837 12.725007 6.728 7.557007 8.62 2.393007 C 8.863 1.729008 9.175 1.092007 9.651 .000008 C 10.273 1.281008 10.731 2.104008 11.075 2.963007 C 13.145 8.141006 15.198 13.326008 17.232 18.513009 C 17.883 20.178008 18.633999 21.714009 20.536 22.464009 Z " fill="#231f20" fill-rule="evenodd"/>
<path transform="matrix(1,0,-0,1,212.87091,392.9849)" d="M 11.598 12.494993 C 10.868999 10.331993 10.197 8.334993 9.523 6.338993 C 9.394 6.358994 9.263 6.367994 9.129999 6.385994 C 8.488999 8.364994 7.845 10.346993 7.148 12.494993 L 11.598 12.494993 Z M 20.498 22.429993 L 14.638 22.429993 C 14.580999 21.580994 14.688 20.747994 14.450999 20.024994 C 13.830999 18.153994 13.061 16.328993 12.316 14.405993 L 6.437 14.405993 C 5.865 16.137993 5.291999 17.871994 4.717999 19.602993 C 4.357999 20.704993 4.217999 21.731993 5.544 22.442994 L 0 22.442994 C 1.653 21.421994 2.294 19.839993 2.884 18.203993 C 4.775 12.962994 6.689 7.724992 8.601 2.486992 C 8.845 1.816992 9.14 1.163992 9.618 -.000008 C 10.205 1.120993 10.648 1.813993 10.95 2.559994 C 13.139 8.007994 15.301999 13.463993 17.47 18.913994 C 18.053 20.383994 18.706 21.781994 20.694 21.904994 C 20.627 22.080994 20.560999 22.256995 20.498 22.429993 Z " fill="#231f20" fill-rule="evenodd"/>
<path transform="matrix(1,0,-0,1,472.8974,392.77693)" d="M 9.569 6.553566 C 9.437 6.546566 9.307 6.536566 9.177 6.530565 C 8.535 8.516565 7.894 10.504565 7.191 12.683565 L 11.646 12.683565 C 10.91 10.510565 10.239 8.533566 9.569 6.553566 Z M 0 22.631566 C 1.669 21.679566 2.286 20.129567 2.859 18.551566 C 4.789 13.237566 6.72 7.922565 8.661 2.612566 C 8.906 1.952566 9.215 1.315565 9.702001 .170565 C 10.292001 1.366564 10.71 2.091564 11.019 2.867565 C 13.212 8.317565 15.393001 13.768566 17.547 19.238566 C 18.11 20.667567 18.851 21.864565 20.705 22.159565 C 19.229 22.816565 16.468 22.935566 14.471001 22.532567 C 15.029 21.108567 14.398001 18.889565 12.182 14.587565 L 6.471 14.587565 C 5.834 16.593565 5.144 18.657567 4.537 20.749566 C 4.335 21.440566 4.434 21.466565 5.619 22.631566 L 0 22.631566 Z " fill="#231f20" fill-rule="evenodd"/>
<path transform="matrix(1,0,-0,1,402.851,392.81483)" d="M 11.925 12.648535 C 11.185 10.495535 10.508 8.519534 9.831 6.538534 C 9.696 6.542534 9.56 6.548534 9.427 6.555534 C 8.79 8.526534 8.156 10.495535 7.463 12.648535 L 11.925 12.648535 Z M 12.587 14.539535 L 6.746 14.539535 C 6.119 16.505536 5.487 18.513535 4.836 20.516535 C 4.511 21.522536 5.002 22.045535 6.199 22.251536 C 4.604 22.812535 2.223 22.828536 0 22.351536 C 1.85 21.668536 2.494001 20.228535 3.051001 18.695536 C 5.002001 13.309535 6.969 7.928535 8.943 2.550535 C 9.184999 1.894535 9.496 1.267536 9.991 .136536 C 10.574 1.340536 10.989 2.077534 11.297 2.853535 C 13.46 8.236534 15.599001 13.627535 17.742 19.016535 C 18.326 20.486535 18.966 21.889534 20.917 22.088536 C 20.855 22.231535 20.794 22.375535 20.735 22.513535 L 15.006001 22.513535 C 14.906 21.691534 14.940001 20.746535 14.657001 19.903536 C 14.057 18.101536 13.298 16.353535 12.587 14.539535 Z " fill="#231f20" fill-rule="evenodd"/>
<path transform="matrix(1,0,-0,1,258.23139,393.00804)" d="M 11.59 12.467995 C 10.865 10.351995 10.198 8.417995 9.534 6.477995 C 9.378 6.481995 9.22 6.481995 9.064 6.484995 C 8.427 8.428995 7.792 10.378995 7.114 12.467995 L 11.59 12.467995 Z M 14.587 22.332995 C 14.587 21.659995 14.755 20.956995 14.557 20.383996 C 13.867001 18.369996 13.055 16.399994 12.265 14.352995 L 6.404 14.352995 C 5.772 16.346995 5.034 18.405995 4.508 20.518994 C 4.384 21.019995 4.977 21.696995 5.275 22.369996 L 0 22.369996 C 1.634 21.401995 2.23 19.835995 2.805 18.239995 C 4.674 13.055994 6.56 7.873995 8.45 2.696995 C 8.726 1.943995 9.064 1.213995 9.57 -.000006 C 10.172 1.147995 10.667 1.904995 10.993 2.729996 C 12.701 7.034996 14.362999 11.357994 16.057 15.665995 C 16.486 16.760994 17.002 17.821995 17.429 18.916995 C 18.015002 20.409995 18.757 21.726994 20.679 21.914994 C 20.617 22.055994 20.558 22.194994 20.498002 22.332995 L 14.587 22.332995 Z " fill="#231f20" fill-rule="evenodd"/>
<path transform="matrix(1,0,-0,1,450.45027,393.21339)" d="M 19.716317 17.079964 C 19.716317 17.725964 19.779314 18.383963 19.709315 19.022963 C 19.445315 21.425963 19.000317 21.865963 16.585316 22.098963 C 14.833316 22.266964 13.076316 22.489964 11.318316 22.492964 C 3.224316 22.509964 -1.690686 15.941963 .537314 8.162963 C 2.049314 2.891964 5.191315 .451963 10.999315 .082964 C 11.875316 .029964 12.767315 .016964 13.636315 .119965 C 15.590315 .360964 17.528317 .680965 19.716317 1.001965 C 19.511317 2.938965 19.315316 4.703964 19.122315 6.471964 C 18.970314 6.490963 18.818316 6.511963 18.668316 6.527963 C 18.456316 6.130962 18.200316 5.744963 18.037316 5.330963 C 17.212315 3.237963 15.683315 2.039965 13.500316 1.575964 C 8.598316 .520964 4.126316 3.539963 3.274316 8.500962 C 2.421316 13.476962 5.095315 18.545964 9.576315 20.445963 C 13.478315 22.100964 16.329316 21.219964 18.595316 17.672963 C 18.775317 17.397963 19.030316 17.165963 19.249316 16.913964 C 19.404316 16.967965 19.564316 17.022963 19.716317 17.079964 Z " fill="#231f20" fill-rule="evenodd"/>
<path transform="matrix(1,0,-0,1,365.62629,393.265)" d="M 11.805 4.609415 C 10.064 1.862415 9.5 1.676414 5.632 2.313414 L 5.632 9.561415 C 7.776 9.929415 9.845 9.791414 12.21 9.084414 C 12.004 10.706414 11.828001 12.079414 11.657001 13.452415 C 11.536 13.542415 11.424001 13.634414 11.305 13.720414 C 10.190001 10.838414 7.967 11.336414 5.574 11.495415 C 5.574 13.993415 5.506001 16.397416 5.625 18.796416 C 5.653 19.316414 6.223 19.973416 6.72 20.281414 C 8.687 21.500414 10.927001 20.895415 12.221001 18.912415 C 12.367001 18.689415 12.533001 18.474415 13.063001 18.364415 C 12.904 19.519415 12.744 20.676415 12.592 21.775416 C 10.701 22.378415 4.389 22.451415 .531 21.901415 C 2.382 21.104414 2.421 19.691416 2.415 18.221415 C 2.392 13.806416 2.36 9.395415 2.432 4.980415 C 2.461 3.159416 2.584 1.421413 0 .923414 C 1.755 .330414 8.559 .177414 12.609 .554415 C 12.369 1.769415 12.134001 2.963415 11.805 4.609415 Z " fill="#231f20" fill-rule="evenodd"/>
<path transform="matrix(1,0,-0,1,200.5279,393.50904)" d="M 5.588 2.069492 C 5.855 8.345492 5.206 14.578494 5.983 20.731495 C 6.812 21.016495 7.422 21.229495 8.129 21.474495 C 6.614 22.144494 2.898 22.197493 .63 21.560492 C 2.314 21.116494 2.538 20.017493 2.523 18.647492 C 2.468 13.580492 2.505 8.510492 2.495 3.443493 C 2.493 2.865494 2.414 2.281492 2.367 1.687492 C 1.667 1.349493 1.03 1.048494 0 .553493 C .778 .378494 1.156 .221493 1.53 .228493 C 4.389999 .285492 7.267999 .188494 10.101999 .497494 C 13.417999 .858494 14.758 2.773493 14.486 6.136493 C 14.244 9.131493 12.129 11.669493 9.325 12.276493 C 8.323 12.498493 7.304 12.640493 6.064 11.590493 C 6.979 11.429493 7.565 11.327493 8.155 11.231493 C 10.285 10.876493 11.548 9.536492 11.738 7.400493 C 11.88 5.798492 11.508 4.328493 10.51 3.054493 C 9.281 1.489492 7.911 1.183493 5.588 2.069492 Z " fill="#231f20" fill-rule="evenodd"/>
<path transform="matrix(1,0,-0,1,318.4068,393.56584)" d="M 13.9 17.832007 C 13.787 19.050007 13.674 20.260006 13.546 21.656006 L .493 21.656006 C 1.788 20.933007 2.198999 19.955006 2.193999 18.733006 C 2.168999 13.363007 2.178999 7.997007 2.162999 2.630007 C 2.162999 2.342007 2.067 2.056007 1.993 1.661007 C 1.373 1.379007 .728 1.091007 0 .766006 C 1.444 .096006 4.98 .000008 7.5 .623007 C 5.427999 1.058006 5.242 2.331005 5.264999 3.847006 C 5.323999 7.964006 5.290999 12.084005 5.282 16.203007 C 5.279 17.888007 5.462 19.483006 7.268 20.263007 C 8.849999 20.953007 10.882999 20.405007 12.285 18.943007 C 12.679 18.532006 13.039 18.090006 13.415999 17.666007 C 13.577999 17.723006 13.738999 17.775006 13.9 17.832007 Z " fill="#231f20" fill-rule="evenodd"/>
<path transform="matrix(1,0,-0,1,333.41084,393.92323)" d="M .646 -.000006 L 7.235 -.000006 C 6.616 .616995 5.908 1.044994 5.646 1.661995 C 5.379 2.291994 5.535 3.104994 5.533 3.840994 C 5.528 8.103994 5.53 12.362994 5.53 16.624995 C 5.53 16.992995 5.525 17.357995 5.535 17.726994 C 5.598 20.020995 5.721 20.214995 8.033 21.302994 L 0 21.302994 C .687 20.459994 2.127 20.611994 2.18 19.341994 C 2.223 18.393994 2.369 17.443995 2.374 16.498995 C 2.394 12.239995 2.352 7.974995 2.399 3.714994 C 2.415 2.198994 2.452 .766994 .646 -.000006 Z " fill="#231f20" fill-rule="evenodd"/>
<path transform="matrix(1,0,-0,1,461.76649,417.93205)" d="M 2.678523 -.000001 C 3.514523 3.896999 2.735523 6.186999 .273523 7.168999 C -.439477 6.315999 .426523 5.977998 .778523 5.416998 C 1.146523 4.828999 1.301523 4.105999 1.580523 3.369998 C .960523 3.113998 .512523 2.935999 .065523 2.753999 L .065523 -.000001 L 2.678523 -.000001 Z " fill="#231f20" fill-rule="evenodd"/>
<path transform="matrix(1,0,-0,1,315.4826,149.42975)" d="M 0 11.618 C 0 9.384998 .307 7.548 .919 6.103001 C 1.533 4.66 2.396 3.500999 3.512 2.625 C 4.626 1.749001 5.982 1.138 7.58 .788002 C 9.18 .438004 10.960999 .262001 12.929 .262001 L 21.07 .262001 C 22.733 .262001 24.415999 .239998 26.123 .197998 C 27.83 .153 29.536 .088001 31.243 0 C 31.374 0 31.451 .063999 31.473 .197998 C 31.494 .327999 31.439999 .416 31.31 .459 C 30.741 .59 30.15 .799 29.536 1.081001 C 28.924 1.368 28.377 1.716999 27.896 2.133999 C 27.416 2.550999 27.008999 3.031002 26.681 3.576 C 26.353 4.124001 26.19 4.723999 26.19 5.382 L 26.19 41.809999 C 26.19 42.86 26.21 43.746999 26.254 44.468 C 26.299 45.189 26.451 45.804 26.713 46.306 C 26.977999 46.81 27.416 47.214 28.027 47.521 C 28.639 47.828 29.493 48.068 30.585 48.242 C 30.716 48.287 30.772999 48.385999 30.751 48.538 C 30.729 48.69 30.653 48.768 30.521 48.768 C 29.515 48.81 28.508 48.832 27.501 48.832 L 24.483 48.832 L 14.44 48.832 C 14.306999 48.832 14.243 48.746999 14.243 48.571 C 14.243 48.397 14.306999 48.309003 14.44 48.309003 C 16.539999 48.221 18.026999 47.729 18.904 46.832 C 19.779999 45.934003 20.215 44.457 20.215 42.401 L 20.215 3.216 C 18.554 2.515999 16.979 2.166 15.491 2.166 C 13.872 2.166 12.417 2.536999 11.124 3.281998 C 9.834 4.024998 8.742 4.999001 7.844 6.201 C 6.946 7.406002 6.269 8.752003 5.809 10.240002 C 5.349 11.727001 5.12 13.215 5.12 14.702 C 5.12 16.367 5.371 17.897 5.873 19.296 C 6.378 20.699 7.099 21.9 8.039 22.907 C 8.981999 23.914 10.13 24.691 11.487 25.236 C 12.844001 25.784 14.374999 26.057999 16.081 26.057999 L 16.869 26.057999 C 17.088 26.057999 17.328001 26.035 17.59 25.992 C 17.72 25.949002 17.798 26.012999 17.82 26.189 C 17.843 26.362999 17.788 26.472 17.656 26.517 C 16.342001 26.868 15.073999 27.041 13.848 27.041 C 11.835999 27.041 9.989 26.593 8.304 25.695 C 6.619 24.801 5.163 23.628 3.937 22.186 C 2.713 20.741002 1.749 19.098 1.05 17.261 C .35 15.424 0 13.542999 0 11.618 Z " fill="#3d7eb8"/>
<path transform="matrix(1,0,-0,1,346.96083,149.42984)" d="M 30.427458 17.261002 C 29.727458 19.098002 28.764458 20.741002 27.540459 22.186 C 26.314459 23.628 24.859459 24.801003 23.173459 25.695002 C 21.489459 26.593003 19.639458 27.041 17.629458 27.041 C 16.403458 27.041 15.134458 26.867003 13.821458 26.517003 C 13.689458 26.472002 13.633459 26.363003 13.656459 26.189003 C 13.678459 26.013003 13.755458 25.949002 13.887458 25.992 C 14.149458 26.034 14.389459 26.058003 14.608459 26.058003 L 15.396459 26.058003 C 17.103459 26.058003 18.634459 25.783003 19.989459 25.236002 C 21.346459 24.691002 22.495459 23.914002 23.43846 22.907002 C 24.377459 21.900002 25.099459 20.699002 25.604458 19.296002 C 26.106459 17.897002 26.357459 16.366005 26.357459 14.702003 C 26.357459 13.215004 26.127457 11.727001 25.667458 10.240002 C 25.208458 8.752003 24.530459 7.406002 23.63346 6.201 C 22.735459 4.999001 21.64346 4.025002 20.353459 3.282001 C 19.06046 2.537003 17.60546 2.166 15.987459 2.166 C 14.499459 2.166 12.923458 2.516003 11.261458 3.216003 L 11.261458 42.401 C 11.261458 44.457 11.697458 45.934003 12.573459 46.832 C 13.448459 47.729 14.936458 48.22 17.035458 48.309003 C 17.169459 48.309003 17.234459 48.397 17.234459 48.571 C 17.234459 48.747 17.169459 48.832 17.035458 48.832 L 6.993459 48.832 L 3.976458 48.832 C 2.968458 48.832 1.962458 48.81 .955458 48.768 C .824458 48.768 .746459 48.690004 .725459 48.538003 C .704459 48.386 .760459 48.287004 .891459 48.242006 C 1.984459 48.068 2.838458 47.828004 3.449458 47.521005 C 4.062458 47.214 4.499459 46.81 4.764459 46.305 C 5.026459 45.803 5.178458 45.189004 5.223458 44.468004 C 5.266459 43.747 5.286458 42.86 5.286458 41.81 L 5.286458 5.382004 C 5.286458 4.724003 5.124458 4.124001 4.796458 3.576 C 4.466458 3.031002 4.062459 2.551003 3.580458 2.134003 C 3.100458 1.717003 2.551458 1.367001 1.941458 1.081001 C 1.327458 .799 .736458 .59 .167458 .459 C .036458 .416 -.016542 .328003 .004458 .198002 C .026458 .064003 .103458 0 .234458 0 C 1.941458 .088001 3.647459 .153004 5.354459 .198002 C 7.060459 .240002 8.743458 .261002 10.407458 .261002 L 18.547459 .261002 C 20.516459 .261002 22.29646 .438004 23.897459 .788002 C 25.49346 1.137001 26.852459 1.749001 27.964459 2.625 C 29.080458 3.500999 29.943459 4.66 30.558459 6.103001 C 31.169459 7.548 31.47646 9.384998 31.47646 11.618 C 31.47646 13.542999 31.127459 15.424 30.427458 17.261002 Z " fill="#ed145a"/>
</g>
</svg>
